<svg id="svg" version="1.1" xmlns="http://www.w3.org/2000/svg" style="display: block; --darkreader-inline-bgcolor: #181a1b; background: rgb(0, 0, 0); --darkreader-inline-bgimage: initial;" viewBox="0 0 360 360" data-darkreader-inline-bgimage="" data-darkreader-inline-bgcolor=""><path d="M0 0 C-9.90750528 0 -12.04995062 -5.58341564 -7 -14 C0.92447563 -21.92447563 4.3769436 -5.83592481 0 0 Z M-2 -5 C-0.16666667 -9.5 -0.16666667 -9.5 -5 -10 C-6.83333333 -5.5 -6.83333333 -5.5 -2 -5 Z " transform="translate(203,156)" style="fill: rgb(255, 255, 255); --darkreader-inline-fill: #dcdad7;" data-darkreader-inline-fill=""/><path d="M0 0 C-9.33208395 0 -11.78578556 -8.21421444 -5 -15 C4.33208395 -15 6.78578556 -6.78578556 0 0 Z M-5 -6 C0.78555332 -6.2971365 0.78555332 -6.2971365 -1 -10 C-5.66666667 -10.66666667 -5.66666667 -10.66666667 -5 -6 Z " transform="translate(174,156)" style="fill: rgb(255, 255, 255); --darkreader-inline-fill: #dcdad7;" data-darkreader-inline-fill=""/><path d="M0 0 C2.31 -0.66 4.62 -1.32 7 -2 C18.18787069 -2.93232256 27.93592583 -2.76601854 39 0 C39 -3.3 39 -6.6 39 -10 C52.68508997 -47.63399742 78.65420329 -37.87616071 67 0 C60 10 60 10 55 14 C55.99 16.475 55.99 16.475 57 19 C63.64285714 42.25 63.64285714 42.25 60 55 C106.32372076 44.19113182 115.02263811 31.28493792 120 -16 C124 -12 124 -12 133 0 C147.99027518 14.99027518 157.01145265 23.25095439 178 25 C173.3879952 30.38067226 168.70818965 35.70328664 164 41 C152.81679171 59.17271348 144.88700602 75.8116767 157 96 C157 103.36357401 142.36357401 98 135 98 C116.29342822 103.75586824 109.63031084 110.76664518 103 129 C97.79316688 129 95.88823135 121.33234703 93 117 C77.1809642 99.20358473 67.39509449 96.1837734 52 115 C21.97382696 145.02617304 1.89679383 139.84519075 -22 104 C-39.90039684 96.32840136 -50.51169219 111.44527455 -60 125 C-64 129 -64 129 -69 117 C-70.98 114.36 -72.96 111.72 -75 109 C-75 108.34 -75 107.68 -75 107 C-76.32 106.34 -77.64 105.68 -79 105 C-83.455 102.525 -83.455 102.525 -88 100 C-98.35161535 97.41209616 -108.41900921 96.88380184 -119 99 C-117 94 -115 89 -113 84 C-111.02600653 60.31207837 -121.05962517 42.37746414 -139 27 C-139 21.8252751 -129.1293317 23.68391089 -124 23 C-106.59048086 13.62564354 -94.00887037 1.51330555 -83 -15 C-76.20130732 -15 -79.67649521 -1.76495207 -79 5 C-70.08859044 38.86335634 -14.44057803 80.23768787 -23 46 C-23 26.5 -23 26.5 -18 14 C-20.64 11.36 -23.28 8.72 -26 6 C-48.50917587 -39.01835174 -6.00013993 -48.00111945 0 0 Z M-10 10 C2.6755605 -2.6755605 -8.15218386 -21.07609193 -22 -28 C-34.19962725 -28 -28.95122357 10 -10 10 Z M51 11 C57.26017258 7.86991371 78.10041836 -27 61 -27 C49.57202125 -20.65112292 30.56335803 2.82534321 51 11 Z M10 48 C13.96 45.525 13.96 45.525 18 43 C21 43 21 43 26 47 C50.29899514 55.09966505 58.31653922 25.65826961 37 15 C26.99786955 14.85575654 26.99786955 14.85575654 21 22 C18 22 18 22 17 19 C-12.33959734 4.33020133 -22.16000647 48 10 48 Z M4 57 C7.33333333 57.5 7.33333333 57.5 7 55 C3.52565835 53.31483984 3.52565835 53.31483984 4 57 Z M35 57 C35.5 53.66666667 35.5 53.66666667 33 54 C31.31483984 57.47434165 31.31483984 57.47434165 35 57 Z M23 61 C34.21254069 54.27247559 19.32380679 57 11 57 C11 62.4830164 19.61886368 61 23 61 Z " transform="translate(166,117)" style="fill: rgb(255, 255, 255); --darkreader-inline-fill: #dcdad7;" data-darkreader-inline-fill=""/></svg>