<?xml version="1.0" encoding="UTF-8"?>
<!-- Generator: visioncortex VTracer 0.6.1 -->
<svg version="1.1" xmlns="http://www.w3.org/2000/svg" width="150" height="150">
<path d="M0 0 C49.5 0 99 0 150 0 C150 49.5 150 99 150 150 C100.5 150 51 150 0 150 C0 100.5 0 51 0 0 Z " fill="#FCFCFC" transform="translate(0,0)"/>
<path d="M0 0 C2.2578125 1.2890625 2.2578125 1.2890625 4.2578125 3.2890625 C6.24137733 4.00314584 8.24096687 4.67523992 10.2578125 5.2890625 C10.8353125 4.6084375 11.4128125 3.9278125 12.0078125 3.2265625 C12.7503125 2.5871875 13.4928125 1.9478125 14.2578125 1.2890625 C17.73107704 1.62915299 19.83665062 3.2713679 22.5078125 5.4140625 C23.6834375 6.34605469 23.6834375 6.34605469 24.8828125 7.296875 C27.82847438 9.76774269 30.60599014 12.39494802 33.3359375 15.1015625 C35.22045589 16.50778592 35.22045589 16.50778592 37.6484375 16.23046875 C41.90515886 14.69473544 45.03529769 11.80396548 48.5390625 9.00390625 C51.46845429 7.1562008 52.87197632 6.90263554 56.2578125 7.2890625 C57.0078125 8.9140625 57.0078125 8.9140625 57.2578125 11.2890625 C55.55638485 14.94713194 54.0592995 16.77926177 50.62475586 18.96386719 C44.99889018 22.56967397 44.99889018 22.56967397 41.6293335 28.15957642 C40.70912927 33.35884658 40.91515993 38.59542907 41.0703125 43.8515625 C41.07728201 45.44855369 41.0792773 47.04557474 41.07617188 48.64257812 C41.07933757 52.5274564 41.14989821 56.4057398 41.2578125 60.2890625 C39.9378125 60.6190625 38.6178125 60.9490625 37.2578125 61.2890625 C36.4196 57.35258476 35.58807995 53.41472299 34.7578125 49.4765625 C34.40009766 47.79723633 34.40009766 47.79723633 34.03515625 46.08398438 C33.80957031 45.01083984 33.58398438 43.93769531 33.3515625 42.83203125 C33.14208984 41.84227295 32.93261719 40.85251465 32.71679688 39.83276367 C32.2578125 37.2890625 32.2578125 37.2890625 32.2578125 34.2890625 C30.41072657 35.49746449 28.58043273 36.7315656 26.7578125 37.9765625 C25.22640625 39.00330078 25.22640625 39.00330078 23.6640625 40.05078125 C21.0354039 42.04803984 21.0354039 42.04803984 20.7890625 44.87109375 C21.14447613 47.53744964 21.14447613 47.53744964 23.2578125 50.2890625 C23.9178125 48.6390625 24.5778125 46.9890625 25.2578125 45.2890625 C25.5878125 45.2890625 25.9178125 45.2890625 26.2578125 45.2890625 C26.65485102 66.27102106 24.61025684 85.33275513 9.5703125 101.5390625 C0.53278918 110.12383898 -8.7658083 112.81624707 -20.91796875 112.55859375 C-30.63621552 111.87365092 -37.88856589 106.99781081 -44.7421875 100.2890625 C-52.8998098 90.69344088 -52.8998098 90.69344088 -53.7421875 84.2890625 C-52.7521875 84.2890625 -51.7621875 84.2890625 -50.7421875 84.2890625 C-49.3828125 86.23046875 -49.3828125 86.23046875 -47.9921875 88.8515625 C-43.6150861 96.49257655 -38.55915729 101.30081261 -30.7421875 105.2890625 C-31.1753125 104.2165625 -31.6084375 103.1440625 -32.0546875 102.0390625 C-33.8025023 97.43043763 -34.90797547 92.72702634 -35.99609375 87.92578125 C-36.65246728 85.09084374 -36.65246728 85.09084374 -38.7421875 82.2890625 C-36.83178698 81.4209717 -34.91358013 80.57004467 -32.9921875 79.7265625 C-31.92484375 79.25089844 -30.8575 78.77523437 -29.7578125 78.28515625 C-26.75848913 77.2944471 -25.60797509 77.12744471 -22.7421875 78.2890625 C-22.85677443 79.72743001 -22.98427866 81.16477216 -23.1171875 82.6015625 C-23.18679687 83.40207031 -23.25640625 84.20257813 -23.328125 85.02734375 C-23.7421875 87.2890625 -23.7421875 87.2890625 -25.7421875 90.2890625 C-26.19386202 92.6087736 -26.55964527 94.94588363 -26.8671875 97.2890625 C-27.03476562 98.5265625 -27.20234375 99.7640625 -27.375 101.0390625 C-27.79832076 104.24078877 -27.79832076 104.24078877 -27.7421875 107.2890625 C-13.21241273 108.0781781 -13.21241273 108.0781781 0.2578125 103.2890625 C1.28841797 102.69351563 1.28841797 102.69351563 2.33984375 102.0859375 C6.07581994 99.68152105 8.14244025 97.62662127 9.2578125 93.2890625 C6.03824467 92.21587322 5.35359561 92.4183735 2.2578125 93.2890625 C1.2678125 93.2890625 0.2778125 93.2890625 -0.7421875 93.2890625 C-2.45685442 88.14506175 -3.04749596 83.355451 -3.45703125 77.95703125 C-3.82219708 74.54047969 -4.65787229 71.54200813 -5.7421875 68.2890625 C-3.4321875 66.9690625 -1.1221875 65.6490625 1.2578125 64.2890625 C0.2678125 63.2990625 -0.7221875 62.3090625 -1.7421875 61.2890625 C-5.83921848 62.53598497 -9.57580173 64.11357756 -13.39892578 66.00585938 C-26.90170277 72.67063104 -42.28299659 80.25383884 -57.7421875 77.2890625 C-61.10636729 75.00308613 -63.44336708 73.18552377 -64.7421875 69.2890625 C-65.18323508 66.62226318 -65.47287834 63.9821541 -65.7421875 61.2890625 C-65.09378906 61.10988281 -64.44539063 60.93070312 -63.77734375 60.74609375 C-63.10574219 60.26527344 -62.43414062 59.78445312 -61.7421875 59.2890625 C-61.34523385 56.73809679 -61.1909359 54.53350247 -61.1796875 51.9765625 C-60.57955936 35.54483322 -55.61508361 19.25399657 -43.7421875 7.2890625 C-30.23991271 -4.05604413 -16.26968508 -7.58069795 0 0 Z " fill="#F6F6F6" transform="translate(78.7421875,20.7109375)"/>
<path d="M0 0 C3.47722692 0.61086419 5.51225635 1.92889628 8.25 4.125 C9.425625 5.05699219 9.425625 5.05699219 10.625 6.0078125 C13.57066188 8.47868019 16.34817764 11.10588552 19.078125 13.8125 C20.96264339 15.21872342 20.96264339 15.21872342 23.390625 14.94140625 C27.64734636 13.40567294 30.77748519 10.51490298 34.28125 7.71484375 C37.21064179 5.8671383 38.61416382 5.61357304 42 6 C42.75 7.625 42.75 7.625 43 10 C41.29857235 13.65806944 39.801487 15.49019927 36.36694336 17.67480469 C30.74107768 21.28061147 30.74107768 21.28061147 27.371521 26.87051392 C26.45131677 32.06978408 26.65734743 37.30636657 26.8125 42.5625 C26.81946951 44.15949119 26.8214648 45.75651224 26.81835938 47.35351562 C26.82152507 51.2383939 26.89208571 55.1166773 27 59 C25.68 59.33 24.36 59.66 23 60 C22.1617875 56.06352226 21.33026745 52.12566049 20.5 48.1875 C20.14228516 46.50817383 20.14228516 46.50817383 19.77734375 44.79492188 C19.55175781 43.72177734 19.32617188 42.64863281 19.09375 41.54296875 C18.88427734 40.55321045 18.67480469 39.56345215 18.45898438 38.54370117 C18 36 18 36 18 33 C16.15291407 34.20840199 14.32262023 35.4425031 12.5 36.6875 C10.96859375 37.71423828 10.96859375 37.71423828 9.40625 38.76171875 C6.7775914 40.75897734 6.7775914 40.75897734 6.53125 43.58203125 C6.88666363 46.24838714 6.88666363 46.24838714 9 49 C9.66 47.35 10.32 45.7 11 44 C11.33 44 11.66 44 12 44 C12.39703852 64.98195856 10.35244434 84.04369263 -4.6875 100.25 C-13.72502332 108.83477648 -23.0236208 111.52718457 -35.17578125 111.26953125 C-44.89402802 110.58458842 -52.14637839 105.70874831 -59 99 C-67.1576223 89.40437838 -67.1576223 89.40437838 -68 83 C-67.01 83 -66.02 83 -65 83 C-63.640625 84.94140625 -63.640625 84.94140625 -62.25 87.5625 C-57.8728986 95.20351405 -52.81696979 100.01175011 -45 104 C-45.433125 102.9275 -45.86625 101.855 -46.3125 100.75 C-48.0603148 96.14137513 -49.16578797 91.43796384 -50.25390625 86.63671875 C-50.91027978 83.80178124 -50.91027978 83.80178124 -53 81 C-51.08959948 80.1319092 -49.17139263 79.28098217 -47.25 78.4375 C-46.18265625 77.96183594 -45.1153125 77.48617187 -44.015625 76.99609375 C-41.01630163 76.0053846 -39.86578759 75.83838221 -37 77 C-37.11458693 78.43836751 -37.24209116 79.87570966 -37.375 81.3125 C-37.44460937 82.11300781 -37.51421875 82.91351563 -37.5859375 83.73828125 C-38 86 -38 86 -40 89 C-40.45167452 91.3197111 -40.81745777 93.65682113 -41.125 96 C-41.29257812 97.2375 -41.46015625 98.475 -41.6328125 99.75 C-42.05613326 102.95172627 -42.05613326 102.95172627 -42 106 C-27.47022523 106.7891156 -27.47022523 106.7891156 -14 102 C-12.96939453 101.40445313 -12.96939453 101.40445313 -11.91796875 100.796875 C-8.18199256 98.39245855 -6.11537225 96.33755877 -5 92 C-8.21956783 90.92681072 -8.90421689 91.129311 -12 92 C-12.99 92 -13.98 92 -15 92 C-16.71466692 86.85599925 -17.30530846 82.0663885 -17.71484375 76.66796875 C-18.08000958 73.25141719 -18.91568479 70.25294563 -20 67 C-17.69 65.68 -15.38 64.36 -13 63 C-13.99 62.01 -14.98 61.02 -16 60 C-20.09703098 61.24692247 -23.83361423 62.82451506 -27.65673828 64.71679688 C-41.15951527 71.38156854 -56.54080909 78.96477634 -72 76 C-75.32839758 73.73980715 -77.77551033 71.89610349 -79 68 C-79.0777346 65.66796188 -79.08967728 63.33160941 -79 61 C-76 64.75 -76 64.75 -76 67 C-60.16946126 70.83770636 -44.14675297 60.7946213 -30.94067383 52.91333008 C-23.36130955 48.28740074 -16.04385824 43.41477208 -9 38 C-6.31016481 41.25295109 -4.37533922 43.98859394 -3 48 C-2.34 47.67 -1.68 47.34 -1 47 C-0.34 47.33 0.32 47.66 1 48 C-1.50139989 41.33758326 -1.50139989 41.33758326 -4.8125 35.0625 C-5.4003125 34.0415625 -5.4003125 34.0415625 -6 33 C-5.67 32.01 -5.34 31.02 -5 30 C-4.2575 30.165 -3.515 30.33 -2.75 30.5 C0.66825714 31.1215013 3.0969646 31.55368594 6.140625 29.6875 C6.83671875 29.130625 7.5328125 28.57375 8.25 28 C8.95640625 27.443125 9.6628125 26.88625 10.390625 26.3125 C10.92171875 25.879375 11.4528125 25.44625 12 25 C11.38654317 21.71969733 10.24751944 19.68108421 8.2421875 17.03125 C7.42814453 15.92716797 7.42814453 15.92716797 6.59765625 14.80078125 C5.44640626 13.26317072 4.29011967 11.72931876 3.12890625 10.19921875 C2.58878906 9.46316406 2.04867187 8.72710937 1.4921875 7.96875 C0.99058105 7.30294922 0.48897461 6.63714844 -0.02783203 5.95117188 C-1 4 -1 4 -0.65576172 1.75195312 C-0.33115967 0.88473633 -0.33115967 0.88473633 0 0 Z " fill="#F4F4F4" transform="translate(93,22)"/>
<path d="M0 0 C9.88573579 4.78168742 19.64637394 13.71452711 23.6875 24.125 C22.85546875 26.4453125 22.85546875 26.4453125 21.6875 28.125 C19.83125 27.815625 19.83125 27.815625 17.9375 27.5 C15.49348425 27.21551139 13.79328971 27.10212655 11.375 27.625 C9.4029913 29.12400985 9.4029913 29.12400985 8.6875 32.1875 C6.27374636 38.67872448 -1.84240796 43.28454068 -7.69140625 46.38671875 C-8.22636719 46.63035156 -8.76132813 46.87398437 -9.3125 47.125 C-8.9825 46.3825 -8.6525 45.64 -8.3125 44.875 C-6.61646015 40.21089041 -7.57474342 35.92041775 -8.3125 31.125 C-7.6525 31.125 -6.9925 31.125 -6.3125 31.125 C-5.8175 33.6 -5.8175 33.6 -5.3125 36.125 C-1.78557328 34.99483745 -1.78557328 34.99483745 1.6875 33.125 C3.16413059 29.52571294 2.65299074 27.98696298 1.6875 24.125 C1.3575 27.095 1.0275 30.065 0.6875 33.125 C0.0275 33.125 -0.6325 33.125 -1.3125 33.125 C-1.3125 32.465 -1.3125 31.805 -1.3125 31.125 C-1.9725 31.125 -2.6325 31.125 -3.3125 31.125 C-2.72145235 26.27840923 -1.33305843 22.51751833 0.6875 18.125 C4.45437864 18.125 5.59940305 18.36037317 8.6875 20.125 C9.3475 19.465 10.0075 18.805 10.6875 18.125 C8.9948034 11.57990647 6.84806314 8.74723453 1.05078125 5.24609375 C-2.16957066 3.71842268 -4.76553282 3.27593477 -8.3125 3.125 C-8.42207031 3.83785156 -8.53164062 4.55070312 -8.64453125 5.28515625 C-9.58465023 10.96408636 -10.47524296 16.08098748 -13.3125 21.125 C-14.95392963 22.1659066 -16.61962215 23.17004326 -18.3125 24.125 C-19.65939915 26.69599402 -19.65939915 26.69599402 -20.3125 29.125 C-21.3025 28.795 -22.2925 28.465 -23.3125 28.125 C-23.45811632 24.48459203 -23.49782105 21.63735819 -22.25 18.1875 C-21.00394858 14.11706535 -21.68371448 11.31690348 -22.3125 7.125 C-21.9825 6.465 -21.6525 5.805 -21.3125 5.125 C-21.6425 5.125 -21.9725 5.125 -22.3125 5.125 C-22.9725 6.445 -23.6325 7.765 -24.3125 9.125 C-24.9725 9.125 -25.6325 9.125 -26.3125 9.125 C-26.3125 7.805 -26.3125 6.485 -26.3125 5.125 C-27.3025 5.125 -28.2925 5.125 -29.3125 5.125 C-29.6425 6.445 -29.9725 7.765 -30.3125 9.125 C-30.3125 8.465 -30.3125 7.805 -30.3125 7.125 C-33.01858417 8.47804209 -33.27433047 9.93466544 -34.4375 12.6875 C-34.79070313 13.51378906 -35.14390625 14.34007813 -35.5078125 15.19140625 C-35.77335937 15.82949219 -36.03890625 16.46757813 -36.3125 17.125 C-34.9925 14.815 -33.6725 12.505 -32.3125 10.125 C-30.3325 10.785 -28.3525 11.445 -26.3125 12.125 C-24.97749545 17.46501821 -25.799955 20.96455235 -27.3125 26.125 C-28.3025 25.795 -29.2925 25.465 -30.3125 25.125 C-30.3125 23.145 -30.3125 21.165 -30.3125 19.125 C-31.3025 21.105 -32.2925 23.085 -33.3125 25.125 C-34.6325 24.465 -35.9525 23.805 -37.3125 23.125 C-37.3125 26.755 -37.3125 30.385 -37.3125 34.125 C-36.6525 34.125 -35.9925 34.125 -35.3125 34.125 C-34.6525 31.485 -33.9925 28.845 -33.3125 26.125 C-30.3125 27.125 -30.3125 27.125 -29.3125 29.125 C-28.9825 29.66125 -28.6525 30.1975 -28.3125 30.75 C-26.87418111 34.16600736 -26.68094158 37.44058419 -26.3125 41.125 C-27.3025 41.125 -28.2925 41.125 -29.3125 41.125 C-29.3125 40.135 -29.3125 39.145 -29.3125 38.125 C-30.3025 38.62 -30.3025 38.62 -31.3125 39.125 C-30.9825 40.445 -30.6525 41.765 -30.3125 43.125 C-31.240625 43.681875 -32.16875 44.23875 -33.125 44.8125 C-37.39697714 47.91177753 -38.93219028 50.2925986 -40 55.4375 C-40.103125 56.324375 -40.20625 57.21125 -40.3125 58.125 C-40.9725 56.805 -41.6325 55.485 -42.3125 54.125 C-43.9625 54.785 -45.6125 55.445 -47.3125 56.125 C-47.3125 58.105 -47.3125 60.085 -47.3125 62.125 C-46.6525 62.455 -45.9925 62.785 -45.3125 63.125 C-45.3125 62.465 -45.3125 61.805 -45.3125 61.125 C-44.6525 61.125 -43.9925 61.125 -43.3125 61.125 C-43.6425 62.445 -43.9725 63.765 -44.3125 65.125 C-50.0625 64.375 -50.0625 64.375 -52.3125 62.125 C-52.9375 60 -52.9375 60 -53.3125 58.125 C-53.6425 60.435 -53.9725 62.745 -54.3125 65.125 C-54.9725 64.795 -55.6325 64.465 -56.3125 64.125 C-60.42554827 49.57113689 -56.04178325 34.23190311 -49.1875 21.3515625 C-38.84428199 3.55260817 -20.52557086 -7.5564112 0 0 Z " fill="#080808" transform="translate(75.3125,18.875)"/>
<path d="M0 0 C3.47722692 0.61086419 5.51225635 1.92889628 8.25 4.125 C9.425625 5.05699219 9.425625 5.05699219 10.625 6.0078125 C13.57066188 8.47868019 16.34817764 11.10588552 19.078125 13.8125 C20.96264339 15.21872342 20.96264339 15.21872342 23.390625 14.94140625 C27.64734636 13.40567294 30.77748519 10.51490298 34.28125 7.71484375 C37.21064179 5.8671383 38.61416382 5.61357304 42 6 C42.75 7.625 42.75 7.625 43 10 C41.29857235 13.65806944 39.801487 15.49019927 36.36694336 17.67480469 C30.74107768 21.28061147 30.74107768 21.28061147 27.371521 26.87051392 C26.45131677 32.06978408 26.65734743 37.30636657 26.8125 42.5625 C26.81946951 44.15949119 26.8214648 45.75651224 26.81835938 47.35351562 C26.82152507 51.2383939 26.89208571 55.1166773 27 59 C25.02 59.495 25.02 59.495 23 60 C22.1617875 56.06352226 21.33026745 52.12566049 20.5 48.1875 C20.26152344 47.06794922 20.02304688 45.94839844 19.77734375 44.79492188 C19.55175781 43.72177734 19.32617188 42.64863281 19.09375 41.54296875 C18.88427734 40.55321045 18.67480469 39.56345215 18.45898438 38.54370117 C18 36 18 36 18 33 C10.83976808 36.97524503 10.83976808 36.97524503 6.1875 43.2421875 C6.07514843 45.15918617 6.0331035 47.07999715 6 49 C3.99609375 50.2265625 3.99609375 50.2265625 2 51 C1.67386719 50.11957031 1.34773438 49.23914063 1.01171875 48.33203125 C0.57472656 47.17058594 0.13773437 46.00914063 -0.3125 44.8125 C-0.95638672 43.08966797 -0.95638672 43.08966797 -1.61328125 41.33203125 C-2.88609653 38.01005418 -2.88609653 38.01005418 -4.73046875 35.26171875 C-5.14941406 34.51535156 -5.56835938 33.76898438 -6 33 C-5.67 32.01 -5.34 31.02 -5 30 C-4.2575 30.165 -3.515 30.33 -2.75 30.5 C0.66825714 31.1215013 3.0969646 31.55368594 6.140625 29.6875 C6.83671875 29.130625 7.5328125 28.57375 8.25 28 C8.95640625 27.443125 9.6628125 26.88625 10.390625 26.3125 C10.92171875 25.879375 11.4528125 25.44625 12 25 C11.38654317 21.71969733 10.24751944 19.68108421 8.2421875 17.03125 C7.69949219 16.29519531 7.15679687 15.55914062 6.59765625 14.80078125 C5.44640626 13.26317072 4.29011967 11.72931876 3.12890625 10.19921875 C2.58878906 9.46316406 2.04867187 8.72710937 1.4921875 7.96875 C0.99058105 7.30294922 0.48897461 6.63714844 -0.02783203 5.95117188 C-1 4 -1 4 -0.65576172 1.75195312 C-0.33115967 0.88473633 -0.33115967 0.88473633 0 0 Z " fill="#0B0B0B" transform="translate(93,22)"/>
<path d="M0 0 C3.78399862 4.3915919 4.86563132 7.42268735 6 13 C-12.2939883 25.25451423 -39.9025179 42.4296541 -63 38 C-66.32839758 35.73980715 -68.77551033 33.89610349 -70 30 C-70.0777346 27.66796188 -70.08967728 25.33160941 -70 23 C-67 26.75 -67 26.75 -67 29 C-51.16946126 32.83770636 -35.14675297 22.7946213 -21.94067383 14.91333008 C-14.36130955 10.28740074 -7.04385824 5.41477208 0 0 Z " fill="#090909" transform="translate(84,60)"/>
<path d="M0 0 C0.33 0 0.66 0 1 0 C1.39703852 20.98195856 -0.64755566 40.04369263 -15.6875 56.25 C-24.72502332 64.83477648 -34.0236208 67.52718457 -46.17578125 67.26953125 C-55.89402802 66.58458842 -63.14637839 61.70874831 -70 55 C-78.1576223 45.40437838 -78.1576223 45.40437838 -79 39 C-78.01 39 -77.02 39 -76 39 C-74.640625 40.94140625 -74.640625 40.94140625 -73.25 43.5625 C-68.8728986 51.20351405 -63.81696979 56.01175011 -56 60 C-56.433125 58.9275 -56.86625 57.855 -57.3125 56.75 C-59.0603148 52.14137513 -60.16578797 47.43796384 -61.25390625 42.63671875 C-61.91027978 39.80178124 -61.91027978 39.80178124 -64 37 C-62.08959948 36.1319092 -60.17139263 35.28098217 -58.25 34.4375 C-57.18265625 33.96183594 -56.1153125 33.48617187 -55.015625 32.99609375 C-52.01630163 32.0053846 -50.86578759 31.83838221 -48 33 C-48.11458693 34.43836751 -48.24209116 35.87570966 -48.375 37.3125 C-48.44460937 38.11300781 -48.51421875 38.91351563 -48.5859375 39.73828125 C-49 42 -49 42 -51 45 C-51.45167452 47.3197111 -51.81745777 49.65682113 -52.125 52 C-52.29257812 53.2375 -52.46015625 54.475 -52.6328125 55.75 C-53.05613326 58.95172627 -53.05613326 58.95172627 -53 62 C-38.47137257 62.78608668 -38.47137257 62.78608668 -25 58 C-24.03900391 57.45666016 -24.03900391 57.45666016 -23.05859375 56.90234375 C-12.32908069 50.06604493 -7.16156662 37.00331326 -3.70703125 25.3046875 C-2.79896229 21.06034307 -2.82194526 17.12759386 -2.98828125 12.80859375 C-3.00574477 8.62317096 -2.12112232 5.02285067 -1 1 C-0.67 0.67 -0.34 0.34 0 0 Z " fill="#181818" transform="translate(104,66)"/>
<path d="M0 0 C3.11285217 4.14584766 6.20236098 8.30593603 9.25 12.5 C10.10078125 13.63888672 10.10078125 13.63888672 10.96875 14.80078125 C11.49984375 15.53683594 12.0309375 16.27289063 12.578125 17.03125 C13.06700195 17.69705078 13.55587891 18.36285156 14.05957031 19.04882812 C15 21 15 21 14.76953125 23.12353516 C13.66676379 25.81258043 12.00704925 27.07384481 9.75 28.875 C8.98171875 29.51179688 8.2134375 30.14859375 7.421875 30.8046875 C5 32 5 32 2.390625 31.1953125 C1.60171875 30.80085938 0.8128125 30.40640625 0 30 C-0.99 30 -1.98 30 -3 30 C-1.69464167 34.35119444 0.04517124 38.1894227 2.1953125 42.16796875 C3 44 3 44 3 47 C2.01 47 1.02 47 0 47 C-0.66 47.66 -1.32 48.32 -2 49 C-2.19335938 48.45730469 -2.38671875 47.91460937 -2.5859375 47.35546875 C-2.97652344 46.28232422 -2.97652344 46.28232422 -3.375 45.1875 C-3.63023438 44.47980469 -3.88546875 43.77210937 -4.1484375 43.04296875 C-5.0265769 40.75226641 -5.0265769 40.75226641 -7 38 C-8.98 39.32 -10.96 40.64 -13 42 C-13.66 41.34 -14.32 40.68 -15 40 C-14.34 40 -13.68 40 -13 40 C-12.67 39.01 -12.34 38.02 -12 37 C-12.66 36.34 -13.32 35.68 -14 35 C-13.236875 34.484375 -12.47375 33.96875 -11.6875 33.4375 C-8.52578653 30.56989941 -7.65401507 27.88333973 -6 24 C-3.91894376 22.15017223 -2.71395504 21.95888935 0.03515625 22.1171875 C2.031616 22.34957964 4.01740768 22.66956795 6 23 C7.37956099 20.03832512 7.37956099 20.03832512 5.77734375 17.546875 C2.14723479 12.0284928 -1.54925233 6.88496695 -6 2 C-4.68 2.33 -3.36 2.66 -2 3 C-1.34 2.01 -0.68 1.02 0 0 Z " fill="#EDEDED" transform="translate(91,23)"/>
<path d="M0 0 C0.99 0.66 1.98 1.32 3 2 C1.68 3.32 0.36 4.64 -1 6 C-0.34 6 0.32 6 1 6 C0.02251899 9.15801556 -1.00684002 12.01285923 -2.5625 14.9375 C-4.16705443 17.93345763 -4.16705443 17.93345763 -4.375 21.25 C-5.21158757 26.26952542 -7.0390367 30.83390069 -10 35 C-12.16796875 35.7890625 -12.16796875 35.7890625 -14 36 C-15.69486908 30.91539275 -16.34159544 26.19287747 -16.65625 20.84375 C-17.06923326 17.4272521 -17.99175292 14.28493402 -19 11 C-16.87767021 9.82823482 -14.75242209 8.66245215 -12.625 7.5 C-11.72007813 6.99919922 -11.72007813 6.99919922 -10.796875 6.48828125 C-6.2265625 4 -6.2265625 4 -4 4 C-2.62689293 2.70766393 -1.28965176 1.37562854 0 0 Z " fill="#090909" transform="translate(92,78)"/>
<path d="M0 0 C0.33 0 0.66 0 1 0 C1.39774621 21.01935723 -0.69828121 39.93259312 -15.625 56.25 C-20.36647141 60.78852905 -26.04465878 63.37964986 -32 66 C-32 65.34 -32 64.68 -32 64 C-37.28 64 -42.56 64 -48 64 C-48 63.67 -48 63.34 -48 63 C-47.17757812 62.97421875 -46.35515625 62.9484375 -45.5078125 62.921875 C-34.36479334 62.35571698 -24.14882306 59.76976332 -16.4140625 51.25390625 C-7.70081727 40.26283296 -2.4472413 26.85697589 -2.98828125 12.80859375 C-3.00574477 8.62317096 -2.12112232 5.02285067 -1 1 C-0.67 0.67 -0.34 0.34 0 0 Z " fill="#1A1A1A" transform="translate(104,66)"/>
<path d="M0 0 C-0.11458693 1.43836751 -0.24209116 2.87570966 -0.375 4.3125 C-0.44460937 5.11300781 -0.51421875 5.91351563 -0.5859375 6.73828125 C-1 9 -1 9 -3 12 C-3.66158043 14.04584079 -3.66158043 14.04584079 -4.125 16.1875 C-4.558125 18.0746875 -4.558125 18.0746875 -5 20 C-6.98 19.67 -8.96 19.34 -11 19 C-11.29003906 17.75283203 -11.29003906 17.75283203 -11.5859375 16.48046875 C-11.84632812 15.39378906 -12.10671875 14.30710937 -12.375 13.1875 C-12.63023438 12.10855469 -12.88546875 11.02960938 -13.1484375 9.91796875 C-13.88732881 6.84466657 -13.88732881 6.84466657 -16 4 C-14.08959948 3.1319092 -12.17139263 2.28098217 -10.25 1.4375 C-9.18265625 0.96183594 -8.1153125 0.48617187 -7.015625 -0.00390625 C-4.01630163 -0.9946154 -2.86578759 -1.16161779 0 0 Z " fill="#0D0D0D" transform="translate(56,99)"/>
<path d="M0 0 C2 2 2 2 2.6875 4.4375 C4.6311913 8.23232588 7.0480455 8.60949749 11 10 C11 10.99 11 11.98 11 13 C11.66 13.66 12.32 14.32 13 15 C7.18437008 16.40984968 1.35780894 17.04091859 -4 14 C-8 9.67567568 -8 9.67567568 -8 7 C-7.38125 6.71125 -6.7625 6.4225 -6.125 6.125 C-3.86674235 5.06279958 -3.86674235 5.06279958 -2 3 C-1.67 4.65 -1.34 6.3 -1 8 C-0.67 5.36 -0.34 2.72 0 0 Z " fill="#ECECEC" transform="translate(21,75)"/>
<path d="M0 0 C1.98 0 3.96 0 6 0 C4.09407435 8.73549257 -1.81678276 12.35260308 -9 17 C-10.31784151 17.69678976 -11.64458857 18.37945019 -13 19 C-12.67 18.2575 -12.34 17.515 -12 16.75 C-10.30396015 12.08589041 -11.26224342 7.79541775 -12 3 C-11.34 3 -10.68 3 -10 3 C-9.67 4.65 -9.34 6.3 -9 8 C-3.7786608 6.37580496 -3.7786608 6.37580496 -0.5625 2.3125 C-0.376875 1.549375 -0.19125 0.78625 0 0 Z " fill="#191919" transform="translate(79,47)"/>
<path d="M0 0 C9.53942487 4.06308837 17.55128221 10.49592109 22 20 C20.700625 19.690625 20.700625 19.690625 19.375 19.375 C15.63571398 18.95952378 13.45057859 19.60333724 10 21 C10.66 20.01 11.32 19.02 12 18 C10.79853563 12.36235947 9.32119518 9.82602192 4.5 6.625 C3.00872738 5.73520734 1.50943228 4.85862633 0 4 C-0.99 3.34 -1.98 2.68 -3 2 C-2.01 1.34 -1.02 0.68 0 0 Z " fill="#141414" transform="translate(74,19)"/>
<path d="M0 0 C0.33 0.66 0.66 1.32 1 2 C0.34 2 -0.32 2 -1 2 C-1.12094527 6.07360485 -1.12094527 6.07360485 -0.4375 10.0625 C0.13360672 12.59168692 -0.37797049 14.51188197 -1 17 C-1.99 17 -2.98 17 -4 17 C-4.66 17.99 -5.32 18.98 -6 20 C-5.979375 18.9275 -5.95875 17.855 -5.9375 16.75 C-5.9857984 13.85209576 -6.13155885 11.71387859 -7 9 C-7.99 9 -8.98 9 -10 9 C-10 8.34 -10 7.68 -10 7 C-10.66 7 -11.32 7 -12 7 C-12.268125 7.94875 -12.53625 8.8975 -12.8125 9.875 C-14 13 -14 13 -17 15 C-15.55049545 11.2089881 -13.84827434 7.6125362 -12 4 C-11.34 4 -10.68 4 -10 4 C-9.67 3.34 -9.34 2.68 -9 2 C-8.01 2 -7.02 2 -6 2 C-6 3.32 -6 4.64 -6 6 C-5.34 6 -4.68 6 -4 6 C-3.71125 5.195625 -3.4225 4.39125 -3.125 3.5625 C-2 1 -2 1 0 0 Z " fill="#DBDBDB" transform="translate(55,22)"/>
<path d="M0 0 C0.99 0.33 1.98 0.66 3 1 C4.33500455 6.34001821 3.512545 9.83955235 2 15 C1.01 14.67 0.02 14.34 -1 14 C-1 12.02 -1 10.04 -1 8 C-1.99 9.98 -2.98 11.96 -4 14 C-5.38829316 9.83512052 -4.727601 6.74624239 -3.0625 2.75 C-2 1 -2 1 0 0 Z " fill="#444444" transform="translate(46,30)"/>
<path d="M0 0 C2.475 0.99 2.475 0.99 5 2 C4.34 2.66 3.68 3.32 3 4 C2.34 3.67 1.68 3.34 1 3 C1 3.66 1 4.32 1 5 C1.99 5.33 2.98 5.66 4 6 C3.67 6.66 3.34 7.32 3 8 C3.66 8 4.32 8 5 8 C4.67 8.99 4.34 9.98 4 11 C2.68 10.67 1.36 10.34 0 10 C-0.33 11.98 -0.66 13.96 -1 16 C-1.66 16 -2.32 16 -3 16 C-3 15.34 -3 14.68 -3 14 C-3.66 14 -4.32 14 -5 14 C-4.43981302 9.40646673 -3.42668586 3.42668586 0 0 Z " fill="#0E0E0E" transform="translate(77,36)"/>
<path d="M0 0 C0.33 0 0.66 0 1 0 C0.979375 1.2375 0.95875 2.475 0.9375 3.75 C0.93233319 6.6640825 1.06984442 9.20953327 2 12 C1.01 12 0.02 12 -1 12 C-1 11.34 -1 10.68 -1 10 C-1.66 9.67 -2.32 9.34 -3 9 C-3.144375 9.94875 -3.28875 10.8975 -3.4375 11.875 C-4 15 -4 15 -5 17 C-5.66 17 -6.32 17 -7 17 C-8.52491998 13.95016004 -8.23562548 11.3576631 -8 8 C-6.5 6.0625 -6.5 6.0625 -5 5 C-4.34 5.33 -3.68 5.66 -3 6 C-2.34 5.67 -1.68 5.34 -1 5 C-0.34444881 2.47266765 -0.34444881 2.47266765 0 0 Z " fill="#D9D9D9" transform="translate(45,36)"/>
<path d="M0 0 C0.66 0.33 1.32 0.66 2 1 C0.515 3.475 0.515 3.475 -1 6 C0.32 6.33 1.64 6.66 3 7 C2.67 7.99 2.34 8.98 2 10 C-1.28976808 11.09658936 -2.71303767 10.79953138 -6 10 C-5.34 11.32 -4.68 12.64 -4 14 C-4.99 15.485 -4.99 15.485 -6 17 C-6 16.01 -6 15.02 -6 14 C-6.66 14 -7.32 14 -8 14 C-8.66 15.32 -9.32 16.64 -10 18 C-10.33 17.01 -10.66 16.02 -11 15 C-9.453125 12.1875 -9.453125 12.1875 -7.25 9 C-6.53328125 7.948125 -5.8165625 6.89625 -5.078125 5.8125 C-3.4794571 3.6488893 -1.97756925 1.8023416 0 0 Z " fill="#1A1A1A" transform="translate(36,27)"/>
<path d="M0 0 C2 1 2 1 3 3 C2.34 3 1.68 3 1 3 C1.33 4.98 1.66 6.96 2 9 C0.8553125 9.2165625 0.8553125 9.2165625 -0.3125 9.4375 C-3.08172908 9.9632594 -3.08172908 9.9632594 -6 11 C-8.1875 9.6875 -8.1875 9.6875 -10 8 C-10 7.34 -10 6.68 -10 6 C-7.8828125 4.45703125 -7.8828125 4.45703125 -5.125 2.8125 C-4.22007813 2.26207031 -3.31515625 1.71164063 -2.3828125 1.14453125 C-1.20332031 0.57798828 -1.20332031 0.57798828 0 0 Z " fill="#E8E8E8" transform="translate(87,74)"/>
<path d="M0 0 C3 3.75 3 3.75 3 6 C7.455 6.99 7.455 6.99 12 8 C11.01 8.99 10.02 9.98 9 11 C9 12.32 9 13.64 9 15 C5.53371274 14.03714243 4.06582992 13.07650505 1.6875 10.3125 C-0.22487823 6.55857236 -0.33242149 4.15526857 0 0 Z " fill="#121212" transform="translate(14,83)"/>
<path d="M0 0 C3 1 3 1 4 3 C4.33 3.53625 4.66 4.0725 5 4.625 C6.43831889 8.04100736 6.63155842 11.31558419 7 15 C6.01 15 5.02 15 4 15 C3.67 14.01 3.34 13.02 3 12 C2.34 11.34 1.68 10.68 1 10 C1 9.34 1 8.68 1 8 C0.01 8 -0.98 8 -2 8 C-1.34 5.36 -0.68 2.72 0 0 Z " fill="#161616" transform="translate(42,45)"/>
<path d="M0 0 C6.93 0 13.86 0 21 0 C20.67 0.99 20.34 1.98 20 3 C16.38132441 4.2062252 13.07493749 4.10816918 9.3125 4.0625 C8.61060547 4.05798828 7.90871094 4.05347656 7.18554688 4.04882812 C5.45699462 4.03706927 3.72848635 4.01913454 2 4 C1.34 2.68 0.68 1.36 0 0 Z " fill="#080808" transform="translate(52,129)"/>
<path d="M0 0 C2.1385485 2.1385485 2.42655063 3.13275314 3 6 C1.68 5.67 0.36 5.34 -1 5 C-1 6.32 -1 7.64 -1 9 C-2.32 9.33 -3.64 9.66 -5 10 C-5.33 9.34 -5.66 8.68 -6 8 C-5.67 7.34 -5.34 6.68 -5 6 C-5.66 6 -6.32 6 -7 6 C-7 5.34 -7 4.68 -7 4 C-7.66 3.67 -8.32 3.34 -9 3 C-9 2.34 -9 1.68 -9 1 C-7.700625 1.020625 -6.40125 1.04125 -5.0625 1.0625 C-3.70834367 1.08399454 -2.35243917 1.07148199 -1 1 C-0.67 0.67 -0.34 0.34 0 0 Z " fill="#040404" transform="translate(87,38)"/>
<path d="M0 0 C1.65 0 3.3 0 5 0 C5.75 1.625 5.75 1.625 6 4 C2.82191781 9.5890411 2.82191781 9.5890411 0 11 C-2.21538462 4.6 -2.21538462 4.6 -1.125 1.5625 C-0.75375 1.046875 -0.3825 0.53125 0 0 Z " fill="#121212" transform="translate(130,28)"/>
<path d="M0 0 C0.66 0 1.32 0 2 0 C2.185625 1.2065625 2.185625 1.2065625 2.375 2.4375 C2.58125 3.283125 2.7875 4.12875 3 5 C3.66 5.33 4.32 5.66 5 6 C4.67 6.66 4.34 7.32 4 8 C5.32 8.66 6.64 9.32 8 10 C5.11912454 12.40072955 2.43595166 14.47291037 -1 16 C-0.67 15.2575 -0.34 14.515 0 13.75 C1.69603985 9.08589041 0.73775658 4.79541775 0 0 Z " fill="#1F1F1F" transform="translate(67,50)"/>
<path d="M0 0 C0.144375 0.598125 0.28875 1.19625 0.4375 1.8125 C0.8872439 3.56150404 1.42892341 5.28677023 2 7 C1.5 9.0625 1.5 9.0625 0 11 C-3.625 12.25 -3.625 12.25 -7 13 C-7.33 10.69 -7.66 8.38 -8 6 C-7.34 6 -6.68 6 -6 6 C-5.67 5.34 -5.34 4.68 -5 4 C-5 5.32 -5 6.64 -5 8 C-4.34 8 -3.68 8 -3 8 C-3 8.66 -3 9.32 -3 10 C-2.34 10 -1.68 10 -1 10 C-1.01160156 9.36191406 -1.02320312 8.72382812 -1.03515625 8.06640625 C-1.04417969 7.24011719 -1.05320312 6.41382813 -1.0625 5.5625 C-1.07410156 4.73878906 -1.08570312 3.91507813 -1.09765625 3.06640625 C-1 1 -1 1 0 0 Z " fill="#D6D6D6" transform="translate(77,42)"/>
<path d="M0 0 C2.4375 0.125 2.4375 0.125 5 1 C6.59660706 3.88909849 7 5.69058796 7 9 C6.01 9 5.02 9 4 9 C3.34 9.66 2.68 10.32 2 11 C1.01 7.7 0.02 4.4 -1 1 C-0.67 0.67 -0.34 0.34 0 0 Z " fill="#E9E9E9" transform="translate(87,61)"/>
<path d="M0 0 C0.66 0.33 1.32 0.66 2 1 C1.25675659 3.39489543 0.52942646 4.70777616 -1.69140625 5.93359375 C-3.44073501 6.67219923 -5.21934149 7.34049685 -7 8 C-7 7.34 -7 6.68 -7 6 C-12.28 6 -17.56 6 -23 6 C-23 5.67 -23 5.34 -23 5 C-21.76636719 4.96132812 -21.76636719 4.96132812 -20.5078125 4.921875 C-13.6503004 4.57345637 -8.14787465 3.69539059 -1.92578125 0.7421875 C-1.29027344 0.49726562 -0.65476562 0.25234375 0 0 Z " fill="#393939" transform="translate(79,124)"/>
<path d="M0 0 C0.99 0.33 1.98 0.66 3 1 C2.43179252 6.45479185 1.05362055 10.91059256 -1 16 C-1.99 15.67 -2.98 15.34 -4 15 C-3.69255859 14.00419922 -3.69255859 14.00419922 -3.37890625 12.98828125 C-3.10949219 12.10527344 -2.84007813 11.22226563 -2.5625 10.3125 C-2.29566406 9.44238281 -2.02882813 8.57226562 -1.75390625 7.67578125 C-1.03655471 5.12974079 -0.482459 2.5996577 0 0 Z " fill="#252525" transform="translate(101,88)"/>
<path d="M0 0 C0.33 0.66 0.66 1.32 1 2 C1.66 2.33 2.32 2.66 3 3 C1.92319498 4.13125022 0.83824365 5.25474919 -0.25 6.375 C-0.85328125 7.00148438 -1.4565625 7.62796875 -2.078125 8.2734375 C-3.9700588 9.97310161 -5.68201309 10.98459866 -8 12 C-8.66 11.34 -9.32 10.68 -10 10 C-6.66666667 6.66666667 -3.33333333 3.33333333 0 0 Z " fill="#1A1A1A" transform="translate(88,116)"/>
<path d="M0 0 C0.66 0 1.32 0 2 0 C0.19499838 9.93812655 0.19499838 9.93812655 -3 13 C-3.66 13 -4.32 13 -5 13 C-5.33 13.66 -5.66 14.32 -6 15 C-6.66 15 -7.32 15 -8 15 C-6.38102741 11.69918209 -4.64075691 8.47442567 -2.875 5.25 C-2.33617187 4.26515625 -1.79734375 3.2803125 -1.2421875 2.265625 C-0.83226562 1.51796875 -0.42234375 0.7703125 0 0 Z " fill="#141414" transform="translate(43,29)"/>
<path d="M0 0 C0.99 1.32 1.98 2.64 3 4 C2.34 5.32 1.68 6.64 1 8 C0.34 8 -0.32 8 -1 8 C-1.33 7.34 -1.66 6.68 -2 6 C-2.99 6.99 -3.98 7.98 -5 9 C-5.33 7.68 -5.66 6.36 -6 5 C-6.66 5 -7.32 5 -8 5 C-7 3 -7 3 -5 2 C-5 2.99 -5 3.98 -5 5 C-3.35 3.35 -1.7 1.7 0 0 Z " fill="#EEEEEE" transform="translate(100,68)"/>
<path d="M0 0 C0.99 0.33 1.98 0.66 3 1 C2.34 1 1.68 1 1 1 C1.020625 2.11375 1.04125 3.2275 1.0625 4.375 C1 8 1 8 0 10 C-1.65 9.67 -3.3 9.34 -5 9 C-4.42647107 5.12867972 -2.51295648 2.91827204 0 0 Z " fill="#0B0B0B" transform="translate(40,24)"/>
<path d="M0 0 C3.3 1.98 6.6 3.96 10 6 C9.01 6.99 8.02 7.98 7 9 C4.36 7.02 1.72 5.04 -1 3 C-0.67 2.01 -0.34 1.02 0 0 Z " fill="#0E0E0E" transform="translate(39,121)"/>
<path d="M0 0 C-0.804375 0.763125 -1.60875 1.52625 -2.4375 2.3125 C-5.16799024 4.79430898 -5.16799024 4.79430898 -6 8 C-6.99 7.67 -7.98 7.34 -9 7 C-9 4.69 -9 2.38 -9 0 C-5.62182575 -0.84454356 -3.32534757 -1.10844919 0 0 Z " fill="#262626" transform="translate(61,40)"/>
<path d="M0 0 C0.33 0.99 0.66 1.98 1 3 C0.01 3 -0.98 3 -2 3 C-2.33 4.98 -2.66 6.96 -3 9 C-3.99 8.67 -4.98 8.34 -6 8 C-6 6.02 -6 4.04 -6 2 C-2.25 0 -2.25 0 0 0 Z " fill="#EAEAEA" transform="translate(33,73)"/>
<path d="M0 0 C1.98 0 3.96 0 6 0 C6 1.32 6 2.64 6 4 C5.01 4.66 4.02 5.32 3 6 C1.68 5.34 0.36 4.68 -1 4 C-0.67 2.68 -0.34 1.36 0 0 Z " fill="#0C0C0C" transform="translate(72,54)"/>
<path d="M0 0 C2.64 1.32 5.28 2.64 8 4 C7.01 4.99 6.02 5.98 5 7 C2.36 5.68 -0.28 4.36 -3 3 C-2.01 2.01 -1.02 1.02 0 0 Z " fill="#1A1A1A" transform="translate(74,19)"/>
<path d="M0 0 C0 0.99 0 1.98 0 3 C-2.31 3.66 -4.62 4.32 -7 5 C-7.99 4.01 -8.98 3.02 -10 2 C-3.375 -1.125 -3.375 -1.125 0 0 Z " fill="#EAEAEA" transform="translate(61,90)"/>
<path d="M0 0 C-0.33 1.32 -0.66 2.64 -1 4 C-2.65 4.33 -4.3 4.66 -6 5 C-6.66 3.35 -7.32 1.7 -8 0 C-5.13822943 -1.43088528 -3.06624227 -0.59991697 0 0 Z " fill="#020202" transform="translate(38,37)"/>
<path d="M0 0 C1.32 0 2.64 0 4 0 C4.12375 0.639375 4.2475 1.27875 4.375 1.9375 C4.684375 2.9584375 4.684375 2.9584375 5 4 C5.66 4.33 6.32 4.66 7 5 C7 4.34 7 3.68 7 3 C7.66 3 8.32 3 9 3 C8.67 4.32 8.34 5.64 8 7 C2.25 6.25 2.25 6.25 0 4 C0 2.68 0 1.36 0 0 Z " fill="#191919" transform="translate(23,77)"/>
<path d="M0 0 C0.80824219 0.28746094 1.61648437 0.57492188 2.44921875 0.87109375 C3.06410156 1.09925781 3.67898437 1.32742187 4.3125 1.5625 C3.9825 2.2225 3.6525 2.8825 3.3125 3.5625 C1.32682292 3.26953125 -0.65885417 2.9765625 -2.64453125 2.68359375 C-4.8900342 2.42345201 -4.8900342 2.42345201 -7.6875 3.5625 C-7.6875 2.2425 -7.6875 0.9225 -7.6875 -0.4375 C-4.20878379 -1.59707207 -3.34530355 -1.21206651 0 0 Z " fill="#151515" transform="translate(93.6875,43.4375)"/>
<path d="M0 0 C1.32 0.99 2.64 1.98 4 3 C3.42655063 5.86724686 3.1385485 6.8614515 1 9 C-0.5625 7.25 -0.5625 7.25 -2 5 C-1.75203633 2.83031791 -1.55766393 1.55766393 0 0 Z " fill="#F3F3F3" transform="translate(100,38)"/>
<path d="M0 0 C1.65 0.99 3.3 1.98 5 3 C4.34 4.98 3.68 6.96 3 9 C2.34 9 1.68 9 1 9 C-0.4783226 6.04335481 -0.06032783 3.25770263 0 0 Z " fill="#E9E9E9" transform="translate(37,44)"/>
<path d="M0 0 C3 2 3 2 3.51171875 3.9453125 C3.67447917 5.96354167 3.83723958 7.98177083 4 10 C3.01 10 2.02 10 1 10 C0.67 9.01 0.34 8.02 0 7 C-0.66 6.34 -1.32 5.68 -2 5 C-1.34 3.35 -0.68 1.7 0 0 Z " fill="#282828" transform="translate(45,50)"/>
<path d="M0 0 C2.0625 0.4375 2.0625 0.4375 4 1 C4.33 2.32 4.66 3.64 5 5 C2.525 6.485 2.525 6.485 0 8 C-0.66 7.34 -1.32 6.68 -2 6 C-1.34 6 -0.68 6 0 6 C0.33 5.01 0.66 4.02 1 3 C0.34 2.34 -0.32 1.68 -1 1 C-0.67 0.67 -0.34 0.34 0 0 Z " fill="#EAEAEA" transform="translate(78,57)"/>
<path d="M0 0 C3.28212246 0.43761633 4.84832931 1.52557871 7 4 C6.01 4.66 5.02 5.32 4 6 C2.35 4.35 0.7 2.7 -1 1 C-0.67 0.67 -0.34 0.34 0 0 Z " fill="#EDEDED" transform="translate(33,122)"/>
<path d="M0 0 C2.475 0.495 2.475 0.495 5 1 C4.67 2.98 4.34 4.96 4 7 C3.34 7 2.68 7 2 7 C0 4 0 4 0 0 Z " fill="#171717" transform="translate(46,118)"/>
<path d="M0 0 C3.375 -0.125 3.375 -0.125 7 0 C7.66 0.66 8.32 1.32 9 2 C7.71211992 2.53012738 6.41953322 3.0488329 5.125 3.5625 C4.04605469 3.99755859 4.04605469 3.99755859 2.9453125 4.44140625 C1 5 1 5 -1 4 C-0.67 2.68 -0.34 1.36 0 0 Z " fill="#E9E9E9" transform="translate(125,26)"/>
<path d="M0 0 C0.6875 1.6875 0.6875 1.6875 1 4 C-0.3125 6.75 -0.3125 6.75 -2 9 C-2.66 9 -3.32 9 -4 9 C-3.46930939 5.17902761 -2.50298434 2.93828597 0 0 Z " fill="#0C0C0C" transform="translate(98,102)"/>
<path d="M0 0 C1.32 0.66 2.64 1.32 4 2 C3.34 3.32 2.68 4.64 2 6 C2 5.01 2 4.02 2 3 C1.34 3 0.68 3 0 3 C-0.66 4.32 -1.32 5.64 -2 7 C-2.33 6.01 -2.66 5.02 -3 4 C-1.5625 1.8125 -1.5625 1.8125 0 0 Z " fill="#131313" transform="translate(28,38)"/>
<path d="M0 0 C2.1875 1.4375 2.1875 1.4375 4 3 C3.34 4.32 2.68 5.64 2 7 C0.35 5.02 -1.3 3.04 -3 1 C-2.01 0.67 -1.02 0.34 0 0 Z " fill="#272727" transform="translate(35,117)"/>
<path d="M0 0 C3 3.75 3 3.75 3 6 C3.66 6.33 4.32 6.66 5 7 C5 7.66 5 8.32 5 9 C3.68 9 2.36 9 1 9 C-0.4783226 6.04335481 -0.06032783 3.25770263 0 0 Z " fill="#282828" transform="translate(14,83)"/>
<path d="M0 0 C0.66 0.33 1.32 0.66 2 1 C1.01 2.32 0.02 3.64 -1 5 C-2.32 4.67 -3.64 4.34 -5 4 C-5 5.65 -5 7.3 -5 9 C-6.0625 7.125 -6.0625 7.125 -7 5 C-5.47058649 1.94117299 -3.05780454 1.31048766 0 0 Z " fill="#323232" transform="translate(80,85)"/>
<path d="M0 0 C2.475 0.99 2.475 0.99 5 2 C2.53721199 4.46278801 0.29323018 4.99771255 -3 6 C-1.125 1.125 -1.125 1.125 0 0 Z " fill="#1E1E1E" transform="translate(77,36)"/>
<path d="M0 0 C0.66 0.33 1.32 0.66 2 1 C1.67 3.97 1.34 6.94 1 10 C0.34 9.67 -0.32 9.34 -1 9 C-1.75 5.5625 -1.75 5.5625 -2 2 C-1.34 1.34 -0.68 0.68 0 0 Z " fill="#232323" transform="translate(20,74)"/>
<path d="M0 0 C0.33 1.98 0.66 3.96 1 6 C-0.32 6.33 -1.64 6.66 -3 7 C-3.6875 5.1875 -3.6875 5.1875 -4 3 C-1.64285714 0 -1.64285714 0 0 0 Z " fill="#151515" transform="translate(37,46)"/>
<path d="M0 0 C0.66 0.66 1.32 1.32 2 2 C1.625 5.625 1.625 5.625 1 9 C0.01 8.67 -0.98 8.34 -2 8 C-1.33333333 5.33333333 -0.66666667 2.66666667 0 0 Z " fill="#171717" transform="translate(47,36)"/>
<path d="M0 0 C0.66 1.32 1.32 2.64 2 4 C1.34 4 0.68 4 0 4 C-0.33 4.99 -0.66 5.98 -1 7 C-2.65 5.35 -4.3 3.7 -6 2 C-4.68 2.33 -3.36 2.66 -2 3 C-1.34 2.01 -0.68 1.02 0 0 Z " fill="#E5E5E5" transform="translate(91,23)"/>
<path d="M0 0 C0 1.65 0 3.3 0 5 C-1.65 4.67 -3.3 4.34 -5 4 C-5 3.01 -5 2.02 -5 1 C-3 0 -3 0 0 0 Z " fill="#070707" transform="translate(51,114)"/>
<path d="M0 0 C0.33 0.66 0.66 1.32 1 2 C0.67 2.66 0.34 3.32 0 4 C0.66 4.33 1.32 4.66 2 5 C0.02 5.33 -1.96 5.66 -4 6 C-4.33 5.01 -4.66 4.02 -5 3 C-3.35 2.01 -1.7 1.02 0 0 Z " fill="#121212" transform="translate(65,73)"/>
<path d="M0 0 C0.66 0.99 1.32 1.98 2 3 C1.1028125 3.1546875 1.1028125 3.1546875 0.1875 3.3125 C-2.28243264 4.08876455 -3.32251235 5.07088921 -5 7 C-5.99 6.67 -6.98 6.34 -8 6 C-5.36 4.02 -2.72 2.04 0 0 Z " fill="#1B1B1B" transform="translate(84,60)"/>
<path d="M0 0 C0.99 0.66 1.98 1.32 3 2 C2.67 3.32 2.34 4.64 2 6 C2 5.34 2 4.68 2 4 C-0.33075929 4.95865509 -0.33075929 4.95865509 -2 8 C-2 5.69 -2 3.38 -2 1 C-1.34 0.67 -0.68 0.34 0 0 Z " fill="#1D1D1D" transform="translate(43,22)"/>
<path d="M0 0 C0.99 0.66 1.98 1.32 3 2 C1.35 3.32 -0.3 4.64 -2 6 C-2.33 4.68 -2.66 3.36 -3 2 C-2.01 1.34 -1.02 0.68 0 0 Z " fill="#212121" transform="translate(92,78)"/>
<path d="M0 0 C-0.33 0.66 -0.66 1.32 -1 2 C-3.64860427 2.59355614 -6.29197322 2.74209269 -9 3 C-8 1 -8 1 -5.625 -0.1875 C-3 -1 -3 -1 0 0 Z " fill="#101010" transform="translate(73,130)"/>
<path d="M0 0 C0.99 0.99 1.98 1.98 3 3 C-0.465 4.485 -0.465 4.485 -4 6 C-3.67 4.68 -3.34 3.36 -3 2 C-2.01 2 -1.02 2 0 2 C0 1.34 0 0.68 0 0 Z " fill="#F0F0F0" transform="translate(59,73)"/>
<path d="M0 0 C0.33 0.99 0.66 1.98 1 3 C2.32 2.67 3.64 2.34 5 2 C3.515 4.475 3.515 4.475 2 7 C1.34 5.68 0.68 4.36 0 3 C-0.66 3 -1.32 3 -2 3 C-1 1 -1 1 0 0 Z " fill="#E5E5E5" transform="translate(94,70)"/>
<path d="M0 0 C0.99 0 1.98 0 3 0 C3.33 1.32 3.66 2.64 4 4 C2.35 4.66 0.7 5.32 -1 6 C-0.67 4.02 -0.34 2.04 0 0 Z " fill="#242424" transform="translate(41,58)"/>
<path d="M0 0 C0.66 0 1.32 0 2 0 C2.185625 1.2065625 2.185625 1.2065625 2.375 2.4375 C2.58125 3.283125 2.7875 4.12875 3 5 C3.66 5.33 4.32 5.66 5 6 C4.34 6.66 3.68 7.32 3 8 C2.34 7.67 1.68 7.34 1 7 C0.59270772 4.67843403 0.25561323 2.3431213 0 0 Z " fill="#484848" transform="translate(67,50)"/>
<path d="M0 0 C2.97 0 5.94 0 9 0 C7.35 1.32 5.7 2.64 4 4 C2.68 2.68 1.36 1.36 0 0 Z " fill="#E1E1E1" transform="translate(79,36)"/>
<path d="M0 0 C2.475 0.99 2.475 0.99 5 2 C4.01 2.99 3.02 3.98 2 5 C1.01 4.34 0.02 3.68 -1 3 C-0.67 2.01 -0.34 1.02 0 0 Z " fill="#151515" transform="translate(44,125)"/>
<path d="M0 0 C0.33 1.32 0.66 2.64 1 4 C0.34 4 -0.32 4 -1 4 C-1.33 4.99 -1.66 5.98 -2 7 C-2.99 6.34 -3.98 5.68 -5 5 C-3.35 3.35 -1.7 1.7 0 0 Z " fill="#E9E9E9" transform="translate(89,120)"/>
</svg>
