<?xml version="1.0" encoding="utf-8" ?>
<svg xmlns="http://www.w3.org/2000/svg" xmlns:cc="http://creativecommons.org/ns" xmlns:dc="http://purl.org/dc/elements/1.1/" xmlns:ev="http://www.w3.org/2001/xml-events" xmlns:inkscape="http://www.inkscape.org/namespaces/inkscape" xmlns:rdf="http://www.w3.org/1999/02/22-rdf-syntax-ns" xmlns:sodipodi="http://sodipodi.sourceforge.net/DTD/sodipodi-0.dtd" xmlns:xlink="http://www.w3.org/1999/xlink" baseProfile="tiny" height="25.4cm" version="1.2" viewBox="0 0 960.0 960.0" width="25.4cm">
  <metadata>
    <rdf:RDF>
      <cc:Work>
        <dc:format>image/svg+xml</dc:format>
        <dc:source>vpype read /home/penplotter/Pen_plotter_V2/my_flask/static/Image_Storage/Images/360_F_123409002_IOTrT0nqPqDtDzHpPMLAgA8dTW5Xdqtl.svg write --page-size 10inx10in --center /home/penplotter/Pen_plotter_V2/my_flask/static/Image_Storage/Images/360_F_123409002_IOTrT0nqPqDtDzHpPMLAgA8dTW5Xdqtl.svg
</dc:source>
        <dc:date>2024-01-16T13:26:22.326741</dc:date>
      </cc:Work>
    </rdf:RDF>
  </metadata>
  <defs/>
  <g fill="none" id="layer1" inkscape:groupmode="layer" inkscape:label="1" stroke="#0000ff" stroke-width="1.0" style="display:inline">
    <polyline points="345.075,520.5975 343.6111,515.5541 342.1323,509.448 340.9288,503.2817 340.5111,500.477"/>
    <polyline points="359.6543,492.7054 359.1869,487.7959 358.9197,481.5191 358.9814,475.2369 359.3717,468.9666 360.0897,462.7253 361.1333,456.5301 362.4997,450.3981 364.1852,444.3459 366.1851,438.3903 368.494,432.5474 371.1055,426.8335 374.0125,421.264 377.2069,415.8543 380.6801,410.6192 384.4226,405.5731 388.424,400.7297 392.6734,396.1024 397.1591,391.7038 401.8689,387.546 402.3876,387.1343"/>
    <polyline points="369.0325,527.7077 367.5929,524.387 365.3991,518.5 363.5164,512.5063 363.344,511.8366"/>
    <polyline points="378.9675,476.7836 378.9731,475.8298 379.4042,469.5624 380.2279,463.3345 381.4411,457.1706 383.039,451.0951 385.0152,445.1318 387.3619,439.3045 390.0699,433.6359 391.8409,430.4586"/>
    <polyline points="389.8729,525.048 389.5392,524.4325 386.8976,518.7327 384.6192,512.8783 383.1764,508.348"/>
    <line x1="400.3655" x2="403.8789" y1="417.6629" y2="413.466"/>
    <polyline points="409.8797,519.946 407.2399,515.1121 404.671,509.3798 402.5598,503.4637 402.1599,501.9856"/>
    <polyline points="402.605,455.6656 403.0871,454.0238 405.3239,448.154 408.0144,442.4778 411.142,437.0302 414.5721,432.0133"/>
    <polyline points="424.0078,563.087 422.2128,561.9331 417.1521,558.2109 412.3351,554.1783 407.7809,549.8512 404.7131,546.5459"/>
    <line x1="405.0857" x2="407.02" y1="412.1389" y2="410.103"/>
    <polyline points="407.801,382.9208 411.9085,379.9976 417.2107,376.6278 422.6821,373.5401 428.3075,370.743 434.0716,368.2441 439.9586,366.0504 445.9523,364.1677 450.1774,363.0799"/>
    <polyline points="412.4982,404.8211 413.212,404.1586 418.0758,400.1826 419.1239,399.4305"/>
    <polyline points="454.0599,596.9201 449.7467,595.959 443.6945,594.2735 437.7389,592.2736 431.8961,589.9647 426.1821,587.3532 420.6126,584.4463 415.5822,581.4757"/>
    <polyline points="432.583,544.7214 431.1934,543.7713 426.3021,539.83 421.7351,535.5171 417.5206,530.8592 417.0084,530.1951"/>
    <polyline points="429.5749,513.6098 428.7279,512.4548 425.5638,507.0298 422.9841,501.3037 421.0171,495.3394 420.7388,494.0577"/>
    <polyline points="426.1031,419.5258 427.5994,418.172 432.5736,414.3359 437.8335,410.902 443.3465,407.8913 449.0788,405.3224 453.391,403.7836"/>
    <polyline points="430.4696,392.1188 434.0262,390.1905 439.726,387.549 445.5804,385.2704 451.5663,383.3641 457.6602,381.8374 458.7256,381.6406"/>
    <polyline points="449.1245,506.2106 445.5449,501.6275 442.5027,496.1373 440.3568,490.2388 439.3986,485.3053"/>
    <polyline points="470.6863,497.5478 467.0006,495.6272 462.6166,491.1623 459.8269,485.5612 458.9046,479.3721 459.6422,474.9754"/>
    <polyline points="461.8878,443.3944 462.3215,443.1541 468.22,441.0082 474.3816,439.8115 480.6545,439.5933 486.8843,440.3592 492.3248,441.9201"/>
    <polyline points="474.3998,419.7721 475.4996,419.6517 481.7798,419.624 482.5736,419.7039"/>
    <polyline points="513.9683,498.7141 513.715,499.2572 510.2043,504.4603 505.9229,509.0501 500.9762,512.9137 495.486,515.9559 489.5875,518.1018 483.4259,519.2986 478.5358,519.4686"/>
    <polyline points="508.8892,531.4305 506.3785,532.8948 500.6525,535.4745 494.6881,537.4416 488.5509,538.7744 482.3079,539.4584 480.7982,539.465"/>
    <polyline points="483.302,419.7772 488.0286,420.2529 494.1773,421.5316 500.1588,423.446 504.2374,425.2404"/>
    <polyline points="484.898,460.5308 485.2577,460.5912 490.8069,463.4828 495.1909,467.9477 497.9806,473.5488 498.9029,479.7379 498.1131,484.4454"/>
    <polyline points="485.5541,379.8255 488.8963,380.0554 495.1242,380.8792 501.2881,382.0924 505.8445,383.2907"/>
    <polyline points="507.8323,575.2392 506.2411,575.7459 500.1473,577.2726 493.9696,578.4137 487.7325,579.1646 487.6816,579.1675"/>
    <polyline points="506.144,404.3897 510.3048,405.9753 515.981,408.6658 521.4286,411.7934 526.614,415.3387 531.5053,419.28 533.5524,421.2132"/>
    <polyline points="518.1275,487.3078 518.0995,487.5356 516.3685,493.5689 514.994,496.5154"/>
    <polyline points="520.1247,436.0335 521.1428,436.942 525.3656,441.5907 529.0795,446.6552 532.2436,452.0802 534.8233,457.8063 535.2381,459.0642"/>
    <polyline points="540.3791,530.6668 539.1788,532.1566 534.8659,536.7235 530.208,540.938 525.31,544.7153"/>
    <polyline points="528.8325,392.9562 530.3101,393.7798 535.5945,397.1769 540.6552,400.8991 545.4722,404.9317 550.0265,409.2588 554.3001,413.8634 558.2761,418.7272 561.9389,423.8311 565.274,429.1548 568.2682,434.6775 570.9098,440.3773 573.1882,446.2317 575.0945,452.2177 576.6213,458.3115 577.7623,464.4891 578.5132,470.7262 578.8711,476.9982 578.8343,483.2802 578.4032,489.5476 577.7109,494.7819"/>
    <polyline points="541.3886,429.6795 544.1228,433.225 547.5568,438.4848 550.5675,443.9979 551.5424,446.1734"/>
    <polyline points="573.937,406.3308 574.8183,407.4412 578.461,412.5598 581.8308,417.8621 584.9185,423.3334 585.2479,423.9958"/>
    <polyline points="591.4246,396.3108 592.9201,398.313 596.4502,403.5101 599.7436,408.8604 601.8524,412.6581"/>
    <polyline points="608.9626,386.4137 611.1691,389.5224 614.6018,394.7845 617.5906,399.7848"/>
    <polygon points="478.9047,479.5549 478.9047,479.5552 478.9046,479.5555 478.9044,479.5557 478.9041,479.5559 478.9038,479.556 478.9035,479.556 478.9032,479.5559 478.903,479.5557 478.9028,479.5554 478.9027,479.5551 478.9028,479.5548 478.9029,479.5545 478.9031,479.5543 478.9033,479.5541 478.9036,479.554 478.904,479.554 478.9042,479.5541 478.9045,479.5543 478.9047,479.5546"/>
    <polyline points="349.6304,493.09 349.1665,487.8176 348.9188,481.5399 348.9747,475.2576 349.334,468.9853 349.996,462.7377 350.959,456.5294 352.2209,450.3748 353.7786,444.2884 355.6286,438.2844 357.7665,432.3768 360.1873,426.5793 362.8853,420.9056 365.8544,415.3688 369.0874,409.982 372.577,404.7576 376.3149,399.708 380.2924,394.8448 384.5001,390.1795 387.6645,386.9949"/>
    <polyline points="357.353,525.5955 356.9462,524.5704 354.9138,518.6256 353.1709,512.5896 352.7924,510.993"/>
    <polyline points="395.7738,579.4739 391.8354,576.0907 387.2731,571.7713 382.9248,567.2366 378.8007,562.4972 374.9104,557.564 371.263,552.4486 367.8669,547.163 364.7302,541.7195 363.976,540.2509"/>
    <polyline points="368.9348,479.3383 369.0223,474.4479 369.493,468.1832 370.3207,461.9556 371.5025,455.7854 373.0346,449.6928 374.9121,443.6976 377.1287,437.8193 379.6774,432.0772 382.5496,426.4899 385.7362,421.0757 389.2267,415.8522 393.0096,410.8366 397.0728,406.0451 401.4028,401.4933 403.8894,399.1618"/>
    <line x1="370.4651" x2="369.8801" y1="497.8135" y2="494.0316"/>
    <polyline points="379.1522,525.8158 378.0429,523.4538 375.7012,517.6242 373.6962,511.6704 373.6608,511.5412"/>
    <polyline points="389.4611,469.5677 390.3659,463.3977 391.7086,457.2609 393.4762,451.2328 395.6599,445.3427 398.2492,439.6193 401.2315,434.0904 404.5921,428.783 408.3148,423.7229 408.9174,423.0135"/>
    <polyline points="399.5385,521.884 397.778,518.5247 395.2573,512.7707 393.144,506.8549 392.9928,506.3154"/>
    <polyline points="426.0256,552.3612 425.5691,552.0493 420.6421,548.1523 415.9989,543.9211 411.6622,539.3763 407.6531,534.54 407.2963,534.0429"/>
    <polyline points="407.3174,396.0833 410.8064,393.1677 413.6886,391.0263"/>
    <polyline points="421.837,573.5563 417.7877,571.0145 412.666,567.3763 410.5468,565.6808"/>
    <polyline points="419.1821,516.0467 416.2662,510.8048 413.7171,505.0642 411.6929,499.1182 411.6069,498.7642"/>
    <polyline points="412.1986,419.1502 412.3814,418.9349 415.6734,415.5665"/>
    <line x1="415.6193" x2="417.1051" y1="449.6796" y2="446.8237"/>
    <polyline points="433.0133,532.327 431.2406,530.8213 427.8566,527.3794"/>
    <polyline points="429.014,381.5687 432.1425,379.9889 437.9029,377.4817 443.797,375.3075 449.8056,373.4733 455.9092,371.9851 462.0878,370.8479 468.3211,370.0651 474.589,369.6396 479.7638,369.5843"/>
    <polyline points="438.8459,509.3998 435.8103,504.9117 432.972,499.3107 430.8582,493.3982 430.2253,490.5373"/>
    <polyline points="430.3999,403.7913 431.6675,402.9472 437.1265,399.8388 442.789,397.1188 448.6274,394.8004 454.6134,392.8949 455.2225,392.7469"/>
    <polyline points="458.7119,501.5611 457.3401,500.4119 453.4749,495.4728 450.721,489.838 449.1989,483.7538 449.1157,481.4237"/>
    <line x1="462.6307" x2="464.5084" y1="432.3123" y2="431.7713"/>
    <polyline points="482.5867,589.4772 476.9365,589.5375 470.6609,589.2458 464.4122,588.5964 463.7889,588.4953"/>
    <polyline points="465.6065,452.6797 465.7312,452.6016 471.6229,450.4519 477.8329,449.5741 478.9139,449.6488"/>
    <polyline points="475.4457,429.7334 480.585,429.5833 481.568,429.6784"/>
    <polyline points="504.0238,495.667 501.9004,498.8204 497.3924,503.1806 492.0763,506.5084 486.1845,508.6581 479.9746,509.5359 477.1178,509.3384"/>
    <polyline points="479.0334,409.6169 481.0673,409.5884 487.3303,410.0641 493.5255,411.0992 499.603,412.6854 505.5138,414.8101 511.2104,417.456 515.7759,420.098"/>
    <polyline points="509.5063,518.9713 506.9163,520.9712 501.5045,524.1555 495.7364,526.6364 489.7028,528.3749 483.4989,529.3434 482.2112,529.381"/>
    <polyline points="500.5449,546.0875 495.4318,547.5757 489.268,548.7835 484.5898,549.2705"/>
    <polyline points="486.8898,430.2005 492.9596,431.5713 497.4093,433.1845"/>
    <polyline points="495.6133,454.6459 495.6597,454.6705 500.4674,458.6981 504.3325,463.6372 507.0864,469.272 508.6085,475.3562 508.7058,478.082"/>
    <polyline points="502.1684,392.6647 504.2273,393.1911 510.19,395.168 516.0004,397.556 521.63,400.3435 522.7745,401.0134"/>
    <polyline points="508.4975,439.3374 509.6365,440.1152 514.3373,444.2781 518.4793,448.9972 521.9971,454.1983 524.8353,459.7993 526.9492,465.7118 528.3054,471.8427 528.6301,475.3611"/>
    <polyline points="524.2622,557.2319 520.6809,559.2712 515.0184,561.9912 510.5059,563.7831"/>
    <polyline points="519.4972,377.3601 523.5287,379.0133 529.1957,381.7249 534.6987,384.7555 540.0197,388.0955 545.1413,391.7337 550.0469,395.6584 554.7205,399.8567 559.1467,404.3149 563.3112,409.0186 567.2004,413.9524 570.8015,419.1001 574.103,424.445 577.0939,429.9697 579.7645,435.6562 582.1061,441.4858 583.9232,446.8814"/>
    <polyline points="533.6083,435.9822 534.9547,437.6231 538.4878,442.8163 541.5412,448.3053 542.7788,451.0923"/>
    <polyline points="547.1475,464.2431 547.5975,466.0953 548.5275,472.3071 548.8969,478.5773 548.7028,484.8554 547.9467,491.0908 546.6347,497.2333 544.7773,503.2335 542.3896,509.0431 540.0649,513.5115"/>
    <polyline points="550.2312,424.6771 553.8163,429.6741 557.1134,435.0212 559.5652,439.6997"/>
    <polyline points="583.634,402.5796 586.5444,406.6614 589.9405,411.947 593.0772,417.3905 593.1633,417.5581"/>
    <polyline points="600.334,391.5356 601.2441,392.7631 604.7713,397.9624 608.0776,403.3047 609.7157,406.2174"/>
    <polygon points="477.8057,469.6155 480.9309,469.7626 483.8577,470.8683 486.2996,472.8244 488.0175,475.4392 488.8433,478.457 488.6961,481.5822 487.5904,484.509 485.6344,486.9508 483.0195,488.6687 480.0018,489.4945 476.8766,489.3474 473.9498,488.2417 471.5079,486.2857 469.79,483.6708 468.9642,480.6531 469.1114,477.5278 470.2171,474.601 472.1731,472.1592 474.788,470.4413"/>
    <polyline points="350.9307,522.4739 349.3699,517.5815 347.741,511.5137 347.4193,510.0457"/>
    <polyline points="353.9366,478.6084 353.9286,477.0557 354.2121,470.7795 354.8105,464.5256 355.7223,458.3096 356.9454,452.1473 358.4765,446.0542 360.3118,440.0457 362.4467,434.137 364.8758,428.3431 367.593,422.6785 370.5913,417.1577 373.8632,411.7944 377.4004,406.6023 381.1941,401.5945 385.2346,396.7836 389.5117,392.1818 394.0146,387.8007 398.732,383.6513 403.6518,379.7443 408.7618,376.0894 414.0489,372.6958 419.4999,369.5722 420.2656,369.1831"/>
    <polyline points="362.6137,525.3472 360.724,520.2806 358.827,514.2913 358.4911,513.0102"/>
    <polyline points="364.9972,495.0616 364.5647,491.8678 364.0629,485.6054 363.9039,479.325 364.088,473.0453 364.6148,466.7851 365.4827,460.5629 366.6891,454.3974 368.2304,448.307 370.102,442.3099 372.2983,436.4239 374.8127,430.6666 377.6378,425.0552 380.7651,419.6065 384.1853,414.3367 387.8881,409.2615 391.8149,404.4546"/>
    <polyline points="373.5194,525.4835 372.1266,522.2595 369.9539,516.3647 368.9102,512.9727"/>
    <polyline points="373.9637,476.713 374.2311,471.2686 374.914,465.0236 375.9692,458.8306 377.3928,452.7118 379.1799,446.6891 381.3239,440.784 383.8172,435.0177 386.6509,429.4109 388.4523,426.3209"/>
    <polyline points="375.2706,496.4237 375.2508,496.3207 374.9393,493.946"/>
    <polyline points="384.0444,524.4842 382.1807,520.4167 379.9102,514.5592 378.8543,511.2625"/>
    <polyline points="384.0413,474.7968 384.4752,469.1497 385.3694,462.9316 386.6725,456.7862 388.379,450.7404 390.4813,444.8206 392.9702,439.0526 393.6529,437.7203"/>
    <polyline points="394.1738,522.4305 392.1354,518.2368 389.7687,512.4176 388.5348,508.6963"/>
    <polyline points="424.8513,592.2313 420.6329,590.1423 415.1502,587.0748 409.8284,583.7358 404.6812,580.1336 399.7214,576.2773 395.7383,572.8457"/>
    <polyline points="396.6575,458.3063 397.1961,456.127 399.1494,450.1567 401.5383,444.3469 404.3498,438.7294 407.5685,433.3349 411.0514,428.3716"/>
    <polyline points="404.0883,519.7781 402.7377,517.2875 400.159,511.5594 398.0104,505.6566 397.8926,505.2391"/>
    <polyline points="399.22,411.2492 401.1692,408.9692 403.9136,406.1228"/>
    <polyline points="424.5565,557.434 423.5257,556.7449 418.5452,552.9162 413.8287,548.7666 409.3967,544.3145 405.2687,539.5791 402.5458,536.0036"/>
    <line x1="405.9703" x2="406.6043" y1="390.6671" y2="390.1676"/>
    <polyline points="414.0424,517.1015 411.9034,513.2591 409.3181,507.5344 407.2209,501.6135 407.1717,501.4264"/>
    <polyline points="409.4674,400.8236 410.1528,400.193 415.022,396.2235 416.5041,395.1562"/>
    <polyline points="422.096,567.857 422.0057,567.8025 416.8299,564.2418 411.8764,560.378 410.3389,559.0233"/>
    <polyline points="412.4816,411.7034 415.3022,408.9869 417.7513,406.9222"/>
    <polyline points="428.1893,547.7006 426.2987,546.3212 421.5116,542.2539 417.0378,537.8441 412.902,533.116 412.8096,532.9931"/>
    <line x1="420.0936" x2="416.0914" y1="578.3726" y2="575.8521"/>
    <polyline points="423.676,513.6888 421.9035,510.7957 419.1544,505.1486 416.9632,499.2625 416.5427,497.6798"/>
    <polyline points="419.9355,380.8487 420.6974,380.3731 426.2004,377.3425 427.5404,376.6973"/>
    <polyline points="431.7388,537.8476 431.4045,537.5967 426.7143,533.4185 423.3168,529.8388"/>
    <polyline points="433.4753,510.4647 432.8001,509.546 429.6819,504.0951 427.2054,498.3243 425.7402,493.4348"/>
    <polyline points="428.9196,387.2649 430.9281,386.1561 436.5996,383.4541 442.4225,381.0961 448.376,379.0907 454.439,377.4448 459.9585,376.2958"/>
    <polyline points="429.023,410.7331 429.0822,410.6868 434.3044,407.1955 439.7701,404.0993 445.4495,401.4152 450.7173,399.3868"/>
    <polyline points="429.0773,423.5805 430.7905,422.0213 431.9085,421.1633"/>
    <polyline points="433.346,396.2504 435.9672,394.8115 441.6618,392.1591 447.5192,389.8888 453.5141,388.0107 455.1081,387.6248"/>
    <polyline points="434.8414,373.3774 437.6616,372.2046 443.5855,370.1126 449.6147,368.3472 455.7315,366.9137 461.9173,365.8163 462.1314,365.7903"/>
    <polyline points="443.2599,506.8484 441.6397,504.782 438.4915,499.3503 436.1298,493.5334 435.0391,489.1904"/>
    <polyline points="453.1796,503.0902 450.6512,500.2141 447.4164,494.8374 445.1936,488.9696 444.4149,484.7519"/>
    <polyline points="465.0516,593.6756 461.4626,593.2248 455.2812,592.1028 449.8421,590.8051"/>
    <polyline points="463.1183,498.8761 459.0255,494.716 455.8796,489.2962 454.1804,483.2643 454.101,479.85"/>
    <polyline points="474.566,493.8099 473.8218,493.6679 469.7094,491.4068 466.497,487.9855 464.4991,483.739 463.9112,479.0829 464.7908,474.4731 465.1952,473.7377"/>
    <polyline points="468.8919,446.1523 471.0111,445.4565 477.2264,444.5952 483.4957,444.8575 484.4812,445.0793"/>
    <polyline points="472.795,424.9478 473.8937,424.7837 480.1698,424.5696 480.6782,424.6104"/>
    <polyline points="477.6598,374.5992 479.3448,374.5558 485.6234,374.7701 490.5017,375.2299"/>
    <polyline points="478.3225,414.6261 482.4413,414.6513 483.5109,414.7617"/>
    <polyline points="509.8869,495.5672 509.0043,497.4144 505.3316,502.502 500.8096,506.8522 495.5834,510.3249 489.8212,512.8087 483.7081,514.2237 479.1461,514.4426"/>
    <polyline points="492.4469,583.6409 487.8765,584.171 481.604,584.5204 480.5117,584.5158"/>
    <polyline points="480.8096,464.836 483.9857,465.4421 488.0981,467.7032 491.3105,471.1245 493.3084,475.371 493.8963,480.0271 493.0166,484.6369 492.5915,485.4101"/>
    <polyline points="506.7799,526.8711 504.8395,528.0559 499.1417,530.6962 493.1801,532.6698 487.0324,533.951 482.4674,534.3686"/>
    <polyline points="518.6313,500.5199 516.2531,504.6553 512.3963,509.6091 507.8877,513.9779 502.8149,517.6766 497.2766,520.6334 491.3808,522.7907 485.2422,524.1064 482.4886,524.3036"/>
    <polyline points="484.1432,404.7716 489.4657,405.3024 489.8302,405.37"/>
    <polyline points="501.9562,540.2812 497.1087,541.9535 491.0014,543.4193 484.7811,544.2887 484.3631,544.3064"/>
    <polyline points="486.3594,435.2691 488.185,435.5225 494.2228,437.2428 495.0306,437.6008"/>
    <polyline points="486.8925,415.1105 488.6889,415.2958 494.8452,416.5402 500.8525,418.3729 506.655,420.7769 507.4425,421.1963"/>
    <polyline points="495.7578,552.6109 490.254,553.6912 487.092,554.0405"/>
    <polyline points="490.3284,425.8399 492.5909,426.2853 498.574,428.1928 498.8509,428.3174"/>
    <polyline points="491.7469,458.1153 491.8049,458.141 496.725,462.0221 500.5254,467.0049 502.9672,472.7763 503.897,478.9736 503.8164,479.7574"/>
    <polyline points="500.9496,387.1979 503.1943,387.7129 509.2111,389.5191 511.4562,390.3584"/>
    <line x1="501.3492" x2="501.6228" y1="452.7962" y2="453.0563"/>
    <polyline points="513.4367,568.0488 513.2356,568.1345 507.3063,570.2098 503.1742,571.3558"/>
    <polyline points="503.2662,408.6764 507.5997,410.2618 513.2974,412.9061 518.7538,416.0178 523.9307,419.5752 528.0177,422.9199"/>
    <polyline points="503.5814,398.2764 506.8233,399.2711 512.6762,401.5523 518.3447,404.2595 523.7977,407.3779 529.0056,410.8906 529.199,411.0429"/>
    <polyline points="512.0427,435.7716 514.6903,437.7899 519.2179,442.1415 523.2199,446.9809 526.6443,452.2449 529.4462,457.8649 531.5892,463.7677 533.0159,469.7523"/>
    <polyline points="529.9721,547.4494 526.1464,550.2171 520.807,553.5081"/>
    <line x1="522.8443" x2="522.2782" y1="488.8656" y2="491.1525"/>
    <polyline points="524.6778,385.1097 527.6622,386.5624 533.1363,389.6449 538.4162,393.0491 543.4831,396.7631 548.3188,400.7734 552.906,405.0657 557.2284,409.6247 561.2703,414.434 565.0174,419.4764 568.4562,424.7339 571.5744,430.1876 574.361,435.818 576.8057,441.6051 578.9001,447.5279 580.6364,453.5655 582.0086,459.696 583.0117,465.8977 583.6422,472.1482 583.8508,477.275"/>
    <line x1="526.1006" x2="527.91" y1="374.7328" y2="375.5527"/>
    <polyline points="530.0822,439.5546 530.7918,440.4062 534.328,445.5969 537.3467,451.1046 538.1327,452.9397"/>
    <polyline points="543.7651,517.0961 541.5924,520.7269 537.9274,525.8282 535.7291,528.4025"/>
    <polyline points="538.2864,433.8196 541.1515,437.7194 544.4339,443.0748 546.5926,447.3662"/>
    <polyline points="543.8517,480.2917 543.8739,481.5232 543.5161,486.0661"/>
    <polyline points="546.6217,428.201 546.8395,428.4695 550.4268,433.6262 553.6234,439.0338 555.0078,441.8283"/>
    <polyline points="554.1283,421.5631 554.483,421.9983 558.1217,427.1192 561.414,432.4694 564.3456,438.0255 566.9035,443.7632 569.0765,449.6574 570.8553,455.6824 572.2321,461.8117 573.2007,468.0186 573.757,474.276 573.8533,478.55"/>
    <polyline points="560.8292,398.8939 564.1686,402.387 568.2555,407.1584 572.0757,412.1459 575.6178,417.3345 578.8713,422.7088 581.8265,428.2528 582.5394,429.7868"/>
    <polyline points="579.9351,406.0153 581.4797,408.1185 584.9394,413.3626 588.1313,418.7739 588.5318,419.5382"/>
    <polyline points="583.8917,478.7362 583.7773,484.7063 583.3194,490.4902"/>
    <polyline points="588.2664,400.4412 591.2258,404.6633 594.5885,409.9703 596.8853,413.998"/>
    <polyline points="596.6339,394.9367 599.7643,399.4443 603.1212,404.7551 605.2659,408.4978"/>
    <polyline points="605.2638,389.8132 605.7587,390.4886 609.2639,395.7026 612.555,401.0544 613.1886,402.1849"/>
    <polyline points="615.4512,386.9539 615.9658,387.691 619.3637,392.9756 619.4889,393.1875"/>
    <polygon points="475.2758,476.1143 476.5166,475.1616 477.9911,474.639 479.5549,474.5976 481.055,475.0414 482.3444,475.9271 483.2971,477.1679 483.8197,478.6424 483.8612,480.2062 483.4173,481.7062 482.5316,482.9957 481.2908,483.9484 479.8164,484.471 478.2526,484.5124 476.7525,484.0686 475.463,483.1829 474.5104,481.9421 473.9877,480.4676 473.9463,478.9038 474.3902,477.4038"/>
  </g>
</svg>
