<?xml version="1.0" encoding="utf-8" ?>
<svg xmlns="http://www.w3.org/2000/svg" xmlns:cc="http://creativecommons.org/ns" xmlns:dc="http://purl.org/dc/elements/1.1/" xmlns:ev="http://www.w3.org/2001/xml-events" xmlns:inkscape="http://www.inkscape.org/namespaces/inkscape" xmlns:rdf="http://www.w3.org/1999/02/22-rdf-syntax-ns" xmlns:sodipodi="http://sodipodi.sourceforge.net/DTD/sodipodi-0.dtd" xmlns:xlink="http://www.w3.org/1999/xlink" baseProfile="tiny" height="0.3571875cm" version="1.2" viewBox="0 0 104.0625 13.5" width="2.75332031cm">
  <metadata>
    <rdf:RDF>
      <cc:Work>
        <dc:format>image/svg+xml</dc:format>
        <dc:source>vpype text 'helowoadk\n' write oaa.svg
</dc:source>
        <dc:date>2024-05-08T14:41:37.718454</dc:date>
      </cc:Work>
    </rdf:RDF>
  </metadata>
  <defs/>
  <g fill="none" id="layer1" inkscape:groupmode="layer" inkscape:label="1" stroke="#0000ff" style="display:inline">
    <line x1="0.0" x2="0.0" y1="0.0" y2="11.8125"/>
    <polyline points="0.0,6.1875 1.6875,4.5 2.8125,3.9375 4.5,3.9375 5.625,4.5 6.1875,6.1875 6.1875,11.8125"/>
    <polyline points="10.125,7.3125 16.875,7.3125 16.875,6.1875 16.3125,5.0625 15.75,4.5 14.625,3.9375 12.9375,3.9375 11.8125,4.5 10.6875,5.625 10.125,7.3125 10.125,8.4375 10.6875,10.125 11.8125,11.25 12.9375,11.8125 14.625,11.8125 15.75,11.25 16.875,10.125"/>
    <line x1="20.8125" x2="20.8125" y1="0.0" y2="11.8125"/>
    <polygon points="27.5625,3.9375 26.4375,4.5 25.3125,5.625 24.75,7.3125 24.75,8.4375 25.3125,10.125 26.4375,11.25 27.5625,11.8125 29.25,11.8125 30.375,11.25 31.5,10.125 32.0625,8.4375 32.0625,7.3125 31.5,5.625 30.375,4.5 29.25,3.9375"/>
    <line x1="35.4375" x2="37.6875" y1="3.9375" y2="11.8125"/>
    <line x1="39.9375" x2="37.6875" y1="3.9375" y2="11.8125"/>
    <line x1="39.9375" x2="42.1875" y1="3.9375" y2="11.8125"/>
    <line x1="44.4375" x2="42.1875" y1="3.9375" y2="11.8125"/>
    <polygon points="50.625,3.9375 49.5,4.5 48.375,5.625 47.8125,7.3125 47.8125,8.4375 48.375,10.125 49.5,11.25 50.625,11.8125 52.3125,11.8125 53.4375,11.25 54.5625,10.125 55.125,8.4375 55.125,7.3125 54.5625,5.625 53.4375,4.5 52.3125,3.9375"/>
    <line x1="65.25" x2="65.25" y1="3.9375" y2="11.8125"/>
    <polyline points="65.25,5.625 64.125,4.5 63.0,3.9375 61.3125,3.9375 60.1875,4.5 59.0625,5.625 58.5,7.3125 58.5,8.4375 59.0625,10.125 60.1875,11.25 61.3125,11.8125 63.0,11.8125 64.125,11.25 65.25,10.125"/>
    <line x1="75.9375" x2="75.9375" y1="0.0" y2="11.8125"/>
    <polyline points="75.9375,5.625 74.8125,4.5 73.6875,3.9375 72.0,3.9375 70.875,4.5 69.75,5.625 69.1875,7.3125 69.1875,8.4375 69.75,10.125 70.875,11.25 72.0,11.8125 73.6875,11.8125 74.8125,11.25 75.9375,10.125"/>
    <line x1="80.4375" x2="80.4375" y1="0.0" y2="11.8125"/>
    <line x1="86.0625" x2="80.4375" y1="3.9375" y2="9.5625"/>
    <line x1="82.6875" x2="86.625" y1="7.3125" y2="11.8125"/>
    <line x1="87.75" x2="95.625" y1="0.0" y2="13.5"/>
    <line x1="97.875" x2="97.875" y1="3.9375" y2="11.8125"/>
    <polyline points="97.875,6.1875 99.5625,4.5 100.6875,3.9375 102.375,3.9375 103.5,4.5 104.0625,6.1875 104.0625,11.8125"/>
  </g>
</svg>
