<?xml version="1.0" encoding="utf-8" ?>
<svg xmlns="http://www.w3.org/2000/svg" xmlns:cc="http://creativecommons.org/ns" xmlns:dc="http://purl.org/dc/elements/1.1/" xmlns:ev="http://www.w3.org/2001/xml-events" xmlns:inkscape="http://www.inkscape.org/namespaces/inkscape" xmlns:rdf="http://www.w3.org/1999/02/22-rdf-syntax-ns" xmlns:sodipodi="http://sodipodi.sourceforge.net/DTD/sodipodi-0.dtd" xmlns:xlink="http://www.w3.org/1999/xlink" baseProfile="tiny" height="0.43160156cm" version="1.2" viewBox="0 0 141.1875 16.3125" width="3.73558594cm">
  <metadata>
    <rdf:RDF>
      <cc:Work>
        <dc:format>image/svg+xml</dc:format>
        <dc:source>vpype text 'wjdiajw	wdojadsw' write www.svg
</dc:source>
        <dc:date>2024-05-09T16:36:13.805278</dc:date>
      </cc:Work>
    </rdf:RDF>
  </metadata>
  <defs/>
  <g fill="none" id="layer1" inkscape:groupmode="layer" inkscape:label="1" stroke="#0000ff" style="display:inline">
    <line x1="0.0" x2="2.25" y1="4.5" y2="12.375"/>
    <line x1="4.5" x2="2.25" y1="4.5" y2="12.375"/>
    <line x1="4.5" x2="6.75" y1="4.5" y2="12.375"/>
    <line x1="9.0" x2="6.75" y1="4.5" y2="12.375"/>
    <polygon points="13.5,0.5625 14.0625,1.125 14.625,0.5625 14.0625,0.0"/>
    <polyline points="14.0625,4.5 14.0625,14.0625 13.5,15.75 12.375,16.3125 11.25,16.3125"/>
    <line x1="24.75" x2="24.75" y1="0.5625" y2="12.375"/>
    <polyline points="24.75,6.1875 23.625,5.0625 22.5,4.5 20.8125,4.5 19.6875,5.0625 18.5625,6.1875 18.0,7.875 18.0,9.0 18.5625,10.6875 19.6875,11.8125 20.8125,12.375 22.5,12.375 23.625,11.8125 24.75,10.6875"/>
    <polygon points="28.6875,0.5625 29.25,1.125 29.8125,0.5625 29.25,0.0"/>
    <line x1="29.25" x2="29.25" y1="4.5" y2="12.375"/>
    <line x1="39.9375" x2="39.9375" y1="4.5" y2="12.375"/>
    <polyline points="39.9375,6.1875 38.8125,5.0625 37.6875,4.5 36.0,4.5 34.875,5.0625 33.75,6.1875 33.1875,7.875 33.1875,9.0 33.75,10.6875 34.875,11.8125 36.0,12.375 37.6875,12.375 38.8125,11.8125 39.9375,10.6875"/>
    <polygon points="45.0,0.5625 45.5625,1.125 46.125,0.5625 45.5625,0.0"/>
    <polyline points="45.5625,4.5 45.5625,14.0625 45.0,15.75 43.875,16.3125 42.75,16.3125"/>
    <line x1="49.5" x2="51.75" y1="4.5" y2="12.375"/>
    <line x1="54.0" x2="51.75" y1="4.5" y2="12.375"/>
    <line x1="54.0" x2="56.25" y1="4.5" y2="12.375"/>
    <line x1="58.5" x2="56.25" y1="4.5" y2="12.375"/>
    <line x1="61.875" x2="64.125" y1="4.5" y2="12.375"/>
    <line x1="66.375" x2="64.125" y1="4.5" y2="12.375"/>
    <line x1="66.375" x2="68.625" y1="4.5" y2="12.375"/>
    <line x1="70.875" x2="68.625" y1="4.5" y2="12.375"/>
    <line x1="81.0" x2="81.0" y1="0.5625" y2="12.375"/>
    <polyline points="81.0,6.1875 79.875,5.0625 78.75,4.5 77.0625,4.5 75.9375,5.0625 74.8125,6.1875 74.25,7.875 74.25,9.0 74.8125,10.6875 75.9375,11.8125 77.0625,12.375 78.75,12.375 79.875,11.8125 81.0,10.6875"/>
    <polygon points="87.75,4.5 86.625,5.0625 85.5,6.1875 84.9375,7.875 84.9375,9.0 85.5,10.6875 86.625,11.8125 87.75,12.375 89.4375,12.375 90.5625,11.8125 91.6875,10.6875 92.25,9.0 92.25,7.875 91.6875,6.1875 90.5625,5.0625 89.4375,4.5"/>
    <polygon points="96.75,0.5625 97.3125,1.125 97.875,0.5625 97.3125,0.0"/>
    <polyline points="97.3125,4.5 97.3125,14.0625 96.75,15.75 95.625,16.3125 94.5,16.3125"/>
    <line x1="108.0" x2="108.0" y1="4.5" y2="12.375"/>
    <polyline points="108.0,6.1875 106.875,5.0625 105.75,4.5 104.0625,4.5 102.9375,5.0625 101.8125,6.1875 101.25,7.875 101.25,9.0 101.8125,10.6875 102.9375,11.8125 104.0625,12.375 105.75,12.375 106.875,11.8125 108.0,10.6875"/>
    <line x1="118.6875" x2="118.6875" y1="0.5625" y2="12.375"/>
    <polyline points="118.6875,6.1875 117.5625,5.0625 116.4375,4.5 114.75,4.5 113.625,5.0625 112.5,6.1875 111.9375,7.875 111.9375,9.0 112.5,10.6875 113.625,11.8125 114.75,12.375 116.4375,12.375 117.5625,11.8125 118.6875,10.6875"/>
    <polyline points="128.8125,6.1875 128.25,5.0625 126.5625,4.5 124.875,4.5 123.1875,5.0625 122.625,6.1875 123.1875,7.3125 124.3125,7.875 127.125,8.4375 128.25,9.0 128.8125,10.125 128.8125,10.6875 128.25,11.8125 126.5625,12.375 124.875,12.375 123.1875,11.8125 122.625,10.6875"/>
    <line x1="132.1875" x2="134.4375" y1="4.5" y2="12.375"/>
    <line x1="136.6875" x2="134.4375" y1="4.5" y2="12.375"/>
    <line x1="136.6875" x2="138.9375" y1="4.5" y2="12.375"/>
    <line x1="141.1875" x2="138.9375" y1="4.5" y2="12.375"/>
  </g>
</svg>
