<?xml version="1.0" encoding="utf-8" ?>
<svg xmlns="http://www.w3.org/2000/svg" xmlns:cc="http://creativecommons.org/ns" xmlns:dc="http://purl.org/dc/elements/1.1/" xmlns:ev="http://www.w3.org/2001/xml-events" xmlns:inkscape="http://www.inkscape.org/namespaces/inkscape" xmlns:rdf="http://www.w3.org/1999/02/22-rdf-syntax-ns" xmlns:sodipodi="http://sodipodi.sourceforge.net/DTD/sodipodi-0.dtd" xmlns:xlink="http://www.w3.org/1999/xlink" baseProfile="tiny" height="20.828cm" version="1.2" viewBox="0 0 1344.0 787.1999999999999" width="35.56cm">
  <metadata>
    <rdf:RDF>
      <cc:Work>
        <dc:format>image/svg+xml</dc:format>
        <dc:source>vpype read /home/penplotter/Pen_plotter_V2/my_flask/static/Image_Storage/Text/Untitled_documentresized.svg translate 2cm 0in linemerge --tolerance 0.7mm linesort linesimplify write --page-size 14inx8.2in /home/penplotter/Pen_plotter_V2/my_flask/static/Image_Storage/Text/Untitled_documentresized.svg
</dc:source>
        <dc:date>2024-01-17T12:40:53.306198</dc:date>
      </cc:Work>
    </rdf:RDF>
  </metadata>
  <defs/>
  <g fill="none" id="layer1" inkscape:groupmode="layer" inkscape:label="1" stroke="#000000" stroke-width="1.3333" style="display:inline">
    <polygon points="75.5906,0.0 891.5906,0.0 891.5906,1056.0 75.5906,1056.0"/>
    <polygon points="172.7572,109.7572 172.7572,99.2572 174.1531,99.2572 174.1531,103.5697 179.6114,103.5697 179.6114,99.2572 181.0072,99.2572 181.0072,109.7572 179.6114,109.7572 179.6114,104.7988 174.1531,104.7988 174.1531,109.7572"/>
    <polygon points="184.1123,105.2155 188.3623,105.2155 187.8832,103.778 187.169,103.2318 186.279,103.0488 184.779,103.653"/>
    <polygon points="188.3415,107.2988 189.6748,107.4655 189.1041,108.6805 187.8862,109.6376 185.8781,109.9031 183.9887,109.1744 183.0975,108.0226 182.7316,106.4797 182.96,104.3158 183.6957,103.0488 184.6561,102.3333 185.8232,102.008 187.4712,102.1782 188.4718,102.7522 189.4756,104.2695 189.7165,106.278 184.0498,106.278 184.5098,107.9053 185.8806,108.8201 187.5498,108.5072"/>
    <polygon points="191.2634,109.7572 191.2634,99.2572 192.5551,99.2572 192.5551,109.7572"/>
    <polygon points="194.5196,109.7572 194.5196,99.2572 195.8112,99.2572 195.8112,109.7572"/>
    <polyline points="197.3174,105.9447 197.552,104.2896 198.5049,102.8197 200.003,102.0797 201.7454,102.0703 203.1496,102.7374 204.0518,103.8849 204.4268,105.3998 204.248,107.5365 203.1135,109.2146 201.3802,109.8947 199.2636,109.5912 197.8667,108.3368 197.3174,105.9447 198.6507,105.9447 198.9285,107.5851 200.0023,108.6849 201.3576,108.8162 202.6802,107.8683 203.1117,106.3817 202.9671,104.6764 202.4841,103.778 201.351,103.0946 200.0023,103.2318 199.2757,103.778 198.807,104.6758 198.6507,105.9447"/>
    <polygon points="210.0196,109.7572 210.0196,99.2572 211.3113,99.2572 211.3113,103.028 212.3419,102.2474 213.603,101.9863 215.0613,102.3197 215.9571,103.2363 216.2106,104.4163 216.228,109.7572 214.9363,109.7572 214.8896,104.3528 214.5196,103.528 213.3321,103.0905 212.2488,103.3822 211.4031,104.5727 211.3113,109.7572"/>
    <polyline points="217.6916,105.9447 218.0581,103.9423 218.8791,102.8197 220.3772,102.0797 222.1196,102.0703 223.5238,102.7374 224.426,103.8849 224.801,105.3998 224.6221,107.5365 223.4877,109.2146 221.7544,109.8947 219.6378,109.5912 218.2409,108.3368 217.6916,105.9447 219.0249,105.9447 219.3027,107.5851 220.3765,108.6849 221.7318,108.8162 223.0544,107.8683 223.4859,106.3817 223.3413,104.6764 222.8583,103.778 221.7252,103.0946 220.3765,103.2318 219.6499,103.778 219.1812,104.6758 219.0249,105.9447"/>
    <polygon points="227.7385,109.7572 225.4052,102.153 226.7385,102.153 228.4052,108.1738 230.0094,102.153 231.3219,102.153 232.8427,108.0072 234.5927,102.153 235.8427,102.153 233.4677,109.7572 232.1344,109.7572 230.6135,103.903 229.0719,109.7572"/>
    <polygon points="245.9573,108.8197 244.5614,109.6738 243.1448,109.9238 241.8473,109.7078 240.9142,108.9876 240.5818,108.2064 240.6031,107.2214 241.4573,106.0072 242.3948,105.5697 245.8323,104.9238 245.6864,103.7483 244.4769,103.0762 242.6656,103.3613 242.0406,104.4863 240.7698,104.3197 241.634,102.7016 242.8669,102.1401 244.2073,101.9863 245.7906,102.2155 246.6656,102.7988 247.0823,103.653 247.202,108.6452 247.5614,109.7572 246.2073,109.7572"/>
    <polygon points="245.8323,105.9447 242.6031,106.6947 242.1031,107.1113 242.0139,108.196 242.9959,108.8872 244.7698,108.5905 245.6448,107.6947"/>
    <polygon points="249.1292,109.7572 249.1292,102.153 250.2751,102.153 250.2751,103.2988 251.499,102.0488 253.2542,102.403 252.8167,103.5905 251.8584,103.3197 250.82,103.873 250.4337,105.3796 250.4209,109.7572"/>
    <polygon points="254.989,105.2155 259.239,105.2155 258.7599,103.778 258.0457,103.2318 257.1557,103.0488 255.6557,103.653"/>
    <polygon points="259.2182,107.2988 260.5515,107.4655 259.9808,108.6805 258.763,109.6376 256.7549,109.9031 254.8654,109.1744 253.9742,108.0226 253.6084,106.4797 253.8367,104.3158 254.5724,103.0488 255.5328,102.3333 256.6999,102.008 258.3479,102.1782 259.3485,102.7522 260.3523,104.2695 260.5932,106.278 254.9265,106.278 255.3865,107.9053 256.7573,108.8201 258.4265,108.5072"/>
    <polygon points="266.1913,112.6947 266.0455,111.4863 267.4621,111.4447 268.3996,109.778 265.5038,102.153 266.8996,102.153 269.0246,108.3197 271.1913,102.153 272.483,102.153 268.858,111.6113 267.5865,112.7669"/>
    <polyline points="273.0819,105.9447 273.4484,103.9423 274.2694,102.8197 275.7675,102.0797 277.5099,102.0703 278.9142,102.7374 279.8163,103.8849 280.1913,105.3998 280.0125,107.5365 278.8781,109.2146 277.1447,109.8947 275.0281,109.5912 273.6312,108.3368 273.0819,105.9447 274.4152,105.9447 274.693,107.5851 275.7668,108.6849 277.1221,108.8162 278.4447,107.8683 278.8762,106.3817 278.7316,104.6764 278.2486,103.778 277.1155,103.0946 275.7668,103.2318 275.0402,103.778 274.5715,104.6758 274.4152,105.9447"/>
    <polygon points="286.7122,109.7572 286.7122,108.6322 285.8277,109.5035 284.7161,109.8976 283.0247,109.6738 282.1497,109.028 281.7002,107.3667 281.6914,102.153 282.983,102.153 283.0664,107.7363 283.5664,108.528 284.5455,108.8197 285.6289,108.528 286.358,107.7155 286.5664,102.153 287.858,102.153 287.858,109.7572"/>
    <polygon points="294.8103,105.9655 295.0772,107.587 296.0909,108.6849 297.2819,108.8184 298.5189,107.87 298.8699,106.6085 298.8261,105.1214 298.4734,104.0454 297.626,103.2318 296.3982,103.0936 295.6794,103.4487 295.0603,104.3089"/>
    <polygon points="298.8728,109.7572 298.8728,108.7988 298.3207,109.4238 297.1996,109.8926 295.8812,109.7988 294.7168,109.1493 293.6254,107.2705 293.5369,105.088 294.0705,103.4634 295.3845,102.2676 297.1266,102.0191 298.7894,103.028 298.7894,99.2572 300.0811,99.2572 300.0811,109.7572"/>
    <polyline points="301.6072,105.9447 301.9737,103.9423 302.7947,102.8197 304.2928,102.0797 306.0352,102.0703 307.4394,102.7374 308.3416,103.8849 308.7166,105.3998 308.5378,107.5365 307.4034,109.2146 305.67,109.8947 303.5534,109.5912 302.1565,108.3368 301.6072,105.9447 302.9405,105.9447 303.2183,107.5851 304.2921,108.6849 305.6474,108.8162 306.97,107.8683 307.4015,106.3817 307.2569,104.6764 306.7739,103.778 305.6408,103.0946 304.2921,103.2318 303.5655,103.778 303.0968,104.6758 302.9405,105.9447"/>
    <polygon points="310.2583,109.7572 310.2583,102.153 311.55,102.153 311.55,109.7572"/>
    <polygon points="313.4936,109.7572 313.4936,102.153 314.6603,102.153 314.6603,103.2363 315.5103,102.3945 316.6392,102.0118 317.9466,102.0974 318.8511,102.5143 319.6186,103.8197 319.6811,109.7572 318.3895,109.7572 318.3231,104.2622 317.702,103.3405 316.8061,103.0905 315.7038,103.3849 315.0013,104.1826 314.7853,109.7572"/>
    <polygon points="321.4156,110.3822 322.6656,110.5697 323.1031,111.4238 323.8982,111.7383 325.4225,111.6198 326.0861,111.153 326.4572,110.4238 326.5614,108.7572 324.847,109.7294 323.6011,109.6653 322.5649,109.1832 321.443,107.5717 321.2284,105.0655 321.7782,103.4714 323.0781,102.2676 324.8877,102.0167 325.6747,102.2585 326.6656,103.0697 326.6656,102.153 327.8531,102.153 327.8133,109.7903 327.2928,111.59 325.6606,112.683 323.5684,112.7711 321.9281,111.9473"/>
    <polygon points="322.4781,105.8197 322.7366,107.4586 323.7372,108.5228 325.3817,108.5228 326.3963,107.4636 326.5656,104.8567 326.0406,103.7572 325.3531,103.2272 324.1274,103.0936 323.3987,103.4487 322.6941,104.4172"/>
    <polygon points="310.2583,100.7363 310.2583,99.2572 311.55,99.2572 311.55,100.7363"/>
  </g>
</svg>
