<?xml version="1.0" standalone="no"?>
<!DOCTYPE svg PUBLIC "-//W3C//DTD SVG 20010904//EN"
 "http://www.w3.org/TR/2001/REC-SVG-20010904/DTD/svg10.dtd">
<svg version="1.0" xmlns="http://www.w3.org/2000/svg"
 width="630.000000pt" height="500.000000pt" viewBox="0 0 630.000000 500.000000"
 preserveAspectRatio="xMidYMid meet">
<metadata>
Created by potrace 1.16, written by Peter Selinger 2001-2019
</metadata>
<g transform="translate(0.000000,500.000000) scale(0.100000,-0.100000)"
fill="#000000" stroke="none">
<path d="M0 2500 l0 -2500 193 0 194 0 -16 68 c-10 43 -15 119 -15 217 0 231
32 324 134 379 44 24 59 27 98 22 93 -13 152 -89 176 -226 17 -97 21 -378 7
-427 l-10 -33 44 0 44 0 -13 33 c-44 105 -48 395 -6 500 25 63 85 126 123 128
86 5 126 -18 153 -87 20 -54 11 -99 -21 -99 -16 0 -21 9 -27 50 -13 90 -71
111 -132 48 -46 -47 -77 -130 -79 -208 l-2 -60 48 2 c35 2 49 -1 53 -12 7 -18
-14 -47 -27 -39 -5 3 -23 3 -39 -1 -27 -6 -30 -10 -30 -46 0 -54 33 -136 72
-176 29 -30 37 -33 95 -33 l62 0 16 55 c9 30 21 58 27 61 18 11 29 -20 24 -68
-5 -46 -4 -48 21 -48 l26 0 -7 108 c-3 60 -9 194 -12 298 -4 104 -7 203 -8
219 -1 24 4 31 22 33 85 12 210 -107 256 -242 34 -99 14 -260 -45 -364 l-29
-52 70 0 70 0 0 318 c0 307 1 320 20 337 11 10 23 15 26 12 4 -4 6 -147 6
-319 -1 -172 1 -321 4 -330 4 -12 16 -18 38 -18 l33 0 -1 331 -1 331 24 19
c23 19 24 19 63 -3 58 -33 115 -99 128 -150 19 -69 8 -178 -23 -231 -29 -49
-76 -93 -115 -108 -24 -9 -24 -12 -18 -71 3 -33 6 -74 6 -89 l0 -29 116 0 117
0 -6 113 c-4 61 -10 207 -13 323 -7 210 -7 211 15 217 11 3 23 2 25 -1 2 -4 7
-108 10 -232 8 -233 18 -347 35 -393 10 -26 14 -27 80 -27 l69 0 5 133 c2 72
-1 211 -6 307 -6 97 -8 183 -4 193 11 30 36 19 46 -20 27 -101 35 -419 16
-575 l-5 -38 91 0 c88 0 92 1 121 31 28 27 30 34 24 75 -8 63 -49 142 -114
219 -50 61 -55 70 -59 128 -4 52 -1 69 19 107 60 112 194 120 214 13 9 -47
-17 -54 -54 -15 -72 77 -154 -31 -108 -141 7 -18 39 -60 70 -94 31 -33 65 -80
76 -104 24 -54 26 -148 5 -189 l-16 -30 286 0 c157 0 285 3 285 6 0 3 -33 52
-73 108 -41 56 -90 125 -111 154 -36 52 -172 287 -296 512 -34 63 -98 179
-142 257 -75 134 -291 578 -358 735 -42 99 -90 275 -82 298 14 37 308 213 437
261 30 11 57 25 61 30 3 5 -21 62 -54 127 -69 135 -102 223 -142 377 -45 173
-54 254 -54 465 0 331 34 497 147 725 71 143 179 296 269 380 92 86 196 164
226 170 11 2 33 10 49 18 74 38 339 84 423 72 144 -19 220 -40 318 -87 94 -44
114 -59 206 -151 74 -75 117 -128 160 -200 208 -347 269 -776 171 -1197 -77
-327 -143 -518 -217 -623 -24 -34 -19 -40 52 -60 74 -22 219 -93 309 -153 40
-27 84 -55 97 -62 18 -10 24 -21 24 -48 0 -154 -194 -686 -372 -1019 -27 -49
-70 -135 -97 -190 -27 -55 -63 -124 -80 -153 -17 -30 -61 -111 -98 -180 -65
-126 -130 -242 -222 -397 -26 -44 -60 -101 -75 -128 l-27 -47 226 0 225 0 0
210 0 210 -44 0 c-52 0 -100 16 -91 30 3 5 37 10 75 10 37 0 114 5 170 11 72
7 106 7 113 0 21 -21 -14 -36 -98 -42 -47 -3 -87 -8 -90 -10 -3 -3 -2 -99 2
-212 l6 -207 97 0 97 0 6 155 c4 85 4 181 1 213 -7 65 8 111 30 93 8 -7 12
-52 11 -155 0 -169 -4 -163 107 -144 l68 11 2 46 c1 25 3 91 3 146 0 82 3 100
15 100 13 0 15 -32 13 -232 l-2 -233 24 0 c22 0 23 2 13 30 -6 17 -9 81 -7
148 4 104 7 123 32 174 32 65 72 103 123 117 41 11 90 -2 104 -28 16 -31 23
-118 10 -126 -15 -9 -26 8 -35 54 -9 50 -31 72 -64 65 -62 -15 -117 -103 -128
-204 l-6 -60 62 0 c47 0 63 -4 68 -16 9 -23 -15 -34 -76 -34 l-54 0 6 -33 c3
-17 10 -44 16 -59 10 -28 11 -28 106 -28 95 0 95 0 95 25 0 16 6 25 15 25 9 0
15 -9 15 -25 l0 -25 145 0 145 0 0 244 c0 154 4 247 10 251 16 10 20 -12 28
-184 l7 -164 40 79 c87 171 130 244 140 241 23 -8 12 -47 -39 -130 l-53 -89
27 -86 c15 -48 35 -104 45 -125 18 -36 20 -37 73 -37 l54 0 -3 228 c-2 218 -2
227 17 227 18 0 19 -12 25 -225 3 -124 7 -226 8 -227 0 -2 15 -3 32 -3 l30 0
-1 198 c-1 108 -1 203 -1 210 1 21 31 13 40 -10 5 -13 34 -88 65 -168 31 -80
65 -161 76 -180 l20 -35 -1 217 c-1 119 2 221 6 228 4 6 12 9 18 7 8 -2 12
-44 12 -133 1 -71 2 -175 3 -231 l2 -103 40 0 41 0 -8 38 c-4 20 -8 91 -7 157
1 138 10 167 73 237 65 72 143 78 181 15 23 -37 27 -109 7 -126 -19 -15 -27
-4 -27 35 0 72 -43 110 -95 86 -38 -17 -83 -88 -96 -150 -14 -70 -8 -217 12
-257 14 -29 16 -30 97 -33 l82 -3 0 51 0 50 -60 0 c-45 0 -62 4 -67 15 -3 9
-2 19 1 23 10 10 139 20 149 12 4 -4 11 -39 14 -78 l6 -72 118 0 119 0 0 2500
0 2500 -539 0 -539 0 10 -42 c5 -24 14 -47 20 -53 7 -7 8 -2 4 15 -7 23 -6 24
8 7 14 -18 15 -17 19 15 2 18 5 -9 5 -60 1 -51 -2 -91 -6 -88 -4 2 -7 -10 -6
-27 1 -18 -1 -22 -3 -9 -5 26 -20 29 -26 5 -2 -10 -5 14 -6 52 -1 39 -7 95
-15 125 l-13 55 -1564 3 -1565 2 -18 -52 c-29 -90 -121 -397 -156 -523 -18
-66 -48 -172 -67 -235 -19 -63 -38 -128 -43 -145 -4 -16 -23 -82 -43 -145 -19
-63 -49 -176 -65 -250 -17 -74 -42 -172 -55 -218 -19 -64 -22 -92 -16 -120 5
-20 20 -98 34 -172 65 -331 122 -566 190 -780 18 -58 47 -152 65 -210 38 -126
135 -390 162 -444 18 -36 19 -40 3 -55 -15 -15 -18 -14 -34 6 -20 24 -179 420
-178 444 0 17 -44 184 -73 269 -31 93 -152 572 -151 600 0 8 -7 44 -14 80 -8
36 -22 108 -31 160 -9 52 -20 102 -24 110 -9 16 22 161 72 345 52 195 197 709
213 755 36 113 95 329 95 353 0 14 4 28 10 32 9 6 52 136 46 142 -1 2 -14 -19
-27 -46 -26 -55 -52 -76 -47 -38 2 22 -2 27 -23 27 -5 0 -7 -5 -4 -11 7 -11
-34 -46 -48 -41 -5 1 -6 -2 -2 -8 3 -5 -1 -13 -9 -16 -9 -3 -13 -10 -11 -15 8
-12 -23 -69 -36 -69 -8 0 -8 4 0 13 6 8 8 17 4 20 -3 4 -1 7 5 7 7 0 12 9 12
21 0 13 -4 18 -12 13 -7 -4 -3 3 10 16 13 12 21 29 18 37 -3 8 -1 11 4 8 6 -3
10 -1 10 5 0 6 17 27 38 45 20 19 31 35 23 35 -8 0 -21 -7 -30 -15 -9 -9 -50
-40 -91 -71 -96 -69 -122 -101 -108 -127 7 -13 7 -17 0 -13 -6 3 -13 2 -17 -4
-3 -5 -19 -10 -35 -10 -16 0 -32 -5 -35 -10 -4 -6 -11 -7 -17 -4 -6 4 -8 3 -5
-3 12 -19 -73 -85 -115 -88 -4 0 -14 -9 -23 -20 -9 -11 -13 -14 -9 -6 8 16 6
15 -76 -38 -64 -41 -115 -81 -103 -81 4 0 32 16 61 36 30 20 56 33 59 31 7 -8
-68 -76 -92 -83 -11 -4 -38 -22 -59 -40 -42 -36 -61 -42 -69 -21 -8 22 -20 -1
-13 -27 4 -18 11 -24 23 -19 13 5 15 1 10 -24 -3 -17 -8 -44 -11 -59 l-6 -29
12 28 c7 15 16 27 21 27 4 0 5 6 1 13 -5 9 -3 9 7 -1 27 -25 18 -195 -10 -178
-4 3 -5 -9 -3 -25 5 -36 4 -37 35 25 22 43 26 46 32 27 4 -14 -1 -34 -15 -58
-15 -26 -18 -38 -10 -43 8 -5 10 -19 5 -40 -4 -17 -8 -41 -9 -53 -2 -12 -6
-38 -10 -57 -7 -33 -6 -34 9 -15 15 18 15 18 10 -15 l-5 -35 14 30 c9 17 15
37 16 46 0 9 7 16 16 16 13 0 14 -10 8 -66 -4 -36 -13 -80 -20 -98 -16 -38
-19 -82 -3 -48 6 13 8 -10 5 -72 -2 -67 0 -88 8 -80 6 7 11 28 12 47 1 52 13
90 27 87 6 -1 13 10 15 25 2 19 8 25 18 21 10 -3 14 2 14 18 0 12 3 20 6 16 3
-3 -2 -36 -11 -74 -9 -38 -15 -82 -13 -98 4 -28 5 -27 17 17 11 39 35 67 47
55 2 -1 -8 -38 -22 -81 -13 -43 -23 -81 -20 -83 3 -3 10 13 16 36 16 59 33 64
29 7 -2 -25 -1 -46 3 -46 5 0 8 8 8 17 0 9 3 14 6 10 4 -3 -3 -26 -15 -50 -22
-46 -27 -83 -11 -89 5 -1 14 -57 19 -123 9 -125 5 -112 107 -374 14 -34 22
-70 19 -80 -4 -12 -134 -118 -188 -152 -6 -5 -3 -40 8 -102 22 -113 13 -177
-37 -264 -49 -88 -109 -120 -205 -110 -114 12 -176 103 -177 261 -1 50 3 109
7 132 l8 41 -72 32 c-40 18 -94 47 -121 64 l-49 32 6 60 c3 33 12 96 20 140
31 180 49 436 34 494 -7 27 19 22 29 -6 l10 -28 1 30 c0 17 -4 51 -8 78 -4 26
-4 47 0 47 4 0 5 24 2 54 -7 63 2 110 19 100 8 -5 9 4 5 30 l-6 37 18 -23 c10
-13 22 -47 26 -75 4 -29 11 -53 16 -53 5 0 9 -9 9 -20 0 -11 5 -20 10 -20 6 0
10 -17 10 -37 0 -50 17 -30 23 27 5 56 -11 213 -27 260 -13 38 -11 64 5 54 12
-7 12 -6 -15 64 -30 76 -18 83 29 17 12 -18 13 -16 4 20 -6 22 -12 55 -14 73
-2 18 -9 39 -15 47 -6 8 -9 19 -5 25 4 6 0 22 -9 35 -9 13 -16 27 -16 29 0 10
35 -8 48 -23 11 -14 12 -12 6 9 -3 14 -17 45 -30 70 -18 34 -19 40 -5 23 11
-13 24 -23 29 -23 5 0 17 -10 26 -22 16 -23 17 -22 10 17 -6 39 -5 39 14 22
19 -17 20 -17 24 1 3 11 0 32 -7 49 -14 32 -1 63 22 56 18 -6 16 15 -3 34 -8
9 -13 22 -10 30 3 8 -3 17 -17 22 -12 5 -33 21 -47 36 -43 47 -162 147 -168
141 -3 -4 8 -21 24 -39 16 -18 10 -14 -14 10 -25 25 -40 48 -36 55 4 6 3 8 -3
5 -5 -4 -21 4 -34 16 -33 31 -162 117 -168 111 -3 -2 13 -23 35 -47 22 -23 48
-53 58 -67 10 -14 -23 18 -73 70 -85 87 -91 91 -71 51 12 -23 16 -40 9 -35 -9
5 -10 2 -6 -9 16 -41 -25 -7 -59 49 -7 11 -15 16 -19 12 -4 -4 7 -37 25 -73
35 -72 35 -101 0 -38 -15 27 -20 31 -16 13 4 -14 9 -43 12 -65 20 -133 56
-309 68 -337 l15 -33 -6 45 c-3 25 -2 42 2 38 5 -5 9 -51 9 -103 1 -70 5 -98
15 -105 8 -4 11 -15 8 -24 -4 -9 -2 -16 3 -16 8 0 14 -31 25 -135 3 -29 2 -34
-5 -20 -14 33 -11 6 15 -119 14 -65 32 -129 40 -142 19 -30 20 -54 0 -28 -8
10 -14 17 -15 14 0 -10 40 -207 50 -241 23 -82 20 -150 -16 -290 -8 -30 -14
-67 -14 -82 0 -15 -5 -27 -11 -27 -7 0 -9 -12 -4 -36 5 -27 3 -34 -6 -29 -9 6
-10 -2 -5 -30 7 -34 -1 -89 -24 -170 -7 -25 -8 -23 -3 10 3 22 3 37 -1 34 -9
-8 -94 -435 -100 -505 -3 -32 -10 -62 -15 -67 -5 -5 -7 -15 -5 -21 2 -6 -2
-33 -10 -58 -8 -29 -10 -48 -4 -50 6 -2 5 -14 -3 -30 -6 -15 -15 -25 -19 -23
-8 5 -36 -83 -32 -102 1 -6 -6 -33 -17 -60 -16 -41 -36 -113 -54 -198 -3 -11
-5 21 -6 70 -1 71 5 111 25 180 24 84 64 249 118 495 13 58 47 227 75 375 29
149 65 327 82 396 l29 126 -19 64 c-21 70 -80 387 -107 569 -3 25 -19 101 -34
170 -15 69 -33 159 -40 200 -23 142 -90 465 -110 530 -11 36 -20 73 -20 83 0
15 -14 17 -150 17 l-150 0 0 -2500z m1790 2287 c0 -2 -12 -14 -27 -28 -24 -22
-24 -13 0 19 8 11 27 17 27 9z m3507 -29 c-3 -8 -6 -5 -6 6 -1 11 2 17 5 13 3
-3 4 -12 1 -19z m-3364 -28 c-3 -11 -7 -20 -9 -20 -2 0 -4 9 -4 20 0 11 4 20
9 20 5 0 7 -9 4 -20z m3313 -108 c3 -18 9 -30 15 -27 5 4 9 1 9 -5 0 -6 4 -9
8 -6 5 3 8 -18 8 -47 0 -29 3 -72 7 -97 7 -40 7 -43 -6 -27 -15 18 -33 24 -22
8 3 -5 0 -13 -6 -17 -9 -5 -10 4 -5 35 4 28 3 40 -4 36 -6 -4 -9 -36 -8 -77 2
-54 7 -73 20 -82 22 -13 29 -5 39 41 6 29 7 23 3 -22 -8 -96 -6 -205 3 -205 3
0 14 11 25 25 28 36 110 75 156 75 57 0 123 -46 153 -106 19 -39 24 -65 24
-125 0 -66 -4 -84 -37 -150 -20 -40 -60 -99 -87 -130 l-51 -57 23 -53 c13 -30
34 -84 47 -122 l24 -68 -12 -272 c-11 -252 -17 -485 -16 -617 1 -87 19 -172
52 -236 18 -36 27 -66 23 -77 -6 -18 -7 -18 -23 0 -10 10 -24 34 -33 53 l-15
35 6 -50 c3 -27 17 -74 30 -104 27 -61 18 -96 -11 -41 -25 49 -28 29 -5 -34
12 -30 19 -60 16 -65 -3 -5 3 -20 14 -34 30 -38 24 -45 -10 -12 -16 15 -27 32
-24 36 5 9 -15 23 -22 16 -3 -3 2 -19 10 -36 23 -44 19 -52 -6 -12 -35 55 -32
20 7 -64 19 -43 35 -79 35 -80 0 -1 -11 -1 -24 0 -19 2 -23 -1 -19 -16 3 -10
10 -19 16 -19 7 0 6 -5 -2 -12 -11 -10 -14 -10 -18 0 -12 31 -24 7 -21 -42 2
-30 7 -52 11 -49 4 2 5 -8 2 -24 -5 -22 -4 -25 5 -13 9 12 10 11 5 -7 -7 -26
16 -84 51 -130 14 -18 21 -33 16 -33 -14 0 -69 65 -77 89 -3 12 -11 21 -17 21
-16 0 0 -67 33 -133 17 -32 28 -61 26 -64 -3 -2 -16 3 -30 12 -22 14 -42 54
-62 123 -13 45 -17 13 -5 -40 17 -76 44 -131 86 -178 20 -22 30 -40 23 -40
-26 1 -81 61 -106 118 -17 40 -27 52 -33 42 -6 -9 -10 -2 -15 26 -10 56 -23
102 -24 83 -1 -25 18 -122 29 -144 5 -11 17 -47 26 -79 12 -44 29 -72 62 -108
24 -26 40 -48 34 -48 -11 0 -69 45 -89 70 -18 22 -16 -2 2 -26 26 -34 16 -37
-15 -4 -17 18 -33 30 -36 28 -5 -5 19 -53 52 -103 9 -13 13 -28 10 -33 -3 -5
4 -23 14 -40 15 -25 16 -30 4 -25 -9 3 -26 30 -39 59 -28 64 -50 72 -42 17 16
-107 28 -158 37 -167 5 -5 10 -15 10 -20 0 -16 -48 59 -55 85 -3 13 -17 29
-30 36 -30 14 -30 13 -5 -34 11 -21 20 -45 20 -54 0 -9 7 -33 15 -53 13 -32
13 -36 0 -36 -9 0 -12 6 -8 17 4 11 3 14 -5 9 -8 -5 -10 -2 -6 9 4 9 0 23 -8
33 -19 23 -38 69 -38 92 0 10 -5 22 -12 26 -8 5 -9 -2 -4 -27 3 -19 11 -79 17
-133 6 -55 19 -125 30 -155 18 -55 18 -55 -1 -31 -10 13 -17 27 -15 30 2 3 -3
19 -11 35 l-14 30 6 -35 c4 -24 3 -32 -4 -25 -6 6 -13 35 -16 65 -3 30 -6 57
-7 60 -1 3 -7 -65 -13 -150 -9 -117 -9 -165 0 -198 12 -42 8 -57 -13 -44 -19
13 -44 109 -44 178 -1 62 -2 66 -14 45 l-13 -24 -7 22 c-4 13 -1 52 5 87 15
80 8 92 -15 24 -9 -28 -19 -49 -21 -47 -3 2 0 16 6 31 22 59 8 58 -20 -1 -20
-45 -33 -61 -44 -57 -13 5 -13 10 0 41 8 19 13 40 11 46 -2 7 0 22 4 35 8 20
7 21 -11 12 -24 -13 -26 3 -5 40 8 14 14 34 15 44 0 20 0 20 -15 0 -14 -18
-15 -17 -6 7 5 15 7 30 4 33 -3 3 0 12 6 20 7 8 11 25 9 38 -2 17 -11 4 -32
-49 -30 -75 -66 -123 -66 -89 0 21 24 101 52 173 11 29 17 57 12 64 -4 7 -3
10 3 6 6 -4 10 10 11 34 1 23 5 45 8 50 3 5 7 24 9 42 l4 32 -18 -25 c-11 -13
-25 -42 -32 -65 -18 -56 -18 -57 -35 -40 -18 17 -14 31 27 119 32 68 39 112 8
54 -19 -38 -47 -54 -34 -20 15 38 18 75 7 68 -17 -10 -15 -1 9 45 30 61 18 68
-19 11 -18 -27 -39 -52 -47 -56 -8 -3 -15 -4 -15 -2 0 1 26 56 59 122 32 65
61 133 65 149 5 27 4 26 -15 -10 -27 -50 -27 -51 -38 -39 -6 5 -6 27 -2 51 9
44 0 48 -27 11 -26 -35 -44 -11 -23 30 6 9 22 43 36 74 15 32 30 56 34 53 9
-5 12 15 9 70 -1 22 -1 67 0 100 1 42 -1 56 -8 45 -5 -8 -10 -21 -10 -27 0 -7
-9 -22 -20 -33 -11 -11 -20 -28 -20 -37 -1 -10 -8 -29 -16 -43 -11 -17 -13
-19 -9 -5 4 11 9 36 10 55 2 19 11 55 20 79 8 24 13 47 10 50 -8 7 -25 -19
-25 -39 0 -8 -19 -35 -41 -60 -32 -36 -36 -38 -16 -10 15 22 25 52 26 80 5 87
8 105 18 125 6 11 13 40 17 64 5 37 4 41 -9 31 -26 -21 -36 -2 -19 38 8 21 11
38 5 40 -5 2 2 15 15 29 45 48 47 96 21 453 -7 102 -12 291 -12 421 2 280 2
278 120 404 l75 80 -2 165 c-1 91 -1 183 -1 205 2 78 3 133 5 380 2 138 4 230
5 205 2 -25 6 -60 9 -78z m-3570 40 c-17 -16 -18 -16 -5 5 7 12 15 20 18 17 3
-2 -3 -12 -13 -22z m3621 -44 c-3 -7 -5 -2 -5 12 0 14 2 19 5 13 2 -7 2 -19 0
-25z m-3697 -32 c0 -2 -8 -10 -17 -17 -16 -13 -17 -12 -4 4 13 16 21 21 21 13z
m-196 -31 c-4 -8 -11 -15 -16 -15 -6 0 -5 6 2 15 7 8 14 15 16 15 2 0 1 -7 -2
-15z m-475 -92 c13 -28 13 -28 -8 -9 -22 20 -27 36 -13 36 5 0 14 -12 21 -27z
m874 12 c-3 -9 -8 -14 -10 -11 -3 3 -2 9 2 15 9 16 15 13 8 -4z m-1306 -57
c-3 -8 -6 -5 -6 6 -1 11 2 17 5 13 3 -3 4 -12 1 -19z m403 -341 c0 -16 -18 3
-23 25 -6 22 -5 22 8 4 8 -11 15 -24 15 -29z m-291 -282 c-2 -17 -27 69 -27
90 0 11 6 -2 14 -30 7 -27 13 -54 13 -60z m722 9 c-5 -16 -10 -21 -10 -12 -1
18 10 51 15 45 2 -1 -1 -16 -5 -33z m-714 -66 c-3 -8 -6 -5 -6 6 -1 11 2 17 5
13 3 -3 4 -12 1 -19z m32 -133 c1 -17 -1 -17 -9 -5 -5 8 -9 26 -9 40 0 23 1
23 9 5 5 -11 9 -29 9 -40z m264 20 c4 -8 2 -17 -3 -20 -6 -4 -10 3 -10 14 0
25 6 27 13 6z m660 -395 c3 -11 1 -18 -4 -14 -5 3 -9 12 -9 20 0 20 7 17 13
-6z m9 -72 c-8 -8 -9 -4 -5 13 4 13 8 18 11 10 2 -7 -1 -18 -6 -23z m-985
-370 c-3 -8 -6 -5 -6 6 -1 11 2 17 5 13 3 -3 4 -12 1 -19z m-10 -75 c-3 -10
-5 -4 -5 12 0 17 2 24 5 18 2 -7 2 -21 0 -30z m-52 -153 c-9 -41 -17 -33 -9 9
4 17 9 30 11 27 3 -2 2 -19 -2 -36z m1162 -2 c-3 -8 -6 -5 -6 6 -1 11 2 17 5
13 3 -3 4 -12 1 -19z m-1196 -119 c-6 -16 -10 -18 -10 -7 -1 22 12 55 16 42 2
-6 -1 -22 -6 -35z m1295 -276 c-6 -6 -26 67 -25 92 0 11 7 -4 15 -34 8 -30 12
-56 10 -58z m-1300 -29 c-4 -9 -9 -15 -11 -12 -3 3 -3 13 1 22 4 9 9 15 11 12
3 -3 3 -13 -1 -22z m1191 -166 c-3 -8 -6 -5 -6 6 -1 11 2 17 5 13 3 -3 4 -12
1 -19z m3394 -105 c-12 -20 -14 -14 -5 12 4 9 9 14 11 11 3 -2 0 -13 -6 -23z
m-71 13 c0 -3 -4 -8 -10 -11 -5 -3 -10 -1 -10 4 0 6 5 11 10 11 6 0 10 -2 10
-4z m-3349 -15 c6 10 9 8 9 -8 0 -12 -4 -25 -10 -28 -5 -3 -10 -2 -10 4 0 5
-2 15 -3 23 -2 7 -2 9 1 4 2 -4 8 -2 13 5z m134 -161 c17 -34 18 -40 6 -40 -5
0 -11 8 -14 18 -2 9 -8 25 -12 35 -12 28 3 19 20 -13z m-1450 -74 c-10 -25
-14 -49 -11 -54 3 -6 0 -12 -7 -15 -15 -5 -21 31 -8 48 5 5 14 28 21 50 7 22
15 34 17 28 3 -7 -3 -33 -12 -57z m92 22 c-3 -8 -6 -5 -6 6 -1 11 2 17 5 13 3
-3 4 -12 1 -19z m1223 -23 c0 -5 -5 -3 -10 5 -5 8 -10 20 -10 25 0 6 5 3 10
-5 5 -8 10 -19 10 -25z m-1225 -63 c-3 -3 -5 1 -5 9 -1 10 -5 8 -15 -5 -8 -11
-18 -17 -21 -13 -3 3 2 17 13 30 18 24 18 24 26 5 4 -12 5 -23 2 -26z m52 -14
c-3 -7 -5 -2 -5 12 0 14 2 19 5 13 2 -7 2 -19 0 -25z m4567 -22 c-9 -15 -19
-25 -21 -22 -3 2 3 16 13 30 9 15 19 25 21 22 3 -2 -3 -16 -13 -30z m-31 -51
c-3 -9 -8 -14 -10 -11 -3 3 -2 9 2 15 9 16 15 13 8 -4z m-4621 -17 c-7 -7 -12
-8 -12 -2 0 14 12 26 19 19 2 -3 -1 -11 -7 -17z m215 -115 c-3 -10 -5 -4 -5
12 0 17 2 24 5 18 2 -7 2 -21 0 -30z m309 -230 c-10 -10 -19 5 -10 18 6 11 8
11 12 0 2 -7 1 -15 -2 -18z"/>
<path d="M5238 4234 c-3 -5 -6 -21 -6 -36 1 -31 42 -76 53 -58 9 14 -4 88 -16
96 -6 3 -8 -6 -4 -23 l5 -28 -14 29 c-7 16 -16 25 -18 20z"/>
<path d="M5255 4100 c3 -5 8 -10 11 -10 2 0 4 5 4 10 0 6 -5 10 -11 10 -5 0
-7 -4 -4 -10z"/>
<path d="M5237 4048 c-3 -12 -3 -28 2 -35 5 -11 10 -8 19 11 8 19 8 27 -2 35
-10 9 -15 6 -19 -11z"/>
<path d="M5462 3917 c-37 -44 -50 -135 -19 -124 20 6 57 80 55 106 -3 29 -20
37 -36 18z"/>
<path d="M5241 3864 c0 -11 3 -14 6 -6 3 7 2 16 -1 19 -3 4 -6 -2 -5 -13z"/>
<path d="M5554 3824 c-9 -22 -12 -40 -6 -46 12 -12 30 12 38 50 9 45 -13 42
-32 -4z"/>
<path d="M5245 3760 c5 -8 8 -23 7 -32 -4 -24 4 -23 11 2 3 11 -2 25 -11 32
-13 11 -14 11 -7 -2z"/>
<path d="M5215 3680 c-3 -5 -1 -10 4 -10 6 0 11 5 11 10 0 6 -2 10 -4 10 -3 0
-8 -4 -11 -10z"/>
<path d="M5242 3664 c-6 -7 -19 -11 -26 -8 -15 6 -56 -12 -56 -24 0 -4 25 -8
56 -8 40 -1 64 -8 85 -23 16 -12 29 -18 29 -14 0 17 -46 73 -57 69 -6 -3 -13
1 -15 9 -2 11 -5 11 -16 -1z"/>
<path d="M5405 3610 c-8 -13 4 -32 18 -27 16 5 17 37 2 37 -8 0 -17 -4 -20
-10z"/>
<path d="M5346 3574 c-12 -31 -6 -84 9 -91 22 -8 27 0 31 46 3 31 0 39 -11 35
-7 -3 -16 -15 -18 -27 -3 -12 -3 -5 -2 16 3 40 1 46 -9 21z"/>
<path d="M5462 3330 c0 -14 2 -19 5 -12 2 6 2 18 0 25 -3 6 -5 1 -5 -13z"/>
<path d="M5472 3280 c0 -14 2 -19 5 -12 2 6 2 18 0 25 -3 6 -5 1 -5 -13z"/>
<path d="M5296 3195 c-11 -8 -15 -15 -10 -15 6 0 19 7 30 15 10 8 15 14 9 14
-5 0 -19 -6 -29 -14z"/>
<path d="M5190 2904 c0 -27 4 -43 10 -39 6 3 10 17 10 31 0 13 5 24 10 24 6 0
10 -9 10 -20 0 -11 5 -20 10 -20 6 0 10 7 10 15 0 21 18 19 22 -3 3 -15 6 -16
27 -6 23 12 23 13 -27 38 -73 37 -82 35 -82 -20z"/>
<path d="M5440 2910 c-19 -16 -31 -30 -27 -30 5 0 15 7 23 15 27 26 47 19 41
-14 -4 -17 0 -36 8 -47 13 -18 14 -16 14 16 0 19 -5 47 -12 62 l-12 27 -35
-29z"/>
<path d="M5432 2868 c-16 -16 -15 -28 3 -28 8 0 15 9 15 20 0 23 -2 24 -18 8z"/>
<path d="M5286 2839 c-8 -42 -8 -49 3 -49 14 0 25 60 13 72 -6 6 -12 -2 -16
-23z"/>
<path d="M5317 2847 c3 -13 -2 -40 -11 -60 -12 -30 -12 -37 -2 -37 8 0 16 10
20 23 9 33 7 97 -3 97 -4 0 -6 -10 -4 -23z"/>
<path d="M5386 2852 c-4 -13 -5 -26 -2 -29 10 -11 18 4 14 29 l-4 23 -8 -23z"/>
<path d="M5340 2808 c0 -60 14 -54 24 10 5 34 3 42 -9 42 -11 0 -15 -12 -15
-52z"/>
<path d="M5210 2820 c0 -19 7 -33 20 -40 17 -9 20 -8 20 14 0 13 3 33 7 43 6
16 5 16 -10 4 -11 -9 -17 -10 -17 -2 0 6 -4 11 -10 11 -5 0 -10 -13 -10 -30z"/>
<path d="M5460 2815 c0 -17 -5 -36 -12 -43 -7 -7 -8 -12 -2 -12 6 0 18 8 27
18 13 15 14 20 2 42 l-14 25 -1 -30z"/>
<path d="M5438 2824 c-5 -4 -8 -16 -8 -28 0 -14 3 -17 11 -9 6 6 9 19 7 28 -1
9 -6 13 -10 9z"/>
<path d="M5379 2795 c-13 -22 -19 -65 -9 -65 6 0 13 6 16 14 7 19 1 64 -7 51z"/>
<path d="M5128 2164 c-5 -4 -8 -30 -7 -58 l1 -51 9 45 c10 49 8 76 -3 64z"/>
<path d="M5541 2044 c0 -11 3 -14 6 -6 3 7 2 16 -1 19 -3 4 -6 -2 -5 -13z"/>
<path d="M5131 1434 c0 -11 3 -14 6 -6 3 7 2 16 -1 19 -3 4 -6 -2 -5 -13z"/>
<path d="M5440 1295 c0 -8 4 -15 10 -15 5 0 7 7 4 15 -4 8 -8 15 -10 15 -2 0
-4 -7 -4 -15z"/>
<path d="M5376 1203 c9 -38 14 -42 14 -10 0 14 -5 29 -10 32 -7 4 -8 -3 -4
-22z"/>
<path d="M5240 929 c-6 -23 -9 -43 -6 -46 3 -3 8 8 11 23 4 16 9 37 12 47 2 9
2 17 -1 17 -3 0 -10 -18 -16 -41z"/>
<path d="M434 4981 c18 -19 117 -95 381 -291 77 -57 164 -125 193 -152 30 -26
58 -48 63 -48 10 0 11 100 1 174 l-7 49 -92 -2 -91 -2 -7 63 c-12 113 -13 112
87 122 l87 9 3 36 c3 31 7 36 31 39 37 4 57 -13 57 -50 l0 -30 107 4 108 3 8
-69 c5 -52 4 -73 -5 -82 -7 -7 -57 -16 -113 -21 l-100 -8 3 -125 c2 -68 5
-126 7 -129 3 -2 60 38 127 89 68 52 224 170 348 263 124 93 227 171 229 173
2 2 -321 4 -719 4 -712 0 -723 0 -706 -19z"/>
<path d="M398 4904 c6 -11 19 -27 28 -35 16 -13 16 -12 6 7 -6 11 -19 27 -28
35 -16 13 -16 12 -6 -7z"/>
<path d="M1310 4875 c0 -3 5 -15 11 -26 7 -14 7 -24 0 -33 -8 -9 -6 -18 4 -32
14 -17 15 -14 13 35 -2 33 -8 56 -15 59 -7 2 -13 1 -13 -3z"/>
<path d="M945 4863 c34 -8 41 -23 12 -23 -20 0 -27 -5 -27 -19 0 -15 5 -18 22
-13 14 3 19 2 14 -6 -4 -7 -14 -12 -22 -12 -8 0 -14 -10 -14 -25 0 -24 2 -25
65 -25 l65 0 0 50 c0 38 -4 50 -15 50 -8 0 -15 5 -15 10 0 6 16 10 35 10 19 0
35 -4 35 -10 0 -5 -7 -10 -15 -10 -10 0 -15 -10 -15 -29 0 -43 10 -61 32 -61
17 0 20 5 16 35 -3 29 -1 34 17 32 14 -1 21 5 23 21 4 26 19 30 19 5 -1 -55 4
-83 14 -83 8 0 10 16 6 49 -6 48 -5 50 21 54 15 2 -45 4 -133 4 -88 1 -151 -1
-140 -4z m105 -111 c0 -4 -9 4 -19 18 -16 20 -21 22 -35 11 -19 -16 -20 -9 -5
43 l11 38 24 -52 c13 -28 24 -55 24 -58z"/>
<path d="M1001 4814 c0 -11 3 -14 6 -6 3 7 2 16 -1 19 -3 4 -6 -2 -5 -13z"/>
<path d="M896 4803 c7 -58 10 -70 19 -62 7 8 -7 119 -16 119 -5 0 -6 -26 -3
-57z"/>
<path d="M1287 4846 c-6 -15 1 -26 15 -26 11 0 10 27 -1 34 -5 3 -11 0 -14 -8z"/>
<path d="M1210 4830 c0 -13 5 -18 15 -14 8 4 15 1 15 -5 0 -6 -7 -11 -15 -11
-8 0 -15 -6 -15 -14 0 -8 11 -13 30 -12 28 1 30 4 30 39 0 35 -2 37 -30 37
-23 0 -30 -4 -30 -20z"/>
<path d="M441 4817 c17 -32 19 -33 19 -10 0 12 -7 23 -15 27 -13 5 -14 2 -4
-17z"/>
<path d="M1130 4775 c0 -28 24 -34 34 -9 8 20 -1 34 -20 34 -8 0 -14 -10 -14
-25z"/>
<path d="M1285 4790 c-7 -12 2 -30 16 -30 12 0 12 27 0 35 -5 3 -12 1 -16 -5z"/>
<path d="M3121 4634 c-212 -38 -333 -105 -489 -268 -100 -105 -229 -308 -271
-427 -11 -30 -26 -73 -35 -96 -35 -93 -56 -242 -63 -432 -11 -346 33 -565 173
-859 63 -133 190 -336 238 -381 l26 -25 -9 30 c-15 43 -68 324 -82 429 -6 50
-18 102 -25 118 -10 17 -11 27 -4 27 6 0 9 4 5 10 -3 5 -12 7 -20 3 -8 -3 -15
0 -15 7 0 6 4 8 10 5 33 -20 12 188 -36 360 -36 128 -26 255 20 255 67 0 121
30 208 115 76 75 92 85 123 85 31 0 39 -5 65 -46 31 -49 57 -148 67 -249 5
-57 3 -68 -33 -141 -21 -43 -62 -115 -91 -158 -57 -85 -81 -143 -49 -117 9 8
19 12 22 9 2 -3 -7 -13 -21 -22 -14 -9 -23 -21 -20 -26 3 -5 2 -18 -3 -27 -6
-10 -12 -47 -16 -83 -3 -36 -10 -99 -16 -140 -14 -105 -24 -406 -16 -463 6
-36 13 -50 29 -57 12 -5 16 -9 10 -9 -24 -2 -13 -22 45 -87 79 -89 212 -195
314 -248 l36 -19 48 37 c27 20 78 58 114 84 97 70 229 200 250 247 42 92 74
544 40 565 -8 5 -9 9 -1 14 21 13 13 46 -11 47 -17 1 -19 2 -5 6 9 2 17 14 17
26 0 30 -31 139 -47 162 -7 11 -13 25 -13 33 0 7 -21 41 -48 75 -94 122 -96
129 -96 242 1 139 38 260 102 328 42 44 68 37 147 -44 72 -73 148 -119 197
-119 41 0 60 -37 66 -125 5 -81 -10 -163 -38 -197 -19 -25 -37 -118 -23 -118
5 0 15 6 23 13 7 6 2 -2 -12 -19 -19 -25 -26 -48 -32 -105 -3 -41 -11 -96 -16
-124 -48 -250 -71 -335 -129 -495 -26 -73 -28 -82 -10 -60 11 14 17 18 13 10
-6 -13 -5 -13 8 0 81 84 193 239 241 335 74 148 109 255 163 501 42 191 53
271 53 409 2 344 -88 637 -270 886 -89 121 -234 237 -324 260 -16 4 -84 21
-149 38 -132 34 -209 38 -335 15z m549 -888 c19 -4 46 -8 59 -10 13 -3 31 -11
39 -20 14 -13 13 -14 -6 -9 -27 7 -28 -3 -4 -31 9 -11 0 -6 -21 12 -29 25 -46
32 -75 30 l-37 -1 35 -4 c27 -4 50 -20 105 -77 79 -81 103 -97 131 -90 13 3
29 -5 48 -25 l30 -31 -32 0 c-57 0 -104 29 -182 110 -75 78 -77 80 -125 80
-45 0 -47 1 -33 18 9 10 15 31 13 50 -2 26 0 30 9 18 6 -7 27 -17 46 -20z
m-880 -36 c-32 -24 -40 -16 -9 9 13 11 26 17 29 14 3 -2 -6 -13 -20 -23z m740
26 c0 -2 -8 -10 -17 -17 -16 -13 -17 -12 -4 4 13 16 21 21 21 13z m-621 -25
c21 -13 5 -29 -24 -23 -40 7 -80 -15 -139 -79 -59 -65 -146 -113 -193 -107
-42 5 -28 22 27 34 61 14 92 34 155 101 61 66 136 98 174 74z m691 5 c0 -2 -7
-7 -16 -10 -8 -3 -12 -2 -9 4 6 10 25 14 25 6z m-912 -54 c-13 -8 -38 -29 -55
-45 -18 -17 -33 -27 -33 -22 0 14 94 94 103 88 5 -3 -2 -12 -15 -21z m1203
-49 c13 -16 12 -17 -3 -4 -17 13 -22 21 -14 21 2 0 10 -8 17 -17z m54 -53 c6
1 1 7 -9 15 -11 8 -16 15 -10 15 15 0 70 -48 63 -55 -9 -8 -119 42 -119 54 0
6 15 2 33 -9 17 -11 37 -20 42 -20z m-1406 11 c-13 -11 -28 -17 -33 -14 -11 7
22 33 42 33 9 0 6 -7 -9 -19z m121 10 c0 -13 -28 -22 -35 -11 -3 4 1 11 7 13
20 8 28 8 28 -2z m789 -500 c26 -49 69 -101 86 -101 7 0 15 -11 17 -25 4 -21
3 -23 -13 -14 -12 6 -19 6 -19 0 0 -5 6 -12 13 -14 7 -3 5 -6 -5 -6 -10 -1
-18 4 -18 10 0 5 -16 31 -36 57 -33 44 -64 103 -64 123 0 22 21 6 39 -30z
m-409 25 c0 -2 -7 -22 -15 -45 -8 -23 -12 -49 -9 -59 5 -13 4 -14 -4 -4 -7 11
-10 9 -15 -8 -3 -12 -10 -19 -15 -16 -6 3 -24 -5 -41 -20 -52 -43 -55 -17 -5
39 26 29 54 67 62 85 9 17 22 32 29 32 7 0 13 -2 13 -4z m376 -158 l29 -33
-32 29 c-31 28 -38 36 -30 36 2 0 16 -15 33 -32z m84 -39 c0 -14 -4 -11 -41
28 l-34 36 38 -28 c20 -15 37 -31 37 -36z m470 51 c0 -5 -5 -10 -11 -10 -5 0
-7 5 -4 10 3 6 8 10 11 10 2 0 4 -4 4 -10z m-975 -21 c-12 -36 -55 -93 -73
-95 -15 -2 -15 -1 -2 9 20 17 42 57 31 57 -5 0 -16 -11 -25 -25 -9 -14 -21
-23 -27 -20 -12 8 24 49 66 76 37 24 38 24 30 -2z m935 11 c0 -5 -5 -10 -11
-10 -5 0 -7 5 -4 10 3 6 8 10 11 10 2 0 4 -4 4 -10z m-390 -87 c21 -10 56 -43
45 -43 -11 0 -112 68 -120 80 -4 6 9 1 27 -10 18 -11 40 -23 48 -27z m20 11
c0 -2 -9 0 -20 6 -11 6 -20 13 -20 16 0 2 9 0 20 -6 11 -6 20 -13 20 -16z
m-999 -171 c13 -16 12 -17 -3 -4 -17 13 -22 21 -14 21 2 0 10 -8 17 -17z m737
-122 c71 -36 187 -138 226 -200 42 -66 59 -127 46 -167 -6 -18 -18 -35 -27
-38 -16 -7 -20 -5 -93 56 -66 54 -131 79 -219 85 -89 6 -182 -17 -293 -73 -96
-48 -138 -43 -138 16 1 77 106 203 229 273 150 86 183 92 269 48z m-9 -370
c11 -11 27 -21 38 -23 10 -2 16 -8 13 -13 -3 -6 -9 -8 -15 -7 -5 2 -25 4 -42
4 -18 0 -33 4 -33 9 0 5 -16 9 -35 9 -19 0 -35 5 -35 10 0 11 -36 6 -83 -12
-26 -10 -47 -5 -34 8 16 16 89 33 145 34 48 0 66 -4 81 -19z m-489 -46 c0 -18
34 -37 54 -29 9 3 16 1 16 -4 0 -23 -42 -24 -66 -1 -25 23 -32 49 -14 49 6 0
10 -7 10 -15z m810 0 c0 -2 -5 -16 -12 -30 -8 -18 -19 -25 -39 -25 -15 0 -31
5 -34 10 -4 6 5 10 19 10 15 0 31 8 38 20 12 18 28 27 28 15z m-520 -49 c0
-11 -19 -15 -25 -6 -3 5 1 10 9 10 9 0 16 -2 16 -4z m307 -12 c-3 -3 -12 -4
-19 -1 -8 3 -5 6 6 6 11 1 17 -2 13 -5z"/>
<path d="M1010 4441 c0 -5 5 -13 10 -16 6 -3 10 -2 10 4 0 5 -4 13 -10 16 -5
3 -10 2 -10 -4z"/>
<path d="M1200 4435 c-11 -13 -10 -14 4 -9 9 3 16 10 16 15 0 13 -6 11 -20 -6z"/>
<path d="M1061 4394 c0 -11 3 -14 6 -6 3 7 2 16 -1 19 -3 4 -6 -2 -5 -13z"/>
<path d="M1022 4350 c0 -14 2 -19 5 -12 2 6 2 18 0 25 -3 6 -5 1 -5 -13z"/>
<path d="M1192 4230 c0 -14 2 -19 5 -12 2 6 2 18 0 25 -3 6 -5 1 -5 -13z"/>
<path d="M1183 4150 c-11 -16 -10 -18 2 -14 8 4 15 12 15 20 0 19 -3 18 -17
-6z"/>
<path d="M1060 4070 c-14 -26 -11 -31 18 -23 26 6 28 16 8 32 -12 10 -17 8
-26 -9z"/>
<path d="M1050 3995 c0 -14 4 -25 8 -25 5 0 19 11 32 25 l23 25 -31 0 c-27 0
-32 -4 -32 -25z"/>
<path d="M1071 3954 c-11 -15 -18 -31 -15 -36 7 -12 54 30 54 49 0 21 -17 15
-39 -13z"/>
<path d="M1081 3899 c-28 -31 -29 -54 -1 -37 20 13 36 45 27 54 -3 3 -14 -5
-26 -17z"/>
<path d="M1090 3845 c-10 -13 -9 -15 9 -15 12 0 21 6 21 15 0 8 -4 15 -9 15
-5 0 -14 -7 -21 -15z"/>
<path d="M1023 3803 c15 -2 39 -2 55 0 15 2 2 4 -28 4 -30 0 -43 -2 -27 -4z"/>
<path d="M1039 3786 c-7 -7 9 -328 21 -417 17 -130 21 -149 32 -142 7 4 8 36
4 89 -4 54 -3 84 4 84 6 0 10 -27 10 -62 0 -34 2 -59 5 -56 8 8 13 83 20 301
l7 207 -49 0 c-27 0 -52 -2 -54 -4z m58 -183 c-3 -10 -5 -4 -5 12 0 17 2 24 5
18 2 -7 2 -21 0 -30z m0 -145 c-2 -18 -4 -6 -4 27 0 33 2 48 4 33 2 -15 2 -42
0 -60z"/>
<path d="M911 3464 c0 -11 3 -14 6 -6 3 7 2 16 -1 19 -3 4 -6 -2 -5 -13z"/>
<path d="M1072 2948 c-16 -16 -15 -33 3 -48 15 -12 31 -9 73 16 2 1 -3 11 -10
23 -14 23 -47 28 -66 9z m31 -13 c-3 -9 -8 -14 -10 -11 -3 3 -2 9 2 15 9 16
15 13 8 -4z"/>
<path d="M1153 2930 c6 -17 15 -26 20 -21 5 5 4 18 -2 30 -17 32 -31 25 -18
-9z"/>
<path d="M582 2930 c0 -14 2 -19 5 -12 2 6 2 18 0 25 -3 6 -5 1 -5 -13z"/>
<path d="M1240 2833 c0 -2 14 -25 31 -49 20 -29 36 -43 45 -40 8 3 21 9 29 12
8 3 15 1 15 -5 0 -6 4 -11 10 -11 5 0 7 6 4 14 -3 8 -1 23 5 33 9 16 10 16 11
1 0 -15 3 -15 38 2 21 10 45 27 53 36 8 10 9 15 2 11 -21 -13 -169 -19 -206
-9 -21 6 -37 8 -37 5z"/>
<path d="M977 2784 c-32 -18 -85 -38 -118 -45 l-61 -12 39 -18 c21 -10 45 -18
54 -19 8 0 20 -5 27 -12 9 -9 12 -9 12 3 0 12 2 12 9 0 12 -18 28 -7 46 32 8
18 25 47 36 65 12 18 20 34 18 36 -2 2 -30 -12 -62 -30z m-32 -74 c-3 -5 -13
-6 -21 -3 -12 4 -13 8 -3 14 15 9 32 2 24 -11z"/>
<path d="M1305 2720 c7 -12 32 -13 39 -2 2 4 -7 9 -20 10 -15 1 -22 -2 -19 -8z"/>
<path d="M1214 2584 c-25 -37 -20 -154 6 -154 36 0 63 171 28 178 -10 2 -24
-8 -34 -24z"/>
<path d="M1033 2564 c-7 -20 14 -116 31 -139 24 -33 39 -8 33 52 -8 78 -47
131 -64 87z"/>
<path d="M3910 2335 c-6 -8 -10 -20 -8 -26 2 -6 12 0 21 15 18 27 8 37 -13 11z"/>
<path d="M3965 2340 c-3 -5 -1 -10 4 -10 6 0 11 5 11 10 0 6 -2 10 -4 10 -3 0
-8 -4 -11 -10z"/>
<path d="M2505 2310 c3 -5 8 -10 11 -10 2 0 4 5 4 10 0 6 -5 10 -11 10 -5 0
-7 -4 -4 -10z"/>
<path d="M3898 2270 c-26 -26 -51 -50 -57 -51 -5 -2 -100 -93 -209 -201 -110
-109 -205 -198 -211 -198 -6 0 -11 -7 -11 -15 0 -21 10 -19 40 10 34 33 207
125 318 169 49 20 144 49 213 67 160 40 159 39 134 49 -17 7 -18 9 -2 9 9 1
26 -4 36 -10 13 -9 26 -9 48 -2 27 10 55 10 165 -1 29 -3 37 0 41 15 3 10 4
19 2 19 -2 0 -12 3 -22 7 -15 6 -16 4 -6 -8 11 -13 9 -15 -10 -15 -12 1 -25 5
-29 10 -4 6 -13 4 -22 -3 -21 -18 -21 -7 0 14 11 11 13 20 7 26 -7 7 -17 3
-32 -12 -11 -12 -23 -20 -26 -18 -2 3 7 17 21 32 33 36 6 36 -30 0 -34 -34
-43 -25 -10 11 14 15 24 29 21 32 -2 2 -10 -2 -17 -11 -7 -8 -17 -15 -23 -15
-7 0 -7 4 1 12 29 29 1 39 -30 11 -29 -26 -31 -9 -2 20 32 32 10 38 -24 7 -26
-24 -30 -15 -5 12 29 32 6 30 -33 -3 l-39 -33 29 32 c29 31 29 32 10 47 -22
17 -54 20 -54 5 0 -5 12 -10 27 -10 19 0 24 -3 17 -10 -7 -7 -19 -7 -36 -1
-19 7 -29 6 -42 -7 -16 -16 -17 -16 -10 1 4 10 1 17 -6 17 -9 0 -10 3 -1 14 9
11 6 15 -14 19 -15 2 -32 -1 -40 -9 -18 -18 -26 -18 -19 1 10 26 -9 14 -58
-35z m107 20 c-3 -5 -11 -10 -16 -10 -6 0 -7 5 -4 10 3 6 11 10 16 10 6 0 7
-4 4 -10z m-95 -230 c0 -5 -10 -10 -22 -9 -22 0 -22 1 -3 9 11 5 21 9 23 9 1
1 2 -3 2 -9z"/>
<path d="M2451 2291 c-11 -7 -10 -11 7 -20 29 -15 52 -14 52 4 0 8 -4 15 -9
15 -5 0 -15 2 -23 5 -7 3 -19 1 -27 -4z"/>
<path d="M2540 2260 c0 -5 5 -10 11 -10 5 0 7 5 4 10 -3 6 -8 10 -11 10 -2 0
-4 -4 -4 -10z"/>
<path d="M2342 2240 c-41 -38 -18 -43 25 -5 20 17 23 24 12 25 -8 0 -25 -9
-37 -20z"/>
<path d="M2413 2247 c1 -6 -3 -11 -10 -12 -6 0 -15 -4 -20 -9 -5 -5 -3 -6 5
-2 14 8 16 -3 3 -22 -9 -14 -22 -16 -96 -9 -47 5 -94 -11 -78 -26 3 -4 -5 -7
-19 -7 -14 0 -34 -11 -46 -25 -12 -14 -28 -25 -35 -25 -7 0 -24 -14 -36 -31
-18 -24 -25 -28 -32 -18 -5 8 -9 10 -9 4 0 -32 25 -39 65 -19 11 5 70 9 130 8
96 -1 121 -5 200 -33 151 -54 326 -153 478 -269 l58 -44 -7 52 c-6 49 -11 56
-107 148 -55 53 -140 148 -190 210 -49 61 -95 112 -101 112 -7 0 -17 -5 -23
-11 -8 -8 -13 -8 -17 0 -4 6 -1 11 6 11 10 0 9 3 -2 10 -9 6 -17 5 -22 -3 -6
-9 -10 -9 -16 0 -10 16 -82 25 -79 10z m47 -47 c0 -13 -11 -13 -30 0 -12 8
-11 10 8 10 12 0 22 -4 22 -10z m-175 -40 c-44 -6 -69 0 -41 10 10 3 33 4 50
1 31 -5 31 -5 -9 -11z m275 16 c0 -2 -8 -10 -17 -17 -16 -13 -17 -12 -4 4 13
16 21 21 21 13z m-310 -46 c0 -5 -12 -10 -27 -10 -22 0 -25 2 -13 10 20 13 40
13 40 0z m233 -17 c-7 -2 -19 -2 -25 0 -7 3 -2 5 12 5 14 0 19 -2 13 -5z
m-310 -30 c-7 -2 -21 -2 -30 0 -10 3 -4 5 12 5 17 0 24 -2 18 -5z m242 -23 c4
-6 -7 -10 -25 -10 -18 0 -29 4 -25 10 3 6 15 10 25 10 10 0 22 -4 25 -10z"/>
<path d="M4340 2140 c0 -5 5 -10 10 -10 6 0 10 5 10 10 0 6 -4 10 -10 10 -5 0
-10 -4 -10 -10z"/>
<path d="M3014 1728 c8 -24 22 -61 31 -83 17 -38 19 -39 25 -15 8 34 -3 103
-17 108 -7 2 -14 -5 -14 -15 -1 -10 -4 -5 -8 11 -3 16 -12 31 -18 33 -10 4 -9
-6 1 -39z"/>
<path d="M3338 1743 c-14 -16 -28 -41 -32 -56 -6 -25 -51 -107 -59 -107 -1 0
-2 24 -1 53 1 28 0 47 -3 40 -6 -16 -55 -7 -106 19 -22 11 -41 17 -44 14 -11
-11 9 -57 40 -92 24 -29 27 -35 10 -26 -11 7 -30 24 -42 39 l-20 28 -1 -36 c0
-41 25 -73 33 -42 4 15 5 14 6 -3 1 -29 29 -53 40 -35 6 9 10 7 14 -8 14 -57
102 -2 155 97 27 51 53 142 40 142 -2 0 -16 -12 -30 -27z m-136 -145 c-7 -7
-12 -8 -12 -2 0 14 12 26 19 19 2 -3 -1 -11 -7 -17z"/>
<path d="M3281 1692 c-7 -13 -11 -28 -8 -35 2 -7 9 -2 16 11 7 13 11 28 8 35
-2 7 -9 2 -16 -11z"/>
<path d="M3897 1293 c-4 -3 -7 -11 -7 -17 0 -6 5 -5 12 2 6 6 9 14 7 17 -3 3
-9 2 -12 -2z"/>
<path d="M3870 1277 c0 -9 -8 -20 -17 -26 -13 -7 -15 -13 -7 -21 8 -8 15 -3
24 20 7 17 10 33 6 37 -3 3 -6 -1 -6 -10z"/>
<path d="M3950 1259 c7 -11 14 -18 17 -15 8 8 -5 36 -17 36 -7 0 -7 -6 0 -21z"/>
<path d="M2645 1210 c-3 -5 1 -20 9 -32 l16 -22 0 26 c0 29 -15 45 -25 28z"/>
<path d="M3522 1199 c2 -7 10 -15 17 -17 8 -3 12 1 9 9 -2 7 -10 15 -17 17 -8
3 -12 -1 -9 -9z"/>
<path d="M3654 1199 c-8 -14 11 -33 25 -25 16 10 13 36 -3 36 -8 0 -18 -5 -22
-11z"/>
<path d="M3310 1182 c0 -5 7 -13 16 -16 10 -4 14 -1 12 6 -5 15 -28 23 -28 10z"/>
<path d="M2960 1146 c0 -9 5 -16 10 -16 6 0 10 4 10 9 0 6 -4 13 -10 16 -5 3
-10 -1 -10 -9z"/>
<path d="M2810 1110 c0 -5 5 -10 11 -10 5 0 7 5 4 10 -3 6 -8 10 -11 10 -2 0
-4 -4 -4 -10z"/>
<path d="M2960 1108 c0 -9 5 -20 10 -23 13 -8 13 5 0 25 -8 13 -10 13 -10 -2z"/>
<path d="M3967 1114 c-4 -4 -7 -14 -7 -23 0 -11 3 -12 11 -4 6 6 10 16 7 23
-2 6 -7 8 -11 4z"/>
<path d="M3660 1103 c0 -6 -3 -18 -6 -27 -4 -10 -1 -16 9 -16 24 0 31 20 13
38 -9 9 -16 11 -16 5z"/>
<path d="M3270 1080 c0 -25 16 -44 25 -30 4 7 0 19 -9 28 -13 14 -16 14 -16 2z"/>
<path d="M3328 1072 c-22 -4 -23 -25 -3 -42 12 -10 16 -9 21 3 9 25 1 43 -18
39z"/>
<path d="M3925 1070 c-3 -5 -2 -10 4 -10 5 0 13 5 16 10 3 6 2 10 -4 10 -5 0
-13 -4 -16 -10z"/>
<path d="M3872 1031 c-25 -21 -30 -53 -7 -45 8 4 15 11 15 17 0 6 7 19 17 29
21 24 2 23 -25 -1z"/>
<path d="M3583 1022 c-1 -9 -5 -30 -9 -46 -5 -20 -3 -27 4 -22 15 9 26 66 15
77 -5 5 -9 1 -10 -9z"/>
<path d="M2640 1005 c7 -8 19 -15 26 -15 8 0 11 6 8 15 -4 8 -15 15 -26 15
-17 0 -18 -3 -8 -15z"/>
<path d="M3178 990 c-5 -33 6 -28 17 8 3 12 2 22 -3 22 -5 0 -12 -14 -14 -30z"/>
<path d="M3760 1001 c0 -11 -6 -22 -12 -24 -9 -4 -10 -6 -1 -6 16 -1 44 29 38
40 -10 16 -25 10 -25 -10z"/>
<path d="M3470 971 c0 -6 5 -13 10 -16 6 -3 10 1 10 9 0 9 -4 16 -10 16 -5 0
-10 -4 -10 -9z"/>
<path d="M3680 970 c0 -5 5 -10 11 -10 5 0 7 5 4 10 -3 6 -8 10 -11 10 -2 0
-4 -4 -4 -10z"/>
<path d="M3717 973 c-4 -3 -7 -11 -7 -17 0 -6 5 -5 12 2 6 6 9 14 7 17 -3 3
-9 2 -12 -2z"/>
<path d="M2826 941 c-4 -7 -5 -15 -2 -18 9 -9 19 4 14 18 -4 11 -6 11 -12 0z"/>
<path d="M2964 925 c-4 -14 -4 -29 0 -32 11 -11 39 25 33 41 -9 24 -26 19 -33
-9z"/>
<path d="M3120 933 c0 -14 27 -29 36 -21 2 3 2 12 -1 20 -7 18 -35 19 -35 1z"/>
<path d="M3400 940 c0 -25 16 -44 25 -30 4 7 0 19 -9 28 -13 14 -16 14 -16 2z"/>
<path d="M3260 925 c0 -8 4 -15 10 -15 5 0 7 7 4 15 -4 8 -8 15 -10 15 -2 0
-4 -7 -4 -15z"/>
<path d="M2666 921 c-4 -7 -5 -15 -2 -18 9 -9 19 4 14 18 -4 11 -6 11 -12 0z"/>
<path d="M2735 900 c3 -5 19 -10 36 -10 16 0 29 5 29 10 0 6 -16 10 -36 10
-21 0 -33 -4 -29 -10z"/>
<path d="M3250 756 c0 -16 28 -42 36 -33 3 3 -4 15 -15 26 -14 14 -21 17 -21
7z"/>
<path d="M3039 744 c-7 -9 -14 -26 -16 -37 -3 -21 -2 -21 17 3 28 36 28 68 -1
34z"/>
<path d="M3096 742 c-3 -6 -1 -14 5 -17 15 -10 25 3 12 16 -7 7 -13 7 -17 1z"/>
<path d="M3194 736 c-8 -22 3 -33 18 -18 9 9 9 15 0 24 -9 9 -13 7 -18 -6z"/>
<path d="M3372 713 c1 -5 -1 -19 -5 -33 -11 -49 -15 -110 -6 -110 5 0 9 18 9
40 0 23 7 52 16 65 9 13 13 29 9 35 -7 11 -26 14 -23 3z"/>
<path d="M3186 622 c1 -15 2 -41 3 -58 0 -16 7 -39 15 -49 12 -17 18 -18 55
-7 30 9 41 18 41 32 0 25 -2 25 -30 0 -34 -29 -56 -12 -65 50 -7 53 -22 77
-19 32z"/>
<path d="M3125 618 c-4 -10 -5 -24 -2 -31 3 -7 -1 -24 -9 -38 -7 -13 -13 -27
-14 -31 0 -7 27 -5 35 4 11 11 15 80 6 96 -9 16 -10 16 -16 0z"/>
<path d="M523 594 c-44 -22 -60 -43 -86 -110 -19 -52 -22 -78 -22 -214 0 -147
1 -158 27 -213 l27 -57 110 0 110 0 18 58 c22 74 25 329 4 415 -27 110 -107
162 -188 121z"/>
<path d="M1690 426 l0 -177 29 16 c67 34 92 101 72 191 -12 53 -62 133 -88
142 -10 3 -13 -36 -13 -172z"/>
<path d="M3285 590 c3 -5 8 -10 11 -10 2 0 4 5 4 10 0 6 -5 10 -11 10 -5 0 -7
-4 -4 -10z"/>
<path d="M1233 385 c4 -109 7 -240 7 -292 l0 -93 30 0 c76 0 167 240 135 360
-15 58 -52 116 -104 165 -79 75 -75 83 -68 -140z"/>
<path d="M3451 558 c0 -13 4 -32 8 -43 8 -19 8 -19 19 2 18 32 15 54 -5 46
-11 -4 -14 -3 -9 5 4 7 2 12 -3 12 -6 0 -11 -10 -10 -22z"/>
<path d="M3016 545 c8 -25 33 -45 53 -44 14 0 14 1 1 6 -8 3 -25 17 -37 32
-19 21 -22 22 -17 6z"/>
<path d="M3338 538 c-6 -17 1 -38 13 -38 5 0 9 11 9 25 0 26 -14 34 -22 13z"/>
<path d="M5515 197 c1 -40 3 -100 4 -134 l1 -63 55 0 c30 0 55 3 55 6 0 3 -22
57 -50 119 -27 62 -50 118 -50 123 0 6 -4 13 -8 16 -5 3 -8 -27 -7 -67z"/>
<path d="M5110 118 c-16 -29 -30 -68 -30 -85 l0 -33 66 0 c49 0 65 3 61 13 -2
6 -15 45 -28 85 -12 39 -26 72 -31 72 -4 0 -21 -24 -38 -52z"/>
<path d="M4225 111 c-3 -2 -5 -29 -5 -58 l0 -54 88 3 87 3 3 58 3 58 -86 -2
c-47 -2 -88 -5 -90 -8z"/>
</g>
</svg>
