<?xml version="1.0" encoding="UTF-8"?>
<!-- Generator: visioncortex VTracer 0.6.1 -->
<svg version="1.1" xmlns="http://www.w3.org/2000/svg" width="200" height="150">
<path d="M0 0 C66 0 132 0 200 0 C200 49.5 200 99 200 150 C134 150 68 150 0 150 C0 100.5 0 51 0 0 Z " fill="#F4F4F4" transform="translate(0,0)"/>
<path d="M0 0 C66 0 132 0 200 0 C200 15.51 200 31.02 200 47 C195.38 47 190.76 47 186 47 C186 43.04 186 39.08 186 35 C181.05 35 176.1 35 171 35 C170.90234375 26.50390625 170.90234375 26.50390625 171 24 C172 23 172 23 175.16015625 22.90234375 C176.44792969 22.91394531 177.73570312 22.92554687 179.0625 22.9375 C180.35285156 22.94652344 181.64320313 22.95554687 182.97265625 22.96484375 C183.97167969 22.97644531 184.97070312 22.98804687 186 23 C186 19.37 186 15.74 186 12 C181.05 12 176.1 12 171 12 C171.0309375 14.4440625 171.0309375 14.4440625 171.0625 16.9375 C171.08386068 18.62499341 171.07205511 20.31391034 171 22 C170 23 170 23 166.62109375 23.09765625 C165.22652923 23.09098369 163.83198257 23.07902532 162.4375 23.0625 C161.37112305 23.05573242 161.37112305 23.05573242 160.28320312 23.04882812 C158.52209987 23.03700864 156.76103964 23.01907263 155 23 C155 19.37 155 15.74 155 12 C152.68715544 12.14026283 150.37472409 12.28735558 148.0625 12.4375 C146.77472656 12.51871094 145.48695313 12.59992187 144.16015625 12.68359375 C141.13976043 12.64919188 141.13976043 12.64919188 140 14 C139.76807135 15.51469448 139.58784762 17.03754562 139.4375 18.5625 C139.293125 20.026875 139.14875 21.49125 139 23 C134.05 23 129.1 23 124 23 C124.165 24.85625 124.33 26.7125 124.5 28.625 C124.54067833 34.41488235 124.54067833 34.41488235 122.2890625 36.8515625 C120.125 38.25 120.125 38.25 117.9453125 39.328125 C115.06136986 41.48106368 115.06136986 41.48106368 114 49 C106.74 49 99.48 49 92 49 C91.01 46.36 90.02 43.72 89 41 C87.20829637 38.86912748 87.20829637 38.86912748 85.0625 37.5 C84.39347656 37.0153125 83.72445312 36.530625 83.03515625 36.03125 C80.78557523 34.69866592 80.78557523 34.69866592 77 35 C74.48524632 38.77213052 74.55203584 40.52035842 75 45 C76.37928394 48.53352637 77.98383339 51.35078244 81.25 53.4375 C82.11625 53.7159375 82.11625 53.7159375 83 54 C82 56 81 58 80 60 C79.78622279 65.60703213 79.78622279 65.60703213 81 71 C70.97016283 71.32354313 61.12239832 70.63455086 53.375 63.625 C48.91529648 57.92808841 47.68307952 49.90062605 46 43 C45.47792969 43.58007812 44.95585938 44.16015625 44.41796875 44.7578125 C36.25792789 53.418031 27.89382278 58.50359713 16 60 C16.50789063 60.4125 17.01578125 60.825 17.5390625 61.25 C29.19513209 71.02887486 29.19513209 71.02887486 30.47265625 77.33203125 C30.65122565 82.01365513 29.93650097 85.20701958 27 89 C28.32 89 29.64 89 31 89 C31 94.28 31 99.56 31 105 C35.95 105 40.9 105 46 105 C46 108.96 46 112.92 46 117 C51.28 117 56.56 117 62 117 C62 120.63 62 124.26 62 128 C56.72 128 51.44 128 46 128 C46 131.96 46 135.92 46 140 C51.28 140 56.56 140 62 140 C62 143.3 62 146.6 62 150 C41.54 150 21.08 150 0 150 C0 100.5 0 51 0 0 Z " fill="#F3F3F3" transform="translate(0,0)"/>
<path d="M0 0 C5.42873343 2.0629187 11.1153782 4.33225134 13.92480469 9.79980469 C14.61653646 11.53320312 15.30826823 13.26660156 16 15 C17.26457031 14.98839844 18.52914062 14.97679687 19.83203125 14.96484375 C21.49218602 14.95546434 23.15234239 14.9463643 24.8125 14.9375 C25.64587891 14.92912109 26.47925781 14.92074219 27.33789062 14.91210938 C28.14033203 14.90888672 28.94277344 14.90566406 29.76953125 14.90234375 C30.50792236 14.89710693 31.24631348 14.89187012 32.00708008 14.88647461 C34 15 34 15 37 16 C36.896875 15.13375 36.79375 14.2675 36.6875 13.375 C37.0886657 9.0424104 38.7671952 6.73367817 42 4 C44.58481348 2.45197862 47.2255241 1.17037445 50 0 C52.40566625 1.72907261 53.82155168 3.09574745 54.40625 6.05859375 C54.62691556 11.51087193 53.63386637 14.74318511 50 19 C49.01 19.66 48.02 20.32 47 21 C47.65585189 24.60992379 47.65585189 24.60992379 49 28 C49.06996014 29.70702735 49.08440154 31.41668003 49.0625 33.125 C49.05347656 34.03507812 49.04445313 34.94515625 49.03515625 35.8828125 C49.02355469 36.58148438 49.01195313 37.28015625 49 38 C51.85759785 37.60084347 54.70973461 37.18136125 57.5625 36.75 C58.36236328 36.64042969 59.16222656 36.53085938 59.98632812 36.41796875 C66.77793752 35.36457627 71.71728007 33.70975938 76.296875 28.2734375 C78.29102807 24.44063871 79.3241363 20.82174284 80.25 16.625 C80.50910156 15.52091797 80.50910156 15.52091797 80.7734375 14.39453125 C81.1932025 12.59886984 81.59815419 10.79975623 82 9 C82.6909375 9.72832031 83.381875 10.45664062 84.09375 11.20703125 C86.96634664 14.07659346 90.15080728 16.40678523 93.5 18.6875 C94.05558594 19.07744141 94.61117187 19.46738281 95.18359375 19.86914062 C99.95058222 23.14995033 104.04432793 25.10844728 109.8125 25.625 C110.60269531 25.69976562 111.39289063 25.77453125 112.20703125 25.8515625 C112.79871094 25.90054688 113.39039063 25.94953125 114 26 C109 31 109 31 106.4375 33.4375 C101.70804641 38.40948968 99.55402131 41.81976311 99.56640625 48.65625 C100.14200313 51.7675845 101.50101229 54.23263808 103 57 C102.09378906 56.96519531 101.18757812 56.93039063 100.25390625 56.89453125 C87.77390495 56.6102906 87.77390495 56.6102906 77.1875 62.4375 C76.465625 63.283125 75.74375 64.12875 75 65 C73.66666667 66.33333333 72.33333333 67.66666667 71 69 C70.56429687 68.52949219 70.12859375 68.05898437 69.6796875 67.57421875 C64.92070985 62.59892394 61.19235918 59.58526585 54.25 58.3125 C49.23956396 58.50193047 46.43023713 61.59678894 42.78515625 64.74609375 C39.74221134 67.20861719 36.64688081 69.1811649 33.25 71.125 C32.20328125 71.72570312 31.1565625 72.32640625 30.078125 72.9453125 C25.29691896 74.58354299 22.58200797 72.75767517 18.21875 70.66796875 C13.03257453 67.84388756 8.24769451 65.13289196 4 61 C4 60.34 4 59.68 4 59 C-2.7321037 58.51236271 -7.62996368 58.66720786 -13 63 C-15.05747612 64.94818755 -17.01895638 66.97288559 -19 69 C-19.66 69 -20.32 69 -21 69 C-24 64.61538462 -24 64.61538462 -24 62 C-33.10959911 57.34398268 -40.74819414 56.60626066 -51 57 C-50.51660156 56.10023437 -50.03320312 55.20046875 -49.53515625 54.2734375 C-47.50450159 49.94344104 -47.03552898 46.68685091 -48 42 C-50.8585776 36.34567069 -55.63478285 32.31522533 -60.4609375 28.34765625 C-60.96882813 27.90292969 -61.47671875 27.45820312 -62 27 C-62 26.67 -62 26.34 -62 26 C-61.33355469 25.92523438 -60.66710937 25.85046875 -59.98046875 25.7734375 C-48.42393761 24.12481348 -40.56386252 19.25925389 -32.6796875 10.7578125 C-32.12539063 10.17773438 -31.57109375 9.59765625 -31 9 C-30.67 9 -30.34 9 -30 9 C-29.75765625 10.08539063 -29.5153125 11.17078125 -29.265625 12.2890625 C-28.92772466 13.73452507 -28.58914687 15.17982939 -28.25 16.625 C-28.09273437 17.33785156 -27.93546875 18.05070312 -27.7734375 18.78515625 C-26.44518319 24.35360701 -24.40081619 28.75923822 -20.125 32.75 C-13.00237737 36.93977802 -5.03726177 37.14100459 3 37 C2.67 36.34 2.34 35.68 2 35 C1.47799382 28.73592579 2.07857962 25.90177547 6 21 C5.2575 20.814375 4.515 20.62875 3.75 20.4375 C0.0272465 18.49151522 -1.56188478 15.82724212 -3 12 C-3.61007477 6.94509477 -2.99298593 4.11535566 0 0 Z " fill="#231E20" transform="translate(77,33)"/>
<path d="M0 0 C1.03640625 1.09248047 1.03640625 1.09248047 2.09375 2.20703125 C4.96634664 5.07659346 8.15080728 7.40678523 11.5 9.6875 C12.33337891 10.27241211 12.33337891 10.27241211 13.18359375 10.86914062 C17.95058222 14.14995033 22.04432793 16.10844728 27.8125 16.625 C28.60269531 16.69976562 29.39289063 16.77453125 30.20703125 16.8515625 C30.79871094 16.90054688 31.39039063 16.94953125 32 17 C27 22 27 22 24.4375 24.4375 C19.70804641 29.40948968 17.55402131 32.81976311 17.56640625 39.65625 C18.14200313 42.7675845 19.50101229 45.23263808 21 48 C20.09378906 47.96519531 19.18757813 47.93039063 18.25390625 47.89453125 C5.77390495 47.6102906 5.77390495 47.6102906 -4.8125 53.4375 C-5.534375 54.283125 -6.25625 55.12875 -7 56 C-8.33333333 57.33333333 -9.66666667 58.66666667 -11 60 C-11.43570313 59.52949219 -11.87140625 59.05898437 -12.3203125 58.57421875 C-17.07929015 53.59892394 -20.80764082 50.58526585 -27.75 49.3125 C-32.76043604 49.50193047 -35.56976287 52.59678894 -39.21484375 55.74609375 C-42.25778866 58.20861719 -45.35311919 60.1811649 -48.75 62.125 C-49.79671875 62.72570312 -50.8434375 63.32640625 -51.921875 63.9453125 C-55.76251762 65.26126873 -57.3884265 64.7232365 -61 63 C-61.66 62.34 -62.32 61.68 -63 61 C-62.33613281 60.62488281 -61.67226562 60.24976563 -60.98828125 59.86328125 C-55.9855673 56.96389813 -51.95086457 54.19779361 -48 50 C-47.34 50 -46.68 50 -46 50 C-43.39961559 45.12427923 -43.83654327 40.35774851 -44 35 C-44 34.01 -44 33.02 -44 32 C-42.10321609 31.57634192 -40.20638198 31.15290762 -38.30932617 30.73046875 C-36.67630843 30.36622931 -35.0436616 30.00032322 -33.41137695 29.6328125 C-29.57040359 28.77232615 -25.73216146 27.93298007 -21.86328125 27.20703125 C-20.65027344 26.97371094 -19.43726563 26.74039063 -18.1875 26.5 C-17.10855469 26.3040625 -16.02960938 26.108125 -14.91796875 25.90625 C-10.92388376 24.66578451 -8.24613187 22.66795912 -5.7421875 19.31640625 C-2.6994248 13.16235016 -1.34877284 6.70299229 0 0 Z " fill="#0D0C0C" transform="translate(159,42)"/>
<path d="M0 0 C0.33 0 0.66 0 1 0 C1.24234375 1.08539063 1.4846875 2.17078125 1.734375 3.2890625 C2.07227534 4.73452507 2.41085313 6.17982939 2.75 7.625 C2.90726563 8.33785156 3.06453125 9.05070312 3.2265625 9.78515625 C4.55481681 15.35360701 6.59918381 19.75923822 10.875 23.75 C16.53071649 27.07689205 22.78337879 27.62070596 29.171875 28.4375 C32 29 32 29 34 31 C33.34 32.32 32.68 33.64 32 35 C31.34 34.01 30.68 33.02 30 32 C26.72985147 31.19144921 26.72985147 31.19144921 23 30.8125 C21.741875 30.65394531 20.48375 30.49539062 19.1875 30.33203125 C16.20258497 29.96546464 16.20258497 29.96546464 14 30 C14.27714844 30.53367187 14.55429687 31.06734375 14.83984375 31.6171875 C17.66786404 37.43425414 18.73088945 42.5548024 19 49 C19.598125 48.67 20.19625 48.34 20.8125 48 C23 47 23 47 26 47 C24.75896526 50.72310422 23.24359295 51.05572863 19.9140625 52.81640625 C17.85206219 54.09147991 16.35901845 55.50025778 14.6875 57.25 C13.800625 58.1575 12.91375 59.065 12 60 C11.34 60 10.68 60 10 60 C7 55.61538462 7 55.61538462 7 53 C-2.10959911 48.34398268 -9.74819414 47.60626066 -20 48 C-19.51660156 47.10023437 -19.03320312 46.20046875 -18.53515625 45.2734375 C-16.50450159 40.94344104 -16.03552898 37.68685091 -17 33 C-19.8585776 27.34567069 -24.63478285 23.31522533 -29.4609375 19.34765625 C-29.96882813 18.90292969 -30.47671875 18.45820312 -31 18 C-31 17.67 -31 17.34 -31 17 C-30.33355469 16.92523438 -29.66710937 16.85046875 -28.98046875 16.7734375 C-17.42393761 15.12481348 -9.56386252 10.25925389 -1.6796875 1.7578125 C-1.12539063 1.17773438 -0.57109375 0.59765625 0 0 Z " fill="#090809" transform="translate(46,42)"/>
<path d="M0 0 C3.43595166 1.52708963 6.11912454 3.59927045 9 6 C9.804375 5.175 10.60875 4.35 11.4375 3.5 C14 1 14 1 15 1 C15 3.97 15 6.94 15 10 C10.05 10 5.1 10 0 10 C-0.33 13.96 -0.66 17.92 -1 22 C4.28 22 9.56 22 15 22 C15 25.63 15 29.26 15 33 C9.72 33 4.44 33 -1 33 C-1 36.96 -1 40.92 -1 45 C4.28 45 9.56 45 15 45 C15 48.3 15 51.6 15 55 C4.77 55 -5.46 55 -16 55 C-16 47.74 -16 40.48 -16 33 C-23.92 33.495 -23.92 33.495 -32 34 C-32 30.04 -32 26.08 -32 22 C-26.72 22 -21.44 22 -16 22 C-16 18.04 -16 14.08 -16 10 C-11.05 10 -6.1 10 -1 10 C-1.020625 8.72125 -1.04125 7.4425 -1.0625 6.125 C-1.125 2.25 -1.125 2.25 0 0 Z " fill="#FEFEFE" transform="translate(140,95)"/>
<path d="M0 0 C5.42873343 2.0629187 11.1153782 4.33225134 13.92480469 9.79980469 C14.61653646 11.53320312 15.30826823 13.26660156 16 15 C17.89685547 14.98259766 17.89685547 14.98259766 19.83203125 14.96484375 C21.49218602 14.95546434 23.15234239 14.9463643 24.8125 14.9375 C25.64587891 14.92912109 26.47925781 14.92074219 27.33789062 14.91210938 C28.14033203 14.90888672 28.94277344 14.90566406 29.76953125 14.90234375 C30.50792236 14.89710693 31.24631348 14.89187012 32.00708008 14.88647461 C34 15 34 15 37 16 C36.8453125 14.700625 36.8453125 14.700625 36.6875 13.375 C37.0886657 9.0424104 38.7671952 6.73367817 42 4 C44.58481348 2.45197862 47.2255241 1.17037445 50 0 C52.40566625 1.72907261 53.82155168 3.09574745 54.40625 6.05859375 C54.62644662 11.49928521 53.6968821 14.80353924 50 19 C46.30779075 21.91490204 43.66096733 22.41430821 39 22 C38.34 21.67 37.68 21.34 37 21 C37 21.66 37 22.32 37 23 C38.2065625 23.309375 38.2065625 23.309375 39.4375 23.625 C42 25 42 25 43.0625 27.875 C43 31 43 31 41.5625 33.3125 C38.17838467 35.54106376 34.98652731 36.11543998 31 36 C28.99617991 35.34490497 26.99541868 34.68025637 25 34 C24.38125 34.309375 23.7625 34.61875 23.125 34.9375 C19.73457573 36.63271213 16.57645406 36.00199224 13 35 C10.4375 33.3125 10.4375 33.3125 9 31 C9.14794002 27.3014996 9.35805573 25.64194427 12 23 C10.02 23 8.04 23 6 23 C6 22.34 6 21.68 6 21 C5.2575 20.814375 4.515 20.62875 3.75 20.4375 C0.0272465 18.49151522 -1.56188478 15.82724212 -3 12 C-3.61007477 6.94509477 -2.99298593 4.11535566 0 0 Z " fill="#231F20" transform="translate(77,33)"/>
<path d="M0 0 C0.8971875 1.1446875 0.8971875 1.1446875 1.8125 2.3125 C4.93617949 6.23237271 4.93617949 6.23237271 9 9 C8 11 7 13 6 15 C5.78622279 20.60703213 5.78622279 20.60703213 7 26 C-1.65090653 26.2790615 -10.54282638 25.85583398 -18 21 C-22.10660169 16.89339831 -24.6518792 12.68841214 -26 7 C-26 5.35 -26 3.7 -26 2 C-17.42 2 -8.84 2 0 2 C0 1.34 0 0.68 0 0 Z " fill="#FCFCFC" transform="translate(74,45)"/>
<path d="M0 0 C0 3 0 3 -1.3125 4.60546875 C-1.869375 5.12753906 -2.42625 5.64960937 -3 6.1875 C-3.556875 6.71730469 -4.11375 7.24710938 -4.6875 7.79296875 C-5.120625 8.19128906 -5.55375 8.58960938 -6 9 C-4.35 8.01 -2.7 7.02 -1 6 C1.7766867 16.26382407 2.09937356 24.36536613 -2.37890625 34.22265625 C-5.58319115 39.712407 -9.66169468 43.0396246 -15.5 45.4375 C-16.325 45.623125 -17.15 45.80875 -18 46 C-17.84402344 45.42765625 -17.68804687 44.8553125 -17.52734375 44.265625 C-16.45823103 39.67239997 -15.89095034 35.21809933 -18.05859375 30.8828125 C-21.2776025 26.39888161 -25.21128157 22.84128725 -29.4609375 19.34765625 C-29.96882813 18.90292969 -30.47671875 18.45820312 -31 18 C-31 17.67 -31 17.34 -31 17 C-30.33355469 16.92523438 -29.66710937 16.85046875 -28.98046875 16.7734375 C-16.50172612 14.99325324 -8.32574036 9.25082263 0 0 Z " fill="#221E1F" transform="translate(46,42)"/>
<path d="M0 0 C3.5 1.5 3.5 1.5 6 3 C5.34 6.63 4.68 10.26 4 14 C-0.95 14 -5.9 14 -11 14 C-11 17.96 -11 21.92 -11 26 C-16.28 26 -21.56 26 -27 26 C-28.04683721 17.53806588 -28.04683721 17.53806588 -27 13 C-24.22000548 10.46622077 -21.50441695 9.09387958 -18.10546875 7.5 C-15.21117101 6.10199958 -13.48560247 4.81373605 -11.25 2.5625 C-7.51250219 -0.83853207 -4.94925544 -0.70703649 0 0 Z " fill="#EDEDED" transform="translate(135,91)"/>
<path d="M0 0 C0.46148437 0.36351562 0.92296875 0.72703125 1.3984375 1.1015625 C5.22071928 4.04758996 9.12244016 6.83513036 13.1875 9.4375 C14.38439453 10.20900391 14.38439453 10.20900391 15.60546875 10.99609375 C18.5614228 12.23537628 19.95507311 11.82954739 23 11 C25.33301986 10.96175377 27.66711508 10.95425716 30 11 C25.25 15.875 25.25 15.875 23 17 C23 16.34 23 15.68 23 15 C17.74196485 17.70413236 13.90391819 21.28824543 12 27 C11.86026048 30.84283684 11.82148381 34.3171369 13 38 C6.31073524 36.37836006 2.50318294 30.42448861 -0.9375 24.875 C-3.76498205 17.30014069 -2.83621571 7.44506624 0 0 Z " fill="#211E1F" transform="translate(161,48)"/>
<path d="M0 0 C2.97 0 5.94 0 9 0 C11.90518749 5.56827603 13.17653911 10.71004089 12 17 C10 19 10 19 7 20 C5.88625 20.433125 4.7725 20.86625 3.625 21.3125 C-1.86980836 22.62532512 -7.42423795 21.31155493 -12.90234375 20.41015625 C-13.92457031 20.27480469 -14.94679688 20.13945313 -16 20 C-16.33 20.33 -16.66 20.66 -17 21 C-23.25108024 21.54834037 -27.8007775 20.64921955 -33 17 C-35.45442157 13.31836765 -35.81504512 10.27482851 -35 6 C-32.8125 3 -32.8125 3 -30 1 C-27.1875 0.6875 -27.1875 0.6875 -25 1 C-24.67 1.66 -24.34 2.32 -24 3 C-24.515625 3.37125 -25.03125 3.7425 -25.5625 4.125 C-27.3105536 6.01129787 -27.3105536 6.01129787 -27 9.0625 C-26.29057003 12.11500133 -26.29057003 12.11500133 -23.875 13.4375 C-19.63577684 14.26691323 -15.90820009 13.59972003 -11.8125 12.3125 C-10 12 -10 12 -8.25 13 C-4.76932024 14.54696878 -1.62685804 13.92208255 2 13 C4.17500647 11.99511774 4.17500647 11.99511774 5 10 C5.08223366 6.91004903 5.08223366 6.91004903 4 4 C2.04836882 2.56362302 2.04836882 2.56362302 0 2 C0 1.34 0 0.68 0 0 Z " fill="#262223" transform="translate(114,54)"/>
<path d="M0 0 C0.7425 0.28875 1.485 0.5775 2.25 0.875 C3.24 0.215 4.23 -0.445 5.25 -1.125 C9.00069353 -1.47228644 11.60596945 -1.37701195 15.125 0 C17.25 1.875 17.25 1.875 18.3125 4.8125 C18.25 7.875 18.25 7.875 16.8125 10.1875 C13.42838467 12.41606376 10.23652731 12.99043998 6.25 12.875 C4.24617991 12.21990497 2.24541868 11.55525637 0.25 10.875 C-0.36875 11.184375 -0.9875 11.49375 -1.625 11.8125 C-5.01542427 13.50771213 -8.17354594 12.87699224 -11.75 11.875 C-14.3125 10.1875 -14.3125 10.1875 -15.75 7.875 C-15.8125 4.8125 -15.8125 4.8125 -14.75 1.875 C-10.35588144 -2.00216343 -5.32587935 -2.17876882 0 0 Z " fill="#F0F0F0" transform="translate(101.75,56.125)"/>
<path d="M0 0 C5.28 0 10.56 0 16 0 C15.67 3.96 15.34 7.92 15 12 C11.6875 12.25 11.6875 12.25 8 12 C7.01 10.68 6.02 9.36 5 8 C3.68 12.95 2.36 17.9 1 23 C-4.61 23 -10.22 23 -16 23 C-16 19.37 -16 15.74 -16 12 C-10.72 12 -5.44 12 0 12 C0 8.04 0 4.08 0 0 Z " fill="#FBFBFB" transform="translate(155,35)"/>
<path d="M0 0 C3.3 0 6.6 0 10 0 C10 3.63 10 7.26 10 11 C5.38 11.33 0.76 11.66 -4 12 C-4.33 15.63 -4.66 19.26 -5 23 C-10.28 23 -15.56 23 -21 23 C-21.33 20.36 -21.66 17.72 -22 15 C-22.99 15.495 -22.99 15.495 -24 16 C-22.75976516 12.14149162 -20.39142526 10.77359043 -16.94921875 8.83203125 C-12.4333059 6.90439711 -8.04381913 6.88844627 -3.1875 6.9375 C-2.02605469 6.94652344 -0.86460937 6.95554687 0.33203125 6.96484375 C1.21246094 6.97644531 2.09289062 6.98804687 3 7 C2.505 6.21625 2.01 5.4325 1.5 4.625 C0 2 0 2 0 0 Z " fill="#EDEDED" transform="translate(176,82)"/>
<path d="M0 0 C0.99 0.33 1.98 0.66 3 1 C3.14695313 2.051875 3.14695313 2.051875 3.296875 3.125 C4.86653967 13.39121715 4.86653967 13.39121715 10.81640625 21.56640625 C12.5070543 22.76522941 14.25008418 23.8894765 16 25 C16 25.33 16 25.66 16 26 C15.27554688 26.17015625 14.55109375 26.3403125 13.8046875 26.515625 C7.11796098 28.19176445 2.19596434 29.80403566 -2.75 34.75 C-3.1625 35.1625 -3.575 35.575 -4 36 C-4.66 36 -5.32 36 -6 36 C-8.50639777 30.04730529 -9.20458148 23.8124383 -7.2421875 17.6015625 C-5.66720056 13.96793121 -3.7745898 10.5859186 -1.75 7.1875 C0.32083921 4.02166381 0.32083921 4.02166381 0 0 Z " fill="#211E1F" transform="translate(153,61)"/>
<path d="M0 0 C4.95 0 9.9 0 15 0 C15 3.96 15 7.92 15 12 C10.05 12 5.1 12 0 12 C0 15.63 0 19.26 0 23 C-5.28 23 -10.56 23 -16 23 C-16 19.37 -16 15.74 -16 12 C-11.05 11.67 -6.1 11.34 -1 11 C-0.67 7.37 -0.34 3.74 0 0 Z " fill="#FEFEFE" transform="translate(31,105)"/>
<path d="M0 0 C4.95 0 9.9 0 15 0 C15 3.96 15 7.92 15 12 C10.05 12 5.1 12 0 12 C0.020625 13.629375 0.04125 15.25875 0.0625 16.9375 C0.08386068 18.62499341 0.07205511 20.31391034 0 22 C-1 23 -1 23 -4.37890625 23.09765625 C-5.77347077 23.09098369 -7.16801743 23.07902532 -8.5625 23.0625 C-9.27341797 23.05798828 -9.98433594 23.05347656 -10.71679688 23.04882812 C-12.47790013 23.03700864 -14.23896036 23.01907263 -16 23 C-16 19.37 -16 15.74 -16 12 C-11.05 11.67 -6.1 11.34 -1 11 C-0.67 7.37 -0.34 3.74 0 0 Z " fill="#FEFEFE" transform="translate(171,0)"/>
<path d="M0 0 C6.54666071 5.81925397 10.35622575 13.46060896 11.22265625 22.26171875 C11.40440511 27.04250408 11.03371037 30.08145743 8 34 C7.57332031 33.61328125 7.14664063 33.2265625 6.70703125 32.828125 C0.73304968 27.85185994 -5.54521164 25.93188113 -13 24 C-10.86216195 21.83946728 -8.7228524 19.75665088 -6.4375 17.75 C-1.88195519 12.61041099 -0.69691246 6.69035965 0 0 Z " fill="#211D1E" transform="translate(50,63)"/>
<path d="M0 0 C1.27617187 0.02320313 2.55234375 0.04640625 3.8671875 0.0703125 C5.78917969 0.09738281 5.78917969 0.09738281 7.75 0.125 C9.23113281 0.15980469 9.23113281 0.15980469 10.7421875 0.1953125 C10.7421875 3.8253125 10.7421875 7.4553125 10.7421875 11.1953125 C5.4621875 11.1953125 0.1821875 11.1953125 -5.2578125 11.1953125 C-5.453125 4.359375 -5.453125 4.359375 -5.2578125 2.1953125 C-3.2578125 0.1953125 -3.2578125 0.1953125 0 0 Z M-20.2578125 11.1953125 C-15.3078125 11.1953125 -10.3578125 11.1953125 -5.2578125 11.1953125 C-5.2578125 15.1553125 -5.2578125 19.1153125 -5.2578125 23.1953125 C-12.875 24.171875 -12.875 24.171875 -15.2578125 24.1953125 C-15.9178125 23.5353125 -16.5778125 22.8753125 -17.2578125 22.1953125 C-18.2478125 22.1953125 -19.2378125 22.1953125 -20.2578125 22.1953125 C-20.2578125 18.5653125 -20.2578125 14.9353125 -20.2578125 11.1953125 Z " fill="#EDEDED" transform="translate(144.2578125,11.8046875)"/>
<path d="M0 0 C0.33 0.66 0.66 1.32 1 2 C0.2578125 3.77734375 0.2578125 3.77734375 -0.875 5.9375 C-3.36451496 11.2084041 -3.7843336 16.23092378 -4 22 C-6.475 21.01 -6.475 21.01 -9 20 C-9 20.66 -9 21.32 -9 22 C-9.66 21.67 -10.32 21.34 -11 21 C-11 20.34 -11 19.68 -11 19 C-12.98 18.67 -14.96 18.34 -17 18 C-16.98839844 17.24074219 -16.97679687 16.48148438 -16.96484375 15.69921875 C-16.95582031 14.70535156 -16.94679687 13.71148437 -16.9375 12.6875 C-16.92009766 11.20830078 -16.92009766 11.20830078 -16.90234375 9.69921875 C-16.87670138 6.90036151 -16.87670138 6.90036151 -18 4 C-12.06 2.68 -6.12 1.36 0 0 Z " fill="#211D1E" transform="translate(146,70)"/>
<path d="M0 0 C0.8971875 1.1446875 0.8971875 1.1446875 1.8125 2.3125 C4.93617949 6.23237271 4.93617949 6.23237271 9 9 C8 11 7 13 6 15 C5.78622279 20.60703213 5.78622279 20.60703213 7 26 C4.03 26 1.06 26 -2 26 C-2 25.67 -2 25.34 -2 25 C-0.35 25 1.3 25 3 25 C3 21.04 3 17.08 3 13 C-1.95 13 -6.9 13 -12 13 C-12 9.37 -12 5.74 -12 2 C-8.04 2 -4.08 2 0 2 C0 1.34 0 0.68 0 0 Z " fill="#ECECEC" transform="translate(74,45)"/>
<path d="M0 0 C5.28 0 10.56 0 16 0 C16 3.96 16 7.92 16 12 C10.72 12 5.44 12 0 12 C0 8.04 0 4.08 0 0 Z " fill="#EDEDED" transform="translate(77,128)"/>
<path d="M0 0 C5.28 0 10.56 0 16 0 C16 3.96 16 7.92 16 12 C10.72 12 5.44 12 0 12 C0 8.04 0 4.08 0 0 Z " fill="#EEEEEE" transform="translate(46,128)"/>
<path d="M0 0 C5.28 0 10.56 0 16 0 C16 3.96 16 7.92 16 12 C10.72 12 5.44 12 0 12 C0 8.04 0 4.08 0 0 Z " fill="#EEEEEE" transform="translate(77,105)"/>
<path d="M0 0 C5.28 0 10.56 0 16 0 C16 3.96 16 7.92 16 12 C10.72 12 5.44 12 0 12 C0 8.04 0 4.08 0 0 Z " fill="#FEFEFE" transform="translate(15,93)"/>
<path d="M0 0 C5.28 0 10.56 0 16 0 C16 3.96 16 7.92 16 12 C10.72 12 5.44 12 0 12 C0 8.04 0 4.08 0 0 Z " fill="#FEFEFE" transform="translate(139,23)"/>
<path d="M0 0 C5.28 0 10.56 0 16 0 C16 3.96 16 7.92 16 12 C10.72 12 5.44 12 0 12 C0 8.04 0 4.08 0 0 Z " fill="#FEFEFE" transform="translate(108,23)"/>
<path d="M0 0 C5.28 0 10.56 0 16 0 C16 3.96 16 7.92 16 12 C10.72 12 5.44 12 0 12 C0 8.04 0 4.08 0 0 Z " fill="#FEFEFE" transform="translate(46,23)"/>
<path d="M0 0 C5.28 0 10.56 0 16 0 C16 3.96 16 7.92 16 12 C10.72 12 5.44 12 0 12 C0 8.04 0 4.08 0 0 Z " fill="#FEFEFE" transform="translate(15,23)"/>
<path d="M0 0 C5.28 0 10.56 0 16 0 C16 3.96 16 7.92 16 12 C10.72 12 5.44 12 0 12 C0 8.04 0 4.08 0 0 Z " fill="#FEFEFE" transform="translate(108,0)"/>
<path d="M0 0 C5.28 0 10.56 0 16 0 C16 3.96 16 7.92 16 12 C10.72 12 5.44 12 0 12 C0 8.04 0 4.08 0 0 Z " fill="#FEFEFE" transform="translate(77,0)"/>
<path d="M0 0 C5.28 0 10.56 0 16 0 C16 3.96 16 7.92 16 12 C10.72 12 5.44 12 0 12 C0 8.04 0 4.08 0 0 Z " fill="#FEFEFE" transform="translate(46,0)"/>
<path d="M0 0 C5.28 0 10.56 0 16 0 C16 3.96 16 7.92 16 12 C10.72 12 5.44 12 0 12 C0 8.04 0 4.08 0 0 Z " fill="#FEFEFE" transform="translate(15,0)"/>
<path d="M0 0 C1.39456452 0.00667256 2.78911118 0.01863093 4.18359375 0.03515625 C4.89451172 0.03966797 5.60542969 0.04417969 6.33789062 0.04882812 C8.09899388 0.06064761 9.86005411 0.07858362 11.62109375 0.09765625 C11.62109375 4.05765625 11.62109375 8.01765625 11.62109375 12.09765625 C6.34109375 12.09765625 1.06109375 12.09765625 -4.37890625 12.09765625 C-4.4765625 3.6015625 -4.4765625 3.6015625 -4.37890625 1.09765625 C-3.37890625 0.09765625 -3.37890625 0.09765625 0 0 Z " fill="#EEEEEE" transform="translate(112.37890625,127.90234375)"/>
<path d="M0 0 C5.28 0 10.56 0 16 0 C16.09765625 8.49609375 16.09765625 8.49609375 16 11 C15 12 15 12 11.62109375 12.09765625 C10.22652923 12.09098369 8.83198257 12.07902532 7.4375 12.0625 C6.37112305 12.05573242 6.37112305 12.05573242 5.28320312 12.04882812 C3.52209987 12.03700864 1.76103964 12.01907263 0 12 C0 8.04 0 4.08 0 0 Z " fill="#EEEEEE" transform="translate(15,105)"/>
<path d="M0 0 C5.28 0 10.56 0 16 0 C16.09765625 8.49609375 16.09765625 8.49609375 16 11 C15 12 15 12 11.62109375 12.09765625 C10.22652923 12.09098369 8.83198257 12.07902532 7.4375 12.0625 C6.37112305 12.05573242 6.37112305 12.05573242 5.28320312 12.04882812 C3.52209987 12.03700864 1.76103964 12.01907263 0 12 C0 8.04 0 4.08 0 0 Z " fill="#EEEEEE" transform="translate(15,35)"/>
<path d="M0 0 C5.28 0 10.56 0 16 0 C16.09765625 8.49609375 16.09765625 8.49609375 16 11 C15 12 15 12 11.62109375 12.09765625 C10.22652923 12.09098369 8.83198257 12.07902532 7.4375 12.0625 C6.37112305 12.05573242 6.37112305 12.05573242 5.28320312 12.04882812 C3.52209987 12.03700864 1.76103964 12.01907263 0 12 C0 8.04 0 4.08 0 0 Z " fill="#EEEEEE" transform="translate(155,0)"/>
<path d="M0 0 C5.28 0 10.56 0 16 0 C16 3.96 16 7.92 16 12 C13.52076199 12.02685095 11.0418116 12.04676547 8.5625 12.0625 C7.85544922 12.07087891 7.14839844 12.07925781 6.41992188 12.08789062 C4.61306441 12.09653588 2.80612397 12.05220011 1 12 C0 11 0 11 -0.09765625 8.49609375 C-0.06510417 5.6640625 -0.03255208 2.83203125 0 0 Z " fill="#FEFEFE" transform="translate(139,0)"/>
<path d="M0 0 C0.66 0.66 1.32 1.32 2 2 C0.68 2 -0.64 2 -2 2 C-2 5.96 -2 9.92 -2 14 C-6.95 14 -11.9 14 -17 14 C-17.718051 6.93916512 -17.718051 6.93916512 -15.76953125 4.390625 C-10.56408377 0.02061971 -6.48072252 -0.30860583 0 0 Z " fill="#EDEDED" transform="translate(79,91)"/>
<path d="M0 0 C5.28 0 10.56 0 16 0 C16 3.96 16 7.92 16 12 C4.5 12.25 4.5 12.25 0 10 C0 6.7 0 3.4 0 0 Z " fill="#FEFEFE" transform="translate(77,23)"/>
<path d="M0 0 C5.28 0 10.56 0 16 0 C15.67 3.96 15.34 7.92 15 12 C10.05 12 5.1 12 0 12 C0 8.04 0 4.08 0 0 Z " fill="#FEFEFE" transform="translate(155,128)"/>
<path d="M0 0 C5.28 0 10.56 0 16 0 C15.67 3.96 15.34 7.92 15 12 C10.05 12 5.1 12 0 12 C0 8.04 0 4.08 0 0 Z " fill="#EDEDED" transform="translate(15,128)"/>
<path d="M0 0 C5.28 0 10.56 0 16 0 C15.67 3.96 15.34 7.92 15 12 C10.05 12 5.1 12 0 12 C0 8.04 0 4.08 0 0 Z " fill="#FEFEFE" transform="translate(155,105)"/>
<path d="M0 0 C4.95 0 9.9 0 15 0 C15.1953125 9.1796875 15.1953125 9.1796875 15 12 C14.34 12.66 13.68 13.32 13 14 C13 13.34 13 12.68 13 12 C8.71 12 4.42 12 0 12 C0 8.04 0 4.08 0 0 Z " fill="#EDEDED" transform="translate(62,23)"/>
<path d="M0 0 C4.95 0 9.9 0 15 0 C15 3.96 15 7.92 15 12 C10.05 12 5.1 12 0 12 C0 8.04 0 4.08 0 0 Z " fill="#FEFEFE" transform="translate(62,105)"/>
<path d="M0 0 C4.95 0 9.9 0 15 0 C15 3.96 15 7.92 15 12 C10.05 12 5.1 12 0 12 C0 8.04 0 4.08 0 0 Z " fill="#FEFEFE" transform="translate(0,105)"/>
<path d="M0 0 C4.95 0 9.9 0 15 0 C15 3.96 15 7.92 15 12 C10.05 12 5.1 12 0 12 C0 8.04 0 4.08 0 0 Z " fill="#EEEEEE" transform="translate(31,93)"/>
<path d="M0 0 C4.95 0 9.9 0 15 0 C15 3.96 15 7.92 15 12 C10.05 12 5.1 12 0 12 C0 8.04 0 4.08 0 0 Z " fill="#EEEEEE" transform="translate(0,93)"/>
<path d="M0 0 C4.95 0 9.9 0 15 0 C15 3.96 15 7.92 15 12 C10.05 12 5.1 12 0 12 C0 8.04 0 4.08 0 0 Z " fill="#EEEEEE" transform="translate(0,70)"/>
<path d="M0 0 C4.95 0 9.9 0 15 0 C15 3.96 15 7.92 15 12 C10.05 12 5.1 12 0 12 C0 8.04 0 4.08 0 0 Z " fill="#FEFEFE" transform="translate(0,35)"/>
<path d="M0 0 C1.93166016 0.01740234 1.93166016 0.01740234 3.90234375 0.03515625 C5.19269531 0.04417969 6.48304688 0.05320312 7.8125 0.0625 C8.81152344 0.07410156 9.81054688 0.08570312 10.83984375 0.09765625 C10.83984375 4.05765625 10.83984375 8.01765625 10.83984375 12.09765625 C5.88984375 12.09765625 0.93984375 12.09765625 -4.16015625 12.09765625 C-4.2578125 3.6015625 -4.2578125 3.6015625 -4.16015625 1.09765625 C-3.16015625 0.09765625 -3.16015625 0.09765625 0 0 Z " fill="#FEFEFE" transform="translate(175.16015625,92.90234375)"/>
<path d="M0 0 C1.93166016 0.01740234 1.93166016 0.01740234 3.90234375 0.03515625 C5.19269531 0.04417969 6.48304688 0.05320312 7.8125 0.0625 C8.81152344 0.07410156 9.81054688 0.08570312 10.83984375 0.09765625 C10.83984375 4.05765625 10.83984375 8.01765625 10.83984375 12.09765625 C5.88984375 12.09765625 0.93984375 12.09765625 -4.16015625 12.09765625 C-4.2578125 3.6015625 -4.2578125 3.6015625 -4.16015625 1.09765625 C-3.16015625 0.09765625 -3.16015625 0.09765625 0 0 Z " fill="#FEFEFE" transform="translate(175.16015625,22.90234375)"/>
<path d="M0 0 C4.62 0 9.24 0 14 0 C15.82089479 3.64178957 15.05121113 8.00553148 15 12 C10.05 12 5.1 12 0 12 C0 8.04 0 4.08 0 0 Z " fill="#FEFEFE" transform="translate(0,58)"/>
<path d="M0 0 C5.28 0 10.56 0 16 0 C16 3.63 16 7.26 16 11 C8.08 11.495 8.08 11.495 0 12 C0 8.04 0 4.08 0 0 Z " fill="#FEFEFE" transform="translate(108,117)"/>
<path d="M0 0 C5.28 0 10.56 0 16 0 C16 3.63 16 7.26 16 11 C10.72 11 5.44 11 0 11 C0 7.37 0 3.74 0 0 Z " fill="#FEFEFE" transform="translate(139,117)"/>
<path d="M0 0 C5.28 0 10.56 0 16 0 C16 3.63 16 7.26 16 11 C10.72 11 5.44 11 0 11 C0 7.37 0 3.74 0 0 Z " fill="#FEFEFE" transform="translate(77,117)"/>
<path d="M0 0 C5.28 0 10.56 0 16 0 C16 3.63 16 7.26 16 11 C10.72 11 5.44 11 0 11 C0 7.37 0 3.74 0 0 Z " fill="#FEFEFE" transform="translate(46,117)"/>
<path d="M0 0 C5.28 0 10.56 0 16 0 C16 3.63 16 7.26 16 11 C10.72 11 5.44 11 0 11 C0 7.37 0 3.74 0 0 Z " fill="#FEFEFE" transform="translate(139,47)"/>
<path d="M0 0 C5.28 0 10.56 0 16 0 C16 3.63 16 7.26 16 11 C10.72 11 5.44 11 0 11 C0 7.37 0 3.74 0 0 Z " fill="#EEEEEE" transform="translate(108,12)"/>
<path d="M0 0 C5.28 0 10.56 0 16 0 C16 3.63 16 7.26 16 11 C10.72 11 5.44 11 0 11 C0 7.37 0 3.74 0 0 Z " fill="#EDEDED" transform="translate(77,12)"/>
<path d="M0 0 C5.28 0 10.56 0 16 0 C16 3.63 16 7.26 16 11 C10.72 11 5.44 11 0 11 C0 7.37 0 3.74 0 0 Z " fill="#EDEDED" transform="translate(46,12)"/>
<path d="M0 0 C5.28 0 10.56 0 16 0 C16 3.63 16 7.26 16 11 C10.72 11 5.44 11 0 11 C0 7.37 0 3.74 0 0 Z " fill="#EEEEEE" transform="translate(15,12)"/>
<path d="M0 0 C4.95 0 9.9 0 15 0 C15.48826291 7.32394366 15.48826291 7.32394366 13.375 10.25 C9.03448699 13.44827274 4.21181181 12.22660051 -1 12 C-0.67 8.04 -0.34 4.08 0 0 Z " fill="#FEFEFE" transform="translate(31,35)"/>
<path d="M0 0 C4.62 0 9.24 0 14 0 C14 3.96 14 7.92 14 12 C9.38 12 4.76 12 0 12 C0 8.04 0 4.08 0 0 Z " fill="#FEFEFE" transform="translate(186,105)"/>
<path d="M0 0 C4.62 0 9.24 0 14 0 C14 3.96 14 7.92 14 12 C9.38 12 4.76 12 0 12 C0 8.04 0 4.08 0 0 Z " fill="#EEEEEE" transform="translate(186,93)"/>
<path d="M0 0 C4.62 0 9.24 0 14 0 C14 3.96 14 7.92 14 12 C9.38 12 4.76 12 0 12 C0 8.04 0 4.08 0 0 Z " fill="#FEFEFE" transform="translate(186,35)"/>
<path d="M0 0 C4.62 0 9.24 0 14 0 C14 3.96 14 7.92 14 12 C9.38 12 4.76 12 0 12 C0 8.04 0 4.08 0 0 Z " fill="#EEEEEE" transform="translate(186,23)"/>
<path d="M0 0 C4.95 0 9.9 0 15 0 C15 3.63 15 7.26 15 11 C10.05 11 5.1 11 0 11 C0 7.37 0 3.74 0 0 Z " fill="#FEFEFE" transform="translate(171,117)"/>
<path d="M0 0 C4.95 0 9.9 0 15 0 C15 3.63 15 7.26 15 11 C10.05 11 5.1 11 0 11 C0 7.37 0 3.74 0 0 Z " fill="#EEEEEE" transform="translate(124,117)"/>
<path d="M0 0 C4.95 0 9.9 0 15 0 C15 3.63 15 7.26 15 11 C10.05 11 5.1 11 0 11 C0 7.37 0 3.74 0 0 Z " fill="#EEEEEE" transform="translate(93,117)"/>
<path d="M0 0 C4.95 0 9.9 0 15 0 C15 3.63 15 7.26 15 11 C10.05 11 5.1 11 0 11 C0 7.37 0 3.74 0 0 Z " fill="#EEEEEE" transform="translate(62,117)"/>
<path d="M0 0 C4.95 0 9.9 0 15 0 C15 3.63 15 7.26 15 11 C10.05 11 5.1 11 0 11 C0 7.37 0 3.74 0 0 Z " fill="#EDEDED" transform="translate(31,117)"/>
<path d="M0 0 C4.95 0 9.9 0 15 0 C15 3.63 15 7.26 15 11 C10.05 11 5.1 11 0 11 C0 7.37 0 3.74 0 0 Z " fill="#EDEDED" transform="translate(0,117)"/>
<path d="M0 0 C4.95 0 9.9 0 15 0 C15 3.63 15 7.26 15 11 C10.05 11 5.1 11 0 11 C0 7.37 0 3.74 0 0 Z " fill="#FFFFFF" transform="translate(0,82)"/>
<path d="M0 0 C4.95 0 9.9 0 15 0 C15 3.63 15 7.26 15 11 C10.05 11 5.1 11 0 11 C0 7.37 0 3.74 0 0 Z " fill="#EDEDED" transform="translate(0,47)"/>
<path d="M0 0 C4.95 0 9.9 0 15 0 C15 3.63 15 7.26 15 11 C10.05 11 5.1 11 0 11 C0 7.37 0 3.74 0 0 Z " fill="#FFFFFF" transform="translate(124,12)"/>
<path d="M0 0 C4.95 0 9.9 0 15 0 C15 3.63 15 7.26 15 11 C10.05 11 5.1 11 0 11 C0 7.37 0 3.74 0 0 Z " fill="#FFFFFF" transform="translate(93,12)"/>
<path d="M0 0 C4.95 0 9.9 0 15 0 C15 3.63 15 7.26 15 11 C10.05 11 5.1 11 0 11 C0 7.37 0 3.74 0 0 Z " fill="#FFFFFF" transform="translate(62,12)"/>
<path d="M0 0 C4.95 0 9.9 0 15 0 C15 3.63 15 7.26 15 11 C10.05 11 5.1 11 0 11 C0 7.37 0 3.74 0 0 Z " fill="#FFFFFF" transform="translate(31,12)"/>
<path d="M0 0 C4.95 0 9.9 0 15 0 C15 3.63 15 7.26 15 11 C10.05 11 5.1 11 0 11 C0 7.37 0 3.74 0 0 Z " fill="#FFFFFF" transform="translate(0,12)"/>
<path d="M0 0 C-3.16467895 3.7150579 -6.80177594 5.65590449 -11.07421875 7.8515625 C-13.1529581 8.8566311 -13.1529581 8.8566311 -14 11 C-13.443125 11.20625 -12.88625 11.4125 -12.3125 11.625 C-8.33726093 13.98865566 -5.59953968 16.78247183 -4.390625 21.25390625 C-3.7927344 25.57437763 -3.76360877 28.15375516 -6 32 C-6.66 32 -7.32 32 -8 32 C-8.00257812 31.3709375 -8.00515625 30.741875 -8.0078125 30.09375 C-8.38051234 21.84466029 -11.20767651 17.5131758 -17.17578125 11.984375 C-18.58647083 10.75158766 -20.01374942 9.53738578 -21.4609375 8.34765625 C-21.96882813 7.90292969 -22.47671875 7.45820312 -23 7 C-23 6.67 -23 6.34 -23 6 C-22.31035156 5.91363281 -21.62070312 5.82726563 -20.91015625 5.73828125 C-14.72196234 4.81302318 -10.12714718 3.35319347 -4.875 -0.07421875 C-3 -1 -3 -1 0 0 Z " fill="#0F0F0F" transform="translate(38,53)"/>
<path d="M0 0 C5.28 0 10.56 0 16 0 C16 3.3 16 6.6 16 10 C10.72 10 5.44 10 0 10 C0 6.7 0 3.4 0 0 Z " fill="#FEFEFE" transform="translate(139,140)"/>
<path d="M0 0 C5.28 0 10.56 0 16 0 C16 3.3 16 6.6 16 10 C10.72 10 5.44 10 0 10 C0 6.7 0 3.4 0 0 Z " fill="#FEFEFE" transform="translate(108,140)"/>
<path d="M0 0 C5.28 0 10.56 0 16 0 C16 3.3 16 6.6 16 10 C10.72 10 5.44 10 0 10 C0 6.7 0 3.4 0 0 Z " fill="#FEFEFE" transform="translate(77,140)"/>
<path d="M0 0 C5.28 0 10.56 0 16 0 C16 3.3 16 6.6 16 10 C10.72 10 5.44 10 0 10 C0 6.7 0 3.4 0 0 Z " fill="#FEFEFE" transform="translate(46,140)"/>
<path d="M0 0 C5.28 0 10.56 0 16 0 C16 3.3 16 6.6 16 10 C10.72 10 5.44 10 0 10 C0 6.7 0 3.4 0 0 Z " fill="#FEFEFE" transform="translate(15,140)"/>
<path d="M0 0 C4.62 0 9.24 0 14 0 C14 3.63 14 7.26 14 11 C11.36 11 8.72 11 6 11 C5.67 11.66 5.34 12.32 5 13 C2.525 12.01 2.525 12.01 0 11 C0 7.37 0 3.74 0 0 Z " fill="#EEEEEE" transform="translate(186,47)"/>
<path d="M0 0 C4.95 0 9.9 0 15 0 C14.34 1.98 13.68 3.96 13 6 C13 6.33 13 6.66 13 7 C13.99 7 14.98 7 16 7 C15.67 8.32 15.34 9.64 15 11 C10.05 11 5.1 11 0 11 C0 7.37 0 3.74 0 0 Z " fill="#EBEBEB" transform="translate(15,82)"/>
<path d="M0 0 C4.62 0 9.24 0 14 0 C14 3.63 14 7.26 14 11 C9.38 11 4.76 11 0 11 C0 7.37 0 3.74 0 0 Z " fill="#EEEEEE" transform="translate(186,117)"/>
<path d="M0 0 C4.62 0 9.24 0 14 0 C14 3.63 14 7.26 14 11 C9.38 11 4.76 11 0 11 C0 7.37 0 3.74 0 0 Z " fill="#FFFFFF" transform="translate(186,82)"/>
<path d="M0 0 C4.62 0 9.24 0 14 0 C14 3.63 14 7.26 14 11 C9.38 11 4.76 11 0 11 C0 7.37 0 3.74 0 0 Z " fill="#FFFFFF" transform="translate(186,12)"/>
<path d="M0 0 C4.95 0 9.9 0 15 0 C15 3.3 15 6.6 15 10 C10.05 10 5.1 10 0 10 C0 6.7 0 3.4 0 0 Z " fill="#FEFEFE" transform="translate(171,140)"/>
<path d="M0 0 C4.95 0 9.9 0 15 0 C15 3.3 15 6.6 15 10 C10.05 10 5.1 10 0 10 C0 6.7 0 3.4 0 0 Z " fill="#EEEEEE" transform="translate(124,140)"/>
<path d="M0 0 C4.95 0 9.9 0 15 0 C15 3.3 15 6.6 15 10 C10.05 10 5.1 10 0 10 C0 6.7 0 3.4 0 0 Z " fill="#EEEEEE" transform="translate(93,140)"/>
<path d="M0 0 C4.95 0 9.9 0 15 0 C15 3.3 15 6.6 15 10 C10.05 10 5.1 10 0 10 C0 6.7 0 3.4 0 0 Z " fill="#EEEEEE" transform="translate(62,140)"/>
<path d="M0 0 C4.95 0 9.9 0 15 0 C15 3.3 15 6.6 15 10 C10.05 10 5.1 10 0 10 C0 6.7 0 3.4 0 0 Z " fill="#EDEDED" transform="translate(31,140)"/>
<path d="M0 0 C4.95 0 9.9 0 15 0 C15 3.3 15 6.6 15 10 C10.05 10 5.1 10 0 10 C0 6.7 0 3.4 0 0 Z " fill="#EDEDED" transform="translate(0,140)"/>
<path d="M0 0 C4.62 0 9.24 0 14 0 C14 3.63 14 7.26 14 11 C10.37 11.33 6.74 11.66 3 12 C0.7981069 7.32097716 0 5.37483542 0 0 Z " fill="#FDFDFD" transform="translate(48,47)"/>
<path d="M0 0 C4.29 0 8.58 0 13 0 C12.67 3.96 12.34 7.92 12 12 C8.04 12 4.08 12 0 12 C0 8.04 0 4.08 0 0 Z " fill="#FEFEFE" transform="translate(62,35)"/>
<path d="M0 0 C4.40147657 0.50302589 6.75395419 2.02445801 10 5 C11.50662097 8.01324195 11.17770373 10.68286377 11 14 C9 16 9 16 6.6875 16.5 C3.39398138 15.88725235 1.94920885 14.50287686 -0.05859375 11.859375 C-1.75792239 8.50302465 -1.37010669 5.70106694 -1 2 C-0.67 1.34 -0.34 0.68 0 0 Z " fill="#EB8A19" transform="translate(78,37)"/>
<path d="M0 0 C2.97 0.33 5.94 0.66 9 1 C9 4.63 9 8.26 9 12 C4.05 12.33 -0.9 12.66 -6 13 C-6.33 11.35 -6.66 9.7 -7 8 C-6.21625 7.4225 -5.4325 6.845 -4.625 6.25 C-1.69177764 4.03031695 -1.69177764 4.03031695 0 0 Z " fill="#EBEBEB" transform="translate(130,46)"/>
<path d="M0 0 C4.62 0 9.24 0 14 0 C14 3.3 14 6.6 14 10 C9.38 10 4.76 10 0 10 C0 6.7 0 3.4 0 0 Z " fill="#EEEEEE" transform="translate(186,140)"/>
<path d="M0 0 C1.34323432 6.22772277 1.34323432 6.22772277 -0.25 9.8125 C-2.43318577 12.54148221 -4.04705319 13.88378697 -7.5625 14.3125 C-8.7690625 14.1578125 -8.7690625 14.1578125 -10 14 C-12 11 -12 11 -11.9375 7.5625 C-10.82990404 3.35363535 -9.61079978 2.28977547 -6 0 C-3.50907189 -1.24546405 -2.58919267 -0.7767578 0 0 Z " fill="#EC8B18" transform="translate(128,39)"/>
<path d="M0 0 C2.40566625 1.72907261 3.82155168 3.09574745 4.40625 6.05859375 C4.62644662 11.49928521 3.6968821 14.80353924 0 19 C-3.70722917 21.92675987 -6.32740781 22.3259948 -11 22 C-11.28875 21.195625 -11.5775 20.39125 -11.875 19.5625 C-12.73262568 16.8673532 -12.73262568 16.8673532 -15 16 C-14.34 16 -13.68 16 -13 16 C-13.103125 15.13375 -13.20625 14.2675 -13.3125 13.375 C-12.9113343 9.0424104 -11.2328048 6.73367817 -8 4 C-5.41518652 2.45197862 -2.7744759 1.17037445 0 0 Z M-9 9 C-11.06774452 11.69705807 -11.02432105 12.75192524 -10.6875 16.1875 C-10.28524717 18.88774554 -10.28524717 18.88774554 -9 20 C-6.6704053 20.50241322 -6.6704053 20.50241322 -4 20 C-0.79101747 17.52033168 0.74482373 15.83357581 1.9375 11.9375 C2.00195201 8.90825552 1.63727927 7.50407418 0 5 C-4.07546013 5 -5.80536362 6.55304448 -9 9 Z " fill="#150E0B" transform="translate(127,33)"/>
<path d="M0 0 C0 5.94 0 11.88 0 18 C-3.3 18 -6.6 18 -10 18 C-10.4606644 12.24169504 -9.61446502 9.49365922 -6 5 C-1.32608696 0 -1.32608696 0 0 0 Z " fill="#FDFDFD" transform="translate(186,64)"/>
<path d="M0 0 C4.90094703 -0.288291 8.21612143 -0.33871638 12 3 C13.0625 5.9375 13.0625 5.9375 13 9 C11.5625 11.3125 11.5625 11.3125 9 13 C6.29599303 13.61290825 3.78435068 13.81437662 1 14 C2.32 13.67 3.64 13.34 5 13 C5 12.34 5 11.68 5 11 C3.68 10.34 2.36 9.68 1 9 C1 7.68 1 6.36 1 5 C0.34 4.01 -0.32 3.02 -1 2 C-0.67 1.34 -0.34 0.68 0 0 Z " fill="#EAE9EA" transform="translate(107,55)"/>
<path d="M0 0 C5.8552161 2.22498212 10.64378236 4.67987514 14.375 9.9375 C15.51807544 13.70964896 15.61280718 16.74034081 13.875 20.3125 C11.37679172 22.56088745 9.29051193 22.70751005 6 23 C6 22.34 6 21.68 6 21 C5.2575 20.814375 4.515 20.62875 3.75 20.4375 C0.0272465 18.49151522 -1.56188478 15.82724212 -3 12 C-3.61007477 6.94509477 -2.99298593 4.11535566 0 0 Z M1 4 C-0.61793309 7.23586618 -0.57644393 10.50247501 0 14 C1.37516549 16.7160945 2.6452687 17.90690551 5 20 C7.62985808 20.66840854 7.62985808 20.66840854 10 20 C12.33984763 18.07553704 12.33984763 18.07553704 12.375 14.6875 C11.93995916 10.40959838 11.04675444 8.96212237 8 6 C5.31591712 4.29194726 4.23830467 4 1 4 Z " fill="#110A08" transform="translate(77,33)"/>
<path d="M0 0 C1.27617187 0.02320313 2.55234375 0.04640625 3.8671875 0.0703125 C5.78917969 0.09738281 5.78917969 0.09738281 7.75 0.125 C9.23113281 0.15980469 9.23113281 0.15980469 10.7421875 0.1953125 C9.03125117 5.02809948 6.9723609 7.20930774 2.7421875 10.1953125 C0.0546875 11.1328125 0.0546875 11.1328125 -2.2578125 11.1953125 C-3.2478125 10.5353125 -4.2378125 9.8753125 -5.2578125 9.1953125 C-5.5703125 5.6953125 -5.5703125 5.6953125 -5.2578125 2.1953125 C-3.2578125 0.1953125 -3.2578125 0.1953125 0 0 Z " fill="#EAEAEA" transform="translate(144.2578125,57.8046875)"/>
<path d="M0 0 C4.62 0 9.24 0 14 0 C13.21625 0.763125 12.4325 1.52625 11.625 2.3125 C7.53945633 6.49531852 7.00901682 7.94589906 6 14 C-0.93 13.505 -0.93 13.505 -8 13 C-8 12.67 -8 12.34 -8 12 C-5.36 12 -2.72 12 0 12 C0 8.04 0 4.08 0 0 Z " fill="#E7E7E7" transform="translate(108,35)"/>
<path d="M0 0 C3.43595166 1.52708963 6.11912454 3.59927045 9 6 C9.804375 5.175 10.60875 4.35 11.4375 3.5 C14 1 14 1 15 1 C15 3.97 15 6.94 15 10 C10.05 10 5.1 10 0 10 C-0.33 10.66 -0.66 11.32 -1 12 C-1.02698189 10.37509046 -1.04638757 8.75005367 -1.0625 7.125 C-1.07410156 6.22007813 -1.08570313 5.31515625 -1.09765625 4.3828125 C-1 2 -1 2 0 0 Z " fill="#F8F8F8" transform="translate(140,95)"/>
<path d="M0 0 C0.33 0.66 0.66 1.32 1 2 C2.64363134 2.72159424 4.31050386 3.39351421 6 4 C5.6875 6.375 5.6875 6.375 5 9 C4.01 9.66 3.02 10.32 2 11 C3.32 11.66 4.64 12.32 6 13 C-1.21153846 12.51923077 -1.21153846 12.51923077 -4.5625 10.3125 C-6 8 -6 8 -5.9375 4.875 C-4.85120588 1.54369805 -3.70501487 0 0 0 Z " fill="#E9E9E9" transform="translate(92,56)"/>
<path d="M0 0 C2.97 0 5.94 0 9 0 C9 3.96 9 7.92 9 12 C6.36 12 3.72 12 1 12 C0.67 8.04 0.34 4.08 0 0 Z " fill="#FAFAF9" transform="translate(130,35)"/>
<path d="M0 0 C0.69351563 0.72960938 1.38703125 1.45921875 2.1015625 2.2109375 C4.95060489 5.05596998 8.06031883 7.33385459 11.375 9.625 C12.99535156 10.75808594 12.99535156 10.75808594 14.6484375 11.9140625 C18.05446774 14.0338995 21.28376258 15.52291323 25 17 C24.67 17.66 24.34 18.32 24 19 C19.40847549 18.49874187 16.64091687 17.42838063 12.9375 14.6875 C11.65552734 13.74777344 11.65552734 13.74777344 10.34765625 12.7890625 C7.86549299 10.89749715 5.39768817 8.99807347 3 7 C2.34 7.66 1.68 8.32 1 9 C0.34 9 -0.32 9 -1 9 C-0.67 6.03 -0.34 3.06 0 0 Z " fill="#0D0C0D" transform="translate(159,42)"/>
<path d="M0 0 C0 3.3 0 6.6 0 10 C-4.29 10 -8.58 10 -13 10 C-11.74641445 6.23924335 -10.29326113 5.52350869 -7.0625 3.3125 C-6.16660156 2.68988281 -5.27070312 2.06726563 -4.34765625 1.42578125 C-2 0 -2 0 0 0 Z " fill="#F9F8F8" transform="translate(124,95)"/>
<path d="M0 0 C0 2.97 0 5.94 0 9 C-0.99 9.33 -1.98 9.66 -3 10 C-4.7890625 8.890625 -4.7890625 8.890625 -6.625 7.25 C-7.23601563 6.71890625 -7.84703125 6.1878125 -8.4765625 5.640625 C-10 4 -10 4 -11 1 C-7.57067929 -0.71466036 -3.78283935 -0.05404056 0 0 Z " fill="#E8E8E8" transform="translate(62,58)"/>
<path d="M0 0 C4.8989018 2.4494509 7.60256336 5.81246181 11 10 C7.37 10 3.74 10 0 10 C0 6.7 0 3.4 0 0 Z " fill="#EBEBEB" transform="translate(15,60)"/>
<path d="M0 0 C1.32 0.33 2.64 0.66 4 1 C5.34323432 7.22772277 5.34323432 7.22772277 3.75 10.8125 C1.56681423 13.54148221 -0.04705319 14.88378697 -3.5625 15.3125 C-4.7690625 15.1578125 -4.7690625 15.1578125 -6 15 C-8 12 -8 12 -7.75 8.375 C-7.5025 7.26125 -7.255 6.1475 -7 5 C-6.34 4.67 -5.68 4.34 -5 4 C-5 6.97 -5 9.94 -5 13 C-4.01 13 -3.02 13 -2 13 C-1.34 12.01 -0.68 11.02 0 10 C0.66 10 1.32 10 2 10 C2 9.01 2 8.02 2 7 C2.66 7 3.32 7 4 7 C3.34 6.01 2.68 5.02 2 4 C2 3.01 2 2.02 2 1 C1.34 0.67 0.68 0.34 0 0 Z " fill="#C57D2C" transform="translate(124,38)"/>
<path d="M0 0 C3.3 0 6.6 0 10 0 C10 3.3 10 6.6 10 10 C9.34 10 8.68 10 8 10 C6.6459068 8.01399663 5.31542376 6.01182457 4 4 C2.70317626 2.63113049 1.38176866 1.2830709 0 0 Z " fill="#E3E3E3" transform="translate(83,35)"/>
<path d="M0 0 C3.3 0 6.6 0 10 0 C7.13463296 4.07763771 4.56958375 6.02677065 0 8 C0 5.36 0 2.72 0 0 Z " fill="#E9E9E9" transform="translate(31,47)"/>
<path d="M0 0 C5.94 0 11.88 0 18 0 C18 0.66 18 1.32 18 2 C14.93537096 2.89385014 12.18818621 3.13472008 9 3.125 C7.7315625 3.12886719 7.7315625 3.12886719 6.4375 3.1328125 C4.15301056 3.00833711 2.19008426 2.63877457 0 2 C0 1.34 0 0.68 0 0 Z " fill="#712729" transform="translate(94,71)"/>
<path d="M0 0 C0.66 0 1.32 0 2 0 C2.66 1.98 3.32 3.96 4 6 C6.31 6 8.62 6 11 6 C9.875 7.5 9.875 7.5 8 9 C4.8125 9.1875 4.8125 9.1875 2 9 C1.71125 8.195625 1.4225 7.39125 1.125 6.5625 C0.26737432 3.8673532 0.26737432 3.8673532 -2 3 C-1.34 3 -0.68 3 0 3 C0 2.01 0 1.02 0 0 Z " fill="#100603" transform="translate(114,46)"/>
<path d="M0 0 C1.67542976 0.28604898 3.34385343 0.61781233 5 1 C4.67 2.65 4.34 4.3 4 6 C2.35 5.67 0.7 5.34 -1 5 C-1 1 -1 1 0 0 Z " fill="#2E2E2E" transform="translate(109,59)"/>
<path d="M0 0 C3.68754757 0.49831724 5.60490662 1.10067643 8 4 C5.36 4.33 2.72 4.66 0 5 C0.33 7.31 0.66 9.62 1 12 C-1 10 -1 10 -1.23046875 8.125 C-1.21628906 7.42375 -1.20210938 6.7225 -1.1875 6 C-1.18105469 5.29875 -1.17460938 4.5975 -1.16796875 3.875 C-1 2 -1 2 0 0 Z " fill="#D08228" transform="translate(78,37)"/>
<path d="M0 0 C4.03520597 1.58962659 8.01811282 3.28232318 12 5 C11.67 5.66 11.34 6.32 11 7 C6.65840504 6.49516338 3.50591348 5.68099266 0 3 C0 2.01 0 1.02 0 0 Z " fill="#0A0A0A" transform="translate(172,54)"/>
<path d="M0 0 C1.65 0.33 3.3 0.66 5 1 C4.67 2.65 4.34 4.3 4 6 C2.35 5.67 0.7 5.34 -1 5 C-0.67 3.35 -0.34 1.7 0 0 Z " fill="#2E2E2E" transform="translate(93,59)"/>
<path d="M0 0 C0 0.66 0 1.32 0 2 C-1.41601714 2.48108275 -2.83284437 2.95978141 -4.25 3.4375 C-5.03890625 3.70433594 -5.8278125 3.97117187 -6.640625 4.24609375 C-8.74821988 4.91954708 -10.84753973 5.49150595 -13 6 C-12 3 -12 3 -9.3125 1.3125 C-5.91018714 -0.03558623 -3.61672729 -0.25833766 0 0 Z " fill="#0C0C0C" transform="translate(166,88)"/>
<path d="M0 0 C3.3089193 2.40648676 3.71591452 5.25717016 4.47265625 9.0625 C4.97217897 11.30137455 4.97217897 11.30137455 7 14 C6.01 14 5.02 14 4 14 C0.75099398 9.02495953 -0.49940808 6.11774896 0 0 Z " fill="#32241C" transform="translate(74,38)"/>
<path d="M0 0 C0.99 0.33 1.98 0.66 3 1 C2.67 3.97 2.34 6.94 2 10 C1.01 9.67 0.02 9.34 -1 9 C-1.125 2.25 -1.125 2.25 0 0 Z " fill="#F38E15" transform="translate(119,42)"/>
<path d="M0 0 C0.33 0 0.66 0 1 0 C1.38819559 4.85244485 1.43747251 8.14014025 -0.8125 12.5625 C-1.534375 13.366875 -2.25625 14.17125 -3 15 C-3.99 15 -4.98 15 -6 15 C-5.34 14.67 -4.68 14.34 -4 14 C-3.12232004 11.79227376 -3.12232004 11.79227376 -2.4375 9.1875 C-2.18871094 8.31480469 -1.93992188 7.44210938 -1.68359375 6.54296875 C-1.09865973 4.36701419 -0.53565572 2.18853624 0 0 Z " fill="#291E1A" transform="translate(130,37)"/>
<path d="M0 0 C0 1.98 0 3.96 0 6 C-1.423125 6.4640625 -1.423125 6.4640625 -2.875 6.9375 C-5.86080408 7.87394742 -5.86080408 7.87394742 -8 9 C-6.78641212 6.02119338 -3.58154637 0 0 0 Z " fill="#E5E5E5" transform="translate(186,64)"/>
<path d="M0 0 C1.5 1.0625 1.5 1.0625 3 3 C3.1875 6.6875 3.1875 6.6875 3 10 C2.01 10.495 2.01 10.495 1 11 C1 10.34 1 9.68 1 9 C0.01 8.67 -0.98 8.34 -2 8 C-1.01 7.67 -0.02 7.34 1 7 C0.67 4.69 0.34 2.38 0 0 Z " fill="#E58D24" transform="translate(86,41)"/>
<path d="M0 0 C1.32 1.32 2.64 2.64 4 4 C3.34 5.65 2.68 7.3 2 9 C1.01 9 0.02 9 -1 9 C-0.67 6.03 -0.34 3.06 0 0 Z " fill="#131313" transform="translate(159,42)"/>
<path d="M0 0 C0.66 0 1.32 0 2 0 C3.26264601 4.29299643 2.62950412 6.87831311 1 11 C0.67 11 0.34 11 0 11 C0 7.37 0 3.74 0 0 Z " fill="#E4E4E4" transform="translate(155,47)"/>
<path d="M0 0 C1.51171875 1.37890625 1.51171875 1.37890625 3 3 C2.71225849 5.97332891 1.39923409 8.38809637 0 11 C-0.66 10.67 -1.32 10.34 -2 10 C-1.67 9.67 -1.34 9.34 -1 9 C-0.76807135 7.48530552 -0.58784762 5.96245438 -0.4375 4.4375 C-0.35371094 3.61121094 -0.26992187 2.78492188 -0.18359375 1.93359375 C-0.12300781 1.29550781 -0.06242187 0.65742187 0 0 Z " fill="#322117" transform="translate(89,42)"/>
<path d="M0 0 C0.99 0.33 1.98 0.66 3 1 C1.25 3.0625 1.25 3.0625 -1 5 C-3.25 4.75 -3.25 4.75 -5 4 C-2.6875 1.9375 -2.6875 1.9375 0 0 Z " fill="#161515" transform="translate(35,52)"/>
<path d="M0 0 C1.9451 2.91765 2.45276317 4.62537285 3 8 C0.03 7.505 0.03 7.505 -3 7 C-2.2575 6.38125 -2.2575 6.38125 -1.5 5.75 C0.43386092 3.87797662 0.43386092 3.87797662 0 0 Z " fill="#0B0809" transform="translate(76,83)"/>
<path d="M0 0 C1.98 0 3.96 0 6 0 C6.33 0.99 6.66 1.98 7 3 C6.34 3.66 5.68 4.32 5 5 C3.35 3.35 1.7 1.7 0 0 Z " fill="#DBDCDB" transform="translate(164,47)"/>
<path d="M0 0 C-0.33 0.99 -0.66 1.98 -1 3 C-2.32 3 -3.64 3 -5 3 C-5.33 2.01 -5.66 1.02 -6 0 C-3.50907189 -1.24546405 -2.58919267 -0.7767578 0 0 Z " fill="#2E2C2C" transform="translate(106,67)"/>
<path d="M0 0 C1.32 0 2.64 0 4 0 C4.66 1.98 5.32 3.96 6 6 C5.34 6 4.68 6 4 6 C3.67 6.99 3.34 7.98 3 9 C3 6.36 3 3.72 3 1 C2.01 0.67 1.02 0.34 0 0 Z " fill="#E2841B" transform="translate(122,39)"/>
</svg>
