<?xml version="1.0" standalone="no"?>
<!DOCTYPE svg PUBLIC "-//W3C//DTD SVG 20010904//EN"
 "http://www.w3.org/TR/2001/REC-SVG-20010904/DTD/svg10.dtd">
<svg version="1.0" xmlns="http://www.w3.org/2000/svg"
 width="525.000000pt" height="500.000000pt" viewBox="0 0 525.000000 500.000000"
 preserveAspectRatio="xMidYMid meet">
<metadata>
Created by potrace 1.16, written by Peter Selinger 2001-2019
</metadata>
<g transform="translate(0.000000,500.000000) scale(0.100000,-0.100000)"
fill="#000000" stroke="none">
<path d="M0 2500 l0 -2500 2625 0 2625 0 0 2500 0 2500 -2625 0 -2625 0 0
-2500z m3346 2104 c54 -64 100 -127 102 -139 2 -16 -6 -28 -30 -42 -100 -60
-225 -178 -291 -278 -44 -64 -40 -68 79 -88 118 -19 216 -50 320 -101 180 -87
303 -129 368 -126 51 3 56 1 56 -24 0 -24 -12 -32 -102 -70 -21 -8 -38 -19
-38 -23 0 -4 16 -19 36 -32 19 -13 69 -60 110 -103 97 -104 166 -238 195 -383
27 -128 22 -336 -10 -493 -123 -593 -610 -1333 -1116 -1697 -164 -119 -388
-205 -532 -205 -285 0 -563 238 -794 680 -313 598 -450 1417 -319 1910 68 258
181 423 370 542 52 33 176 88 199 88 28 0 17 25 -33 71 -86 78 -75 105 36 89
34 -5 171 -7 303 -4 230 6 246 5 388 -20 81 -15 151 -25 156 -22 5 3 14 26 20
51 36 142 160 357 253 440 58 51 132 95 159 95 9 0 61 -52 115 -116z"/>
<path d="M3152 4605 c-34 -25 -83 -73 -109 -107 -59 -80 -145 -261 -169 -356
-11 -41 -26 -78 -34 -82 -9 -4 -75 4 -155 21 -174 35 -280 42 -510 32 l-180
-8 104 -57 c57 -32 109 -58 115 -58 7 0 16 -4 21 -9 6 -5 57 -25 115 -44 101
-34 105 -36 105 -64 0 -25 -20 -47 -136 -150 -124 -111 -223 -212 -215 -221 2
-2 28 3 57 11 30 8 106 20 169 27 166 17 216 27 278 55 30 14 60 25 68 25 26
0 34 -40 34 -172 1 -100 7 -163 25 -252 13 -65 28 -123 33 -128 5 -5 14 9 22
34 17 52 71 148 114 203 47 59 61 85 80 142 24 71 52 78 101 23 28 -31 88 -71
175 -115 41 -21 96 -54 123 -72 26 -18 49 -33 52 -33 20 0 -53 226 -115 354
-52 110 -58 130 -38 142 7 4 76 6 153 5 78 -1 171 2 206 8 35 6 80 14 99 17
34 6 34 6 -30 29 -36 12 -110 44 -165 70 -179 84 -280 115 -430 130 -38 4 -78
12 -87 17 -36 18 -15 82 62 193 30 43 169 180 234 231 l40 31 -51 64 c-28 35
-62 74 -75 87 l-25 23 -61 -46z"/>
<path d="M1963 3610 c-45 -18 -51 -69 -20 -157 12 -36 27 -44 27 -15 0 10 20
47 45 83 25 35 45 67 45 71 0 6 -57 29 -69 27 -3 0 -16 -4 -28 -9z"/>
<path d="M3578 3333 c-49 -13 -19 -223 31 -223 42 0 110 122 97 174 -10 40
-72 64 -128 49z"/>
<path d="M1630 3014 c-13 -33 -13 -61 1 -123 12 -58 20 -66 48 -52 21 12 71
108 71 138 0 38 -29 63 -71 63 -33 0 -41 -4 -49 -26z"/>
<path d="M2327 2912 c-28 -31 -17 -188 14 -207 25 -16 86 74 95 139 6 38 3 45
-21 64 -34 27 -66 28 -88 4z"/>
<path d="M3555 2803 c-4 -10 -20 -55 -36 -101 -64 -180 -154 -360 -266 -527
-140 -210 -224 -309 -445 -525 -142 -140 -153 -175 -54 -175 l39 0 12 -58 c6
-31 17 -63 23 -69 17 -17 46 13 78 79 21 42 25 61 20 96 l-7 43 63 46 c94 69
358 344 388 404 13 27 44 82 67 121 60 101 135 271 164 373 18 65 23 110 24
195 l0 110 -31 3 c-23 2 -33 -2 -39 -15z"/>
<path d="M3023 2803 c-34 -13 -35 -143 -3 -203 14 -26 22 -25 46 3 36 40 54
76 60 120 6 39 3 46 -21 65 -26 21 -55 26 -82 15z"/>
<path d="M3714 2682 c-25 -17 -36 -55 -30 -105 8 -57 30 -117 44 -117 14 0 60
70 77 120 12 35 13 50 4 71 -13 33 -66 51 -95 31z"/>
<path d="M1887 2362 c-12 -13 -17 -37 -17 -75 0 -60 26 -140 43 -134 20 6 67
83 79 131 12 47 12 48 -15 72 -33 29 -68 31 -90 6z"/>
<path d="M2569 2239 c-19 -19 -21 -29 -15 -80 7 -71 31 -132 48 -127 21 7 66
82 80 132 12 47 12 49 -15 72 -35 30 -70 31 -98 3z"/>
<path d="M2133 1682 c-33 -21 -33 -141 0 -205 l14 -26 26 27 c33 35 66 108 67
147 0 23 -7 35 -29 48 -31 18 -59 21 -78 9z"/>
</g>
</svg>
