<?xml version="1.0" standalone="no"?>
<!DOCTYPE svg PUBLIC "-//W3C//DTD SVG 20010904//EN"
 "http://www.w3.org/TR/2001/REC-SVG-20010904/DTD/svg10.dtd">
<svg version="1.0" xmlns="http://www.w3.org/2000/svg"
 width="210.000000pt" height="200.000000pt" viewBox="0 0 210.000000 200.000000"
 preserveAspectRatio="xMidYMid meet">
<metadata>
Created by potrace 1.16, written by Peter Selinger 2001-2019
</metadata>
<g transform="translate(0.000000,200.000000) scale(0.100000,-0.100000)"
fill="#000000" stroke="none">
<path d="M0 1000 l0 -1000 1050 0 1050 0 0 1000 0 1000 -1050 0 -1050 0 0
-1000z m1396 525 c32 -77 10 -178 -50 -234 -23 -22 -24 -26 -11 -50 18 -37 34
-130 28 -165 l-6 -29 44 7 c194 30 249 89 280 296 l12 84 25 -34 c80 -108 193
-190 261 -190 l33 0 -50 -55 c-71 -77 -102 -144 -102 -220 0 -40 6 -72 19 -95
l18 -35 -64 3 c-111 6 -189 -40 -228 -135 -9 -20 -19 -32 -23 -27 -5 5 -25 31
-47 58 -45 57 -89 86 -129 86 -22 0 -40 -13 -80 -56 -60 -67 -172 -154 -196
-154 -26 0 -126 78 -192 148 -62 67 -85 74 -137 48 -28 -15 -83 -71 -112 -116
-9 -14 -18 -23 -20 -20 -2 3 -15 27 -29 55 -16 31 -41 61 -68 80 -40 27 -51
30 -126 30 l-83 0 20 44 c40 90 8 204 -84 305 l-49 53 50 7 c64 9 154 75 222
164 l48 63 0 -33 c0 -56 29 -170 56 -226 34 -70 78 -98 187 -119 48 -9 89 -15
91 -12 3 3 1 22 -5 44 -12 43 -4 120 16 151 12 19 11 24 -10 44 -32 30 -65
102 -65 141 0 43 21 110 36 116 20 8 100 -53 117 -89 8 -18 18 -49 22 -68 l6
-35 110 0 109 0 0 27 c0 58 40 119 105 159 17 11 31 19 33 19 2 0 10 -16 18
-35z"/>
<path d="M879 1479 c-29 -55 16 -179 65 -179 32 0 46 19 46 62 0 47 -20 89
-56 117 -33 26 -40 26 -55 0z"/>
<path d="M1318 1470 c-34 -26 -50 -68 -46 -121 3 -37 7 -45 26 -47 30 -5 51
14 74 65 16 37 17 48 7 83 -14 45 -25 49 -61 20z"/>
<path d="M1015 1256 c-29 -13 -55 -51 -55 -82 0 -28 28 -70 55 -82 37 -17 59
-15 89 9 26 21 28 21 47 3 13 -12 36 -19 61 -19 101 0 120 143 23 175 -31 10
-40 9 -71 -10 -32 -18 -38 -19 -53 -6 -25 22 -63 27 -96 12z m49 -42 c21 -8
22 -72 1 -80 -35 -14 -61 46 -33 74 14 14 12 14 32 6z m166 -8 c15 -20 9 -56
-12 -70 -32 -20 -60 40 -33 68 20 20 29 20 45 2z"/>
<path d="M1040 1180 c0 -5 7 -10 16 -10 8 0 12 5 9 10 -3 6 -10 10 -16 10 -5
0 -9 -4 -9 -10z"/>
<path d="M1197 1184 c-8 -8 1 -24 14 -24 5 0 9 7 9 15 0 15 -12 20 -23 9z"/>
<path d="M1040 1040 c0 -5 5 -10 11 -10 5 0 7 5 4 10 -3 6 -8 10 -11 10 -2 0
-4 -4 -4 -10z"/>
</g>
</svg>
