<?xml version="1.0" encoding="utf-8" ?>
<svg xmlns="http://www.w3.org/2000/svg" xmlns:cc="http://creativecommons.org/ns" xmlns:dc="http://purl.org/dc/elements/1.1/" xmlns:ev="http://www.w3.org/2001/xml-events" xmlns:inkscape="http://www.inkscape.org/namespaces/inkscape" xmlns:rdf="http://www.w3.org/1999/02/22-rdf-syntax-ns" xmlns:sodipodi="http://sodipodi.sourceforge.net/DTD/sodipodi-0.dtd" xmlns:xlink="http://www.w3.org/1999/xlink" baseProfile="tiny" height="25.4cm" version="1.2" viewBox="0 0 960.0 960.0" width="25.4cm">
  <metadata>
    <rdf:RDF>
      <cc:Work>
        <dc:format>image/svg+xml</dc:format>
        <dc:source>vpype read /home/penplotter/Pen_plotter_V2/my_flask/static/Image_Storage/Images/pngtree-lovely-bat-clipart-vector-png-element-png-image_1749074.svg write --page-size 10inx10in --center /home/penplotter/Pen_plotter_V2/my_flask/static/Image_Storage/Images/pngtree-lovely-bat-clipart-vector-png-element-png-image_1749074.svg
</dc:source>
        <dc:date>2024-01-08T13:31:55.190634</dc:date>
      </cc:Work>
    </rdf:RDF>
  </metadata>
  <defs/>
  <g fill="none" id="layer1" inkscape:groupmode="layer" inkscape:label="1" stroke="#0000ff" stroke-width="1.0" style="display:inline">
    <line x1="380.0492" x2="336.15" y1="425.8102" y2="469.7094"/>
    <line x1="393.8039" x2="343.4772" y1="468.6241" y2="518.9509"/>
    <line x1="384.0163" x2="347.6995" y1="450.1274" y2="486.4443"/>
    <line x1="412.3388" x2="371.3817" y1="478.3735" y2="519.3306"/>
    <line x1="436.3184" x2="389.0193" y1="482.6783" y2="529.9774"/>
    <line x1="462.7433" x2="426.3683" y1="484.5377" y2="520.9126"/>
    <line x1="448.1035" x2="428.9591" y1="414.3245" y2="433.4689"/>
    <line x1="449.8947" x2="439.0577" y1="469.1019" y2="479.9388"/>
    <line x1="458.0534" x2="442.2809" y1="432.6589" y2="448.4314"/>
    <line x1="491.1721" x2="444.5436" y1="484.3932" y2="531.0216"/>
    <line x1="521.7911" x2="460.3593" y1="482.0584" y2="543.4903"/>
    <line x1="471.6764" x2="464.4601" y1="475.6045" y2="482.8209"/>
    <line x1="483.7271" x2="468.7988" y1="435.2695" y2="450.1978"/>
    <line x1="591.5655" x2="479.5499" y1="440.5682" y2="552.5839"/>
    <line x1="490.1255" x2="485.8329" y1="457.1554" y2="461.448"/>
    <line x1="501.0397" x2="492.8217" y1="474.5255" y2="482.7436"/>
    <line x1="527.3127" x2="496.8595" y1="419.9683" y2="450.4215"/>
    <line x1="516.285" x2="505.7792" y1="459.2802" y2="469.786"/>
    <line x1="607.7764" x2="536.7939" y1="452.6416" y2="523.6242"/>
    <line x1="630.7503" x2="551.865" y1="457.9521" y2="536.8374"/>
    <line x1="577.8585" x2="575.6865" y1="425.991" y2="428.163"/>
    <line x1="606.8601" x2="599.2294" y1="510.1265" y2="517.7572"/>
    <line x1="333.6402" x2="329.2497" y1="458.0771" y2="462.4676"/>
    <line x1="380.8615" x2="342.7837" y1="439.1401" y2="477.2179"/>
    <line x1="387.703" x2="351.0762" y1="460.5829" y2="497.2098"/>
    <line x1="401.4419" x2="359.3736" y1="475.1282" y2="517.1967"/>
    <line x1="423.7381" x2="381.5453" y1="481.1164" y2="523.3092"/>
    <line x1="456.963" x2="394.9598" y1="476.1757" y2="538.179"/>
    <line x1="439.0688" x2="427.8544" y1="409.2171" y2="420.4315"/>
    <line x1="436.498" x2="434.8553" y1="440.0722" y2="441.7149"/>
    <line x1="468.9027" x2="437.0011" y1="435.9518" y2="467.8533"/>
    <line x1="484.9112" x2="438.0457" y1="476.5119" y2="523.3774"/>
    <line x1="454.2619" x2="451.6022" y1="422.3083" y2="424.968"/>
    <line x1="518.3416" x2="452.4613" y1="471.3657" y2="537.2461"/>
    <line x1="469.4166" x2="463.912" y1="463.7222" y2="469.2268"/>
    <line x1="537.9747" x2="469.4027" y1="480.017" y2="548.589"/>
    <line x1="495.4845" x2="478.0344" y1="437.6543" y2="455.1044"/>
    <line x1="497.1973" x2="492.1624" y1="464.2257" y2="469.2607"/>
    <line x1="501.4475" x2="496.9201" y1="431.6913" y2="436.2186"/>
    <line x1="511.1841" x2="505.5915" y1="450.2389" y2="455.8316"/>
    <line x1="517.0894" x2="516.6979" y1="444.3336" y2="444.7251"/>
    <line x1="523.3359" x2="518.0998" y1="409.8029" y2="415.039"/>
    <line x1="598.9095" x2="526.0762" y1="447.3664" y2="520.1998"/>
    <line x1="617.3932" x2="545.2407" y1="457.167" y2="529.3195"/>
    <line x1="584.1574" x2="573.3389" y1="433.8342" y2="444.6527"/>
    <line x1="604.2268" x2="583.7534" y1="498.6177" y2="519.0911"/>
    <line x1="342.927" x2="333.2033" y1="455.8614" y2="465.5851"/>
    <line x1="379.5714" x2="340.1064" y1="433.3591" y2="472.8241"/>
    <line x1="381.6683" x2="345.9685" y1="445.4044" y2="481.1043"/>
    <line x1="385.0565" x2="350.3737" y1="456.1583" y2="490.8412"/>
    <line x1="390.0124" x2="351.2879" y1="465.3445" y2="504.0692"/>
    <line x1="396.7881" x2="352.6364" y1="472.711" y2="516.8627"/>
    <line x1="406.1296" x2="366.1145" y1="477.5116" y2="517.5268"/>
    <line x1="417.4835" x2="377.2203" y1="480.3" y2="520.5632"/>
    <line x1="429.418" x2="386.0695" y1="482.5076" y2="525.8561"/>
    <line x1="452.2258" x2="392.7636" y1="473.8419" y2="533.3041"/>
    <line x1="398.9808" x2="397.2944" y1="541.2291" y2="542.9154"/>
    <line x1="462.0149" x2="415.8524" y1="478.1949" y2="524.3575"/>
    <line x1="431.0626" x2="428.2739" y1="424.2944" y2="427.083"/>
    <line x1="433.4112" x2="432.1497" y1="436.0879" y2="437.3494"/>
    <line x1="433.7987" x2="432.5242" y1="407.4161" y2="408.6906"/>
    <line x1="468.2997" x2="433.7406" y1="486.0524" y2="520.6114"/>
    <line x1="447.247" x2="437.8707" y1="464.6785" y2="474.0548"/>
    <line x1="459.3058" x2="438.2332" y1="438.4777" y2="459.5502"/>
    <line x1="439.4741" x2="438.6128" y1="444.1672" y2="445.0284"/>
    <line x1="443.2232" x2="440.7706" y1="412.1338" y2="414.5864"/>
    <line x1="480.0298" x2="441.7075" y1="488.4645" y2="526.7866"/>
    <line x1="516.887" x2="448.917" y1="465.7493" y2="533.7193"/>
    <line x1="450.9985" x2="449.0871" y1="418.5006" y2="420.412"/>
    <line x1="455.8484" x2="454.1075" y1="427.7928" y2="429.5337"/>
    <line x1="517.2239" x2="456.8056" y1="479.5545" y2="539.9728"/>
    <line x1="461.4987" x2="460.0817" y1="464.569" y2="465.986"/>
    <line x1="475.835" x2="463.2194" y1="436.0906" y2="448.7062"/>
    <line x1="528.7767" x2="465.2593" y1="482.144" y2="545.6613"/>
    <line x1="467.061" x2="465.7444" y1="459.0067" y2="460.3234"/>
    <line x1="480.0638" x2="470.3404" y1="474.2882" y2="484.0117"/>
    <line x1="546.7361" x2="474.2714" y1="478.3266" y2="550.7913"/>
    <line x1="489.0169" x2="474.4566" y1="437.0508" y2="451.6112"/>
    <line x1="490.2575" x2="484.6464" y1="478.2366" y2="483.8478"/>
    <line x1="489.0634" x2="487.6316" y1="465.2886" y2="466.7204"/>
    <line x1="500.5718" x2="491.4914" y1="439.6381" y2="448.7185"/>
    <line x1="495.0406" x2="493.4434" y1="459.3114" y2="460.9086"/>
    <line x1="517.747" x2="498.5982" y1="408.3207" y2="427.4695"/>
    <line x1="594.6917" x2="500.3817" y1="444.5131" y2="538.8232"/>
    <line x1="507.7178" x2="502.4365" y1="446.6342" y2="451.9155"/>
    <line x1="513.6781" x2="508.3013" y1="454.816" y2="460.1928"/>
    <line x1="524.946" x2="521.7836" y1="415.2639" y2="418.4263"/>
    <line x1="526.1067" x2="523.4603" y1="428.2453" y2="430.8917"/>
    <line x1="602.7727" x2="532.5521" y1="450.5743" y2="520.7949"/>
    <line x1="611.907" x2="541.5883" y1="455.5821" y2="525.9009"/>
    <line x1="622.8686" x2="549.1233" y1="458.7626" y2="532.508"/>
    <line x1="562.9846" x2="555.6683" y1="532.7889" y2="540.1051"/>
    <line x1="587.2768" x2="571.2401" y1="437.7859" y2="453.8226"/>
    <line x1="605.305" x2="571.4761" y1="490.4684" y2="524.2974"/>
    <line x1="580.4619" x2="575.4688" y1="430.4587" y2="435.4517"/>
    <line x1="604.3936" x2="592.9733" y1="505.522" y2="516.9422"/>
    <line x1="608.769" x2="606.85" y1="515.2887" y2="517.2077"/>
  </g>
</svg>
