<?xml version="1.0" standalone="no"?>
<!DOCTYPE svg PUBLIC "-//W3C//DTD SVG 20010904//EN"
 "http://www.w3.org/TR/2001/REC-SVG-20010904/DTD/svg10.dtd">
<svg version="1.0" xmlns="http://www.w3.org/2000/svg"
 width="368.000000pt" height="300.000000pt" viewBox="0 0 368.000000 300.000000"
 preserveAspectRatio="xMidYMid meet">
<metadata>
Created by potrace 1.16, written by Peter Selinger 2001-2019
</metadata>
<g transform="translate(0.000000,300.000000) scale(0.100000,-0.100000)"
fill="#000000" stroke="none">
<path d="M0 1500 l0 -1500 1840 0 1840 0 0 1500 0 1500 -1840 0 -1840 0 0
-1500z m1603 804 c107 -53 162 -128 182 -247 5 -31 10 -37 23 -32 59 22 239
24 344 2 7 -1 15 18 19 43 16 106 81 190 182 239 63 30 72 27 96 -30 54 -124
35 -217 -65 -317 l-63 -63 19 -32 c34 -58 52 -144 48 -224 l-3 -74 50 6 c85
11 263 53 302 72 112 53 199 228 219 442 l7 71 40 -48 c161 -188 327 -293 469
-295 26 0 48 -3 48 -6 -1 -3 -21 -22 -46 -41 -61 -47 -162 -173 -191 -238 -35
-80 -40 -154 -14 -224 12 -31 28 -62 36 -68 30 -24 14 -30 -67 -24 -190 14
-347 -58 -417 -191 -12 -22 -21 -45 -21 -52 0 -30 -21 -17 -69 43 -61 76 -156
149 -214 165 -71 19 -102 6 -197 -86 -82 -79 -204 -167 -298 -214 l-43 -22
-67 37 c-100 55 -187 120 -279 206 -45 43 -94 80 -109 84 -38 10 -107 -10
-159 -46 -23 -16 -76 -65 -116 -109 l-74 -79 -27 57 c-70 148 -227 224 -429
207 l-77 -6 31 57 c28 51 32 68 32 133 0 60 -5 86 -27 133 -36 76 -103 162
-179 229 l-63 55 62 2 c125 3 245 71 399 227 109 111 112 111 113 24 0 -50 35
-188 64 -253 29 -66 95 -141 149 -169 60 -30 378 -95 377 -77 0 2 -7 22 -15
44 -30 83 -14 216 32 267 14 16 11 21 -39 67 -101 93 -128 209 -75 325 14 31
31 56 37 56 6 0 34 -12 63 -26z"/>
<path d="M1549 2233 c-49 -121 14 -283 110 -283 20 0 41 4 47 8 18 12 34 49
34 79 0 83 -49 157 -132 199 l-48 24 -11 -27z"/>
<path d="M2328 2212 c-53 -30 -79 -61 -96 -111 -28 -81 0 -161 55 -161 37 0
117 83 134 139 11 38 11 50 -7 99 -10 31 -23 57 -29 59 -5 1 -31 -10 -57 -25z"/>
<path d="M1773 1880 c-102 -46 -111 -172 -17 -230 61 -38 142 -30 215 22 13 9
23 6 50 -14 96 -72 244 -17 256 94 8 78 -65 147 -155 148 -37 0 -97 -23 -124
-47 -16 -14 -19 -14 -35 2 -46 46 -122 56 -190 25z m115 -73 c17 -13 15 -73
-4 -91 -34 -34 -94 -6 -94 44 0 57 52 83 98 47z m266 2 c47 -37 24 -109 -35
-109 -31 0 -59 31 -59 66 0 20 41 64 60 64 4 0 19 -9 34 -21z"/>
<path d="M1831 1781 c-18 -12 -5 -31 20 -31 14 0 19 6 17 17 -4 20 -18 26 -37
14z"/>
<path d="M2102 1763 c5 -26 38 -29 38 -4 0 15 -6 21 -21 21 -14 0 -19 -5 -17
-17z"/>
<path d="M1830 1560 c0 -5 7 -10 16 -10 8 0 12 5 9 10 -3 6 -10 10 -16 10 -5
0 -9 -4 -9 -10z"/>
<path d="M2110 1560 c0 -5 7 -10 15 -10 8 0 15 5 15 10 0 6 -7 10 -15 10 -8 0
-15 -4 -15 -10z"/>
</g>
</svg>
