<?xml version="1.0" standalone="no"?>
<!DOCTYPE svg PUBLIC "-//W3C//DTD SVG 20010904//EN"
 "http://www.w3.org/TR/2001/REC-SVG-20010904/DTD/svg10.dtd">
<svg version="1.0" xmlns="http://www.w3.org/2000/svg"
 width="200.000000pt" height="200.000000pt" viewBox="0 0 200.000000 200.000000"
 preserveAspectRatio="xMidYMid meet">
<metadata>
Created by potrace 1.16, written by Peter Selinger 2001-2019
</metadata>
<g transform="translate(0.000000,200.000000) scale(0.100000,-0.100000)"
fill="#000000" stroke="none">
<path d="M285 1990 c3 -5 12 -7 20 -3 21 7 19 13 -6 13 -11 0 -18 -4 -14 -10z"/>
<path d="M695 1983 c3 -10 13 -45 21 -78 9 -33 24 -83 34 -111 14 -39 17 -60
10 -90 -5 -21 -10 -56 -10 -76 0 -26 -7 -42 -23 -55 -13 -10 -28 -32 -34 -48
-6 -19 -18 -31 -31 -33 -14 -2 -22 -11 -22 -22 0 -10 -4 -22 -10 -25 -19 -12
-10 -35 18 -41 131 -28 168 -41 202 -69 27 -22 60 -28 60 -11 0 21 18 20 65
-4 22 -11 31 -20 22 -20 -28 0 1 -39 42 -56 42 -18 51 -18 51 1 0 8 5 15 10
15 6 0 10 -4 10 -9 0 -5 32 -32 70 -60 39 -28 79 -65 89 -83 21 -36 77 -111
103 -139 30 -32 69 -112 73 -148 1 -20 3 -39 4 -43 2 -17 40 -7 46 12 5 16 12
19 28 13 12 -4 33 -6 47 -5 67 6 169 3 205 -7 112 -29 148 -42 178 -65 19 -14
37 -26 40 -26 4 0 7 212 7 470 l0 471 -74 -7 c-50 -4 -75 -3 -80 5 -11 17 -39
14 -32 -4 6 -17 -29 -22 -39 -5 -3 6 -15 10 -27 10 -17 0 -18 -2 -8 -15 11
-13 8 -15 -13 -15 -25 0 -26 3 -22 38 2 20 7 108 10 195 l6 157 -151 0 c-97 0
-150 -4 -150 -10 0 -7 -6 -7 -19 0 -13 6 -147 10 -366 10 -327 0 -347 -1 -340
-17z m935 -138 c0 -3 -18 7 -40 21 -22 15 -40 34 -40 44 0 12 10 7 40 -21 22
-21 40 -41 40 -44z m40 13 c0 -5 -4 -8 -10 -8 -5 0 -10 7 -10 15 0 8 -5 15
-11 15 -5 0 -7 5 -4 11 7 10 34 -16 35 -33z m-780 -518 c0 -5 -4 -10 -10 -10
-5 0 -10 5 -10 10 0 6 5 10 10 10 6 0 10 -4 10 -10z m200 -61 c0 -6 -4 -7 -10
-4 -5 3 -10 11 -10 16 0 6 5 7 10 4 6 -3 10 -11 10 -16z"/>
<path d="M295 829 c-8 -12 24 -51 36 -43 5 3 9 16 9 30 0 17 -5 24 -19 24 -11
0 -23 -5 -26 -11z"/>
<path d="M528 753 c-21 -22 -38 -43 -38 -47 0 -10 112 2 123 14 5 4 -4 22 -20
39 l-28 32 -37 -38z"/>
<path d="M462 769 c2 -6 8 -10 13 -10 5 0 11 4 13 10 2 6 -4 11 -13 11 -9 0
-15 -5 -13 -11z"/>
<path d="M660 750 c0 -9 -5 -21 -11 -27 -8 -8 -5 -17 10 -32 12 -12 21 -24 21
-29 0 -15 -41 -42 -64 -42 -36 0 -75 -36 -73 -67 3 -34 18 -38 180 -47 126 -6
128 -6 152 18 27 27 33 46 13 41 -66 -14 -79 -19 -84 -26 -3 -5 -13 -9 -24 -9
-13 0 -17 5 -13 19 6 22 -16 39 -27 21 -17 -27 -54 29 -44 67 6 23 85 57 139
60 26 1 49 -5 67 -17 33 -24 47 -25 63 -3 11 15 8 19 -24 30 -20 7 -47 13 -61
13 -14 0 -37 8 -50 18 -35 24 -170 34 -170 12z"/>
<path d="M425 730 c-3 -5 -1 -10 4 -10 6 0 11 5 11 10 0 6 -2 10 -4 10 -3 0
-8 -4 -11 -10z"/>
<path d="M960 541 c-5 -11 -10 -21 -10 -23 0 -6 66 -2 77 5 6 4 14 1 16 -5 4
-10 6 -10 6 0 1 6 9 12 19 12 21 1 -56 30 -80 30 -10 0 -22 -9 -28 -19z"/>
<path d="M987 483 c-4 -4 6 -20 21 -37 48 -51 47 -62 -7 -65 -61 -3 -132 -19
-150 -34 -9 -8 -50 -11 -120 -10 -82 1 -123 7 -181 26 l-75 24 -30 -27 c-47
-44 -169 -90 -240 -90 -22 0 -64 -3 -93 -6 -50 -7 -53 -9 -71 -49 -10 -23 -24
-46 -30 -49 -19 -12 -13 -118 8 -143 l19 -23 741 0 c487 0 741 3 741 10 0 6
-11 10 -25 10 -37 0 -55 42 -33 80 14 25 14 31 2 49 -11 15 -22 19 -44 15 -24
-5 -31 -2 -44 24 -19 37 -43 62 -59 62 -7 0 -6 -4 3 -10 8 -5 11 -10 6 -10 -6
0 -23 12 -38 27 l-28 27 0 -37 c0 -41 -5 -44 -38 -21 -13 9 -29 13 -37 10 -9
-3 -25 14 -46 50 -17 30 -40 60 -50 67 -10 6 -19 15 -19 20 0 4 5 5 10 2 6 -3
10 -2 10 4 0 6 8 7 18 4 19 -7 -59 70 -93 93 -12 8 -25 11 -28 7z m248 -303
c3 -5 -1 -10 -9 -10 -9 0 -16 5 -16 10 0 6 4 10 9 10 6 0 13 -4 16 -10z m36
-73 c-1 -12 -15 -9 -19 4 -3 6 1 10 8 8 6 -3 11 -8 11 -12z"/>
<path d="M1760 466 c0 -21 51 -51 60 -36 6 9 11 7 19 -6 6 -11 11 -14 11 -8 0
6 -9 23 -21 38 -22 28 -69 36 -69 12z"/>
<path d="M790 450 c0 -5 18 -10 40 -10 22 0 58 -7 80 -16 52 -21 61 -13 17 15
-36 22 -137 30 -137 11z"/>
<path d="M1626 446 c7 -19 38 -22 32 -3 -3 6 -12 13 -21 15 -12 2 -15 -1 -11
-12z"/>
<path d="M725 404 c-23 -36 -16 -37 20 -3 22 21 26 29 14 29 -9 0 -24 -12 -34
-26z"/>
<path d="M1440 425 c0 -3 12 -16 26 -28 44 -39 61 -116 33 -153 -6 -7 -1 -18
10 -28 18 -16 21 -16 51 -1 37 19 37 43 0 63 -24 13 -24 13 13 10 33 -4 38 -2
35 16 -2 12 -10 21 -18 21 -32 0 -60 25 -60 53 0 16 -5 33 -12 40 -12 12 -78
17 -78 7z"/>
<path d="M1824 360 c4 -45 3 -46 -18 -24 -9 8 -16 11 -16 6 0 -17 81 -64 98
-56 10 3 38 6 65 5 46 -2 47 -2 47 28 0 27 -3 31 -28 31 -16 0 -51 11 -78 25
-67 34 -74 33 -70 -15z"/>
<path d="M1695 256 c-11 -8 -25 -12 -31 -9 -7 2 -15 0 -19 -6 -3 -6 -15 -11
-26 -11 -10 0 -19 -7 -19 -15 0 -18 5 -19 29 -4 14 9 26 9 51 1 28 -10 35 -9
46 5 8 12 9 23 3 35 -12 22 -10 21 -34 4z"/>
</g>
</svg>
