<?xml version="1.0" encoding="utf-8" ?>
<svg xmlns="http://www.w3.org/2000/svg" xmlns:cc="http://creativecommons.org/ns" xmlns:dc="http://purl.org/dc/elements/1.1/" xmlns:ev="http://www.w3.org/2001/xml-events" xmlns:inkscape="http://www.inkscape.org/namespaces/inkscape" xmlns:rdf="http://www.w3.org/1999/02/22-rdf-syntax-ns" xmlns:sodipodi="http://sodipodi.sourceforge.net/DTD/sodipodi-0.dtd" xmlns:xlink="http://www.w3.org/1999/xlink" baseProfile="tiny" height="7.05555556cm" version="1.2" viewBox="0 0 133.33333333333334 266.6666666666667" width="3.52777778cm">
  <metadata>
    <rdf:RDF>
      <cc:Work>
        <dc:format>image/svg+xml</dc:format>
        <dc:source>vpype read /home/penplotter/Pen_plotter_V2/my_flask/static/Image_Storage/Images/resized_1200px-Sunflower_from_Silesia2.svg linemerge '-t 0.1mm' linesort write /home/penplotter/Pen_plotter_V2/my_flask/static/Image_Storage/Images/reformedresized_1200px-Sunflower_from_Silesia2.svg
</dc:source>
        <dc:date>2023-05-15T16:33:48.273058</dc:date>
      </cc:Work>
    </rdf:RDF>
  </metadata>
  <defs/>
  <g fill="none" id="layer1" inkscape:groupmode="layer" inkscape:label="1" stroke="#000000" stroke-width="0.1333" style="display:inline">
    <polygon points="43.2,31.3333 43.1682,31.5576 43.1375,31.7977 43.108,32.0529 43.0798,32.3227 43.0528,32.6064 43.027,32.9035 43.0025,33.2134 42.9793,33.5354 42.9574,33.869 42.9367,34.2136 42.9175,34.5685 42.8995,34.9332 42.8829,35.307 42.8677,35.6894 42.8539,36.0797 42.8415,36.4775 42.8305,36.8819 42.8209,37.2926 42.8128,37.7088 42.8062,38.1299 42.801,38.5554 42.7973,38.9847 42.7952,39.4171 42.7946,39.8521 42.7955,40.289 42.7981,40.7273 42.8021,41.1664 42.8078,41.6056 42.8151,42.0444 42.824,42.4821 42.8346,42.9182 42.8468,43.3521 42.8607,43.7831 42.8763,44.2106 42.8936,44.6342 42.9126,45.053 42.9333,45.4667 42.9922,46.227 43.0457,46.949 43.0936,47.6328 43.1357,48.2785 43.1719,48.8861 43.2021,49.4559 43.226,49.9878 43.2435,50.482 43.2545,50.9385 43.2588,51.3575 43.2561,51.739 43.2465,52.0832 43.2296,52.3901 43.2054,52.6599 43.1737,52.8926 43.1342,53.0882 43.0869,53.2471 43.0316,53.3691 42.9682,53.4544 42.8964,53.5031 42.8161,53.5153 42.7271,53.4911 42.6293,53.4306 42.5226,53.3339 42.4067,53.201 42.2815,53.0321 42.1468,52.8272 42.0025,52.5866 41.8484,52.3101 41.6844,51.998 41.5102,51.6503 41.3258,51.2672 41.1309,50.8487 40.9254,50.3949 40.7092,49.9059 40.482,49.3818 40.2437,48.8228 39.9942,48.2288 39.7333,47.6 37.3333,42.0 38.2667,52.6667 38.3205,53.381 38.3722,54.0659 38.4218,54.7223 38.4692,55.3512 38.5146,55.9536 38.558,56.5304 38.5993,57.0827 38.6385,57.6115 38.6758,58.1176 38.7111,58.6021 38.7443,59.0661 38.7757,59.5103 38.8051,59.936 38.8326,60.3439 38.8582,60.7352 38.8819,61.1108 38.9037,61.4716 38.9237,61.8187 38.9419,62.1531 38.9582,62.4756 38.9728,62.7874 38.9856,63.0894 38.9966,63.3826 39.0059,63.6679 39.0135,63.9464 39.0194,64.219 39.0236,64.4867 39.0261,64.7504 39.027,65.0113 39.0263,65.2702 39.0239,65.5282 39.02,65.7862 39.0145,66.0452 39.0074,66.3062 38.9988,66.5701 38.9887,66.838 38.977,67.1109 38.9639,67.3897 38.9493,67.6754 38.9333,67.9689 38.9159,68.2714 38.897,68.5837 38.8767,68.9068 38.8551,69.2418 38.8321,69.5895 38.8078,69.9511 38.7821,70.3274 38.7552,70.7195 38.7269,71.1283 38.6974,71.5548 38.6667,72.0 38.6386,72.5917 38.6112,73.1379 38.5844,73.638 38.5578,74.0914 38.5312,74.4973 38.5044,74.8552 38.4771,75.1646 38.449,75.4247 38.4199,75.6349 38.3895,75.7947 38.3575,75.9034 38.3238,75.9603 38.2881,75.965 38.25,75.9167 38.2094,75.8148 38.166,75.6587 38.1195,75.4478 38.0697,75.1815 38.0164,74.8591 37.9592,74.4801 37.8979,74.0437 37.8323,73.5495 37.7621,72.9968 37.6871,72.3848 37.6069,71.7132 37.5214,70.9811 37.4303,70.188 37.3333,69.3333 37.2706,68.8124 37.2031,68.2912 37.1311,67.7703 37.0546,67.2499 36.9739,66.7306 36.8891,66.2127 36.8004,65.6965 36.7078,65.1825 36.6115,64.6711 36.5117,64.1627 36.4085,63.6576 36.302,63.1562 36.1924,62.659 36.0799,62.1663 35.9646,61.6786 35.8466,61.1961 35.7261,60.7194 35.6032,60.2488 35.4781,59.7846 35.3509,59.3273 35.2218,58.8774 35.0908,58.435 34.9583,58.0008 34.8242,57.575 34.6887,57.158 34.5521,56.7503 34.4143,56.3522 34.2757,55.9641 34.1363,55.5864 33.9962,55.2196 33.8556,54.8639 33.7147,54.5199 33.5736,54.1878 33.4325,53.8681 33.2914,53.5611 33.1506,53.2674 33.0102,52.9871 32.8702,52.7208 32.731,52.4689 32.5926,52.2317 32.4551,52.0096 32.3187,51.803 32.1836,51.6123 32.0499,51.4379 31.9177,51.2803 31.7873,51.1396 31.6586,51.0165 31.5319,50.9113 31.4074,50.8242 31.2851,50.7559 31.1653,50.7066 31.0479,50.6767 30.9333,50.6667 30.8562,50.6873 30.7914,50.7482 30.7388,50.8482 30.6981,50.9858 30.6693,51.1598 30.6521,51.3687 30.6463,51.6114 30.6519,51.8864 30.6685,52.1924 30.6961,52.5282 30.7344,52.8922 30.7833,53.2833 30.8427,53.7001 30.9123,54.1413 30.9919,54.6055 31.0815,55.0914 31.1808,55.5976 31.2896,56.1229 31.4078,56.6659 31.5352,57.2253 31.6716,57.7997 31.8169,58.3879 31.9709,58.9884 32.1333,59.6 32.3742,60.464 32.6025,61.2915 32.8184,62.0824 33.0217,62.8369 33.2125,63.555 33.3907,64.2368 33.5564,64.8825 33.7095,65.4921 33.8499,66.0656 33.9777,66.6032 34.0928,67.1049 34.1953,67.5709 34.285,68.0011 34.3621,68.3957 34.4264,68.7548 34.4779,69.0784 34.5167,69.3667 34.5426,69.6196 34.5557,69.8374 34.556,70.02 34.5434,70.1675 34.518,70.2801 34.4796,70.3578 34.4283,70.4007 34.3641,70.4089 34.2869,70.3824 34.1967,70.3214 34.0935,70.2259 33.9772,70.096 33.848,69.9318 33.7056,69.7333 33.5502,69.5007 33.3817,69.234 33.2,68.9333 32.9332,68.4993 32.677,68.1244 32.4319,67.8077 32.1983,67.5482 31.9765,67.3451 31.7671,67.1972 31.5703,67.1036 31.3866,67.0634 31.2165,67.0756 31.0603,67.1392 30.9184,67.2532 30.7912,67.4167 30.6793,67.6286 30.5828,67.8881 30.5024,68.1941 30.4383,68.5457 30.3911,68.9419 30.361,69.3817 30.3486,69.8641 30.3541,70.3883 30.3781,70.9531 30.421,71.5577 30.4831,72.201 30.5648,72.8821 30.6667,73.6 30.7195,73.9158 30.7746,74.2433 30.8319,74.5817 30.8911,74.9303 30.952,75.2883 31.0145,75.6548 31.0784,76.0292 31.1434,76.4105 31.2095,76.7982 31.2763,77.1913 31.3438,77.5892 31.4117,77.9909 31.4798,78.3958 31.548,78.8031 31.6161,79.2119 31.6838,79.6215 31.751,80.0312 31.8176,80.4401 31.8832,80.8475 31.9478,81.2526 32.0111,81.6546 32.0729,82.0527 32.1331,82.4462 32.1915,82.8343 32.2479,83.2161 32.3021,83.591 32.3539,83.9581 32.4031,84.3167 32.4495,84.6659 32.493,85.0051 32.5333,85.3333 33.4667,91.3333 30.8,84.8 30.6279,84.3694 30.4505,83.9396 30.2683,83.5116 30.0821,83.0861 29.8922,82.6642 29.6994,82.2465 29.5042,81.8341 29.3073,81.4276 29.1092,81.0282 28.9105,80.6364 28.7117,80.2534 28.5136,79.8798 28.3167,79.5167 28.1215,79.1647 27.9287,78.8249 27.7389,78.4981 27.5526,78.1851 27.3704,77.8868 27.193,77.604 27.0209,77.3377 26.8547,77.0887 26.6951,76.8578 26.5425,76.646 26.3976,76.4541 26.261,76.2829 26.1333,76.1333 25.6623,75.7039 25.261,75.3622 24.9198,75.11 24.6291,74.9493 24.3793,74.8816 24.1607,74.909 23.9637,75.0331 23.7788,75.2558 23.5963,75.5789 23.4066,76.0041 23.2,76.5333 23.104,76.7905 23.029,77.0797 22.9749,77.3973 22.9415,77.7399 22.9284,78.1037 22.9355,78.4853 22.9624,78.8812 23.0091,79.2877 23.0752,79.7013 23.1605,80.1185 23.2648,80.5357 23.3877,80.9493 23.5292,81.3559 23.6889,81.7517 23.8667,82.1333 24.1426,82.765 24.3883,83.3519 24.6031,83.8955 24.7867,84.3973 24.9384,84.8589 25.0577,85.2816 25.144,85.6672 25.197,86.0169 25.216,86.3324 25.2005,86.6152 25.15,86.8667 25.064,87.0884 24.9419,87.2819 24.7832,87.4486 24.5874,87.5901 24.3539,87.7079 24.0823,87.8034 23.772,87.8782 23.4225,87.9337 23.0332,87.9716 22.6037,87.9931 22.1333,88.0 21.5686,88.0167 21.0353,88.0656 20.5351,88.1449 20.0693,88.2528 19.6396,88.3875 19.2473,88.5472 18.8941,88.7301 18.5813,88.9344 18.3106,89.1583 18.0833,89.4 17.9011,89.6577 17.7653,89.9296 17.6776,90.2139 17.6393,90.5088 17.6521,90.8125 17.7173,91.1232 17.8366,91.4391 18.0113,91.7584 18.2431,92.0793 18.5333,92.4 18.7999,92.695 18.9994,92.9821 19.1312,93.2646 19.1951,93.5457 19.1904,93.8286 19.1167,94.1167 18.9735,94.413 18.7605,94.721 18.4771,95.0437 18.1228,95.3846 17.6973,95.7467 17.2,96.1333 16.9055,96.3666 16.6327,96.6031 16.3815,96.843 16.152,97.0862 15.9441,97.3328 15.7579,97.5826 15.5934,97.8358 15.4506,98.0923 15.3295,98.3522 15.2301,98.6153 15.1525,98.8818 15.0967,99.1516 15.0627,99.4247 15.0504,99.7012 15.06,99.981 15.0914,100.2641 15.1446,100.5505 15.2197,100.8403 15.3167,101.1333 15.4355,101.4297 15.5762,101.7295 15.7389,102.0325 15.9235,102.3389 16.13,102.6486 16.3585,102.9616 16.6089,103.2779 16.8813,103.5976 17.1758,103.9206 17.4922,104.2469 17.8307,104.5765 18.1912,104.9095 18.5738,105.2458 18.9785,105.5854 19.4052,105.9283 19.854,106.2746 20.325,106.6242 20.8181,106.9771 21.3333,107.3333 21.712,107.6017 22.0875,107.8859 22.4594,108.1849 22.8269,108.4977 23.1896,108.8232 23.5467,109.1602 23.8978,109.5077 24.2421,109.8645 24.5792,110.2297 24.9083,110.6021 25.229,110.9806 25.5405,111.3641 25.8424,111.7516 26.1339,112.142 26.4146,112.5341 26.6837,112.9269 26.9408,113.3194 27.1851,113.7103 27.4162,114.0986 27.6333,114.4833 27.836,114.8633 28.0235,115.2374 28.1954,115.6046 28.3509,115.9637 28.4896,116.3138 28.6107,116.6537 28.7138,116.9823 28.7981,117.2985 28.8632,117.6013 28.9083,117.8896 28.933,118.1622 28.9365,118.4181 28.9184,118.6563 28.8779,118.8755 28.8146,119.0747 28.7277,119.2529 28.6168,119.409 28.4811,119.5418 28.3202,119.6503 28.1333,119.7333 28.0315,119.7793 27.9007,119.8471 27.7423,119.9359 27.5576,120.0448 27.3479,120.173 27.1145,120.3196 26.8588,120.4837 26.582,120.6646 26.2855,120.8612 25.9707,121.0729 25.6387,121.2987 25.2909,121.5378 24.9287,121.7893 24.5533,122.0524 24.166,122.3262 23.7683,122.6099 23.3614,122.9026 22.9465,123.2034 22.5251,123.5116 22.0984,123.8262 21.6678,124.1463 21.2346,124.4712 20.8,124.8 20.0979,125.3274 19.4317,125.8214 18.8013,126.2822 18.2067,126.7098 17.648,127.104 17.1251,127.465 16.6381,127.7926 16.1869,128.087 15.7715,128.3482 15.392,128.576 15.0483,128.7706 14.7405,128.9318 14.4685,129.0598 14.2323,129.1546 14.032,129.216 13.8675,129.2442 13.7389,129.239 13.6461,129.2006 13.5891,129.129 13.568,129.024 13.5827,128.8858 13.6333,128.7142 13.7197,128.5094 13.8419,128.2714 14.0,128.0 14.2,127.4542 14.2,127.0333 14.0,126.7625 13.6,126.6667 13.3536,126.7063 13.0969,126.8198 12.8341,126.9995 12.5692,127.2375 12.3062,127.5259 12.0491,127.8571 11.8019,128.2231 11.5688,128.6161 11.3536,129.0283 11.1605,129.4519 10.9935,129.879 10.8565,130.3019 10.7537,130.7127 10.6891,131.1035 10.6667,131.4667 10.7448,131.6062 10.9652,131.6851 11.3069,131.7081 11.7489,131.6797 12.2702,131.6047 12.8498,131.4877 13.4667,131.3333 14.1487,131.1211 14.6979,130.9854 15.119,130.9279 15.4167,130.95 15.5956,131.0534 15.6604,131.2396 15.6159,131.5102 15.4667,131.8667 15.2312,132.1594 14.9333,132.4333 14.5854,132.6823 14.2,132.9 13.7896,133.0802 13.3667,133.2167 12.9437,133.3031 12.5333,133.3333 12.0463,133.3864 11.6593,133.5358 11.3833,133.7667 11.2296,134.0642 11.2093,134.4136 11.3333,134.8 11.5687,135.0747 11.8667,135.2979 12.2146,135.468 12.6,135.5833 13.0104,135.6424 13.4333,135.6437 13.8562,135.5857 14.2667,135.4667 14.4972,135.4025 14.76,135.3694 15.0517,135.3664 15.369,135.3926 15.7086,135.4469 16.0672,135.5285 16.4414,135.6365 16.8279,135.7698 17.2235,135.9275 17.6247,136.1086 18.0283,136.3123 18.4309,136.5376 18.8293,136.7835 19.2201,137.049 19.6,137.3333 19.8816,137.5316 20.1801,137.726 20.4943,137.9161 20.8227,138.1013 21.1643,138.2811 21.5177,138.4549 21.8815,138.6223 22.2546,138.7827 22.6357,138.9355 23.0235,139.0804 23.4167,139.2167 23.814,139.3439 24.2141,139.4614 24.6159,139.5688 25.0179,139.6656 25.419,139.7512 25.8178,139.825 26.2131,139.8866 26.6035,139.9354 26.9879,139.9709 27.365,139.9926 27.7333,140.0 28.088,140.0046 28.4379,140.0186 28.7836,140.0421 29.1254,140.0754 29.4636,140.1186 29.7988,140.1719 30.1312,140.2354 30.4614,140.3094 30.7897,140.3941 31.1165,140.4896 31.4422,140.596 31.7672,140.7137 32.0919,140.8427 32.4167,140.9833 32.742,141.1357 33.0682,141.2999 33.3958,141.4762 33.725,141.6649 34.0564,141.866 34.3903,142.0797 34.7271,142.3062 35.0672,142.5458 35.411,142.7986 35.759,143.0647 36.1115,143.3444 36.4689,143.6379 36.8316,143.9452 37.2,144.2667 42.0,148.6667 37.0667,153.3333 32.1333,158.1333 36.0,166.0 36.2496,166.4887 36.4944,166.9763 36.7342,167.4617 36.9684,167.9439 37.1968,168.4216 37.4189,168.8938 37.6345,169.3595 37.8431,169.8175 38.0444,170.2667 38.2381,170.706 38.4237,171.1343 38.6008,171.5506 38.7692,171.9537 38.9285,172.3426 39.0782,172.716 39.218,173.0731 39.3477,173.4125 39.4667,173.7333 39.5747,174.0344 39.6714,174.3146 39.7564,174.5728 39.8293,174.808 39.8898,175.0191 39.9374,175.2049 39.972,175.3644 39.9929,175.4965 40.0,175.6 40.0215,175.9911 40.084,176.3304 40.1849,176.619 40.3214,176.858 40.4907,177.0486 40.69,177.1918 40.9166,177.2889 41.1677,177.3408 41.4407,177.3487 41.7326,177.3137 42.0407,177.237 42.3623,177.1197 42.6947,176.9628 43.035,176.7675 43.3805,176.535 43.7284,176.2663 44.076,175.9625 44.4205,175.6249 44.7591,175.2544 45.0892,174.8522 45.4078,174.4194 45.7124,173.9572 46.0,173.4667 46.3329,172.814 46.6541,172.2102 46.9623,171.6555 47.2565,171.1501 47.5355,170.6942 47.7981,170.2883 48.0432,169.9326 48.2698,169.6272 48.4765,169.3726 48.6624,169.169 48.8263,169.0166 48.967,168.9157 49.0833,168.8667 49.1743,168.8697 49.2386,168.925 49.2753,169.033 49.283,169.1938 49.2608,169.4079 49.2075,169.6753 49.1218,169.9965 49.0028,170.3716 48.8492,170.801 48.66,171.285 48.4339,171.8237 48.1698,172.4175 47.8667,173.0667 47.7358,173.3268 47.6061,173.5929 47.4776,173.8647 47.3503,174.1423 47.2242,174.4254 47.0994,174.7139 46.9759,175.0077 46.8536,175.3068 46.7326,175.6109 46.613,175.9199 46.4948,176.2338 46.3779,176.5524 46.2624,176.8756 46.1483,177.2032 46.0356,177.5352 45.9244,177.8714 45.8147,178.2117 45.7065,178.556 45.5998,178.9041 45.4947,179.256 45.3911,179.6115 45.2891,179.9705 45.1887,180.3328 45.0899,180.6984 44.9928,181.0672 44.8973,181.4389 44.8035,181.8135 44.7115,182.1909 44.6211,182.571 44.5326,182.9535 44.4457,183.3385 44.3607,183.7258 44.2775,184.1152 44.1962,184.5066 44.1167,184.9 44.039,185.2952 43.9633,185.692 43.8895,186.0904 43.8176,186.4902 43.7477,186.8914 43.6798,187.2937 43.6139,187.6971 43.55,188.1014 43.4881,188.5066 43.4283,188.9124 43.3706,189.3189 43.315,189.7258 43.2616,190.1331 43.2103,190.5405 43.1611,190.9481 43.1142,191.3557 43.0694,191.7631 43.0269,192.1702 42.9867,192.5769 42.9487,192.9832 42.9131,193.3888 42.8797,193.7937 42.8487,194.1977 42.8201,194.6006 42.7938,195.0025 42.7699,195.4032 42.7485,195.8025 42.7295,196.2003 42.7129,196.5965 42.6989,196.991 42.6873,197.3836 42.6783,197.7743 42.6719,198.1629 42.668,198.5493 42.6667,198.9333 42.6721,199.6118 42.688,200.2473 42.714,200.8398 42.7497,201.3891 42.7947,201.8952 42.8486,202.3581 42.9109,202.7778 42.9812,203.1542 43.0592,203.4872 43.1444,203.7768 43.2363,204.0229 43.3346,204.2255 43.4389,204.3846 43.5487,204.5001 43.6637,204.5719 43.7833,204.6 43.9073,204.5844 44.0351,204.5249 44.1664,204.4217 44.3008,204.2745 44.4378,204.0834 44.577,203.8482 44.718,203.5691 44.8604,203.2458 45.0038,202.8784 45.1478,202.4669 45.2918,202.011 45.4357,201.5109 45.5788,200.9665 45.7209,200.3777 45.8614,199.7444 46.0,199.0667 46.0885,198.6227 46.1852,198.1764 46.2894,197.7299 46.4003,197.2852 46.5173,196.8445 46.6396,196.4098 46.7666,195.9834 46.8976,195.5671 47.0319,195.1633 47.1687,194.7739 47.3074,194.4011 47.4472,194.0469 47.5875,193.7135 47.7276,193.403 47.8667,193.1174 48.0043,192.8589 48.1394,192.6295 48.2716,192.4314 48.4,192.2667 48.7109,191.8411 48.9319,191.4495 49.0617,191.0864 49.0994,190.7464 49.0438,190.424 48.8938,190.1136 48.6484,189.8098 48.3064,189.5071 47.8667,189.2 47.3865,188.8805 47.05,188.6187 46.8635,188.4102 46.8333,188.25 46.9656,188.1336 47.2667,188.0562 47.7427,188.0133 48.4,188.0 48.7938,187.9662 49.17,187.8676 49.521,187.7086 49.839,187.4937 50.1165,187.2273 50.3457,186.9136 50.5189,186.5571 50.6284,186.1622 50.6667,185.7333 50.6958,185.2034 50.7775,184.8086 50.9028,184.5408 51.0632,184.3922 51.2498,184.3551 51.4538,184.4214 51.6667,184.5833 51.8795,184.833 52.0836,185.1626 52.2702,185.5642 52.4305,186.03 52.5559,186.552 52.6375,187.1224 52.6667,187.7333 52.6869,188.0594 52.7193,188.4053 52.7633,188.7699 52.8185,189.1521 52.8845,189.5509 52.9607,189.965 53.0469,190.3934 53.1425,190.835 53.247,191.2887 53.36,191.7534 53.4811,192.2279 53.6099,192.7112 53.7457,193.2022 53.8884,193.6997 54.0372,194.2027 54.1919,194.71 54.352,195.2205 54.517,195.7332 54.6864,196.2469 54.8599,196.7605 55.0369,197.273 55.2171,197.7831 55.4,198.2898 55.585,198.792 55.7719,199.2887 55.96,199.7786 56.1491,200.2606 56.3386,200.7338 56.528,201.1969 56.717,201.6489 56.9051,202.0886 57.0918,202.515 57.2766,202.9269 57.4593,203.3232 57.6391,203.7029 57.8159,204.0648 57.989,204.4078 58.158,204.7309 58.3226,205.0328 58.4821,205.3125 58.6363,205.569 58.7846,205.801 58.9265,206.0075 59.0618,206.1874 59.1898,206.3395 59.3101,206.4629 59.4224,206.5562 59.5261,206.6186 59.6207,206.6488 59.706,206.6457 59.7813,206.6082 59.8462,206.5353 59.9004,206.4258 59.9433,206.2787 59.9745,206.0927 59.9935,205.8669 60.0,205.6 60.0608,205.0923 60.2304,204.7061 60.4896,204.4672 60.8192,204.4011 61.2,204.5333 61.289,204.6175 61.3829,204.7389 61.4812,204.8959 61.5835,205.0866 61.6893,205.3092 61.7982,205.5619 61.9099,205.8428 62.0238,206.1501 62.1396,206.4821 62.2568,206.8369 62.3749,207.2127 62.4937,207.6076 62.6126,208.0199 62.7312,208.4478 62.8491,208.8893 62.9659,209.3428 63.0811,209.8064 63.1943,210.2782 63.3051,210.7565 63.413,211.2395 63.5177,211.7252 63.6187,212.212 63.7155,212.698 63.8079,213.1814 63.8952,213.6603 63.9771,214.1329 64.0532,214.5975 64.1231,215.0522 64.1863,215.4952 64.2423,215.9247 64.2909,216.3389 64.3315,216.7359 64.3636,217.1139 64.387,217.4711 64.4012,217.8058 64.4056,218.116 64.4,218.4 64.3875,218.4979 64.3743,218.6216 64.3603,218.7701 64.3456,218.9429 64.3302,219.1391 64.314,219.3579 64.2972,219.5986 64.2795,219.8605 64.2612,220.1427 64.2421,220.4447 64.2222,220.7654 64.2017,221.1043 64.1803,221.4606 64.1583,221.8335 64.1355,222.2222 64.112,222.626 64.0878,223.0442 64.0628,223.4759 64.0371,223.9204 64.0107,224.3771 63.9835,224.845 63.9556,225.3235 63.9269,225.8117 63.8975,226.309 63.8674,226.8146 63.8365,227.3277 63.805,227.8476 63.7726,228.3735 63.7396,228.9047 63.7058,229.4403 63.6713,229.9797 63.636,230.5221 63.6,231.0667 63.5528,231.8665 63.5111,232.6323 63.475,233.3633 63.4444,234.0586 63.4194,234.7177 63.4,235.3396 63.3861,235.9237 63.3778,236.4691 63.375,236.9753 63.3778,237.4413 63.3861,237.8664 63.4,238.25 63.4194,238.5912 63.4444,238.8893 63.475,239.1435 63.5111,239.3531 63.5528,239.5173 63.6,239.6354 63.6528,239.7066 63.7111,239.7302 63.775,239.7055 63.8444,239.6316 63.9194,239.5078 64.0,239.3333 64.0641,239.1799 64.1273,239.0039 64.1894,238.8061 64.2505,238.5874 64.3105,238.3485 64.3692,238.0902 64.4266,237.8132 64.4826,237.5184 64.5371,237.2065 64.5901,236.8783 64.6414,236.5346 64.6911,236.1761 64.7389,235.8037 64.7848,235.4181 64.8288,235.0201 64.8707,234.6104 64.9105,234.1899 64.9481,233.7594 64.9835,233.3195 65.0164,232.8712 65.0469,232.4151 65.0749,231.952 65.1003,231.4828 65.123,231.0081 65.143,230.5289 65.1601,230.0458 65.1742,229.5596 65.1854,229.0712 65.1934,228.5813 65.1983,228.0906 65.2,227.6 65.2187,226.9884 65.2416,226.3879 65.2685,225.7997 65.2994,225.2253 65.3342,224.6659 65.3729,224.1229 65.4154,223.5976 65.4617,223.0914 65.5117,222.6055 65.5654,222.1413 65.6226,221.7001 65.6833,221.2833 65.7476,220.8922 65.8152,220.5282 65.8862,220.1924 65.9605,219.8864 66.038,219.6114 66.1187,219.3687 66.2026,219.1598 66.2895,218.9858 66.3794,218.8482 66.4723,218.7482 66.5681,218.6873 66.6667,218.6667 66.8984,218.7135 67.1125,218.8491 67.3075,219.0663 67.4816,219.3579 67.6333,219.7167 67.7611,220.1355 67.8632,220.6071 67.9381,221.1243 67.9843,221.6799 68.0,222.2667 68.0058,222.9242 68.0231,223.5391 68.0515,224.1117 68.0907,224.6419 68.1404,225.1299 68.2004,225.5757 68.2702,225.9794 68.3495,226.3411 68.4382,226.661 68.5358,226.939 68.642,227.1753 68.7565,227.37 68.8791,227.5231 69.0094,227.6348 69.147,227.7052 69.2917,227.7342 69.4432,227.7221 69.6012,227.6689 69.7653,227.5747 69.9352,227.4396 70.1107,227.2636 70.2914,227.0469 70.4769,226.7896 70.6671,226.4917 70.8615,226.1533 71.0599,225.7745 71.2619,225.3555 71.4673,224.8962 71.6757,224.3968 71.8868,223.8575 72.1003,223.2781 72.3159,222.6589 72.5333,222.0 72.7073,221.4334 72.8859,220.8776 73.0682,220.3343 73.2534,219.8053 73.4405,219.2922 73.6288,218.7969 73.8173,218.321 74.0052,217.8662 74.1916,217.4344 74.3758,217.0272 74.5567,216.6463 74.7335,216.2935 74.9055,215.9705 75.0716,215.679 75.2311,215.4208 75.3831,215.1976 75.5267,215.011 75.661,214.863 75.7853,214.7551 75.8986,214.6891 76.0,214.6667 76.1507,214.6346 76.316,214.5411 76.4942,214.3898 76.6834,214.1846 76.8819,213.9293 77.088,213.6276 77.3,213.2833 77.516,212.9003 77.7344,212.4823 77.9534,212.033 78.1711,211.5564 78.386,211.0562 78.5962,210.5361 78.8,210.0 78.9702,209.536 79.138,209.1043 79.3038,208.7049 79.4678,208.3382 79.6303,208.0043 79.7916,207.7034 79.952,207.4357 80.1117,207.2015 80.2711,207.0009 80.4303,206.8342 80.5898,206.7015 80.7497,206.6031 80.9103,206.5392 81.072,206.5099 81.235,206.5155 81.3996,206.5561 81.566,206.6321 81.7346,206.7435 81.9056,206.8906 82.0793,207.0737 82.256,207.2928 82.436,207.5482 82.6195,207.8402 82.8068,208.1689 82.9983,208.5345 83.1941,208.9372 83.3946,209.3773 83.6,209.8549 83.8107,210.3703 84.0268,210.9236 84.2488,211.5151 84.4768,212.1449 84.7111,212.8133 84.9521,213.5205 85.2,214.2667 85.428,214.9266 85.6463,215.541 85.8562,216.1112 86.0593,216.6389 86.2567,217.1256 86.45,217.5729 86.6405,217.9824 86.8296,218.3556 87.0187,218.694 87.2093,218.9993 87.4025,219.273 87.6,219.5167 87.803,219.7319 88.013,219.9201 88.2312,220.0831 88.4593,220.2222 88.6984,220.3391 88.95,220.4354 89.2155,220.5126 89.4963,220.5722 89.7937,220.6159 90.1093,220.6451 90.4442,220.6615 90.8,220.6667 91.4183,220.6802 91.9644,220.722 92.4391,220.7938 92.8428,220.8975 93.1762,221.0348 93.4398,221.2076 93.6344,221.4177 93.7604,221.6668 93.8185,221.9568 93.8093,222.2895 93.7333,222.6667 93.6989,222.8535 93.6795,223.0757 93.6747,223.331 93.684,223.6169 93.707,223.9311 93.7431,224.2713 93.792,224.6353 93.8531,225.0205 93.926,225.4248 94.0101,225.8458 94.1052,226.2811 94.2106,226.7284 94.3259,227.1854 94.4507,227.6497 94.5845,228.1191 94.7268,228.5911 94.8771,229.0635 95.035,229.5339 95.2,230.0 97.2,235.3333 97.2,230.0 97.2119,229.6546 97.2169,229.2963 97.2154,228.9262 97.2076,228.5457 97.1939,228.1558 97.1743,227.7579 97.1493,227.3531 97.1192,226.9427 97.0841,226.528 97.0443,226.1102 97.0002,225.6904 96.952,225.2699 96.9,224.85 96.8444,224.4319 96.7856,224.0167 96.7237,223.6058 96.6591,223.2004 96.5921,222.8016 96.5228,222.4108 96.4517,222.0291 96.3789,221.6578 96.3048,221.2981 96.2295,220.9513 96.1535,220.6185 96.0769,220.301 96.0,220.0 95.904,219.6879 95.8083,219.3605 95.7129,219.0191 95.6182,218.6651 95.5243,218.2997 95.4314,217.9244 95.3397,217.5404 95.2495,217.1491 95.1609,216.7518 95.0741,216.3499 94.9894,215.9446 94.907,215.5373 94.827,215.1294 94.7497,214.7221 94.6752,214.3168 94.6038,213.9148 94.5357,213.5176 94.4711,213.1262 94.4101,212.7423 94.3531,212.3669 94.3001,212.0016 94.2515,211.6476 94.2073,211.3062 94.1679,210.9788 94.1333,210.6667 94.0935,210.2978 94.0501,209.9163 94.0035,209.5238 93.9538,209.1223 93.9011,208.7135 93.8457,208.2993 93.7877,207.8815 93.7272,207.4618 93.6645,207.0422 93.5998,206.6243 93.5331,206.2101 93.4647,205.8014 93.3948,205.3998 93.3235,205.0074 93.2509,204.6259 93.1774,204.257 93.1029,203.9026 93.0278,203.5646 92.9522,203.2447 92.8762,202.9448 92.8,202.6667 92.6171,201.9635 92.4698,201.3858 92.3604,200.9312 92.2914,200.5975 92.2649,200.3823 92.2833,200.2833 92.349,200.2982 92.4642,200.4247 92.6312,200.6604 92.8525,201.0031 93.1302,201.4504 93.4667,202.0 93.7418,202.455 94.0227,202.8917 94.3089,203.3097 94.5999,203.7088 94.8949,204.0885 95.1936,204.4485 95.4953,204.7885 95.7994,205.108 96.1054,205.4067 96.4128,205.6843 96.7209,205.9403 97.0293,206.1745 97.3372,206.3865 97.6443,206.5759 97.9499,206.7424 98.2534,206.8856 98.5543,207.0051 98.852,207.1006 99.146,207.1717 99.4357,207.2181 99.7206,207.2394 100.0,207.2353 100.2734,207.2054 100.5403,207.1493 100.8,207.0667 101.0014,206.9821 101.1866,206.8796 101.3559,206.7576 101.5093,206.6147 101.6471,206.4492 101.7695,206.2597 101.8765,206.0444 101.9685,205.802 102.0455,205.5308 102.1077,205.2293 102.1553,204.8959 102.1885,204.5291 102.2075,204.1272 102.2123,203.6889 102.2033,203.2124 102.1805,202.6963 102.1442,202.139 102.0945,201.539 102.0315,200.8946 101.9555,200.2043 101.8667,199.4667 101.7924,198.8642 101.7295,198.2966 101.6779,197.7639 101.6375,197.2661 101.6081,196.8031 101.5896,196.3749 101.582,195.9813 101.5851,195.6224 101.5987,195.2981 101.6229,195.0083 101.6575,194.7531 101.7023,194.5323 101.7572,194.3459 101.8222,194.1938 101.8971,194.076 101.9819,193.9925 102.0763,193.9432 102.1803,193.9281 102.2938,193.947 102.4167,194.0 102.5488,194.087 102.69,194.2079 102.8403,194.3628 102.9995,194.5515 103.1674,194.774 103.3441,195.0302 103.5294,195.3201 103.7231,195.6437 103.9251,196.0009 104.1354,196.3917 104.3538,196.8159 104.5803,197.2736 104.8146,197.7647 105.0567,198.2891 105.3065,198.8469 105.5639,199.4379 105.8287,200.0621 106.1008,200.7194 106.3802,201.4098 106.6667,202.1333 106.9801,202.95 107.2667,203.6917 107.5278,204.3592 107.7646,204.9537 107.9784,205.476 108.1705,205.9272 108.3422,206.3082 108.4947,206.62 108.6293,206.8636 108.7473,207.0399 108.85,207.15 108.9386,207.1948 109.0145,207.1753 109.0789,207.0924 109.133,206.9472 109.1783,206.7406 109.2158,206.4736 109.247,206.1472 109.273,205.7623 109.2953,205.3199 109.3149,204.821 109.3333,204.2667 109.3285,203.8621 109.3141,203.4498 109.2907,203.0321 109.2587,202.6111 109.2184,202.1889 109.1704,201.7679 109.1149,201.3502 109.0524,200.9379 108.9833,200.5333 108.9081,200.1386 108.8271,199.756 108.7407,199.3877 108.6495,199.0358 108.5536,198.7025 108.4537,198.3901 108.3501,198.1008 108.2431,197.8367 108.1333,197.6 108.0623,197.4681 107.9827,197.3131 107.8951,197.1357 107.7997,196.9368 107.6969,196.7173 107.5872,196.4779 107.4709,196.2194 107.3484,195.9428 107.2201,195.6488 107.0864,195.3383 106.9477,195.012 106.8043,194.6709 106.6566,194.3158 106.505,193.9474 106.35,193.5667 106.1918,193.1744 106.031,192.7713 105.8677,192.3584 105.7026,191.9364 105.5358,191.5062 105.3679,191.0685 105.1991,190.6243 105.03,190.1744 104.8608,189.7195 104.692,189.2605 104.5239,188.7983 104.3569,188.3336 104.1915,187.8673 104.0279,187.4003 103.8667,186.9333 103.6494,186.371 103.4314,185.8184 103.2133,185.2766 102.9957,184.7469 102.7792,184.2307 102.5646,183.7292 102.3524,183.2436 102.1432,182.7753 101.9378,182.3255 101.7367,181.8955 101.5405,181.4866 101.35,181.1 101.1657,180.737 100.9883,180.3989 100.8185,180.087 100.6568,179.8025 100.5039,179.5467 100.3604,179.3208 100.227,179.1263 100.1043,178.9642 99.993,178.8359 99.8936,178.7427 99.8068,178.6859 99.7333,178.6667 99.3664,178.592 99.0699,178.3893 98.8501,178.0907 98.7136,177.728 98.6667,177.3333 98.6814,177.1418 98.7249,176.9815 98.7965,176.8521 98.8955,176.7531 99.0209,176.6839 99.1722,176.6442 99.3484,176.6333 99.5489,176.6508 99.7728,176.6963 100.0194,176.7692 100.288,176.869 100.5776,176.9953 100.8876,177.1476 101.2172,177.3254 101.5656,177.5281 101.9321,177.7554 102.3158,178.0067 102.716,178.2815 103.132,178.5793 103.5629,178.8998 104.008,179.2422 104.4666,179.6063 104.9377,179.9915 105.4208,180.3973 105.9149,180.8231 106.4193,181.2687 106.9333,181.7333 107.3918,182.1518 107.8416,182.5441 108.2786,182.9077 108.6989,183.2399 109.0984,183.5382 109.4732,183.8002 109.8191,184.0231 110.1324,184.2046 110.4088,184.342 110.6445,184.4328 110.8353,184.4744 110.9774,184.4643 111.0667,184.4 111.2529,184.3499 111.4624,184.4233 111.6859,184.6134 111.9141,184.9131 112.1376,185.3155 112.3471,185.8134 112.5333,186.4 112.6801,186.7687 112.8519,187.1383 113.0458,187.5042 113.2593,187.8617 113.4894,188.2063 113.7333,188.5333 113.9884,188.8381 114.2519,189.116 114.5208,189.3625 114.7926,189.5728 115.0644,189.7424 115.3333,189.8667 115.5755,189.9371 115.8021,189.974 116.013,189.978 116.2083,189.95 116.388,189.8908 116.5521,189.801 116.7005,189.6816 116.8333,189.5333 116.9505,189.3569 117.0521,189.1531 117.138,188.9228 117.2083,188.6667 117.263,188.3855 117.3021,188.0802 117.3255,187.7514 117.3333,187.4 117.3255,187.0267 117.3021,186.6323 117.263,186.2176 117.2083,185.7833 117.138,185.3303 117.0521,184.8594 116.9505,184.3712 116.8333,183.8667 116.7005,183.3465 116.5521,182.8115 116.388,182.2624 116.2083,181.7 116.013,181.1251 115.8021,180.5385 115.5755,179.941 115.3333,179.3333 115.0802,178.7702 114.854,178.2356 114.6543,177.7284 114.481,177.2476 114.3338,176.792 114.2123,176.3605 114.1164,175.9521 114.0457,175.5656 114.0,175.2 113.979,174.8541 113.9824,174.5269 114.0099,174.2173 114.0613,173.9241 114.1363,173.6463 114.2346,173.3827 114.3559,173.1323 114.5,172.894 114.6667,172.6667 114.8524,172.4033 115.0095,172.1267 115.1381,171.8362 115.2381,171.5308 115.3095,171.2097 115.3524,170.8719 115.3667,170.5167 115.3524,170.1431 115.3095,169.7502 115.2381,169.3372 115.1381,168.9033 115.0095,168.4474 114.8524,167.9689 114.6667,167.4667 114.5084,167.022 114.376,166.5747 114.269,166.1261 114.1866,165.6777 114.1282,165.231 114.0933,164.7872 114.0812,164.3479 114.0914,163.9145 114.123,163.4883 114.1757,163.0709 114.2486,162.6636 114.3413,162.2678 114.4531,161.8851 114.5833,161.5167 114.7314,161.1641 114.8968,160.8288 115.0788,160.5121 115.2767,160.2155 115.4901,159.9404 115.7182,159.6882 115.9604,159.4604 116.2162,159.2584 116.4848,159.0835 116.7658,158.9372 117.0584,158.821 117.3621,158.7362 117.6761,158.6843 118.0,158.6667 118.4767,158.6438 118.885,158.5776 119.2259,158.4716 119.5001,158.3294 119.7085,158.1545 119.8519,157.9506 119.931,157.7212 119.9468,157.4698 119.9,157.2 119.7915,156.9154 119.6221,156.6196 119.3926,156.316 119.1038,156.0084 118.7567,155.7002 118.3519,155.3951 117.8903,155.0965 117.3727,154.808 116.8,154.5333 116.3826,154.3458 115.9792,154.1833 115.5883,154.0458 115.2083,153.9333 114.8378,153.8458 114.475,153.7833 114.1185,153.7458 113.7667,153.7333 113.418,153.7458 113.0708,153.7833 112.7237,153.8458 112.375,153.9333 112.0232,154.0458 111.6667,154.1833 111.3039,154.3458 110.9333,154.5333 110.3437,154.8467 109.8162,155.1192 109.3463,155.3494 108.9295,155.536 108.5612,155.6776 108.237,155.7728 107.9523,155.8203 107.7026,155.8187 107.4833,155.7667 107.29,155.6627 107.118,155.5056 106.963,155.2938 106.8202,155.0261 106.6853,154.7011 106.5537,154.3173 106.4209,153.8734 106.2822,153.3681 106.1333,152.8 106.0249,152.3984 105.8858,151.9964 105.7188,151.5984 105.5262,151.2087 105.3107,150.8319 105.0748,150.4721 104.8211,150.1338 104.552,149.8214 104.2702,149.5392 103.9783,149.2916 103.6787,149.0829 103.3739,148.9176 103.0667,148.8 102.5377,148.6029 102.1146,148.4526 101.7972,148.3564 101.5857,148.3216 101.4799,148.3552 101.4799,148.4646 101.5857,148.6569 101.7972,148.9394 102.1146,149.3193 102.5377,149.8038 103.0667,150.4 103.5344,150.9308 103.9488,151.438 104.3094,151.9173 104.6154,152.3645 104.8662,152.7755 105.0612,153.1459 105.1997,153.4715 105.281,153.7481 105.3045,153.9714 105.2695,154.1373 105.1755,154.2415 105.0216,154.2797 104.8074,154.2477 104.5321,154.1413 104.1951,153.9563 103.7957,153.6884 103.3333,153.3333 103.0711,153.1299 102.7786,152.9509 102.4589,152.797 102.1147,152.6689 101.7491,152.5674 101.3648,152.4933 100.965,152.4472 100.5523,152.4298 100.1299,152.4419 99.7005,152.4843 99.2671,152.5576 98.8327,152.6626 98.4,152.8 97.79,152.9865 97.275,153.1491 96.8563,153.2924 96.5349,153.4212 96.3121,153.54 96.1889,153.6536 96.1667,153.7667 96.2465,153.8838 96.4294,154.0096 96.7168,154.1489 97.1097,154.3062 97.6093,154.4863 98.2168,154.6938 98.9333,154.9333 99.5745,155.1524 100.1279,155.3555 100.5956,155.5469 100.9796,155.731 101.282,155.9122 101.5048,156.0948 101.65,156.2833 101.7197,156.482 101.716,156.6953 101.6408,156.9275 101.4963,157.183 101.2844,157.4663 101.0071,157.7816 100.6667,158.1333 100.3534,158.438 100.0602,158.7016 99.7822,158.9238 99.5146,159.1042 99.2524,159.2424 98.9909,159.338 98.725,159.3907 98.45,159.4 98.1609,159.3656 97.8529,159.287 97.521,159.1639 97.1604,158.9958 96.7662,158.7825 96.3336,158.5234 95.8576,158.2183 95.3333,157.8667 94.7864,157.5311 94.2699,157.2459 93.7901,157.0135 93.3536,156.8363 92.9667,156.7167 92.6357,156.6571 92.3672,156.6599 92.1675,156.7275 92.0429,156.8623 92.0,157.0667 92.0393,157.4235 92.1508,157.799 92.3254,158.1792 92.5535,158.55 92.826,158.8976 93.1335,159.2078 93.4667,159.4667 93.8503,159.7454 94.0871,160.0148 94.1769,160.2818 94.1197,160.5535 93.9156,160.8369 93.5646,161.139 93.0667,161.4667 92.7732,161.6391 92.5086,161.8472 92.273,162.0888 92.067,162.3617 91.8908,162.6638 91.7449,162.9927 91.6295,163.3465 91.5451,163.7228 91.492,164.1196 91.4706,164.5345 91.4812,164.9654 91.5242,165.4102 91.6,165.8667 91.6896,166.3415 91.7412,166.8157 91.7569,167.2821 91.7382,167.7335 91.6872,168.1627 91.6054,168.5624 91.4948,168.9254 91.3572,169.2446 91.1943,169.5126 91.008,169.7224 90.8,169.8667 90.5645,170.0575 90.3403,170.3051 90.1304,170.6023 89.9381,170.9419 89.7667,171.3167 89.6192,171.7195 89.4989,172.1431 89.4091,172.5803 89.3528,173.0239 89.3333,173.4667 89.3107,173.866 89.2448,174.2611 89.1386,174.6477 88.9951,175.0218 88.8174,175.379 88.6085,175.7152 88.3712,176.0261 88.1088,176.3076 87.8241,176.5555 87.5202,176.7654 87.2,176.9333 86.8564,177.0954 86.5537,177.2912 86.293,177.5212 86.0756,177.786 85.9027,178.0864 85.7755,178.4227 85.6952,178.7958 85.6629,179.2061 85.6799,179.6543 85.7475,180.1409 85.8667,180.6667 85.9248,180.9675 85.966,181.2905 85.9907,181.6333 85.9995,181.9934 85.9925,182.3683 85.9704,182.7556 85.9334,183.1527 85.882,183.5572 85.8167,183.9667 85.7377,184.3786 85.6456,184.7905 85.5407,185.2 85.4235,185.6045 85.2944,186.0016 85.1537,186.3889 85.0019,186.7638 84.8394,187.1239 84.6667,187.4667 82.6667,191.3333 82.6667,187.3333 82.6433,186.8759 82.6022,186.4187 82.5441,185.9629 82.4696,185.5098 82.3793,185.0607 82.274,184.6167 82.1542,184.1792 82.0206,183.7493 81.8739,183.3283 81.7148,182.9174 81.5438,182.5179 81.3617,182.131 81.1691,181.758 80.9667,181.4 80.755,181.0584 80.5349,180.7343 80.3069,180.429 80.0716,180.1438 79.8298,179.8799 79.5821,179.6385 79.3292,179.4208 79.0716,179.2282 78.8101,179.0618 78.5454,178.9228 78.278,178.8126 78.0086,178.7324 77.738,178.6833 77.4667,178.6667 77.2312,178.7095 77.0069,178.8331 76.7971,179.0303 76.6048,179.2939 76.4333,179.6167 76.2859,179.9915 76.1656,180.4111 76.0757,180.8683 76.0195,181.3559 76.0,181.8667 75.987,182.3747 75.9487,182.876 75.8864,183.3642 75.8013,183.8325 75.6945,184.2744 75.5672,184.6832 75.4208,185.0523 75.2563,185.3752 75.075,185.6452 74.878,185.8556 74.6667,186.0 74.4349,186.1012 74.2208,186.0896 74.0259,185.9724 73.8517,185.7568 73.7,185.45 73.5723,185.0592 73.4701,184.5916 73.3952,184.0544 73.3491,183.4548 73.3333,182.8 73.3198,182.1458 73.2808,181.5498 73.2185,181.012 73.1352,180.5321 73.0331,180.1101 72.9146,179.7458 72.7818,179.4392 72.637,179.1901 72.4826,178.9984 72.3206,178.864 72.1534,178.7868 71.9833,178.7667 71.8125,178.8035 71.6433,178.8971 71.4779,179.0474 71.3185,179.2543 71.1675,179.5177 71.0271,179.8375 70.8995,180.2135 70.787,180.6457 70.6919,181.1339 70.6164,181.6779 70.5628,182.2778 70.5333,182.9333 70.2667,187.3333 69.3333,182.6667 69.2193,182.1091 69.1099,181.6035 69.0042,181.1505 68.9012,180.7506 68.8002,180.4044 68.7,180.1125 68.5998,179.8754 68.4988,179.6938 68.3958,179.5682 68.2901,179.4992 68.1807,179.4874 68.0667,179.5333 67.9471,179.6376 67.821,179.8008 67.6875,180.0234 67.5457,180.3062 67.3946,180.6496 67.2333,181.0542 67.061,181.5206 66.8765,182.0494 66.6792,182.6411 66.4679,183.2965 66.2418,184.0159 66.0,184.8 65.8339,185.2618 65.6567,185.6563 65.47,185.9855 65.2756,186.2512 65.0752,186.4555 64.8704,186.6 64.663,186.6869 64.4546,186.7178 64.2469,186.6948 64.0416,186.6197 63.8404,186.4945 63.645,186.3209 63.4571,186.101 63.2783,185.8366 63.1104,185.5296 62.955,185.1819 62.8139,184.7954 62.6887,184.3719 62.5811,183.9135 62.4928,183.4219 62.4255,182.899 62.3809,182.3469 62.3606,181.7673 62.3664,181.1621 62.4,180.5333 62.6667,175.3333 60.0,181.0667 59.7387,181.6213 59.4732,182.1543 59.2052,182.6633 58.936,183.1462 58.6672,183.6005 58.4002,184.024 58.1364,184.4145 57.8773,184.7697 57.6244,185.0873 57.3792,185.3649 57.1431,185.6004 56.9176,185.7914 56.7041,185.9357 56.5041,186.031 56.3192,186.075 56.1506,186.0654 56.0,186.0 55.8287,185.8714 55.6735,185.7078 55.5341,185.511 55.4104,185.2832 55.3022,185.0262 55.2093,184.7422 55.1316,184.4331 55.069,184.1008 55.0212,183.7475 54.9881,183.3751 54.9696,182.9856 54.9654,182.581 54.9754,182.1633 54.9994,181.7346 55.0374,181.2967 55.089,180.8518 55.1542,180.4018 55.2327,179.9487 55.3245,179.4945 55.4294,179.0412 55.5471,178.5909 55.6775,178.1455 55.8206,177.707 55.976,177.2774 56.1436,176.8587 56.3234,176.453 56.515,176.0622 56.7184,175.6883 56.9333,175.3333 57.1849,174.9375 57.4155,174.5499 57.6249,174.1699 57.8131,173.7973 57.98,173.4315 58.1255,173.0721 58.2495,172.7187 58.3518,172.3709 58.4324,172.0283 58.4912,171.6903 58.5282,171.3567 58.543,171.0269 58.5358,170.7006 58.5064,170.3773 58.4547,170.0566 58.3805,169.7381 58.2839,169.4213 58.1647,169.1058 58.0227,168.7912 57.858,168.477 57.6704,168.1629 57.4598,167.8484 57.2261,167.5331 56.9692,167.2165 56.689,166.8982 56.3854,166.5779 56.0583,166.255 55.7077,165.9292 55.3333,165.6 55.0083,165.3083 54.6929,164.9996 54.3883,164.676 54.096,164.3399 53.8172,163.9935 53.5532,163.6392 53.3054,163.2791 53.0749,162.9156 52.8632,162.551 52.6716,162.1876 52.5012,161.8275 52.3535,161.4732 52.2297,161.1268 52.1312,160.7907 52.0592,160.4671 52.015,160.1583 52.0,159.8667 51.992,159.6257 51.9683,159.361 51.9296,159.0744 51.8768,158.7676 51.8103,158.4423 51.731,158.1003 51.6395,157.7432 51.5365,157.3728 51.4227,156.9909 51.2989,156.5991 51.1655,156.1991 51.0235,155.7928 50.8735,155.3818 50.716,154.9679 50.552,154.5528 50.382,154.1382 50.2067,153.7258 50.0268,153.3174 49.8431,152.9147 49.6561,152.5194 49.4667,152.1333 49.2771,151.7835 49.0916,151.434 48.9103,151.0846 48.7331,150.7355 48.56,150.3865 48.3909,150.0375 48.2258,149.6885 48.0648,149.3395 47.9078,148.9904 47.7547,148.641 47.6056,148.2915 47.4604,147.9417 47.3191,147.5915 47.1817,147.2409 47.0482,146.8898 46.9185,146.5383 46.7926,146.1861 46.6706,145.8333 46.5523,145.4799 46.4377,145.1256 46.3269,144.7706 46.2198,144.4147 46.1164,144.0578 46.0167,143.7 45.9206,143.3411 45.8281,142.9812 45.7392,142.6201 45.6539,142.2577 45.5722,141.8941 45.494,141.5292 45.4193,141.1628 45.3481,140.7951 45.2804,140.4258 45.2162,140.0549 45.1553,139.6825 45.0979,139.3083 45.0439,138.9325 44.9932,138.5548 44.9459,138.1753 44.9019,137.7938 44.8611,137.4104 44.8237,137.025 44.7895,136.6375 44.7586,136.2478 44.7308,135.856 44.7063,135.4619 44.6849,135.0655 44.6667,134.6667 44.6613,134.2146 44.6456,133.7545 44.6205,133.2896 44.5868,132.8229 44.5452,132.3574 44.4967,131.8964 44.4419,131.4428 44.3818,130.9999 44.3171,130.5706 44.2487,130.1581 44.1774,129.7654 44.1039,129.3958 44.0291,129.0521 43.9539,128.7376 43.879,128.4554 43.8052,128.2085 43.7333,128.0 43.6432,127.8032 43.5445,127.5759 43.4378,127.3198 43.3236,127.0364 43.2024,126.7276 43.0748,126.3949 42.9414,126.0401 42.8025,125.6648 42.6588,125.2707 42.5109,124.8594 42.3591,124.4327 42.2041,123.9922 42.0463,123.5396 41.8864,123.0765 41.7248,122.6047 41.5621,122.1258 41.3988,121.6414 41.2354,121.1534 41.0724,120.6632 40.9105,120.1726 40.75,119.6833 40.5916,119.197 40.4357,118.7153 40.283,118.2398 40.1339,117.7724 39.9889,117.3146 39.8486,116.8681 39.7136,116.4346 39.5843,116.0157 39.4612,115.6132 39.345,115.2287 39.2361,114.8639 39.135,114.5205 39.0424,114.2 38.9586,113.9043 38.8844,113.635 38.82,113.3937 38.7662,113.1821 38.7235,113.002 38.6923,112.8549 38.6732,112.7426 38.6667,112.6667 38.7833,112.3937 39.1,112.1833 39.5667,112.0479 40.1333,112.0 40.4821,112.0768 40.7157,112.2944 40.8149,112.6336 40.7605,113.0752 40.5333,113.6 40.2443,114.064 40.1728,114.336 40.3125,114.416 40.6571,114.304 41.2,114.0 41.4712,113.8256 41.7033,113.5965 41.8969,113.3175 42.0527,112.9934 42.1712,112.6291 42.253,112.2293 42.2988,111.7988 42.3091,111.3425 42.2846,110.8652 42.2258,110.3717 42.1333,109.8667 41.9918,109.2672 41.9135,108.7206 41.8931,108.2299 41.925,107.7979 42.0038,107.4277 42.124,107.1221 42.2801,106.8841 42.4667,106.7167 42.6783,106.6226 42.9094,106.6049 43.1546,106.6666 43.4083,106.8104 43.6652,107.0394 43.9198,107.3565 44.1665,107.7646 44.4,108.2667 44.508,108.4757 44.592,108.5472 44.652,108.4875 44.688,108.3029 44.7,108.0 44.688,107.5851 44.652,107.0645 44.592,106.4448 44.508,105.7323 44.4,104.9333 44.298,104.2702 44.2204,103.6525 44.1673,103.0809 44.1388,102.5559 44.1347,102.0781 44.1551,101.6482 44.2,101.2667 44.2694,100.9341 44.3633,100.6511 44.4816,100.4183 44.6245,100.2362 44.7918,100.1053 44.9837,100.0264 45.2,100.0 45.4612,99.9519 45.7092,99.8127 45.9407,99.5901 46.1525,99.2918 46.3413,98.9255 46.5037,98.4988 46.6365,98.0194 46.7364,97.495 46.8,96.9333 46.8039,96.2389 46.818,95.6821 46.846,95.2618 46.8914,94.9767 46.9578,94.8256 47.0488,94.8074 47.1681,94.9208 47.3193,95.1646 47.5059,95.5377 47.7316,96.0388 48.0,96.6667 48.1453,97.007 48.2815,97.2768 48.4087,97.4744 48.5271,97.5979 48.6369,97.6457 48.7383,97.6159 48.8315,97.5068 48.9167,97.3167 48.994,97.0437 49.0638,96.6862 49.1261,96.2424 49.1812,95.7104 49.2293,95.0886 49.2706,94.3753 49.3052,93.5685 49.3333,92.6667 49.3682,91.8326 49.4005,91.0753 49.4309,90.3937 49.4604,89.7868 49.4895,89.2538 49.5191,88.7935 49.5498,88.405 49.5826,88.0875 49.618,87.8397 49.6569,87.6609 49.7,87.55 49.7481,87.506 49.8018,87.528 49.8621,87.615 49.9295,87.766 50.0049,87.9801 50.089,88.2562 50.1826,88.5933 50.2864,88.9906 50.4012,89.447 50.5277,89.9616 50.6667,90.5333 50.7788,90.9841 50.8796,91.4404 50.969,91.8994 51.0469,92.3585 51.1131,92.8148 51.1674,93.2655 51.2096,93.708 51.2396,94.1393 51.2573,94.5569 51.2624,94.9578 51.2548,95.3393 51.2343,95.6987 51.2008,96.0332 51.1541,96.34 51.0941,96.6164 51.0206,96.8595 50.9333,97.0667 50.7776,97.5667 50.7125,97.9667 50.7411,98.2667 50.8667,98.4667 51.0922,98.5667 51.4208,98.5667 51.8557,98.4667 52.4,98.2667 52.9488,98.0909 53.4248,97.9915 53.8261,97.9646 54.151,98.0062 54.3976,98.1122 54.564,98.2787 54.6486,98.5016 54.6494,98.7769 54.5646,99.1007 54.3924,99.4689 54.131,99.8775 53.7786,100.3226 53.3333,100.8 53.2483,100.8958 53.1535,101.0224 53.0496,101.1785 52.9369,101.3629 52.816,101.5744 52.6874,101.8118 52.5517,102.0738 52.4093,102.3591 52.2608,102.6667 52.1067,102.9952 51.9474,103.3434 51.7835,103.7101 51.6155,104.0941 51.444,104.494 51.2693,104.9088 51.0921,105.3371 50.9129,105.7778 50.7321,106.2296 50.5503,106.6913 50.368,107.1616 50.1857,107.6393 50.0039,108.1233 49.8231,108.6122 49.6439,109.1048 49.4667,109.6 49.1748,110.4613 48.9073,111.2553 48.6641,111.985 48.4452,112.6536 48.2507,113.264 48.0804,113.8194 47.9345,114.3228 47.8129,114.7773 47.7156,115.186 47.6427,115.552 47.594,115.8783 47.5697,116.1679 47.5697,116.4241 47.594,116.6497 47.6427,116.848 47.7156,117.022 47.8129,117.1747 47.9345,117.3092 48.0804,117.4286 48.2507,117.536 48.4452,117.6344 48.6641,117.727 48.9073,117.8167 49.1748,117.9067 49.4667,118.0 49.8773,118.1404 50.304,118.2432 50.7387,118.3108 51.1733,118.3456 51.6,118.35 52.0107,118.3264 52.3973,118.2772 52.752,118.2048 53.0667,118.1116 53.3333,118.0 53.6104,117.8602 53.8525,117.8145 54.0601,117.8551 54.2336,117.9743 54.3735,118.1641 54.4803,118.4167 54.5545,118.7245 54.5964,119.0794 54.6066,119.4738 54.5856,119.8998 54.5338,120.3496 54.4516,120.8153 54.3396,121.2893 54.1982,121.7635 54.0279,122.2304 53.8291,122.6819 53.6023,123.1103 53.348,123.5079 53.0667,123.8667 52.6792,124.2628 52.3989,124.5717 52.2291,124.7943 52.1728,124.9312 52.2333,124.9833 52.4139,124.9515 52.7176,124.8364 53.1477,124.6389 53.7075,124.3599 54.4,124.0 54.875,123.7586 55.3,123.5019 55.675,123.2312 56.0,122.9481 56.275,122.6539 56.5,122.35 56.675,122.0377 56.8,121.7185 56.875,121.3937 56.9,121.0648 56.875,120.7331 56.8,120.4 56.6508,119.9836 56.5062,119.5437 56.3711,119.0945 56.25,118.65 56.1477,118.2242 56.0687,117.8312 56.018,117.4852 56.0,117.2 55.9456,116.931 55.7896,116.7229 55.543,116.5742 55.2167,116.4833 54.8216,116.4487 54.3687,116.4687 53.869,116.5419 53.3333,116.6667 52.8979,116.8104 52.5055,116.9347 52.1559,117.0367 51.8485,117.1133 51.5828,117.1615 51.3586,117.1782 51.1753,117.1605 51.0325,117.1053 50.9298,117.0095 50.8668,116.8702 50.843,116.6844 50.8579,116.449 50.9112,116.1609 51.0025,115.8173 51.1312,115.415 51.297,114.951 51.4994,114.4223 51.738,113.8259 52.0124,113.1587 52.3221,112.4177 52.6667,111.6 52.8869,111.0599 53.0896,110.5279 53.2737,110.0082 53.4379,109.5048 53.5811,109.0218 53.7022,108.5633 53.8,108.1333 53.8733,107.7361 53.9209,107.3755 53.9417,107.0558 53.9345,106.781 53.8982,106.5551 53.8315,106.3823 53.7333,106.2667 53.6604,106.0951 53.6779,105.9019 53.7801,105.6895 53.9616,105.4603 54.2167,105.2167 54.5397,104.9611 54.9252,104.6959 55.3675,104.4235 55.8609,104.1463 56.4,103.8667 56.6591,103.7396 56.9116,103.608 57.1579,103.4711 57.3987,103.3284 57.6343,103.1791 57.8651,103.0226 58.0918,102.8583 58.3146,102.6854 58.5341,102.5034 58.7507,102.3115 58.965,102.1091 59.1773,101.8956 59.3882,101.6702 59.5981,101.4324 59.8074,101.1814 60.0167,100.9167 60.2263,100.6375 60.4368,100.3431 60.6486,100.033 60.8622,99.7065 61.0781,99.3629 61.2966,99.0015 61.5184,98.6218 61.7437,98.2229 61.9732,97.8043 62.2073,97.3654 62.4463,96.9054 62.6909,96.4237 62.9414,95.9196 63.1983,95.3925 63.4622,94.8418 63.7333,94.2667 63.8103,94.0299 63.7123,93.8912 63.4604,93.8503 63.0756,93.9075 62.5788,94.0626 61.9911,94.3156 61.3333,94.6667 60.8066,94.9227 60.2996,95.1546 59.8222,95.358 59.3844,95.5285 58.9959,95.6616 58.6667,95.7531 58.4066,95.7984 58.2255,95.7933 58.1333,95.7333 58.1136,95.7018 58.0934,95.6464 58.0727,95.5677 58.0516,95.4662 58.0301,95.3423 58.0081,95.1965 57.9858,95.0293 57.963,94.8412 57.9399,94.6326 57.9164,94.404 57.8925,94.1559 57.8683,93.8887 57.8437,93.603 57.8188,93.2992 57.7936,92.9778 57.7681,92.6393 57.7424,92.2841 57.7163,91.9128 57.69,91.5257 57.6634,91.1234 57.6366,90.7063 57.6095,90.275 57.5822,89.8299 57.5547,89.3714 57.527,88.9001 57.4992,88.4164 57.4711,87.9208 57.4429,87.4138 57.4145,86.8959 57.386,86.3675 57.3574,85.8291 57.3287,85.2811 57.2998,84.7242 57.2709,84.1586 57.2419,83.585 57.2128,83.0038 57.1836,82.4154 57.1544,81.8203 57.1252,81.2191 57.0959,80.6122 57.0667,80.0 57.0303,79.222 56.9964,78.4635 56.9647,77.7254 56.9354,77.0083 56.9085,76.3132 56.8839,75.6406 56.8616,74.9915 56.8417,74.3667 56.8241,73.7668 56.8089,73.1927 56.796,72.6452 56.7854,72.125 56.7772,71.6329 56.7714,71.1698 56.7678,70.7363 56.7667,70.3333 56.7678,69.9616 56.7714,69.6219 56.7772,69.315 56.7854,69.0417 56.796,68.8027 56.8089,68.599 56.8241,68.4311 56.8417,68.3 56.8616,68.2064 56.8839,68.151 56.9085,68.1348 56.9354,68.1583 56.9647,68.2225 56.9964,68.3281 57.0303,68.4759 57.0667,68.6667 57.1924,69.4644 57.3056,70.1265 57.4104,70.6562 57.5111,71.0568 57.6118,71.3314 57.7167,71.4833 57.8299,71.5158 57.9556,71.4321 58.0979,71.2354 58.2611,70.929 58.4493,70.5161 58.6667,70.0 58.8841,69.4224 59.0728,68.9568 59.2375,68.6042 59.3827,68.3654 59.5131,68.2415 59.6333,68.2333 59.748,68.3418 59.8617,68.5679 59.9792,68.9125 60.1049,69.3765 60.2437,69.961 60.4,70.6667 60.4374,70.8465 60.477,71.0463 60.5185,71.2652 60.5619,71.5026 60.607,71.7579 60.6538,72.0303 60.7022,72.319 60.7519,72.6236 60.803,72.9432 60.8553,73.2771 60.9086,73.6247 60.963,73.9853 61.0182,74.3581 61.0742,74.7426 61.1308,75.138 61.1879,75.5436 61.2455,75.9587 61.3034,76.3827 61.3615,76.8148 61.4196,77.2543 61.4778,77.7007 61.5358,78.1531 61.5936,78.6109 61.651,79.0734 61.7079,79.5399 61.7643,80.0097 61.82,80.4821 61.8749,80.9565 61.9288,81.4322 61.9818,81.9083 62.0336,82.3844 62.0841,82.8596 62.1333,83.3333 62.2196,84.2394 62.3045,85.0798 62.3883,85.8557 62.4712,86.5681 62.5533,87.2178 62.635,87.8059 62.7163,88.3334 62.7974,88.8012 62.8787,89.2104 62.9602,89.562 63.0421,89.8568 63.1247,90.096 63.2082,90.2805 63.2927,90.4112 63.3785,90.4892 63.4657,90.5155 63.5546,90.491 63.6453,90.4168 63.738,90.2937 63.833,90.1228 63.9304,89.9052 64.0305,89.6417 64.1333,89.3333 64.2846,88.7896 64.4194,88.3326 64.5387,87.9637 64.6438,87.6845 64.7358,87.4963 64.816,87.4005 64.8855,87.3986 64.9456,87.492 64.9973,87.6821 65.042,87.9704 65.0807,88.3582 65.1147,88.8469 65.1451,89.4381 65.1731,90.1331 65.2,90.9333 65.2345,91.5245 65.2805,92.0956 65.3369,92.6428 65.4029,93.1623 65.4777,93.6503 65.5603,94.103 65.65,94.5167 65.7458,94.8875 65.8468,95.2116 65.9522,95.4853 66.0611,95.7048 66.1726,95.8663 66.2859,95.9659 66.4,96.0 66.5276,95.9566 66.6432,95.8302 66.7458,95.6271 66.8346,95.3531 66.9085,95.0143 66.9667,94.6167 67.0082,94.1663 67.0321,93.6691 67.0375,93.1312 67.0235,92.5586 66.989,91.9573 66.9333,91.3333 66.8918,90.8826 66.8614,90.4265 66.842,89.968 66.8337,89.5099 66.8364,89.0553 66.8503,88.607 66.8752,88.168 66.9112,87.7412 66.9582,87.3296 67.0164,86.936 67.0856,86.5635 67.1659,86.2148 67.2572,85.8931 67.3596,85.6011 67.4731,85.3419 67.5977,85.1183 67.7333,84.9333 67.8225,84.8111 67.9157,84.6542 68.0125,84.4644 68.1125,84.2431 68.2152,83.9922 68.3202,83.7131 68.4269,83.4076 68.5349,83.0774 68.6438,82.724 68.753,82.3491 68.8622,81.9543 68.9709,81.5413 69.0786,81.1118 69.1848,80.6673 69.2892,80.2096 69.3912,79.7402 69.4903,79.2608 69.5861,78.7731 69.6783,78.2786 69.7662,77.7791 69.8494,77.2762 69.9275,76.7715 70.0,76.2667 70.0903,75.6299 70.1814,75.0257 70.2734,74.4538 70.3659,73.9142 70.4591,73.4067 70.5526,72.9312 70.6465,72.4875 70.7405,72.0755 70.8346,71.695 70.9287,71.346 71.0226,71.0283 71.1162,70.7418 71.2095,70.4863 71.3022,70.2616 71.3944,70.0677 71.4858,69.9044 71.5763,69.7716 71.6659,69.6692 71.7544,69.5969 71.8417,69.5547 71.9277,69.5425 72.0123,69.56 72.0953,69.6072 72.1766,69.6839 72.2562,69.7901 72.3339,69.9254 72.4096,70.0899 72.4832,70.2834 72.5545,70.5057 72.6235,70.7567 72.69,71.0363 72.7539,71.3443 72.8152,71.6807 72.8736,72.0452 72.9291,72.4377 72.9815,72.8581 73.0308,73.3063 73.0768,73.7821 73.1194,74.2854 73.1585,74.816 73.1939,75.3739 73.2257,75.9588 73.2535,76.5707 73.2774,77.2093 73.2972,77.8747 73.3129,78.5665 73.3242,79.2848 73.331,80.0293 73.3333,80.8 73.3348,81.6358 73.3392,82.433 73.3466,83.1922 73.3572,83.9139 73.3711,84.5986 73.3882,85.2467 73.4089,85.8588 73.4331,86.4353 73.4609,86.9768 73.4924,87.4837 73.5278,87.9565 73.5671,88.3957 73.6105,88.8018 73.658,89.1753 73.7097,89.5167 73.7658,89.8265 73.8263,90.1051 73.8913,90.3532 73.9609,90.571 74.0353,90.7592 74.1145,90.9183 74.1986,91.0487 74.2877,91.1509 74.3819,91.2254 74.4814,91.2728 74.5862,91.2934 74.6963,91.2878 74.812,91.2565 74.9333,91.2 75.1477,91.086 75.3341,91.0309 75.4931,91.0364 75.6253,91.1044 75.7312,91.2364 75.8115,91.4344 75.8667,91.7 75.8974,92.035 75.9042,92.4411 75.8877,92.9201 75.8484,93.4738 75.787,94.1038 75.704,94.812 75.6,95.6 75.5302,96.0872 75.4762,96.5708 75.4377,97.0502 75.4144,97.5246 75.406,97.9937 75.4123,98.4568 75.4331,98.9133 75.4679,99.3626 75.5167,99.8042 75.579,100.2374 75.6546,100.6617 75.7432,101.0765 75.8446,101.4813 75.9585,101.8754 76.0846,102.2582 76.2226,102.6292 76.3723,102.9878 76.5333,103.3333 76.7055,103.6653 76.8885,103.9832 77.0821,104.2863 77.286,104.574 77.4998,104.8459 77.7235,105.1012 77.9565,105.3395 78.1988,105.5601 78.45,105.7625 78.7098,105.946 78.978,106.1102 79.2543,106.2543 79.5384,106.3779 79.8301,106.4803 80.129,106.561 80.4349,106.6193 80.7476,106.6547 81.0667,106.6667 81.2924,106.6746 81.5035,106.6993 81.7003,106.7424 81.8833,106.8056 82.0532,106.8902 82.2104,106.9979 82.3555,107.1303 82.4889,107.2889 82.6112,107.4753 82.7229,107.691 82.8246,107.9376 82.9167,108.2167 82.9997,108.5298 83.0743,108.8785 83.1409,109.2643 83.2,109.6889 83.2522,110.1537 83.2979,110.6604 83.3378,111.2105 83.3722,111.8056 83.4018,112.4471 83.4271,113.1368 83.4485,113.8761 83.4667,114.6667 83.4702,115.1742 83.4805,115.6804 83.4974,116.1842 83.5206,116.6843 83.5497,117.1795 83.5846,117.6686 83.625,118.1503 83.6706,118.6233 83.7211,119.0866 83.7762,119.5388 83.8357,119.9787 83.8993,120.405 83.9667,120.8167 84.0376,121.2123 84.1119,121.5908 84.1891,121.9508 84.2691,122.2911 84.3515,122.6106 84.4361,122.9079 84.5227,123.1819 84.6108,123.4313 84.7003,123.6549 84.791,123.8515 84.8824,124.0198 84.9744,124.1586 85.0667,124.2667 85.495,124.7312 85.8567,125.1951 86.1514,125.648 86.3788,126.0798 86.5384,126.4803 86.6299,126.8393 86.653,127.1465 86.6072,127.3919 86.4922,127.5652 86.3078,127.6561 86.0533,127.6546 85.7287,127.5504 85.3333,127.3333 84.8437,127.1333 84.4167,127.1333 84.1146,127.3333 84.0,127.7333 84.0384,127.9693 84.1492,128.2283 84.3259,128.5037 84.5619,128.789 84.8505,129.0776 85.1852,129.363 85.5594,129.6384 85.9665,129.8974 86.4,130.1333 86.7337,130.3195 87.0292,130.5039 87.2874,130.6907 87.5087,130.8837 87.6938,131.0867 87.8435,131.3038 87.9583,131.5387 88.039,131.7955 88.0861,132.0781 88.1003,132.3902 88.0822,132.7359 88.0326,133.119 87.952,133.5436 87.8411,134.0133 87.7006,134.5323 87.5311,135.1043 87.3333,135.7333 85.8667,140.1333 84.0,136.6667 83.7563,136.209 83.4951,135.7716 83.2208,135.3583 82.9383,134.9728 82.652,134.6188 82.3667,134.3 82.0869,134.0201 81.8173,133.7827 81.5625,133.5917 81.3272,133.4506 81.1159,133.3633 80.9333,133.3333 80.6667,133.4074 80.5333,133.6148 80.5333,133.9333 80.6667,134.3407 80.9333,134.8148 81.3333,135.3333 81.6138,135.744 81.8521,136.1687 82.0435,136.5966 82.1833,137.0167 82.2669,137.418 82.2896,137.7896 82.2466,138.1206 82.1333,138.4 82.0603,138.6189 82.0768,138.8715 82.1765,139.1512 82.3531,139.4517 82.6,139.7667 82.9109,140.0896 83.2795,140.4141 83.6992,140.7339 84.1637,141.0424 84.6667,141.3333 85.1244,141.5744 85.5617,141.8284 85.975,142.0917 86.3605,142.3605 86.7145,142.6312 87.0333,142.9 87.3133,143.1633 87.5506,143.4173 87.7417,143.6583 87.8827,143.8827 87.9701,144.0867 88.0,144.2667 88.015,144.4934 88.0593,144.6938 88.1321,144.8683 88.2326,145.0171 88.3599,145.1407 88.5131,145.2395 88.6913,145.3137 88.8938,145.3637 89.1196,145.3899 89.3679,145.3926 89.6378,145.3722 89.9285,145.3291 90.2391,145.2635 90.5688,145.1759 90.9167,145.0667 91.2819,144.9361 91.6635,144.7845 92.0608,144.6123 92.4728,144.4198 92.8988,144.2074 93.3377,143.9755 93.7889,143.7243 94.2513,143.4543 94.7243,143.1659 95.2068,142.8593 95.6981,142.5349 96.1972,142.1931 96.7034,141.8342 97.2157,141.4586 97.7333,141.0667 98.238,140.6706 98.7287,140.2837 99.2037,139.9074 99.6615,139.5435 100.1003,139.1936 100.5185,138.8593 100.9145,138.5422 101.2867,138.2442 101.6333,137.9667 101.9528,137.7114 102.2435,137.48 102.5037,137.2741 102.7318,137.0953 102.9262,136.9454 103.0852,136.8259 103.2071,136.7385 103.2904,136.6849 103.3333,136.6667 103.3955,136.7215 103.5697,136.8766 103.8371,137.118 104.1792,137.4317 104.5773,137.8037 105.0126,138.22 105.4667,138.6667 105.8577,139.0455 106.1933,139.419 106.4742,139.7854 106.7013,140.143 106.8752,140.4901 106.9967,140.8249 107.0667,141.1457 107.0858,141.4508 107.055,141.7384 106.9749,142.0068 106.8464,142.2544 106.6702,142.4793 106.447,142.6799 106.1778,142.8543 105.8632,143.001 105.504,143.1181 105.101,143.2039 104.655,143.2568 104.1668,143.2749 103.6371,143.2565 103.0667,143.2 102.7627,143.1764 102.4413,143.1683 102.1036,143.1751 101.751,143.1965 101.3849,143.2317 101.0064,143.2803 100.617,143.3417 100.218,143.4155 99.8106,143.5009 99.3962,143.5976 98.976,143.705 98.5515,143.8225 98.1239,143.9496 97.6945,144.0857 97.2646,144.2304 96.8356,144.383 96.4087,144.5431 95.9853,144.71 95.5667,144.8833 95.1541,145.0625 94.749,145.2469 94.3526,145.436 93.9663,145.6294 93.5912,145.8264 93.2289,146.0265 92.8805,146.2292 92.5473,146.434 92.2308,146.6402 91.9322,146.8474 91.6528,147.0551 91.3939,147.2626 91.1568,147.4695 90.9429,147.6751 90.7535,147.8791 90.5898,148.0807 90.4533,148.2796 90.3451,148.4751 90.2667,148.6667 90.1858,148.9223 90.1551,149.1559 90.172,149.3677 90.2343,149.5581 90.3395,149.7272 90.4853,149.8752 90.6694,150.0024 90.8893,150.1091 91.1427,150.1955 91.4272,150.2617 91.7404,150.3081 92.08,150.3349 92.4436,150.3424 92.8288,150.3306 93.2333,150.3 93.6547,150.2507 94.0906,150.183 94.5387,150.0971 94.9965,149.9932 95.4617,149.8716 95.932,149.7325 96.4049,149.5762 96.8782,149.4029 97.3493,149.2128 97.816,149.0062 98.276,148.7832 98.7267,148.5443 99.1658,148.2895 99.5911,148.0191 100.0,147.7333 100.4831,147.401 100.9586,147.0908 101.423,146.8045 101.8729,146.5438 102.3047,146.3106 102.7149,146.1065 103.1,145.9333 103.4566,145.7928 103.781,145.6867 104.07,145.6167 104.3198,145.5846 104.5271,145.5922 104.6883,145.6412 104.8,145.7333 105.0294,145.8781 105.3104,145.9167 105.632,145.8552 105.9833,145.7 106.3534,145.4573 106.7312,145.1333 107.106,144.7344 107.4667,144.2667 107.8512,143.7944 108.2069,143.4165 108.5371,143.1315 108.8448,142.9376 109.1333,142.8333 109.4059,142.8171 109.6656,142.8872 109.9157,143.0421 110.1595,143.2803 110.4,143.6 110.5839,143.8305 110.8262,144.0276 111.1199,144.192 111.4583,144.3249 111.8343,144.4271 112.241,144.4995 112.6716,144.5432 113.1191,144.5591 113.5767,144.5481 114.0373,144.5112 114.4942,144.4493 114.9403,144.3635 115.3689,144.2545 115.7728,144.1235 116.1454,143.9712 116.4796,143.7988 116.7685,143.6071 117.0052,143.3971 117.1829,143.1697 117.2946,142.9259 117.3333,142.6667 117.2854,142.4404 117.1475,142.2098 116.9284,141.9802 116.6369,141.7573 116.2817,141.5464 115.8716,141.3531 115.4155,141.1828 114.922,141.0411 114.4,140.9333 111.3333,140.4 114.4,140.1333 114.8326,140.1162 115.2263,140.0974 115.5817,140.0738 115.899,140.0422 116.179,139.9995 116.4219,139.9426 116.6282,139.8682 116.7984,139.7733 116.933,139.6546 117.0325,139.509 117.0972,139.3334 117.1276,139.1246 117.1243,138.8794 117.0876,138.5947 117.0181,138.2673 116.9161,137.8941 116.7822,137.4719 116.6168,136.9976 116.4203,136.4679 116.1933,135.8799 115.9361,135.2302 115.6493,134.5157 115.3333,133.7333 115.1806,133.363 115.0356,132.9835 114.8984,132.596 114.7691,132.2018 114.648,131.8023 114.535,131.3988 114.4305,130.9926 114.3343,130.5851 114.2469,130.1774 114.1681,129.771 114.0982,129.3672 114.0374,128.9673 113.9856,128.5725 113.9432,128.1843 113.9101,127.8039 113.8866,127.4326 113.8728,127.0718 113.8687,126.7227 113.8746,126.3867 113.8905,126.0652 113.9166,125.7593 113.9531,125.4705 114.0,125.2 114.0587,124.8919 114.1018,124.5682 114.1297,124.2302 114.1428,123.8791 114.1416,123.516 114.1265,123.142 114.098,122.7583 114.0563,122.3662 114.0021,121.9667 113.9356,121.561 113.8574,121.1503 113.7679,120.7358 113.6675,120.3186 113.5565,119.8999 113.4356,119.4809 113.305,119.0626 113.1652,118.6464 113.0167,118.2333 112.8598,117.8246 112.695,117.4213 112.5228,117.0247 112.3435,116.6359 112.1575,116.2561 111.9654,115.8864 111.7676,115.5281 111.5644,115.1822 111.3562,114.85 111.1437,114.5326 110.927,114.2312 110.7068,113.9469 110.4834,113.681 110.2572,113.4345 110.0286,113.2086 109.7982,113.0046 109.5663,112.8236 109.3333,112.6667 109.1258,112.5623 108.8757,112.4948 108.5878,112.4629 108.2667,112.4657 107.9172,112.5019 107.544,112.5705 107.1519,112.6705 106.7456,112.8007 106.3298,112.96 105.9093,113.1473 105.4888,113.3616 105.073,113.6018 104.6667,113.8667 104.1118,114.2098 103.6127,114.5005 103.1635,114.7384 102.7584,114.9231 102.3914,115.0543 102.0569,115.1317 101.749,115.1547 101.4618,115.1232 101.1896,115.0366 100.9264,114.8947 100.6665,114.6971 100.4041,114.4435 100.1333,114.1333 100.0362,113.9939 99.9525,113.8418 99.8822,113.6765 99.8256,113.4974 99.7828,113.3039 99.754,113.0956 99.7393,112.8717 99.739,112.6318 99.7531,112.3753 99.7818,112.1016 99.8254,111.8101 99.8839,111.5003 99.9575,111.1716 100.0464,110.8234 100.1507,110.4552 100.2707,110.0664 100.4064,109.6564 100.558,109.2247 100.7258,108.7706 100.9098,108.2937 101.1102,107.7933 101.3272,107.2689 101.561,106.7199 101.8116,106.1458 102.0793,105.5459 102.3643,104.9197 102.6667,104.2667 102.9181,103.7254 103.1603,103.1905 103.3927,102.663 103.6152,102.1442 103.8272,101.6352 104.0285,101.1372 104.2187,100.6514 104.3974,100.179 104.5642,99.7211 104.7189,99.2789 104.8611,98.8537 104.9903,98.4465 105.1063,98.0585 105.2087,97.691 105.2971,97.3451 105.3711,97.0219 105.4305,96.7228 105.4748,96.4487 105.5037,96.201 105.5168,95.9808 105.5138,95.7893 105.4943,95.6276 105.458,95.4969 105.4044,95.3984 105.3333,95.3333 105.2202,95.2703 105.0603,95.2146 104.8562,95.166 104.6105,95.1245 104.3259,95.0897 104.0049,95.0617 103.6502,95.0403 103.2644,95.0253 102.85,95.0167 102.4097,95.0142 101.9461,95.0177 101.4617,95.0272 100.9593,95.0424 100.4413,95.0632 99.9105,95.0895 99.3694,95.1212 98.8206,95.158 98.2667,95.2 97.5179,95.2706 96.8315,95.3293 96.2045,95.3753 95.634,95.4076 95.117,95.4251 94.6507,95.427 94.2321,95.4123 93.8582,95.3801 93.5261,95.3294 93.2329,95.2593 92.9757,95.1688 92.7514,95.0569 92.5572,94.9228 92.3901,94.7654 92.2472,94.5839 92.1256,94.3772 92.0223,94.1444 91.9343,93.8845 91.8588,93.5967 91.7928,93.28 91.7333,92.9333 91.6525,92.4302 91.542,91.9864 91.4,91.6 91.2247,91.2691 91.0142,90.992 90.7667,90.7667 90.4802,90.5914 90.1531,90.4642 89.7833,90.3833 89.3691,90.3469 88.9086,90.3531 88.4,90.4 88.049,90.4472 87.7255,90.4826 87.4286,90.5036 87.1571,90.5074 86.9098,90.4913 86.6857,90.4527 86.4835,90.3888 86.3023,90.297 86.1409,90.1745 85.9982,90.0188 85.873,89.8269 85.7643,89.5964 85.6709,89.3244 85.5916,89.0083 85.5255,88.6454 85.4713,88.233 85.428,87.7684 85.3944,87.2489 85.3695,86.6717 85.352,86.0343 85.3409,85.3339 85.335,84.5678 85.3333,83.7333 85.3351,83.4699 85.3404,83.1954 85.3491,82.9103 85.3611,82.6149 85.3765,82.3096 85.3951,81.995 85.4169,81.6713 85.4419,81.339 85.4699,80.9984 85.5009,80.65 85.5348,80.2942 85.5716,79.9314 85.6113,79.562 85.6537,79.1864 85.6988,78.8049 85.7465,78.4181 85.7968,78.0263 85.8496,77.6299 85.9049,77.2293 85.9625,76.8249 86.0225,76.4171 86.0847,76.0064 86.1492,75.593 86.2157,75.1776 86.2844,74.7603 86.3551,74.3417 86.4277,73.9221 86.5023,73.502 86.5786,73.0817 86.6568,72.6617 86.7366,72.2424 86.8182,71.8241 86.9013,71.4072 86.9859,70.9923 87.072,70.5796 87.1595,70.1696 87.2483,69.7627 87.3384,69.3592 87.4298,68.9597 87.5223,68.5644 87.6159,68.1739 87.7105,67.7884 87.8061,67.4084 87.9026,67.0344 88.0,66.6667 88.1413,66.0842 88.2793,65.5087 88.4136,64.9413 88.5442,64.3829 88.6707,63.8344 88.7929,63.2967 88.9104,62.7708 89.0231,62.2577 89.1307,61.7583 89.233,61.2736 89.3296,60.8044 89.4204,60.3518 89.5051,59.9167 89.5833,59.5 89.655,59.1027 89.7197,58.7258 89.7773,58.3701 89.8276,58.0366 89.8701,57.7264 89.9048,57.4402 89.9312,57.1792 89.9493,56.9441 89.9587,56.736 89.9592,56.5559 89.9505,56.4046 89.9323,56.2831 89.9045,56.1924 89.8667,56.1333 89.7442,56.0175 89.617,55.9297 89.4852,55.8696 89.3491,55.8365 89.2089,55.8302 89.0648,55.8501 88.917,55.8959 88.7659,55.9669 88.6115,56.0629 88.4542,56.1833 88.2941,56.3278 88.1315,56.4957 87.9666,56.6868 87.7996,56.9005 87.6307,57.1365 87.4603,57.3941 87.2884,57.6731 87.1154,57.9729 86.9414,58.2932 86.7667,58.6333 86.5915,58.993 86.416,59.3717 86.2404,59.7691 86.0651,60.1845 85.8901,60.6177 85.7158,61.0681 85.5423,61.5354 85.3699,62.0189 85.1988,62.5184 85.0292,63.0333 84.8613,63.5633 84.6955,64.1077 84.5318,64.6663 84.3706,65.2385 84.212,65.824 84.0563,66.4221 83.9037,67.0326 83.7544,67.6549 83.6086,68.2887 83.4667,68.9333 83.3785,69.3566 83.2869,69.7829 83.1922,70.2115 83.0945,70.642 82.994,71.0738 82.8909,71.5063 82.7853,71.939 82.6774,72.3713 82.5674,72.8028 82.4554,73.2327 82.3417,73.6607 82.2264,74.086 82.1097,74.5083 81.9917,74.9268 81.8726,75.3412 81.7527,75.7507 81.632,76.1549 81.5108,76.5532 81.3892,76.9451 81.2673,77.33 81.1455,77.7073 81.0238,78.0765 80.9024,78.4371 80.7815,78.7884 80.6612,79.13 80.5418,79.4613 80.4234,79.7817 80.3062,80.0907 80.1904,80.3878 80.0761,80.6723 79.9635,80.9437 79.8527,81.2015 79.744,81.4451 79.6376,81.674 79.5335,81.8876 79.4321,82.0853 79.3333,82.2667 78.933,82.9585 78.5878,83.5483 78.2956,84.0361 78.0544,84.4218 77.8622,84.7054 77.717,84.8871 77.6167,84.9667 77.5592,84.9442 77.5425,84.8197 77.5646,84.5932 77.6235,84.2646 77.717,83.834 77.8432,83.3014 78.0,82.6667 78.1456,82.1014 78.2845,81.5355 78.4167,80.9695 78.5422,80.404 78.661,79.8394 78.7732,79.2765 78.8787,78.7156 78.9777,78.1575 79.0701,77.6026 79.1559,77.0516 79.2352,76.5049 79.308,75.9631 79.3743,75.4269 79.4342,74.8967 79.4876,74.3732 79.5347,73.8568 79.5753,73.3481 79.6096,72.8478 79.6376,72.3564 79.6592,71.8743 79.6746,71.4023 79.6837,70.9408 79.6866,70.4904 79.6833,70.0516 79.6737,69.6252 79.6581,69.2114 79.6362,68.8111 79.6083,68.4247 79.5743,68.0527 79.5342,67.6958 79.488,67.3544 79.4359,67.0293 79.3777,66.7208 79.3136,66.4296 79.2435,66.1563 79.1675,65.9014 79.0856,65.6654 78.9979,65.4489 78.9042,65.2525 78.8048,65.0768 78.6996,64.9223 78.5885,64.7895 78.4718,64.6791 78.3493,64.5915 78.221,64.5274 78.0872,64.4874 77.9476,64.4718 77.8024,64.4814 77.6516,64.5167 77.4953,64.5783 77.3333,64.6667 77.2131,64.7092 77.1029,64.688 77.0032,64.6051 76.9146,64.4625 76.8377,64.262 76.7732,64.0057 76.7215,63.6955 76.6833,63.3333 76.6592,62.9212 76.6497,62.4609 76.6555,61.9546 76.6771,61.4042 76.7151,60.8115 76.7701,60.1786 76.8426,59.5075 76.9333,58.8 76.9792,58.3345 77.0198,57.8829 77.0549,57.4445 77.0845,57.0186 77.1082,56.6043 77.1261,56.2009 77.1378,55.8076 77.1434,55.4238 77.1425,55.0485 77.1351,54.6812 77.121,54.321 77.1,53.9671 77.0721,53.6189 77.0369,53.2755 76.9944,52.9362 76.9445,52.6003 76.8869,52.2669 76.8215,51.9354 76.7482,51.6049 76.6668,51.2748 76.5771,50.9442 76.479,50.6123 76.3723,50.2786 76.2569,49.9421 76.1327,49.6021 75.9994,49.258 75.8568,48.9088 75.705,48.5539 75.5436,48.1925 75.3726,47.8238 75.1918,47.4471 75.0009,47.0617 74.8,46.6667 74.6371,46.3349 74.4747,45.9921 74.3131,45.6393 74.1529,45.2777 73.9945,44.9082 73.8383,44.5319 73.6848,44.1498 73.5344,43.7632 73.3877,43.3728 73.2449,42.98 73.1066,42.5856 72.9732,42.1908 72.8452,41.7965 72.723,41.404 72.607,41.0142 72.4978,40.6281 72.3957,40.2469 72.3012,39.8716 72.2148,39.5032 72.1369,39.1429 72.0679,38.7916 72.0082,38.4504 71.9585,38.1204 71.919,37.8027 71.8902,37.4982 71.8726,37.2081 71.8667,36.9333 71.6,32.6667 71.0667,36.6667 71.0332,36.9134 70.9924,37.1788 70.9445,37.4617 70.8897,37.7611 70.8284,38.0759 70.7609,38.4049 70.6873,38.7471 70.6081,39.1014 70.5235,39.4667 70.4337,39.8418 70.3391,40.2257 70.24,40.6173 70.1366,41.0155 70.0292,41.4191 69.9181,41.8272 69.8036,42.2385 69.6859,42.652 69.5654,43.0667 69.4424,43.4813 69.3171,43.8948 69.1898,44.3062 69.0607,44.7142 68.9303,45.1179 68.7987,45.516 68.6663,45.9076 68.5333,46.2915 68.4,46.6667 68.2538,47.1226 68.1065,47.5803 67.9586,48.0381 67.8106,48.4945 67.663,48.9478 67.5165,49.3966 67.3714,49.8393 67.2283,50.2742 67.0879,50.6998 66.9505,51.1145 66.8167,51.5167 66.687,51.9048 66.562,52.2774 66.4422,52.6327 66.3281,52.9693 66.2202,53.2854 66.1191,53.5797 66.0252,53.8504 65.9392,54.0961 65.8616,54.3151 65.7927,54.5058 65.7333,54.6667 65.6307,55.0017 65.5231,55.2826 65.4111,55.5109 65.2953,55.688 65.1762,55.8153 65.0542,55.8942 64.9301,55.9261 64.8042,55.9125 64.6771,55.8547 64.5494,55.7542 64.4216,55.6124 64.2943,55.4307 64.1679,55.2106 64.043,54.9533 63.9202,54.6604 63.8,54.3333 63.6829,53.9734 63.5695,53.5821 63.4602,53.1608 63.3557,52.7109 63.2565,52.2339 63.1631,51.7312 63.076,51.2041 62.9958,50.6542 62.9231,50.0827 62.8583,49.4912 62.802,48.881 62.7547,48.2536 62.717,47.6104 62.6894,46.9528 62.6724,46.2822 62.6667,45.6 62.6623,44.911 62.6492,44.2593 62.6279,43.6448 62.5987,43.0677 62.5619,42.5278 62.5179,42.0251 62.4669,41.5595 62.4093,41.1312 62.3455,40.7399 62.2758,40.3858 62.2005,40.0687 62.12,39.7887 62.0346,39.5457 61.9446,39.3397 61.8504,39.1706 61.7523,39.0385 61.6507,38.9433 61.5459,38.885 61.4382,38.8636 61.3279,38.879 61.2155,38.9311 61.1012,39.0201 60.9853,39.1458 60.8683,39.3083 60.7505,39.5074 60.6321,39.7432 60.5135,40.0157 60.3952,40.3247 60.2773,40.6704 60.1602,41.0526 60.0443,41.4713 59.93,41.9266 59.8174,42.4183 59.7071,42.9465 59.5993,43.5111 59.4943,44.1122 59.3926,44.7495 59.2944,45.4233 59.2,46.1333 58.2667,53.7333 56.5333,48.5333 56.3828,48.1109 56.2362,47.6829 56.0937,47.2509 55.9556,46.8166 55.8222,46.3816 55.6937,45.9475 55.5704,45.516 55.4525,45.0888 55.3403,44.6674 55.2341,44.2536 55.1341,43.8489 55.0406,43.455 54.9538,43.0735 54.8741,42.7062 54.8016,42.3545 54.7366,42.0202 54.6793,41.7049 54.6301,41.4103 54.5892,41.1379 54.5569,40.8895 54.5333,40.6667 54.4839,40.2928 54.4093,40.0428 54.3106,39.9148 54.1891,39.9069 54.046,40.0175 53.8824,40.2447 53.6996,40.5867 53.4987,41.0417 53.281,41.6079 53.0477,42.2835 52.8,43.0667 51.2,48.1333 48.9333,38.5333 48.7488,37.7212 48.5672,36.9406 48.3886,36.1915 48.2129,35.4737 48.0401,34.7873 47.8701,34.1322 47.7029,33.5084 47.5384,32.9156 47.3767,32.354 47.2176,31.8234 47.0611,31.3238 46.9072,30.8552 46.7559,30.4173 46.6071,30.0103 46.4607,29.634 46.3168,29.2884 46.1752,28.9735 46.036,28.689 45.8991,28.4351 45.7645,28.2116 45.6321,28.0185 45.5018,27.8557 45.3737,27.7232 45.2477,27.6208 45.1238,27.5486 45.0019,27.5065 44.882,27.4944 44.764,27.5122 44.6479,27.56 44.5337,27.6375 44.4213,27.7449 44.3107,27.8819 44.2018,28.0486 44.0947,28.2449 43.9892,28.4708 43.8853,28.7261 43.783,29.0108 43.6822,29.3249 43.5829,29.6682 43.4851,30.0408 43.3887,30.4426 43.2937,30.8734"/>
    <polygon points="55.8667,59.3333 55.8605,59.7406 55.8424,60.1599 55.8131,60.5878 55.7729,61.0208 55.7226,61.4554 55.6628,61.888 55.5939,62.3152 55.5167,62.7333 55.4316,63.139 55.3393,63.5286 55.2404,63.8988 55.1354,64.2458 55.025,64.5663 54.9096,64.8568 54.79,65.1136 54.6667,65.3333 54.5435,65.4936 54.4283,65.6103 54.321,65.683 54.2213,65.7112 54.1289,65.6943 54.0437,65.6318 53.9654,65.5231 53.8937,65.3678 53.8285,65.1653 53.7696,64.9151 53.7167,64.6167 53.6695,64.2695 53.6279,63.873 53.5917,63.4267 53.5605,62.9301 53.5343,62.3826 53.5127,61.7837 53.4955,61.1329 53.4826,60.4296 53.4736,59.6734 53.4684,58.8637 53.4667,58.0 53.4857,57.1214 53.5066,56.3035 53.5297,55.5459 53.555,54.8481 53.5829,54.2096 53.6136,53.6301 53.6473,53.1089 53.6842,52.6458 53.7246,52.2403 53.7687,51.8918 53.8167,51.6 53.8688,51.3644 53.9252,51.1845 53.9863,51.06 54.0521,50.9902 54.123,50.9749 54.1992,51.0135 54.2808,51.1056 54.3681,51.2508 54.4614,51.4485 54.5608,51.6984 54.6667,52.0 54.7508,52.3055 54.8346,52.6312 54.9177,52.975 54.9998,53.3351 55.0804,53.7094 55.1593,54.0959 55.2361,54.4927 55.3105,54.8978 55.382,55.3092 55.4505,55.7249 55.5154,56.143 55.5764,56.5614 55.6333,56.9781 55.6856,57.3913 55.733,57.7988 55.7752,58.1988 55.8117,58.5892 55.8423,58.968"/>
    <polygon points="64.0,60.6667 63.9805,61.2136 63.9243,61.7301 63.8344,62.2099 63.7141,62.6464 63.5667,63.0333 63.3952,63.3643 63.2029,63.6328 62.9931,63.8325 62.7688,63.9571 62.5333,64.0 62.2239,64.0556 61.9845,64.2161 61.8196,64.4723 61.7341,64.8148 61.7326,65.2342 61.8196,65.7213 62.0,66.2667 62.2111,66.9568 62.3111,67.4321 62.3,67.7 62.1778,67.7679 61.9444,67.6432 61.6,67.3333 61.4387,67.1366 61.2972,66.8919 61.1751,66.6036 61.0717,66.2756 60.9866,65.9122 60.9191,65.5176 60.8687,65.0958 60.835,64.6511 60.8173,64.1876 60.815,63.7094 60.8277,63.2208 60.8548,62.7258 60.8958,62.2286 60.95,61.7333 61.017,61.2442 61.0962,60.7654 61.1871,60.301 61.2891,59.8552 61.4016,59.4321 61.5242,59.036 61.6562,58.6708 61.7972,58.3409 61.9466,58.0504 62.1038,57.8033 62.2683,57.6039 62.4395,57.4564 62.6169,57.3648 62.8,57.3333 63.0167,57.3862 63.2203,57.5389 63.4074,57.7827 63.5748,58.1088 63.7191,58.5085 63.837,58.9728 63.9254,59.4932 63.9808,60.0607"/>
    <polygon points="73.2,52.0 73.1685,52.4319 73.0787,52.6958 72.9376,52.7872 72.7522,52.7013 72.5294,52.4334 72.2764,51.979 72.0,51.3333 71.8363,50.9538 71.6796,50.5525 71.5312,50.1354 71.3926,49.7086 71.265,49.2782 71.15,48.85 71.0488,48.4302 70.963,48.0247 70.8937,47.6396 70.8426,47.2809 70.8109,46.9546 70.8,46.6667 70.8315,46.2348 70.9213,45.9708 71.0624,45.8795 71.2478,45.9654 71.4706,46.2332 71.7236,46.6877 72.0,47.3333 72.1637,47.7129 72.3204,48.1142 72.4687,48.5312 72.6074,48.958 72.735,49.3885 72.85,49.8167 72.9512,50.2365 73.037,50.642 73.1062,51.0271 73.1574,51.3858 73.1891,51.7121"/>
    <polygon points="82.2667,89.6 82.1038,89.9032 81.9596,90.0175 81.8363,89.9499 81.7364,89.7073 81.6622,89.2968 81.6159,88.7254 81.6,88.0 81.6216,87.1679 81.684,86.5432 81.7833,86.1333 81.916,85.9457 82.0784,85.9877 82.2667,86.2667 82.3542,86.6451 82.4167,87.0687 82.4542,87.5206 82.4667,87.9833 82.4542,88.4398 82.4167,88.8729 82.3542,89.2654"/>
    <polygon points="70.1333,112.4 70.363,113.0093 70.637,113.4963 70.9333,113.85 71.2296,114.0593 71.5037,114.113 71.7333,114.0 71.8566,113.7901 71.8865,113.5125 71.8278,113.1813 71.6851,112.8105 71.4632,112.414 71.1666,112.0058 70.8,111.6 70.3557,111.2133 70.0208,110.9562 69.7922,110.8336 69.6667,110.85 69.6411,111.0102 69.7125,111.3187 69.8776,111.7805"/>
    <polygon points="56.8,107.3333 57.0654,107.8519 57.3235,108.3259 57.5667,108.7333 57.7877,109.0519 57.979,109.2593 58.1333,109.3333 58.2912,109.2277 58.4363,108.9365 58.5557,108.4981 58.6368,107.9509 58.6667,107.3333 58.6348,106.8867 58.5423,106.4704 58.3938,106.0983 58.194,105.7846 57.9475,105.5432 57.6591,105.3881 57.3333,105.3333 57.0346,105.4074 56.8099,105.6148 56.6667,105.9333 56.6123,106.3407 56.6543,106.8148"/>
    <polygon points="53.3333,113.3333 53.408,113.728 53.6107,114.0907 53.9093,114.3893 54.272,114.592 54.6667,114.6667 55.1125,114.592 55.4816,114.3893 55.7611,114.0907 55.9381,113.728 56.0,113.3333 55.9381,112.8875 55.7611,112.5184 55.4816,112.2389 55.1125,112.0619 54.6667,112.0 54.272,112.0619 53.9093,112.2389 53.6107,112.5184 53.408,112.8875"/>
    <polygon points="58.0,120.0 58.2677,120.3947 58.5739,120.7573 58.8928,121.056 59.1989,121.2587 59.4667,121.3333 59.6625,121.2187 59.8333,120.9167 59.9542,120.4896 60.0,120.0 59.9243,119.5541 59.7141,119.1851 59.3952,118.9056 58.9931,118.7285 58.5333,118.6667 58.1125,118.7625 57.8667,119.0333 57.8208,119.4542"/>
    <polygon points="64.0,129.3333 64.0757,129.728 64.2859,130.0907 64.6048,130.3893 65.0069,130.592 65.4667,130.6667 65.8875,130.5521 66.1333,130.25 66.1792,129.8229 66.0,129.3333 65.7323,128.8875 65.4261,128.5184 65.1072,128.2389 64.8011,128.0619 64.5333,128.0 64.3375,128.0958 64.1667,128.3667 64.0458,128.7875"/>
    <polygon points="50.6667,130.0 50.2673,130.5648 50.0049,131.0519 49.8833,131.45 49.9062,131.7481 50.0772,131.9352 50.4,132.0 50.6612,131.9578 50.9396,131.8375 51.2273,131.6484 51.5167,131.4 51.7997,131.1016 52.0687,130.7625 52.3159,130.3922 52.5333,130.0 52.7403,129.3824 52.8768,128.8352 52.9365,128.3968 52.9131,128.1056 52.8,128.0 52.6468,128.0548 52.4237,128.2099 52.1423,128.4513 51.8142,128.765 51.4511,129.137 51.0647,129.5534"/>
    <polygon points="45.3333,128.0 45.408,128.3947 45.6107,128.7573 45.9093,129.056 46.272,129.2587 46.6667,129.3333 47.1125,129.2587 47.4816,129.056 47.7611,128.7573 47.9381,128.3947 48.0,128.0 47.9381,127.5541 47.7611,127.1851 47.4816,126.9056 47.1125,126.7285 46.6667,126.6667 46.272,126.7285 45.9093,126.9056 45.6107,127.1851 45.408,127.5541"/>
    <polygon points="45.3333,120.0 45.4074,120.3302 45.6148,120.642 45.9333,120.9167 46.3407,121.1358 46.8148,121.2809 47.3333,121.3333 47.8519,121.2809 48.3259,121.1358 48.7333,120.9167 49.0519,120.642 49.2593,120.3302 49.3333,120.0 49.2785,119.6742 49.1234,119.3858 48.882,119.1394 48.5683,118.9396 48.1963,118.7911 47.78,118.6985 47.3333,118.6667 46.8867,118.6985 46.4704,118.7911 46.0983,118.9396 45.7846,119.1394 45.5432,119.3858 45.3881,119.6742"/>
    <polygon points="24.8,130.6667 24.7874,131.0668 24.7464,131.4066 24.6722,131.687 24.5602,131.9091 24.4055,132.074 24.2036,132.1829 23.9495,132.2368 23.6387,132.2368 23.2663,132.184 22.8276,132.0795 22.3179,131.9244 21.7325,131.7197 21.0667,131.4667 20.3579,131.1827 19.7636,130.9284 19.2812,130.7 18.9086,130.4938 18.6434,130.3062 18.4833,130.1333 18.426,129.9716 18.4691,129.8173 18.6104,129.6667 18.8475,129.516 19.1782,129.3617 19.6,129.2 20.2355,128.9828 20.8248,128.8018 21.3691,128.6575 21.8692,128.5502 22.3262,128.4801 22.7411,128.4477 23.1147,128.4532 23.4481,128.497 23.7422,128.5794 23.9981,128.7006 24.2167,128.8612 24.399,129.0613 24.546,129.3013 24.6586,129.5815 24.7378,129.9022 24.7846,130.2638"/>
    <polygon points="28.4,136.9333 28.0216,137.0208 27.5979,137.0833 27.1461,137.1208 26.6833,137.1333 26.2268,137.1208 25.7937,137.0833 25.4013,137.0208 25.0667,136.9333 24.7635,136.7705 24.6492,136.6262 24.7168,136.503 24.9594,136.4031 25.3699,136.3289 25.9413,136.2826 26.6667,136.2667 27.4988,136.2883 28.1235,136.3506 28.5333,136.45 28.721,136.5827 28.679,136.7451"/>
    <polygon points="29.3333,157.3333 29.3573,157.869 29.425,158.3687 29.5302,158.8216 29.6667,159.2167 29.8281,159.543 30.0083,159.7896 30.201,159.9456 30.4,160.0 30.5992,159.9456 30.7937,159.7896 30.9789,159.543 31.15,159.2167 31.3023,158.8216 31.4312,158.3687 31.532,157.869 31.6,157.3333 31.6253,156.7977 31.6021,156.2979 31.532,155.8451 31.4167,155.45 31.2576,155.1237 31.0562,154.8771 30.8143,154.7211 30.5333,154.6667 30.2904,154.7211 30.0646,154.8771 29.8607,155.1237 29.6833,155.45 29.5372,155.8451 29.4271,156.2979 29.3576,156.7977"/>
    <polygon points="71.6,192.2667 71.4371,192.5699 71.2929,192.6842 71.1697,192.6165 71.0698,192.374 70.9955,191.9635 70.9493,191.392 70.9333,190.6667 70.9549,189.8346 71.0173,189.2099 71.1167,188.8 71.2494,188.6123 71.4117,188.6543 71.6,188.9333 71.6875,189.3117 71.75,189.7354 71.7875,190.1872 71.8,190.65 71.7875,191.1065 71.75,191.5396 71.6875,191.932"/>
    <polygon points="112.9333,205.3333 113.0647,205.7723 113.216,206.2048 113.3833,206.6245 113.5627,207.0251 113.75,207.4 113.9413,207.7429 114.1327,208.0475 114.32,208.3072 114.4993,208.5157 114.6667,208.6667 114.9556,208.7593 115.1556,208.6519 115.2667,208.3667 115.2889,207.9259 115.2222,207.3519 115.0667,206.6667 114.9353,206.2277 114.784,205.7952 114.6167,205.3755 114.4373,204.9749 114.25,204.6 114.0587,204.2571 113.8673,203.9525 113.68,203.6928 113.5007,203.4843 113.3333,203.3333 113.0444,203.2407 112.8444,203.3481 112.7333,203.6333 112.7111,204.0741 112.7778,204.6481"/>
    <polygon points="108.8,164.8 109.2185,165.1143 109.6108,165.4399 109.9743,165.7739 110.3065,166.1133 110.6049,166.4553 110.8668,166.7969 111.0898,167.1352 111.2712,167.4674 111.4086,167.7904 111.4994,168.1015 111.5411,168.3976 111.531,168.6758 111.4667,168.9333 111.2667,169.6062 111.2667,170.0167 111.4667,170.1521 111.8667,170.0 112.229,169.8648 112.6321,169.8519 113.05,169.95 113.4568,170.1481 113.8265,170.4352 114.1333,170.8 114.3723,171.3301 114.4448,171.6491 114.3445,171.7696 114.0651,171.7045 113.6,171.4667 113.0752,171.2416 112.6336,171.2021 112.2944,171.3419 112.0768,171.6544 112.0,172.1333 111.97,172.303 111.8826,172.4132 111.7415,172.4657 111.5506,172.4622 111.3137,172.4045 111.0344,172.2943 110.7167,172.1333 110.3642,171.9234 109.9809,171.6663 109.5705,171.3637 109.1367,171.0173 108.6834,170.629 108.2143,170.2004 107.7333,169.7333 107.416,169.4371 107.0908,169.1401 106.759,168.8434 106.4219,168.5477 106.0807,168.254 105.7367,167.963 105.3911,167.6756 105.0452,167.3927 104.7002,167.1151 104.3574,166.8437 104.018,166.5793 103.6833,166.3228 103.3545,166.0751 103.0328,165.8369 102.7196,165.6092 102.416,165.3928 102.1234,165.1886 101.8429,164.9974 101.5758,164.8201 101.3234,164.6575 101.0869,164.5105 100.8676,164.3799 100.6667,164.2667 100.1559,163.9535 99.7333,163.6881 99.4017,163.4659 99.164,163.2828 99.0232,163.1342 98.9822,163.0159 99.0438,162.9234 99.2111,162.8524 99.4869,162.7985 99.8741,162.7573 100.3756,162.7246 100.9944,162.6958 101.7333,162.6667 102.0587,162.6743 102.4018,162.6969 102.7605,162.7338 103.1324,162.7845 103.5154,162.8484 103.9073,162.9249 104.3058,163.0134 104.7088,163.1133 105.1139,163.2241 105.5191,163.3451 105.9221,163.4758 106.3206,163.6156 106.7125,163.7639 107.0955,163.9202 107.4674,164.0838 107.826,164.2541 108.1692,164.4307 108.4946,164.6128"/>
    <polygon points="90.2667,152.9333 90.0123,153.1846 89.7877,153.521 89.6,153.9167 89.4568,154.3457 89.3654,154.7821 89.3333,155.2 89.4101,155.5691 89.6277,155.7205 89.9669,155.6608 90.4085,155.3963 90.9333,154.9333 91.2988,154.5154 91.5901,154.079 91.8,153.65 91.921,153.2543 91.9457,152.9179 91.8667,152.6667 91.5042,152.4646 91.0667,152.45 90.6292,152.6104"/>
    <polygon points="94.1333,137.0667 93.611,137.5552 93.1765,137.9525 92.8292,138.2562 92.5679,138.4642 92.3918,138.574 92.3,138.5833 92.2915,138.4899 92.3654,138.2914 92.5208,137.9854 92.7568,137.5698 93.0724,137.0421 93.4667,136.4 93.7816,135.8877 94.0999,135.4226 94.4148,135.0123 94.7199,134.6647 95.0085,134.3872 95.2741,134.1877 95.51,134.0737 95.7097,134.053 95.8667,134.1333 95.9565,134.2603 95.9629,134.4574 95.8914,134.716 95.7474,135.0273 95.5365,135.3825 95.2642,135.7728 94.9359,136.1895 94.5571,136.6237"/>
    <polygon points="100.0,135.0667 99.9795,135.1328 99.9193,135.2357 99.8212,135.3734 99.6869,135.5441 99.5183,135.7457 99.3171,135.9763 99.0851,136.2339 98.8241,136.5165 98.536,136.8223 98.2224,137.1493 97.8852,137.4955 97.5262,137.8589 97.1472,138.2377 96.75,138.6298 96.3363,139.0333 95.9079,139.4462 95.4667,139.8667 94.9184,140.4052 94.4026,140.892 93.9184,141.3278 93.4649,141.7134 93.0414,142.0497 92.647,142.3375 92.281,142.5776 91.9425,142.7707 91.6307,142.9178 91.3448,143.0197 91.084,143.077 90.8474,143.0908 90.6343,143.0617 90.4438,142.9906 90.2751,142.8783 90.1275,142.7256 90.0,142.5333 89.6479,141.9396 89.5833,141.5833 89.7937,141.5021 90.2667,141.7333 90.4115,141.8102 90.5937,141.8422 90.8104,141.8312 91.0583,141.7792 91.3344,141.6881 91.6354,141.5599 91.9583,141.3965 92.3,141.2 92.6573,140.9722 93.0271,140.7151 93.4062,140.4307 93.7917,140.1208 94.1802,139.7876 94.5687,139.4328 94.9542,139.0585 95.3333,138.6667 95.9426,138.038 96.5011,137.4689 97.0106,136.9576 97.4729,136.5029 97.8897,136.1033 98.2629,135.7572 98.5942,135.4632 98.8855,135.2198 99.1385,135.0256 99.355,134.8792 99.5369,134.7789 99.6859,134.7235 99.8037,134.7114 99.8923,134.7411 99.9533,134.8112 99.9886,134.9202"/>
    <polygon points="101.7333,130.0 101.4667,130.6517 101.168,131.1499 100.8693,131.4688 100.6027,131.5829 100.4,131.4667 100.2229,131.1819 100.1675,130.8203 100.2272,130.4011 100.3957,129.9435 100.6667,129.4667 101.0133,128.902 101.328,128.4853 101.6027,128.2127 101.8293,128.08 102.0,128.0833 102.1067,128.2187 102.1413,128.482 102.096,128.8693 101.9627,129.3767"/>
    <polygon points="108.0,128.5333 107.9518,128.669 107.8146,128.8687 107.5992,129.1216 107.3167,129.4167 106.9779,129.743 106.5937,130.0896 106.1753,130.4456 105.7333,130.8 105.201,131.2263 104.7672,131.5595 104.4315,131.7989 104.193,131.944 104.0514,131.9941 104.0059,131.9486 104.056,131.807 104.2011,131.5685 104.4405,131.2328 104.7737,130.799 105.2,130.2667 105.6996,129.6709 106.1568,129.1648 106.5692,128.7499 106.9344,128.4277 107.25,128.2 107.5136,128.0683 107.7228,128.0341 107.8752,128.0992 107.9684,128.2651"/>
    <polygon points="102.2667,140.1333 102.6725,140.4999 103.0807,140.7965 103.4772,141.0185 103.848,141.1611 104.1792,141.2198 104.4568,141.1899 104.6667,141.0667 104.7796,140.837 104.7259,140.563 104.5167,140.2667 104.163,139.9704 103.6759,139.6963 103.0667,139.4667 102.4471,139.2109 101.9854,139.0458 101.6768,138.9745 101.5167,139.0 101.5003,139.1255 101.6229,139.3542 101.8799,139.6891"/>
    <polygon points="80.1333,247.4667 80.1648,248.1093 80.2519,248.563 80.3833,248.8167 80.5481,248.8593 80.7352,248.6796 80.9333,248.2667 81.0729,247.8534 81.1518,247.4262 81.1747,247.0037 81.1464,246.6045 81.0713,246.2472 80.9543,245.9506 80.8,245.7333 80.6025,245.5747 80.4198,245.6198 80.2667,245.85 80.158,246.2469 80.1086,246.792"/>
    <polygon points="61.6,250.6667 61.6159,251.392 61.6622,251.9635 61.7364,252.374 61.8363,252.6165 61.9596,252.6842 62.1038,252.5699 62.2667,252.2667 62.3542,251.932 62.4167,251.5396 62.4542,251.1065 62.4667,250.65 62.4542,250.1872 62.4167,249.7354 62.3542,249.3117 62.2667,248.9333 62.0784,248.6543 61.916,248.6123 61.7833,248.8 61.684,249.2099 61.6216,249.8346"/>
    <polygon points="60.2667,264.0 60.2826,264.7254 60.3289,265.2968 60.4031,265.7073 60.503,265.9499 60.6262,266.0175 60.7705,265.9032 60.9333,265.6 61.0208,265.2654 61.0833,264.8729 61.1208,264.4398 61.1333,263.9833 61.1208,263.5206 61.0833,263.0687 61.0208,262.6451 60.9333,262.2667 60.7451,261.9877 60.5827,261.9457 60.45,262.1333 60.3506,262.5432 60.2883,263.1679"/>
  </g>
</svg>
