<?xml version="1.0" encoding="UTF-8"?>
<!-- Generator: visioncortex VTracer 0.6.1 -->
<svg version="1.1" xmlns="http://www.w3.org/2000/svg" width="200" height="200">
<path d="M0 0 C66 0 132 0 200 0 C200 66 200 132 200 200 C134 200 68 200 0 200 C0 134 0 68 0 0 Z " fill="#FDFDFD" transform="translate(0,0)"/>
<path d="M0 0 C1.69911699 1.29172637 3.37023277 2.62180758 5 4 C6.09205989 4.76752148 7.19394236 5.52163688 8.3125 6.25 C9.6428125 7.11625 9.6428125 7.11625 11 8 C11.226875 7.401875 11.45375 6.80375 11.6875 6.1875 C13.41652741 3.30578765 14.92167728 2.32927572 18 1 C23.49802629 1.18429138 26.28082457 3.56911119 30 7.3125 C33.79353661 11.0418231 37.51941914 14.07569932 42 17 C42.86625 17.928125 43.7325 18.85625 44.625 19.8125 C45.800625 20.8953125 45.800625 20.8953125 47 22 C50.24552956 21.67367308 52.16903902 20.31359852 54.64453125 18.27734375 C55.32193359 17.73916016 55.99933594 17.20097656 56.69726562 16.64648438 C58.10226434 15.51132844 59.50079686 14.36812015 60.89257812 13.21679688 C64.45758554 10.40728772 66.32540594 9.07406522 70.94921875 8.56640625 C74 9 74 9 75 10 C75 15.75281451 73.21381796 18.65627365 69.38256836 22.85131836 C67 25 67 25 63.98583984 26.56738281 C60.33012714 28.57110679 57.24353226 30.44964851 55 34 C53.03254813 41.35661018 54.01086367 49.36058236 54.4375 56.875 C54.56514194 59.99321327 54.67561748 63.11116764 54.77198792 66.23049927 C54.83697952 68.16451731 54.92296145 70.09796855 55.03208923 72.02999878 C55.07104813 72.9016568 55.11000702 73.77331482 55.15014648 74.67138672 C55.19300278 75.43699921 55.23585907 76.20261169 55.28001404 76.99142456 C54.92337709 79.54962561 53.95467123 80.38778491 52 82 C51.01 81.67 50.02 81.34 49 81 C48.23217773 78.88623047 48.23217773 78.88623047 47.68359375 76.1171875 C47.47669922 75.11429687 47.26980469 74.11140625 47.05664062 73.078125 C46.85232422 72.02109375 46.64800781 70.9640625 46.4375 69.875 C46.02156409 67.80948544 45.60364075 65.74436995 45.18359375 63.6796875 C44.98604492 62.69782471 44.78849609 61.71596191 44.58496094 60.7043457 C44.09125072 58.42186322 43.52426431 56.20838655 42.85546875 53.97265625 C41.95573198 50.84617368 41.84214786 48.2359688 42 45 C36.97122241 47.64672505 35.74937136 49.75188591 34 55 C33.195625 55.144375 32.39125 55.28875 31.5625 55.4375 C29.07896294 55.74135249 29.07896294 55.74135249 28 57 C27.7367754 60.94836905 27.91002627 63.60379269 30 67 C29.01 67.495 29.01 67.495 28 68 C28 68.66 28 69.32 28 70 C28.99 70 29.98 70 31 70 C31.33 67.36 31.66 64.72 32 62 C32.66 62 33.32 62 34 62 C35.0778516 88.64780812 31.6671966 111.11865967 13.9453125 131.8984375 C4.62034456 141.97239885 -6.9275772 149.16492901 -20.796875 150.2109375 C-35.81652188 150.71678053 -46.64191213 145.48973791 -58 136 C-63.33633726 130.72129057 -67.60374526 124.69298553 -71 118 C-71 117.34 -71 116.68 -71 116 C-71.66 116 -72.32 116 -73 116 C-73 114.68 -73 113.36 -73 112 C-71.68 112 -70.36 112 -69 112 C-67.61328125 113.8359375 -67.61328125 113.8359375 -66.3125 116.375 C-60.92241425 125.98459732 -52.5881726 136.11046721 -42 140 C-42.26554687 139.41734375 -42.53109375 138.8346875 -42.8046875 138.234375 C-45.31708587 132.40267659 -46.59213456 126.98428273 -47.50390625 120.71484375 C-48.1072266 117.41320875 -49.17449764 114.81431613 -51 112 C-51.99 111.505 -51.99 111.505 -53 111 C-53 110.34 -53 109.68 -53 109 C-50.44114774 107.98968935 -47.87859624 106.99159855 -45.3125 106 C-44.59126953 105.71382813 -43.87003906 105.42765625 -43.12695312 105.1328125 C-39.28959679 103.6609498 -36.18433411 102.60385002 -32 103 C-32.08733973 105.08410658 -32.19552278 107.16734669 -32.3125 109.25 C-32.39951172 110.99023438 -32.39951172 110.99023438 -32.48828125 112.765625 C-33 116 -33 116 -34.46875 117.82421875 C-36.95757419 121.36063476 -36.84171872 125.33381702 -37.1875 129.5625 C-37.26935547 130.42552734 -37.35121094 131.28855469 -37.43554688 132.17773438 C-37.73983956 135.46869817 -38 138.69320557 -38 142 C-28.29501517 145.69083514 -17.5033973 145.06205818 -8 141 C0.6937406 136.99259115 0.6937406 136.99259115 7 130 C6.34 129.67 5.68 129.34 5 129 C5.33 127.68 5.66 126.36 6 125 C5.4225 125.185625 4.845 125.37125 4.25 125.5625 C1.6846617 126.06131578 0.41975217 125.96693874 -2 125 C-5.70808235 118.55738588 -5.48552252 110.26171326 -5.7890625 103.02734375 C-5.65874251 100.12250872 -5.65874251 100.12250872 -7 99 C-7.45765667 96.01110641 -7.70320951 93.01030352 -8 90 C-5.03 88.35 -2.06 86.7 1 85 C-1.62053295 81.789962 -1.62053295 81.789962 -4.67578125 81.58203125 C-9.0183587 82.12804275 -12.30905634 83.73129419 -16.1875 85.6875 C-17.70423326 86.42617936 -19.22116032 87.16446093 -20.73828125 87.90234375 C-21.8358374 88.4435083 -21.8358374 88.4435083 -22.95556641 88.99560547 C-32.95126183 93.90631612 -43.18390921 98.24681325 -54 101 C-54.7115625 101.185625 -55.423125 101.37125 -56.15625 101.5625 C-63.43603113 103.26426702 -70.55469802 103.19310582 -78 103 C-78 102.34 -78 101.68 -78 101 C-78.598125 100.896875 -79.19625 100.79375 -79.8125 100.6875 C-83.44814188 99.5448697 -84.65935126 97.52989804 -86.6875 94.375 C-88.34523232 90.11225975 -88.27073928 86.51232128 -88 82 C-86.02 82.33 -84.04 82.66 -82 83 C-82.02320313 81.84886719 -82.04640625 80.69773437 -82.0703125 79.51171875 C-82.19013541 70.88081069 -82.0386737 62.34446634 -81.1875 53.75 C-81.11740723 52.97744873 -81.04731445 52.20489746 -80.97509766 51.40893555 C-80.43434175 46.4638793 -79.15252489 42.5364462 -77 38 C-76.26382366 36.19033576 -75.53378584 34.37815057 -74.8125 32.5625 C-74.29623047 31.26505859 -74.29623047 31.26505859 -73.76953125 29.94140625 C-73.51558594 29.30074219 -73.26164062 28.66007812 -73 28 C-72.34 28 -71.68 28 -71 28 C-70.89558594 27.44699219 -70.79117188 26.89398438 -70.68359375 26.32421875 C-66.9578447 13.65667198 -55.358927 5.25819403 -44.8359375 -1.58984375 C-31.45713378 -8.2423894 -12.9804825 -6.76623231 0 0 Z M0 126 C0.66 126 1.32 126 2 126 C2 126.66 2 127.32 2 128 C1.01 127.67 0.02 127.34 -1 127 C-0.67 126.67 -0.34 126.34 0 126 Z " fill="#F7F7F7" transform="translate(106,28)"/>
<path d="M0 0 C5.49709309 0.21572894 8.28132631 2.5696162 12 6.3125 C15.79353661 10.0418231 19.51941914 13.07569932 24 16 C24.86625 16.928125 25.7325 17.85625 26.625 18.8125 C27.800625 19.8953125 27.800625 19.8953125 29 21 C32.24552956 20.67367308 34.16903902 19.31359852 36.64453125 17.27734375 C37.32193359 16.73916016 37.99933594 16.20097656 38.69726562 15.64648438 C40.10226434 14.51132844 41.50079686 13.36812015 42.89257812 12.21679688 C46.45758554 9.40728772 48.32540594 8.07406522 52.94921875 7.56640625 C56 8 56 8 57 9 C57 14.75281451 55.21381796 17.65627365 51.38256836 21.85131836 C49 24 49 24 45.98583984 25.56738281 C42.33012714 27.57110679 39.24353226 29.44964851 37 33 C35.03254813 40.35661018 36.01086367 48.36058236 36.4375 55.875 C36.56514194 58.99321327 36.67561748 62.11116764 36.77198792 65.23049927 C36.83697952 67.16451731 36.92296145 69.09796855 37.03208923 71.02999878 C37.07104813 71.9016568 37.11000702 72.77331482 37.15014648 73.67138672 C37.19300278 74.43699921 37.23585907 75.20261169 37.28001404 75.99142456 C36.92337709 78.54962561 35.95467123 79.38778491 34 81 C33.01 80.67 32.02 80.34 31 80 C30.23217773 77.88623047 30.23217773 77.88623047 29.68359375 75.1171875 C29.47669922 74.11429687 29.26980469 73.11140625 29.05664062 72.078125 C28.85232422 71.02109375 28.64800781 69.9640625 28.4375 68.875 C28.02156409 66.80948544 27.60364075 64.74436995 27.18359375 62.6796875 C26.98604492 61.69782471 26.78849609 60.71596191 26.58496094 59.7043457 C26.09125072 57.42186322 25.52426431 55.20838655 24.85546875 52.97265625 C23.95573198 49.84617368 23.84214786 47.2359688 24 44 C18.97122241 46.64672505 17.74937136 48.75188591 16 54 C15.195625 54.144375 14.39125 54.28875 13.5625 54.4375 C11.07896294 54.74135249 11.07896294 54.74135249 10 56 C9.7367754 59.94836905 9.91002627 62.60379269 12 66 C11.01 66.495 11.01 66.495 10 67 C10 67.66 10 68.32 10 69 C10.99 69 11.98 69 13 69 C13.33 66.36 13.66 63.72 14 61 C14.66 61 15.32 61 16 61 C17.0778516 87.64780812 13.6671966 110.11865967 -4.0546875 130.8984375 C-13.37965544 140.97239885 -24.9275772 148.16492901 -38.796875 149.2109375 C-53.81652188 149.71678053 -64.64191213 144.48973791 -76 135 C-81.33633726 129.72129057 -85.60374526 123.69298553 -89 117 C-89 116.34 -89 115.68 -89 115 C-89.66 115 -90.32 115 -91 115 C-91 113.68 -91 112.36 -91 111 C-89.68 111 -88.36 111 -87 111 C-85.61328125 112.8359375 -85.61328125 112.8359375 -84.3125 115.375 C-78.92241425 124.98459732 -70.5881726 135.11046721 -60 139 C-60.26554687 138.41734375 -60.53109375 137.8346875 -60.8046875 137.234375 C-63.31708587 131.40267659 -64.59213456 125.98428273 -65.50390625 119.71484375 C-66.1072266 116.41320875 -67.17449764 113.81431613 -69 111 C-69.99 110.505 -69.99 110.505 -71 110 C-71 109.34 -71 108.68 -71 108 C-68.44114774 106.98968935 -65.87859624 105.99159855 -63.3125 105 C-62.59126953 104.71382813 -61.87003906 104.42765625 -61.12695312 104.1328125 C-57.28959679 102.6609498 -54.18433411 101.60385002 -50 102 C-50.08733973 104.08410658 -50.19552278 106.16734669 -50.3125 108.25 C-50.39951172 109.99023438 -50.39951172 109.99023438 -50.48828125 111.765625 C-51 115 -51 115 -52.46875 116.82421875 C-54.95757419 120.36063476 -54.84171872 124.33381702 -55.1875 128.5625 C-55.26935547 129.42552734 -55.35121094 130.28855469 -55.43554688 131.17773438 C-55.73983956 134.46869817 -56 137.69320557 -56 141 C-46.29501517 144.69083514 -35.5033973 144.06205818 -26 140 C-17.3062594 135.99259115 -17.3062594 135.99259115 -11 129 C-11.66 128.67 -12.32 128.34 -13 128 C-12.505 126.02 -12.505 126.02 -12 124 C-12.5775 124.185625 -13.155 124.37125 -13.75 124.5625 C-16.3153383 125.06131578 -17.58024783 124.96693874 -20 124 C-23.70808235 117.55738588 -23.48552252 109.26171326 -23.7890625 102.02734375 C-23.65874251 99.12250872 -23.65874251 99.12250872 -25 98 C-25.45765667 95.01110641 -25.70320951 92.01030352 -26 89 C-23.03 87.35 -20.06 85.7 -17 84 C-19.62053295 80.789962 -19.62053295 80.789962 -22.67578125 80.58203125 C-27.0183587 81.12804275 -30.30905634 82.73129419 -34.1875 84.6875 C-35.70423326 85.42617936 -37.22116032 86.16446093 -38.73828125 86.90234375 C-39.8358374 87.4435083 -39.8358374 87.4435083 -40.95556641 87.99560547 C-50.95126183 92.90631612 -61.18390921 97.24681325 -72 100 C-72.7115625 100.185625 -73.423125 100.37125 -74.15625 100.5625 C-81.43603113 102.26426702 -88.55469802 102.19310582 -96 102 C-96 101.34 -96 100.68 -96 100 C-96.598125 99.896875 -97.19625 99.79375 -97.8125 99.6875 C-101.23141365 98.61298428 -102.50388215 96.91390131 -104.1875 93.8125 C-105.26624493 90.07838293 -105.13157411 86.88143619 -105 83 C-101 87.75 -101 87.75 -101 90 C-96.78130139 90.80053618 -92.79231426 91.1352198 -88.5 91.125 C-87.4171875 91.12757812 -86.334375 91.13015625 -85.21875 91.1328125 C-82.06609647 91.00272728 -79.09701934 90.5876874 -76 90 C-76 89.34 -76 88.68 -76 88 C-74.9790625 87.5978125 -74.9790625 87.5978125 -73.9375 87.1875 C-66.97177651 84.37156923 -60.27767603 81.22449775 -53.609375 77.76757812 C-49.81076893 75.81869489 -46.10491261 74.23909901 -42 73 C-42 72.34 -42 71.68 -42 71 C-40.12890625 69.703125 -40.12890625 69.703125 -37.5625 68.25 C-29.92179289 63.80547601 -22.81075579 58.99152755 -15.9453125 53.41796875 C-14 52 -14 52 -11 51 C-11 51.99 -11 52.98 -11 54 C-10.34 54 -9.68 54 -9 54 C-6.87381298 58.73559836 -5.4573037 62.89943707 -4 68 C-8.29 70.64 -12.58 73.28 -17 76 C-15.35 75.67 -13.7 75.34 -12 75 C-11.67 74.34 -11.34 73.68 -11 73 C-10.01 73 -9.02 73 -8 73 C-6.26776336 71.05651499 -4.60118397 69.05279996 -3 67 C-2.34 66.34 -1.68 65.68 -1 65 C-0.525625 65.495 -0.05125 65.99 0.4375 66.5 C1.75923698 68.11542197 1.75923698 68.11542197 3 68 C2.566875 67.030625 2.13375 66.06125 1.6875 65.0625 C0.46462256 62.24703798 -0.49290553 59.43863473 -1.375 56.5 C-2.40683049 53.24363173 -3.65861033 50.88550822 -5.75 48.1875 C-8 45 -8 45 -7.640625 42.80078125 C-7.42921875 42.20652344 -7.2178125 41.61226562 -7 41 C-5.35 40.67 -3.7 40.34 -2 40 C-2 40.66 -2 41.32 -2 42 C0.74666836 42.86054011 0.74666836 42.86054011 4 43 C6.79669666 41.40284838 6.79669666 41.40284838 9.25 39.0625 C13.8490566 35 13.8490566 35 16 35 C15.52823811 27.45180972 12.31834724 22.26309168 7 17 C6.07743314 15.83314783 5.18103819 14.64510715 4.3125 13.4375 C3.87550781 12.83808594 3.43851562 12.23867188 2.98828125 11.62109375 C2 10 2 10 2 8 C1.34 8 0.68 8 0 8 C-0.38063221 5.6739143 -0.71269945 3.33944736 -1 1 C-0.67 0.67 -0.34 0.34 0 0 Z M-18 125 C-17.34 125 -16.68 125 -16 125 C-16 125.66 -16 126.32 -16 127 C-16.99 126.67 -17.98 126.34 -19 126 C-18.67 125.67 -18.34 125.34 -18 125 Z " fill="#F1F1F1" transform="translate(124,29)"/>
<path d="M0 0 C1.70840783 1.27941325 3.37965158 2.61074605 5 4 C5.63421875 4.50660156 6.2684375 5.01320313 6.921875 5.53515625 C14.89970604 12.20039543 22.16438911 20.23662682 26 30 C25.67 30.99 25.34 31.98 25 33 C24.34 33 23.68 33 23 33 C22.67 33.99 22.34 34.98 22 36 C19.13275314 35.42655063 18.1385485 35.1385485 16 33 C13.67319705 32.33022506 13.67319705 32.33022506 11 33 C7.34837217 35.57815935 5.28068296 38.26487796 3.6875 42.4375 C-0.25491282 50.76037152 -10.40360198 55.32857019 -18 60 C-17.6875 58.0625 -17.6875 58.0625 -17 56 C-16.01 55.67 -15.02 55.34 -14 55 C-14 54.34 -14 53.68 -14 53 C-14.66 53 -15.32 53 -16 53 C-17.39151652 48.20699867 -16.68662689 43.84864218 -16 39 C-15.34 39 -14.68 39 -14 39 C-14 40.32 -14 41.64 -14 43 C-13.34 43 -12.68 43 -12 43 C-12 43.66 -12 44.32 -12 45 C-11.01 44.34 -10.02 43.68 -9 43 C-7.34450469 42.61500109 -5.6777567 42.27206865 -4 42 C-3.34 39.69 -2.68 37.38 -2 35 C-2.33 34.67 -2.66 34.34 -3 34 C-3.66 36.31 -4.32 38.62 -5 41 C-5.66 41 -6.32 41 -7 41 C-7 40.34 -7 39.68 -7 39 C-7.99 39 -8.98 39 -10 39 C-10.625 36.6875 -10.625 36.6875 -11 34 C-10.34 33.01 -9.68 32.02 -9 31 C-8.64034628 29.67860558 -8.32960638 28.34316351 -8.0625 27 C-7.48019487 24.54890166 -7.03630296 23.05445445 -5.625 20.9375 C-4 20 -4 20 -2 20.1875 C0 21 0 21 3 23 C6.07665027 22.91778291 6.07665027 22.91778291 9 22 C9.99 20.515 9.99 20.515 11 19 C9.68 19 8.36 19 7 19 C6.979375 17.96875 6.95875 16.9375 6.9375 15.875 C5.69090579 10.7224106 3.35007195 8.8202824 -1 6 C-3.31098553 4.8109823 -5.55263629 3.89903157 -8 3 C-8 2.34 -8 1.68 -8 1 C-10.97 1 -13.94 1 -17 1 C-17 2.32 -17 3.64 -17 5 C-17.25420122 6.83890247 -17.54866417 8.67251936 -17.875 10.5 C-18.03742188 11.4384375 -18.19984375 12.376875 -18.3671875 13.34375 C-18.96576467 15.85629614 -19.81592312 17.72508064 -21 20 C-21.11601563 20.68320312 -21.23203125 21.36640625 -21.3515625 22.0703125 C-22.28470864 24.84726546 -23.8728954 25.44175562 -26.375 26.875 C-30.40362777 29.38568694 -32.36113775 31.41118569 -34 36 C-36 34 -36 34 -36.1953125 31.6171875 C-36.17210937 30.71226563 -36.14890625 29.80734375 -36.125 28.875 C-36.10695312 27.96492188 -36.08890625 27.05484375 -36.0703125 26.1171875 C-36.04710937 25.41851562 -36.02390625 24.71984375 -36 24 C-35.34 24 -34.68 24 -34 24 C-33.94608007 22.20866022 -33.90724429 20.41686101 -33.875 18.625 C-33.85179687 17.62726562 -33.82859375 16.62953125 -33.8046875 15.6015625 C-33.72783152 12.83737827 -33.72783152 12.83737827 -36 11 C-35.6730244 8.38419521 -35.17960932 6.35921863 -34 4 C-33.01 4 -32.02 4 -31 4 C-31 3.34 -31 2.68 -31 2 C-34.16717283 3.58358642 -35.73268318 4.45263699 -37.3125 7.6875 C-37.539375 8.450625 -37.76625 9.21375 -38 10 C-38.99 10 -39.98 10 -41 10 C-41 8.02 -41 6.04 -41 4 C-41.99 4 -42.98 4 -44 4 C-44.33 5.65 -44.66 7.3 -45 9 C-45.495 8.01 -45.495 8.01 -46 7 C-46.99 7.33 -47.98 7.66 -49 8 C-49.70105843 9.65249487 -50.35800351 11.32367583 -51 13 C-52.58975388 15.71666802 -54.284506 18.36128214 -56 21 C-52.16115605 18.27240035 -50.64598707 16.35010868 -49 12 C-48.01 11.67 -47.02 11.34 -46 11 C-46.33 11.556875 -46.66 12.11375 -47 12.6875 C-48.1309601 15.30284522 -48.15662974 17.1806646 -48 20 C-47.34 18.02 -46.68 16.04 -46 14 C-44.35 13.67 -42.7 13.34 -41 13 C-39.96409801 18.05002222 -39.89748328 22.87416389 -40 28 C-40.66 28 -41.32 28 -42 28 C-42.33 29.65 -42.66 31.3 -43 33 C-43.66 33 -44.32 33 -45 33 C-46.20577428 28.05632546 -45.6290678 24.79137588 -44 20 C-44.66 20 -45.32 20 -46 20 C-46.185625 21.423125 -46.185625 21.423125 -46.375 22.875 C-47 26 -47 26 -49 28 C-49 28.66 -49 29.32 -49 30 C-49.66 30 -50.32 30 -51 30 C-51 29.01 -51 28.02 -51 27 C-52.98 27.495 -52.98 27.495 -55 28 C-55 28.66 -55 29.32 -55 30 C-55.66 30 -56.32 30 -57 30 C-57.23428313 34.7897321 -57.23428313 34.7897321 -55 39 C-55 39.99 -55 40.98 -55 42 C-51.70077803 39.80051868 -51.57190099 39.49675855 -50.8125 35.875 C-50.4103125 33.956875 -50.4103125 33.956875 -50 32 C-48.68 32.33 -47.36 32.66 -46 33 C-46.33 34.32 -46.66 35.64 -47 37 C-46.01 36.67 -45.02 36.34 -44 36 C-44 37.65 -44 39.3 -44 41 C-43.34 41 -42.68 41 -42 41 C-41.505 46.445 -41.505 46.445 -41 52 C-42.32 52 -43.64 52 -45 52 C-45 50.68 -45 49.36 -45 48 C-45.99 48.33 -46.98 48.66 -48 49 C-48 49.66 -48 50.32 -48 51 C-47.34 51 -46.68 51 -46 51 C-46 52.32 -46 53.64 -46 55 C-47.6396875 55.495 -47.6396875 55.495 -49.3125 56 C-51.74356229 57.012535 -52.76595748 57.56484109 -54.02734375 59.91015625 C-54.49794447 61.31178325 -54.92388093 62.72945757 -55.296875 64.16015625 C-56 66 -56 66 -59 68 C-59.2502157 71.08365871 -59.2502157 71.08365871 -59 74 C-59.66 74 -60.32 74 -61 74 C-61.33 72.35 -61.66 70.7 -62 69 C-62.66 69 -63.32 69 -64 69 C-64 69.66 -64 70.32 -64 71 C-66.475 71.495 -66.475 71.495 -69 72 C-69 74.64 -69 77.28 -69 80 C-68.01 80.33 -67.02 80.66 -66 81 C-66 80.34 -66 79.68 -66 79 C-65.34 79 -64.68 79 -64 79 C-64 80.65 -64 82.3 -64 84 C-70.625 84.25 -70.625 84.25 -74 82 C-75.26667889 79.40409017 -76.0703807 76.74459031 -77 74 C-77.33 77.3 -77.66 80.6 -78 84 C-81 82 -81 82 -81.6875 79.625 C-82.42406775 71.08081407 -82.00132252 62.70836167 -81.1875 54.1875 C-81.11748779 53.38739502 -81.04747559 52.58729004 -80.9753418 51.76293945 C-80.43634954 46.60140343 -79.23938672 42.68031825 -77 38 C-76.26382366 36.19033576 -75.53378584 34.37815057 -74.8125 32.5625 C-74.46832031 31.69753906 -74.12414062 30.83257812 -73.76953125 29.94140625 C-73.51558594 29.30074219 -73.26164062 28.66007812 -73 28 C-72.34 28 -71.68 28 -71 28 C-70.84337891 27.17048828 -70.84337891 27.17048828 -70.68359375 26.32421875 C-66.9578447 13.65667198 -55.358927 5.25819403 -44.8359375 -1.58984375 C-31.45713378 -8.2423894 -12.9804825 -6.76623231 0 0 Z " fill="#0A0A0A" transform="translate(106,28)"/>
<path d="M0 0 C2.375 2 2.375 2 4 4 C-1.625 7.875 -1.625 7.875 -5 9 C-4.85950482 10.47968324 -4.71245174 11.95874516 -4.5625 13.4375 C-4.48128906 14.26121094 -4.40007812 15.08492187 -4.31640625 15.93359375 C-4.21069185 17.98662025 -4.21069185 17.98662025 -3 19 C-2.7623695 22.09296835 -2.60483681 25.17815582 -2.48242188 28.27734375 C-2.27447466 32.27149963 -1.61652795 35.35794305 0 39 C0.125 41.8125 0.125 41.8125 0 44 C3.19902639 44.08886184 5.92677456 43.91058531 9 43 C8.835 43.7425 8.67 44.485 8.5 45.25 C7.88074304 48.19006578 7.88074304 48.19006578 8 52 C1.28149106 59.29438114 -9.56470948 63.60861391 -19.33984375 64.203125 C-20.52707031 64.21859375 -21.71429688 64.2340625 -22.9375 64.25 C-24.12214844 64.27578125 -25.30679688 64.3015625 -26.52734375 64.328125 C-30.48896299 63.95379877 -32.78117486 63.36015197 -36 61 C-37.43431336 56.01029122 -36.93064722 51.4121977 -36.25 46.3125 C-36.09015625 45.02988281 -35.9303125 43.74726563 -35.765625 42.42578125 C-34.99562546 38.98042618 -34.08842526 37.70825201 -32 35 C-31.46374989 32.25766741 -31.46374989 32.25766741 -31.375 29.375 C-31.081571 24.16314199 -31.081571 24.16314199 -30 22 C-36.55777553 23.86897132 -36.55777553 23.86897132 -42.9375 26.25 C-45 27 -45 27 -48 26 C-48.66 25.34 -49.32 24.68 -50 24 C-49.34 24 -48.68 24 -48 24 C-48 22.68 -48 21.36 -48 20 C-49.32 19.67 -50.64 19.34 -52 19 C-51.04996094 18.74476562 -50.09992187 18.48953125 -49.12109375 18.2265625 C-34.78661708 14.11866479 -21.14511088 7.96326217 -8 1 C-5.15916359 -0.42041821 -3.14522722 -0.31452272 0 0 Z M2 45 C1.67 45.66 1.34 46.32 1 47 C1.99 47 2.98 47 4 47 C4 46.34 4 45.68 4 45 C3.34 45 2.68 45 2 45 Z " fill="#F8F8F8" transform="translate(104,109)"/>
<path d="M0 0 C5.49709309 0.21572894 8.28132631 2.5696162 12 6.3125 C15.79353661 10.0418231 19.51941914 13.07569932 24 16 C24.86625 16.928125 25.7325 17.85625 26.625 18.8125 C27.40875 19.534375 28.1925 20.25625 29 21 C32.24552956 20.67367308 34.16903902 19.31359852 36.64453125 17.27734375 C37.32193359 16.73916016 37.99933594 16.20097656 38.69726562 15.64648438 C40.10226434 14.51132844 41.50079686 13.36812015 42.89257812 12.21679688 C46.45758554 9.40728772 48.32540594 8.07406522 52.94921875 7.56640625 C56 8 56 8 57 9 C57 14.75281451 55.21381796 17.65627365 51.38256836 21.85131836 C49 24 49 24 45.98583984 25.56738281 C42.33012714 27.57110679 39.24353226 29.44964851 37 33 C35.03254813 40.35661018 36.01086367 48.36058236 36.4375 55.875 C36.56514194 58.99321327 36.67561748 62.11116764 36.77198792 65.23049927 C36.83697952 67.16451731 36.92296145 69.09796855 37.03208923 71.02999878 C37.07104813 71.9016568 37.11000702 72.77331482 37.15014648 73.67138672 C37.21443092 74.81980545 37.21443092 74.81980545 37.28001404 75.99142456 C36.92337709 78.54962561 35.95467123 79.38778491 34 81 C33.01 80.67 32.02 80.34 31 80 C30.23217773 77.88623047 30.23217773 77.88623047 29.68359375 75.1171875 C29.47669922 74.11429687 29.26980469 73.11140625 29.05664062 72.078125 C28.85232422 71.02109375 28.64800781 69.9640625 28.4375 68.875 C28.02156409 66.80948544 27.60364075 64.74436995 27.18359375 62.6796875 C26.98604492 61.69782471 26.78849609 60.71596191 26.58496094 59.7043457 C26.09125072 57.42186322 25.52426431 55.20838655 24.85546875 52.97265625 C23.95573198 49.84617368 23.84214786 47.2359688 24 44 C14.11700036 49.225157 14.11700036 49.225157 8.1328125 57.96875 C7.90153479 60.68801516 7.82987678 63.27802842 8 66 C5.525 66.99 5.525 66.99 3 68 C1.30125072 64.19803733 -0.17761218 60.48901199 -1.375 56.5 C-2.40683049 53.24363173 -3.65861033 50.88550822 -5.75 48.1875 C-8 45 -8 45 -7.640625 42.80078125 C-7.42921875 42.20652344 -7.2178125 41.61226562 -7 41 C-4.525 40.505 -4.525 40.505 -2 40 C-2 40.66 -2 41.32 -2 42 C0.74666836 42.86054011 0.74666836 42.86054011 4 43 C6.79669666 41.40284838 6.79669666 41.40284838 9.25 39.0625 C13.8490566 35 13.8490566 35 16 35 C15.52823811 27.45180972 12.31834724 22.26309168 7 17 C6.07743314 15.83314783 5.18103819 14.64510715 4.3125 13.4375 C3.87550781 12.83808594 3.43851563 12.23867188 2.98828125 11.62109375 C2 10 2 10 2 8 C1.34 8 0.68 8 0 8 C-0.38063221 5.6739143 -0.71269945 3.33944736 -1 1 C-0.67 0.67 -0.34 0.34 0 0 Z " fill="#0A0A0A" transform="translate(124,29)"/>
<path d="M0 0 C0.66 0 1.32 0 2 0 C2 0.99 2 1.98 2 3 C2.66 3 3.32 3 4 3 C6.07441999 7.62029906 7.64781457 12.10273711 9 17 C-8.00765832 28.09904766 -26.04740801 37.03887075 -45.02978516 44.20239258 C-47.22401897 45.05423547 -47.22401897 45.05423547 -50.08984375 46.609375 C-60.04438398 51.36617543 -72.19404001 51.45587644 -83 51 C-83 50.34 -83 49.68 -83 49 C-83.598125 48.896875 -84.19625 48.79375 -84.8125 48.6875 C-88.23141365 47.61298428 -89.50388215 45.91390131 -91.1875 42.8125 C-92.26624493 39.07838293 -92.13157411 35.88143619 -92 32 C-88 36.75 -88 36.75 -88 39 C-83.78130139 39.80053618 -79.79231426 40.1352198 -75.5 40.125 C-74.4171875 40.12757812 -73.334375 40.13015625 -72.21875 40.1328125 C-69.06609647 40.00272728 -66.09701934 39.5876874 -63 39 C-63 38.34 -63 37.68 -63 37 C-62.319375 36.731875 -61.63875 36.46375 -60.9375 36.1875 C-53.97177651 33.37156923 -47.27767603 30.22449775 -40.609375 26.76757812 C-36.81076893 24.81869489 -33.10491261 23.23909901 -29 22 C-29 21.34 -29 20.68 -29 20 C-27.12890625 18.703125 -27.12890625 18.703125 -24.5625 17.25 C-16.07154106 12.3108929 -6.9920561 6.9920561 0 0 Z " fill="#080808" transform="translate(111,80)"/>
<path d="M0 0 C0.66 0 1.32 0 2 0 C3.0778516 26.64780812 -0.3328034 49.11865967 -18.0546875 69.8984375 C-27.37965544 79.97239885 -38.9275772 87.16492901 -52.796875 88.2109375 C-67.81652188 88.71678053 -78.64191213 83.48973791 -90 74 C-95.33633726 68.72129057 -99.60374526 62.69298553 -103 56 C-103 55.34 -103 54.68 -103 54 C-103.66 54 -104.32 54 -105 54 C-105 52.68 -105 51.36 -105 50 C-103.68 50 -102.36 50 -101 50 C-99.61328125 51.8359375 -99.61328125 51.8359375 -98.3125 54.375 C-92.92241425 63.98459732 -84.5881726 74.11046721 -74 78 C-74.26554687 77.41734375 -74.53109375 76.8346875 -74.8046875 76.234375 C-77.31708587 70.40267659 -78.59213456 64.98428273 -79.50390625 58.71484375 C-80.1072266 55.41320875 -81.17449764 52.81431613 -83 50 C-83.66 49.67 -84.32 49.34 -85 49 C-85 48.34 -85 47.68 -85 47 C-82.44114774 45.98968935 -79.87859624 44.99159855 -77.3125 44 C-76.59126953 43.71382812 -75.87003906 43.42765625 -75.12695312 43.1328125 C-71.28959679 41.6609498 -68.18433411 40.60385002 -64 41 C-64.08733973 43.08410658 -64.19552278 45.16734669 -64.3125 47.25 C-64.39951172 48.99023438 -64.39951172 48.99023438 -64.48828125 50.765625 C-65 54 -65 54 -66.46875 55.82421875 C-68.95757419 59.36063476 -68.84171872 63.33381702 -69.1875 67.5625 C-69.26935547 68.42552734 -69.35121094 69.28855469 -69.43554688 70.17773438 C-69.73983956 73.46869817 -70 76.69320557 -70 80 C-60.29769275 83.68981685 -49.50054812 83.06513838 -40 79 C-23.8661663 71.4036533 -13.59288586 58.85349814 -7.31201172 42.17285156 C-3.91858621 32.73366797 -2.48185313 24.4137567 -3.01953125 14.390625 C-2.99984658 10.97336639 -2.42406658 9.05459635 -1 6 C-0.62406934 4.0075675 -0.28020455 2.0081326 0 0 Z " fill="#212121" transform="translate(138,90)"/>
<path d="M0 0 C5.48866297 1.57843902 9.7333563 3.06155967 14 7 C14.87205078 7.70576172 14.87205078 7.70576172 15.76171875 8.42578125 C23.82759621 15.06547213 31.14689544 23.19209747 35 33 C34.67 33.99 34.34 34.98 34 36 C33.34 36 32.68 36 32 36 C31.67 36.99 31.34 37.98 31 39 C28.13275314 38.42655063 27.1385485 38.1385485 25 36 C22.67319705 35.33022506 22.67319705 35.33022506 20 36 C16.34837217 38.57815935 14.28068296 41.26487796 12.6875 45.4375 C8.74508718 53.76037152 -1.40360198 58.32857019 -9 63 C-8.6875 61.0625 -8.6875 61.0625 -8 59 C-6.515 58.505 -6.515 58.505 -5 58 C-5 57.34 -5 56.68 -5 56 C-5.66 56 -6.32 56 -7 56 C-8.39151652 51.20699867 -7.68662689 46.84864218 -7 42 C-6.34 42 -5.68 42 -5 42 C-5 43.32 -5 44.64 -5 46 C-4.34 46 -3.68 46 -3 46 C-3 46.66 -3 47.32 -3 48 C-2.01 47.34 -1.02 46.68 0 46 C1.65549531 45.61500109 3.3222433 45.27206865 5 45 C5.66 42.69 6.32 40.38 7 38 C6.67 37.67 6.34 37.34 6 37 C5.34 39.31 4.68 41.62 4 44 C3.34 44 2.68 44 2 44 C2 43.34 2 42.68 2 42 C1.01 42 0.02 42 -1 42 C-1.625 39.6875 -1.625 39.6875 -2 37 C-1.34 36.01 -0.68 35.02 0 34 C0.35965372 32.67860558 0.67039362 31.34316351 0.9375 30 C1.51980513 27.54890166 1.96369704 26.05445445 3.375 23.9375 C5 23 5 23 7 23.1875 C9 24 9 24 12 26 C15.07665027 25.91778291 15.07665027 25.91778291 18 25 C18.66 24.01 19.32 23.02 20 22 C18.68 22 17.36 22 16 22 C15.979375 20.96875 15.95875 19.9375 15.9375 18.875 C14.69090579 13.7224106 12.35007195 11.8202824 8 9 C5.68901447 7.8109823 3.44736371 6.89903157 1 6 C1.33 5.34 1.66 4.68 2 4 C1.34 3.67 0.68 3.34 0 3 C0 2.01 0 1.02 0 0 Z " fill="#121212" transform="translate(97,25)"/>
<path d="M0 0 C0.33 1.98 0.66 3.96 1 6 C1.66 6 2.32 6 3 6 C4.5078125 7.8984375 4.5078125 7.8984375 6.125 10.375 C6.66382813 11.18710937 7.20265625 11.99921875 7.7578125 12.8359375 C9 15 9 15 9 17 C9.99 17.33 10.98 17.66 12 18 C13.640625 20.109375 13.640625 20.109375 15.25 22.75 C15.79140625 23.61109375 16.3328125 24.4721875 16.890625 25.359375 C18.21326052 28.50762012 18.2187462 29.83021375 17 33 C15.29296875 34.6953125 15.29296875 34.6953125 13.1875 36.125 C12.50042969 36.60195312 11.81335938 37.07890625 11.10546875 37.5703125 C10.41066406 38.04210937 9.71585938 38.51390625 9 39 C8.29746094 39.55945313 7.59492188 40.11890625 6.87109375 40.6953125 C5 42 5 42 2.875 41.75 C1 41 1 41 -1 40 C-1 39.34 -1 38.68 -1 38 C-2.65 38.66 -4.3 39.32 -6 40 C-5.36401607 43.40484082 -4.02774493 45.68944982 -2.125 48.5625 C1.12642829 53.8069913 2.70021233 59.00273409 4 65 C4.99 65 5.98 65 7 65 C7 65.66 7 66.32 7 67 C1.25 66.125 1.25 66.125 -1 65 C-3.33524782 67.25740623 -5.18705073 69.2805761 -7 72 C-8.485 71.505 -8.485 71.505 -10 71 C-10.33 71.99 -10.66 72.98 -11 74 C-12.84765625 74.73046875 -12.84765625 74.73046875 -15.0625 75.1875 C-15.79597656 75.34605469 -16.52945313 75.50460938 -17.28515625 75.66796875 C-18.13400391 75.83232422 -18.13400391 75.83232422 -19 76 C-16.36923129 73.00000059 -13.25820168 71.27617945 -9.8125 69.3125 C-8.18248047 68.37857422 -8.18248047 68.37857422 -6.51953125 67.42578125 C-5.27236328 66.72001953 -5.27236328 66.72001953 -4 66 C-4.28875 65.15695313 -4.5775 64.31390625 -4.875 63.4453125 C-5.24625 62.34960938 -5.6175 61.25390625 -6 60.125 C-6.37125 59.03445312 -6.7425 57.94390625 -7.125 56.8203125 C-8 54 -8 54 -8 52 C-8.66 52 -9.32 52 -10 52 C-10 51.01 -10 50.02 -10 49 C-11.24716797 49.95712891 -11.24716797 49.95712891 -12.51953125 50.93359375 C-13.61702664 51.76844067 -14.71469179 52.60306447 -15.8125 53.4375 C-16.35970703 53.85837891 -16.90691406 54.27925781 -17.47070312 54.71289062 C-19.97679457 56.61144475 -21.99420019 57.99806673 -25 59 C-25.99 58.67 -26.98 58.34 -28 58 C-27.67 57.01 -27.34 56.02 -27 55 C-28.32 54.67 -29.64 54.34 -31 54 C-30.26394531 53.46890625 -29.52789062 52.9378125 -28.76953125 52.390625 C-27.79371094 51.68421875 -26.81789063 50.9778125 -25.8125 50.25 C-24.84957031 49.55390625 -23.88664062 48.8578125 -22.89453125 48.140625 C-17.20920727 44.23831278 -17.20920727 44.23831278 -13.5625 38.625 C-11.75990467 34.44297884 -9.71814189 31.64109827 -6 29 C-3.3125 28.4375 -3.3125 28.4375 -1 29 C0.625 30.5 0.625 30.5 2 32 C5.00259517 32.33218192 5.00259517 32.33218192 6.6875 30.5 C7.120625 30.005 7.55375 29.51 8 29 C5.71767393 21.01185876 0.88037276 15.50657889 -4.29296875 9.171875 C-6 7 -6 7 -7 5 C-2.25 0 -2.25 0 0 0 Z " fill="#F4F4F4" transform="translate(123,31)"/>
<path d="M0 0 C0.5775 0.226875 1.155 0.45375 1.75 0.6875 C0.59826645 3.15550047 -0.29783565 4.73533565 -2.25 6.6875 C-3.24 6.6875 -4.23 6.6875 -5.25 6.6875 C-5.25 7.3475 -5.25 8.0075 -5.25 8.6875 C-3.6 8.3575 -1.95 8.0275 -0.25 7.6875 C-0.58 9.3375 -0.91 10.9875 -1.25 12.6875 C-1.91 12.6875 -2.57 12.6875 -3.25 12.6875 C-3.683125 14.0178125 -3.683125 14.0178125 -4.125 15.375 C-5.25 18.6875 -5.25 18.6875 -6.3125 21.0625 C-7.33370268 23.9218675 -7.58772545 26.64388603 -7.9140625 29.6484375 C-8.45634909 32.93999098 -9.80779294 35.69625573 -11.25 38.6875 C-11.55035156 39.40679687 -11.85070312 40.12609375 -12.16015625 40.8671875 C-13.07290288 42.94396324 -13.95173256 44.82634737 -15.25 46.6875 C-18 47.6875 -18 47.6875 -20.25 47.6875 C-23.07410033 40.68864266 -23.72784319 34.21926352 -24.0390625 26.75 C-23.90442203 23.81412905 -23.90442203 23.81412905 -25.25 22.6875 C-25.48192865 21.17280552 -25.66215238 19.64995438 -25.8125 18.125 C-25.89628906 17.29871094 -25.98007813 16.47242187 -26.06640625 15.62109375 C-26.12699219 14.98300781 -26.18757813 14.34492187 -26.25 13.6875 C-23.96070947 12.51595707 -21.66881638 11.35011926 -19.375 10.1875 C-18.72402344 9.85363281 -18.07304688 9.51976563 -17.40234375 9.17578125 C-12.4765625 6.6875 -12.4765625 6.6875 -10.25 6.6875 C-10.25 6.0275 -10.25 5.3675 -10.25 4.6875 C-8.93 4.6875 -7.61 4.6875 -6.25 4.6875 C-6.25 4.0275 -6.25 3.3675 -6.25 2.6875 C-3.02697842 -0.42041367 -3.02697842 -0.42041367 0 0 Z " fill="#0B0B0B" transform="translate(124.25,104.3125)"/>
<path d="M0 0 C-0.58265625 0.24492188 -1.1653125 0.48984375 -1.765625 0.7421875 C-4.36302236 2.20435874 -5.83975831 3.84740414 -7.75 6.125 C-8.36359375 6.84945312 -8.9771875 7.57390625 -9.609375 8.3203125 C-10.06828125 8.87460938 -10.5271875 9.42890625 -11 10 C-10.01 9.67 -9.02 9.34 -8 9 C-8 9.66 -8 10.32 -8 11 C-7.34 11 -6.68 11 -6 11 C-5.51080078 11.88751953 -5.51080078 11.88751953 -5.01171875 12.79296875 C-4.35623047 13.97826172 -4.35623047 13.97826172 -3.6875 15.1875 C-3.22988281 16.01894531 -2.77226563 16.85039063 -2.30078125 17.70703125 C-1.01145104 20.05455028 -1.01145104 20.05455028 0.625 22.375 C2.86696999 26.65512453 3.84605653 31.32693816 5 36 C5.99 36 6.98 36 8 36 C8 36.66 8 37.32 8 38 C2.25 37.125 2.25 37.125 0 36 C-2.33524782 38.25740623 -4.18705073 40.2805761 -6 43 C-7.485 42.505 -7.485 42.505 -9 42 C-9.33 42.99 -9.66 43.98 -10 45 C-11.84765625 45.73046875 -11.84765625 45.73046875 -14.0625 46.1875 C-14.79597656 46.34605469 -15.52945313 46.50460938 -16.28515625 46.66796875 C-16.85105469 46.77753906 -17.41695312 46.88710937 -18 47 C-15.36923129 44.00000059 -12.25820168 42.27617945 -8.8125 40.3125 C-7.72582031 39.68988281 -6.63914062 39.06726563 -5.51953125 38.42578125 C-4.68808594 37.95527344 -3.85664062 37.48476562 -3 37 C-3.28875 36.15695313 -3.5775 35.31390625 -3.875 34.4453125 C-4.24625 33.34960938 -4.6175 32.25390625 -5 31.125 C-5.37125 30.03445312 -5.7425 28.94390625 -6.125 27.8203125 C-7 25 -7 25 -7 23 C-7.66 23 -8.32 23 -9 23 C-9 22.01 -9 21.02 -9 20 C-9.83144531 20.63808594 -10.66289063 21.27617188 -11.51953125 21.93359375 C-12.61702664 22.76844067 -13.71469179 23.60306447 -14.8125 24.4375 C-15.63331055 25.06881836 -15.63331055 25.06881836 -16.47070312 25.71289062 C-18.97679457 27.61144475 -20.99420019 28.99806673 -24 30 C-24.99 29.67 -25.98 29.34 -27 29 C-26.67 28.01 -26.34 27.02 -26 26 C-27.32 25.67 -28.64 25.34 -30 25 C-29.26394531 24.46890625 -28.52789062 23.9378125 -27.76953125 23.390625 C-26.79371094 22.68421875 -25.81789063 21.9778125 -24.8125 21.25 C-23.36810547 20.20585938 -23.36810547 20.20585938 -21.89453125 19.140625 C-16.20920727 15.23831278 -16.20920727 15.23831278 -12.5625 9.625 C-10.15731909 4.04498029 -6.7374716 -1.18896558 0 0 Z " fill="#DEDEDE" transform="translate(122,60)"/>
<path d="M0 0 C0.66 0 1.32 0 2 0 C3.07957246 26.69035301 -0.37102034 49.03220394 -18.02734375 69.8828125 C-22.68214797 74.87866178 -27.49750537 79.58046711 -34 82 C-34.99 81.67 -35.98 81.34 -37 81 C-36.63190851 78.47670613 -36.39240919 77.31374005 -34.36328125 75.69140625 C-33.68652344 75.31886719 -33.00976562 74.94632812 -32.3125 74.5625 C-17.2879289 66.18958368 -9.31435611 49.58528208 -4.52905273 33.6875 C-2.7595866 27.1602962 -2.65896497 21.1121248 -3.01953125 14.390625 C-2.99984658 10.97336639 -2.42406658 9.05459635 -1 6 C-0.62406934 4.0075675 -0.28020455 2.0081326 0 0 Z " fill="#181818" transform="translate(138,90)"/>
<path d="M0 0 C-0.08733973 2.08410658 -0.19552278 4.16734669 -0.3125 6.25 C-0.37050781 7.41015625 -0.42851563 8.5703125 -0.48828125 9.765625 C-1 13 -1 13 -2.4453125 14.81640625 C-4.96928837 18.36138744 -5.02957273 22.43984893 -5.5625 26.6875 C-5.78482518 28.42163641 -6.01488344 30.15480487 -6.25390625 31.88671875 C-6.35002197 32.65201904 -6.4461377 33.41731934 -6.54516602 34.20581055 C-6.69526123 34.79789307 -6.84535645 35.38997559 -7 36 C-7.99 36.495 -7.99 36.495 -9 37 C-9 35.35 -9 33.7 -9 32 C-9.99 32 -10.98 32 -12 32 C-13.61718264 28.34288573 -14.40299977 25.01780168 -14.9375 21.0625 C-15.64301255 16.55166387 -16.4756501 12.8917061 -19 9 C-19.66 8.67 -20.32 8.34 -21 8 C-21 7.34 -21 6.68 -21 6 C-18.44114774 4.98968935 -15.87859624 3.99159855 -13.3125 3 C-12.59126953 2.71382812 -11.87003906 2.42765625 -11.12695312 2.1328125 C-7.28959679 0.6609498 -4.18433411 -0.39614998 0 0 Z " fill="#0F0F0F" transform="translate(74,131)"/>
<path d="M0 0 C0.33 0.66 0.66 1.32 1 2 C0.67 2.99 0.34 3.98 0 5 C-0.66 5 -1.32 5 -2 5 C-1.525625 5.37125 -1.05125 5.7425 -0.5625 6.125 C1.63018731 8.75622477 1.86642992 10.59396299 2 14 C0.5625 17.375 0.5625 17.375 -1 20 C-0.38125 19.505 0.2375 19.01 0.875 18.5 C3 17 3 17 5 17 C5.33 16.34 5.66 15.68 6 15 C6 17 6 19 6 21 C1.68928156 22.63599555 -1.89442764 23.2719313 -6.5 23.25 C-8.12421875 23.25773437 -8.12421875 23.25773437 -9.78125 23.265625 C-13.18334031 22.98486997 -15.85956442 22.33038625 -19 21 C-20.875 18.375 -20.875 18.375 -22 16 C-22.33 17.65 -22.66 19.3 -23 21 C-23.33 21 -23.66 21 -24 21 C-24 18.03 -24 15.06 -24 12 C-23.071875 12.165 -22.14375 12.33 -21.1875 12.5 C-18.04378647 13.07748388 -18.04378647 13.07748388 -15 13 C-14.67 9.37 -14.34 5.74 -14 2 C-10.65094547 5.34905453 -10.10529715 7.49378854 -9 12 C-6.03 12.66 -3.06 13.32 0 14 C0 12.35 0 10.7 0 9 C-0.66 9 -1.32 9 -2 9 C-2 9.66 -2 10.32 -2 11 C-3.32 10.67 -4.64 10.34 -6 10 C-6 7.36 -6 4.72 -6 2 C-4.02 1.34 -2.04 0.68 0 0 Z " fill="#EFEFEF" transform="translate(42,98)"/>
<path d="M0 0 C1.13856176 3.41568527 0.75718603 4.89450204 -0.7421875 8.109375 C-5.47289595 15.22012932 -14.89489732 19.63069387 -22 24 C-21.6875 22.0625 -21.6875 22.0625 -21 20 C-20.01 19.67 -19.02 19.34 -18 19 C-18 18.34 -18 17.68 -18 17 C-18.66 17 -19.32 17 -20 17 C-21.39151652 12.20699867 -20.68662689 7.84864218 -20 3 C-19.34 3 -18.68 3 -18 3 C-18 4.32 -18 5.64 -18 7 C-17.34 7 -16.68 7 -16 7 C-16 7.66 -16 8.32 -16 9 C-15.01 8.34 -14.02 7.68 -13 7 C-12.154375 6.87625 -11.30875 6.7525 -10.4375 6.625 C-7.83047912 6.25262441 -7.83047912 6.25262441 -6.6875 3.9375 C-6.460625 3.298125 -6.23375 2.65875 -6 2 C-5.34 2 -4.68 2 -4 2 C-4 2.66 -4 3.32 -4 4 C-2.68 2.68 -1.36 1.36 0 0 Z " fill="#161616" transform="translate(110,64)"/>
<path d="M0 0 C0.33 1.98 0.66 3.96 1 6 C1.66 6 2.32 6 3 6 C4.5078125 7.8984375 4.5078125 7.8984375 6.125 10.375 C6.66382813 11.18710937 7.20265625 11.99921875 7.7578125 12.8359375 C9 15 9 15 9 17 C9.99 17.33 10.98 17.66 12 18 C13.8125 20.1875 13.8125 20.1875 15 23 C14.4375 26.1875 14.4375 26.1875 13 29 C10.875 30.375 10.875 30.375 9 31 C9 31.66 9 32.32 9 33 C8.01 32.67 7.02 32.34 6 32 C6 31.34 6 30.68 6 30 C6.66 29.67 7.32 29.34 8 29 C5.71767393 21.01185876 0.88037276 15.50657889 -4.29296875 9.171875 C-6 7 -6 7 -7 5 C-2.25 0 -2.25 0 0 0 Z " fill="#E3E3E3" transform="translate(123,31)"/>
<path d="M0 0 C0 0.66 0 1.32 0 2 C-0.99 2 -1.98 2 -3 2 C-3.67673447 5.40320934 -3.67673447 5.40320934 -4 9 C-3.34 9.66 -2.68 10.32 -2 11 C-2.0234375 13.6015625 -2.0234375 13.6015625 -2.375 16.625 C-2.54128906 18.12933594 -2.54128906 18.12933594 -2.7109375 19.6640625 C-2.85402344 20.82035156 -2.85402344 20.82035156 -3 22 C-3.33 21.34 -3.66 20.68 -4 20 C-5.32 20.33 -6.64 20.66 -8 21 C-8.33 22.32 -8.66 23.64 -9 25 C-9.33 20.38 -9.66 15.76 -10 11 C-11.65 11.66 -13.3 12.32 -15 13 C-16.37189827 16.02982306 -16.37189827 16.02982306 -17 19 C-17.33 19 -17.66 19 -18 19 C-18.36923077 13.58461538 -18.36923077 13.58461538 -16.5 10.625 C-16.005 10.08875 -15.51 9.5525 -15 9 C-18.41945641 11.27963761 -18.56623263 12.32597111 -20 16 C-21.5 17.8125 -21.5 17.8125 -23 19 C-23.66 19 -24.32 19 -25 19 C-23.9284589 16.77449157 -22.79587609 14.66829864 -21.5 12.5625 C-20.0564466 10.09642962 -18.99329973 7.67426851 -18 5 C-16.68 5.33 -15.36 5.66 -14 6 C-13.67 4.68 -13.34 3.36 -13 2 C-12.01 2 -11.02 2 -10 2 C-10 3.98 -10 5.96 -10 8 C-9.01 8 -8.02 8 -7 8 C-6.896875 7.236875 -6.79375 6.47375 -6.6875 5.6875 C-5.61838415 1.50822895 -4.37506113 0 0 0 Z " fill="#DBDBDB" transform="translate(75,30)"/>
<path d="M0 0 C-0.33 0.66 -0.66 1.32 -1 2 C-0.83333333 4.08333333 -0.83333333 4.08333333 0 6 C0.99 6.33 1.98 6.66 3 7 C3.38063221 9.3260857 3.71269945 11.66055264 4 14 C3.67 14.33 3.34 14.66 3 15 C2.855625 16.093125 2.71125 17.18625 2.5625 18.3125 C2.07319453 21.52016919 1.39905208 23.20189584 0 26 C0.33 26.99 0.66 27.98 1 29 C-0.98 29.99 -0.98 29.99 -3 31 C-3.37679067 25.47373681 -3.37679067 25.47373681 -1.52734375 23.1484375 C0.38444541 20.45922 0.45761987 18.64331736 0.625 15.375 C0.918429 10.16314199 0.918429 10.16314199 2 8 C-4.55777553 9.86897132 -4.55777553 9.86897132 -10.9375 12.25 C-13 13 -13 13 -16 12 C-16.66 11.34 -17.32 10.68 -18 10 C-17.34 10 -16.68 10 -16 10 C-16 8.68 -16 7.36 -16 6 C-17.32 5.67 -18.64 5.34 -20 5 C-19.071875 4.7525 -18.14375 4.505 -17.1875 4.25 C-12.80344552 3.01923061 -8.59440367 1.36167757 -4.35546875 -0.29296875 C-2 -1 -2 -1 0 0 Z " fill="#E8E8E8" transform="translate(72,123)"/>
<path d="M0 0 C0.66 0 1.32 0 2 0 C2.62921499 15.55613052 2.75622193 31.24891311 -3 46 C-3.66 46.66 -4.32 47.32 -5 48 C-5.495 46.515 -5.495 46.515 -6 45 C-7.485 47.475 -7.485 47.475 -9 50 C-9.33 49.34 -9.66 48.68 -10 48 C-9.328125 46.00390625 -9.328125 46.00390625 -8.25 43.5625 C-4.47529267 34.3747575 -2.61230953 26.4912453 -3.02246094 16.56982422 C-3.16181034 12.49940793 -2.72050478 9.67943157 -1 6 C-0.62406934 4.0075675 -0.28020455 2.0081326 0 0 Z " fill="#3D3D3D" transform="translate(138,90)"/>
<path d="M0 0 C0.66 0 1.32 0 2 0 C1.9278125 0.74765625 1.855625 1.4953125 1.78125 2.265625 C1.6884375 3.25046875 1.595625 4.2353125 1.5 5.25 C1.4071875 6.22453125 1.314375 7.1990625 1.21875 8.203125 C1.04199832 10.46302153 1 12.73320193 1 15 C1.66 15 2.32 15 3 15 C3 16.98 3 18.96 3 21 C2.34 19.68 1.68 18.36 1 17 C0.34 17 -0.32 17 -1 17 C-1 15.68 -1 14.36 -1 13 C-1.99 12.67 -2.98 12.34 -4 12 C-4.0825 13.27875 -4.165 14.5575 -4.25 15.875 C-4.51171875 18.0859375 -4.51171875 18.0859375 -5 20 C-7.0625 21.5 -7.0625 21.5 -9 22 C-11.05257931 18.55166676 -12.0632763 16.68338409 -11.6875 12.625 C-11.460625 11.75875 -11.23375 10.8925 -11 10 C-10.34 10 -9.68 10 -9 10 C-9 9.34 -9 8.68 -9 8 C-7.68 7.67 -6.36 7.34 -5 7 C-5 7.99 -5 8.98 -5 10 C-4.34 10 -3.68 10 -3 10 C-3.33 9.01 -3.66 8.02 -4 7 C-3.01 6.67 -2.02 6.34 -1 6 C-0.67 4.02 -0.34 2.04 0 0 Z " fill="#DDDDDD" transform="translate(60,48)"/>
<path d="M0 0 C-1.98 0.99 -1.98 0.99 -4 2 C-3.67 2.99 -3.34 3.98 -3 5 C-3.27769908 7.3406065 -3.60539977 9.67624308 -4 12 C-3.34 12.33 -2.68 12.66 -2 13 C-2.99 13 -3.98 13 -5 13 C-5 11.02 -5 9.04 -5 7 C-5.99 7 -6.98 7 -8 7 C-8.33 8.65 -8.66 10.3 -9 12 C-9.33 11.34 -9.66 10.68 -10 10 C-10.99 10.33 -11.98 10.66 -13 11 C-14.21869929 13.50447516 -14.21869929 13.50447516 -15 16 C-15.66 14.68 -16.32 13.36 -17 12 C-18.98 12.99 -18.98 12.99 -21 14 C-21 11 -21 11 -19.49609375 9.31640625 C-5.39508772 -2.69754386 -5.39508772 -2.69754386 0 0 Z " fill="#252525" transform="translate(70,25)"/>
<path d="M0 0 C2.46301423 2.46301423 2.76766521 4.27360036 3.625 7.625 C4.01558594 9.12933594 4.01558594 9.12933594 4.4140625 10.6640625 C4.60742188 11.43492188 4.80078125 12.20578125 5 13 C5.99 13 6.98 13 8 13 C8 13.66 8 14.32 8 15 C2.25 14.125 2.25 14.125 0 13 C-2.33524782 15.25740623 -4.18705073 17.2805761 -6 20 C-6.99 19.67 -7.98 19.34 -9 19 C-9.33 19.99 -9.66 20.98 -10 22 C-11.84765625 22.73046875 -11.84765625 22.73046875 -14.0625 23.1875 C-14.79597656 23.34605469 -15.52945313 23.50460938 -16.28515625 23.66796875 C-16.85105469 23.77753906 -17.41695313 23.88710937 -18 24 C-15.36923129 21.00000059 -12.25820168 19.27617945 -8.8125 17.3125 C-7.72582031 16.68988281 -6.63914062 16.06726563 -5.51953125 15.42578125 C-4.27236328 14.72001953 -4.27236328 14.72001953 -3 14 C-3.99 10.37 -4.98 6.74 -6 3 C-4.35 3.33 -2.7 3.66 -1 4 C-0.67 2.68 -0.34 1.36 0 0 Z " fill="#D6D6D6" transform="translate(122,83)"/>
<path d="M0 0 C5.48450628 1.57724364 9.72473603 3.07137906 14 7 C15.10030026 7.92130405 16.20456768 8.83788828 17.3125 9.75 C18.199375 10.4925 19.08625 11.235 20 12 C19.67 12.66 19.34 13.32 19 14 C18.34 14 17.68 14 17 14 C17 16.64 17 19.28 17 22 C16.67 22 16.34 22 16 22 C15.979375 20.96875 15.95875 19.9375 15.9375 18.875 C14.69090579 13.7224106 12.35007195 11.8202824 8 9 C5.68901447 7.8109823 3.44736371 6.89903157 1 6 C1.33 5.34 1.66 4.68 2 4 C1.34 3.67 0.68 3.34 0 3 C0 2.01 0 1.02 0 0 Z " fill="#1F1F1F" transform="translate(97,25)"/>
<path d="M0 0 C4 4.75 4 4.75 4 7 C11.425 7.99 11.425 7.99 19 9 C19 9.33 19 9.66 19 10 C15.7 10.33 12.4 10.66 9 11 C9.33 12.65 9.66 14.3 10 16 C12.31 16.66 14.62 17.32 17 18 C17 18.33 17 18.66 17 19 C14.36 19 11.72 19 9 19 C9 18.34 9 17.68 9 17 C8.401875 16.896875 7.80375 16.79375 7.1875 16.6875 C3.76858635 15.61298428 2.49611785 13.91390131 0.8125 10.8125 C-0.26624493 7.07838293 -0.13157411 3.88143619 0 0 Z " fill="#111111" transform="translate(19,112)"/>
<path d="M0 0 C2 1 2 1 2.6875 2.9375 C3 5 3 5 2 7 C2.66 7.33 3.32 7.66 4 8 C2.59447701 9.03612271 1.17508306 10.05344925 -0.25 11.0625 C-1.03890625 11.63097656 -1.8278125 12.19945313 -2.640625 12.78515625 C-5 14 -5 14 -7.296875 13.68359375 C-7.85890625 13.45800781 -8.4209375 13.23242188 -9 13 C-8.67 12.01 -8.34 11.02 -8 10 C-9.32 9.67 -10.64 9.34 -12 9 C-11.21753906 8.43410156 -10.43507813 7.86820312 -9.62890625 7.28515625 C-8.61699219 6.55167969 -7.60507813 5.81820312 -6.5625 5.0625 C-5.55316406 4.33160156 -4.54382813 3.60070312 -3.50390625 2.84765625 C-1.17707392 1.22678115 -1.17707392 1.22678115 0 0 Z " fill="#EBEBEB" transform="translate(104,76)"/>
<path d="M0 0 C1.32 0 2.64 0 4 0 C5.03590199 5.05002222 5.10251672 9.87416389 5 15 C4.34 15 3.68 15 3 15 C2.67 16.65 2.34 18.3 2 20 C1.34 20 0.68 20 0 20 C-1.20577428 15.05632546 -0.6290678 11.79137588 1 7 C0.34 7 -0.32 7 -1 7 C-1.33 7.66 -1.66 8.32 -2 9 C-3 7 -3 7 -2.125 3.9375 C-1 1 -1 1 0 0 Z " fill="#181818" transform="translate(61,41)"/>
<path d="M0 0 C0.66 0.99 1.32 1.98 2 3 C1.44570312 3.26554687 0.89140625 3.53109375 0.3203125 3.8046875 C-0.40414062 4.15789062 -1.12859375 4.51109375 -1.875 4.875 C-2.95394531 5.39707031 -2.95394531 5.39707031 -4.0546875 5.9296875 C-6.15135019 6.96557543 -6.15135019 6.96557543 -8 9 C-8 8.34 -8 7.68 -8 7 C-8.66 7.66 -9.32 8.32 -10 9 C-9.835 9.66 -9.67 10.32 -9.5 11 C-9.335 11.66 -9.17 12.32 -9 13 C-9.66 13.66 -10.32 14.32 -11 15 C-12.03612271 13.59447701 -13.05344925 12.17508306 -14.0625 10.75 C-14.63097656 9.96109375 -15.19945313 9.1721875 -15.78515625 8.359375 C-17 6 -17 6 -16.68359375 3.703125 C-16.45800781 3.14109375 -16.23242188 2.5790625 -16 2 C-14.35 1.67 -12.7 1.34 -11 1 C-11 1.66 -11 2.32 -11 3 C-8.24293584 3.86382428 -8.24293584 3.86382428 -5 4 C-2.13034253 2.18911155 -2.13034253 2.18911155 0 0 Z " fill="#101010" transform="translate(133,68)"/>
<path d="M0 0 C0.66 0 1.32 0 2 0 C2 1.32 2 2.64 2 4 C2.66 4 3.32 4 4 4 C4 4.66 4 5.32 4 6 C4.66 6.33 5.32 6.66 6 7 C5.34 8.32 4.68 9.64 4 11 C5.32 11 6.64 11 8 11 C8.66 11 9.32 11 10 11 C8.68374806 14.94875582 6.94634602 15.54992713 3.4375 17.6875 C2.42558594 18.31011719 1.41367188 18.93273437 0.37109375 19.57421875 C-0.80259766 20.27998047 -0.80259766 20.27998047 -2 21 C-1.6875 19.0625 -1.6875 19.0625 -1 17 C-0.01 16.67 0.98 16.34 2 16 C2 15.34 2 14.68 2 14 C1.34 14 0.68 14 0 14 C-1.39151652 9.20699867 -0.68662689 4.84864218 0 0 Z " fill="#0B0B0B" transform="translate(90,67)"/>
<path d="M0 0 C1.32 0.33 2.64 0.66 4 1 C4 2.65 4 4.3 4 6 C4.99 6 5.98 6 7 6 C7 6.66 7 7.32 7 8 C7.66 8 8.32 8 9 8 C9.33 5.36 9.66 2.72 10 0 C10.99 0.66 11.98 1.32 13 2 C12.38341969 6.66839378 12.38341969 6.66839378 11 9 C8.11705247 10.52843653 5.17944076 11.31308379 2 12 C2 11.34 2 10.68 2 10 C1.34 10 0.68 10 0 10 C0 8.68 0 7.36 0 6 C-0.66 5.67 -1.32 5.34 -2 5 C-1.34 3.35 -0.68 1.7 0 0 Z " fill="#EBEBEB" transform="translate(92,61)"/>
<path d="M0 0 C-0.01160156 0.85464844 -0.02320312 1.70929687 -0.03515625 2.58984375 C-0.04417969 3.69457031 -0.05320312 4.79929687 -0.0625 5.9375 C-0.07410156 7.03964844 -0.08570312 8.14179687 -0.09765625 9.27734375 C-0.31262571 11.91447634 -0.31262571 11.91447634 1 13 C1.66 12.01 2.32 11.02 3 10 C3 11.65 3 13.3 3 15 C1.33388095 15.042721 -0.33382885 15.04063832 -2 15 C-2.33 14.67 -2.66 14.34 -3 14 C-5.32817964 13.63239269 -7.6618385 13.29758419 -10 13 C-10 12.34 -10 11.68 -10 11 C-9.34 10.67 -8.68 10.34 -8 10 C-7.835 9.34 -7.67 8.68 -7.5 8 C-7.335 7.34 -7.17 6.68 -7 6 C-6.34 5.67 -5.68 5.34 -5 5 C-4.835 4.34 -4.67 3.68 -4.5 3 C-4.335 2.34 -4.17 1.68 -4 1 C-2 0 -2 0 0 0 Z " fill="#F4F4F4" transform="translate(71,50)"/>
<path d="M0 0 C2.31 1.65 4.62 3.3 7 5 C6.67 7.31 6.34 9.62 6 12 C4.63875 11.690625 4.63875 11.690625 3.25 11.375 C-0.11027897 10.9872755 -1.24075815 11.19588033 -4 13 C-3.67 11.02 -3.34 9.04 -3 7 C-3.66 6.67 -4.32 6.34 -5 6 C-4.360625 5.38125 -3.72125 4.7625 -3.0625 4.125 C-0.96116416 2.17402388 -0.96116416 2.17402388 0 0 Z " fill="#F5F5F5" transform="translate(122,94)"/>
<path d="M0 0 C1.98 0.495 1.98 0.495 4 1 C3.67 2.32 3.34 3.64 3 5 C3.99 4.67 4.98 4.34 6 4 C6 5.65 6 7.3 6 9 C6.66 9 7.32 9 8 9 C8.33 12.63 8.66 16.26 9 20 C7.68 20 6.36 20 5 20 C4.67 18.35 4.34 16.7 4 15 C4.66 15 5.32 15 6 15 C6 14.34 6 13.68 6 13 C4.68 12.34 3.36 11.68 2 11 C2.020625 10.195625 2.04125 9.39125 2.0625 8.5625 C2.29633621 6.06645115 2.29633621 6.06645115 1 5 C0.34 5.99 -0.32 6.98 -1 8 C-0.67 5.36 -0.34 2.72 0 0 Z " fill="#0C0C0C" transform="translate(56,60)"/>
<path d="M0 0 C1.53445094 3.06890187 0.54984289 5.70094266 0 9 C0.66 8.01 1.32 7.02 2 6 C2.66 6 3.32 6 4 6 C3.69128878 7.79232337 3.37790936 9.58384321 3.0625 11.375 C2.88847656 12.37273438 2.71445313 13.37046875 2.53515625 14.3984375 C2 17 2 17 1 19 C0.34 19 -0.32 19 -1 19 C-1 18.34 -1 17.68 -1 17 C-1.99 17 -2.98 17 -4 17 C-4.625 14.6875 -4.625 14.6875 -5 12 C-4.34 11.01 -3.68 10.02 -3 9 C-2.37414968 6.98695552 -2.37414968 6.98695552 -1.9375 4.875 C-1 1 -1 1 0 0 Z " fill="#343434" transform="translate(100,50)"/>
<path d="M0 0 C0.66 0 1.32 0 2 0 C2.05865035 3.18742115 2.09381259 6.37470118 2.125 9.5625 C2.14175781 10.45775391 2.15851563 11.35300781 2.17578125 12.27539062 C2.21479596 17.60089905 1.75475782 21.96370689 0 27 C-0.33 27 -0.66 27 -1 27 C-1.06058594 26.18015625 -1.12117187 25.3603125 -1.18359375 24.515625 C-1.26738281 23.43796875 -1.35117188 22.3603125 -1.4375 21.25 C-1.51871094 20.18265625 -1.59992188 19.1153125 -1.68359375 18.015625 C-1.91175231 15.10443207 -1.91175231 15.10443207 -2.58984375 12.7578125 C-3.20510267 10.12098854 -2.04977052 8.44946454 -1 6 C-0.62406934 4.0075675 -0.28020455 2.0081326 0 0 Z " fill="#0E0E0E" transform="translate(138,90)"/>
<path d="M0 0 C3.76547669 3.76547669 3.91348469 5.90173585 5 11 C4.195625 11.45375 3.39125 11.9075 2.5625 12.375 C-0.08856572 13.74725665 -0.08856572 13.74725665 -1 16 C-3.475 15.01 -3.475 15.01 -6 14 C-6.33 14.66 -6.66 15.32 -7 16 C-7.33 15.34 -7.66 14.68 -8 14 C-8.33 15.65 -8.66 17.3 -9 19 C-9.33 19 -9.66 19 -10 19 C-10 16.03 -10 13.06 -10 10 C-9.071875 10.165 -8.14375 10.33 -7.1875 10.5 C-4.04378647 11.07748388 -4.04378647 11.07748388 -1 11 C-0.67 7.37 -0.34 3.74 0 0 Z " fill="#D9D9D9" transform="translate(28,100)"/>
<path d="M0 0 C1.65 0.33 3.3 0.66 5 1 C5 2.32 5 3.64 5 5 C5.66 5.33 6.32 5.66 7 6 C6.071875 6.309375 6.071875 6.309375 5.125 6.625 C2.15346355 8.54775888 1.86975341 10.66594527 1 14 C0.67 14 0.34 14 0 14 C-0.36923077 8.58461538 -0.36923077 8.58461538 1.5 5.625 C1.995 5.08875 2.49 4.5525 3 4 C-0.41945641 6.27963761 -0.56623263 7.32597111 -2 11 C-3.5 12.8125 -3.5 12.8125 -5 14 C-5.66 14 -6.32 14 -7 14 C-5.9284589 11.77449157 -4.79587609 9.66829864 -3.5 7.5625 C-2.0564466 5.09642962 -0.99329973 2.67426851 0 0 Z " fill="#C0C0C0" transform="translate(57,35)"/>
<path d="M0 0 C4.60428934 1.31551124 8.18320388 3.09196486 12 6 C12 6.66 12 7.32 12 8 C13.65 8.33 15.3 8.66 17 9 C16.67 9.66 16.34 10.32 16 11 C9.94181618 10.78743215 6.88149276 9.68542297 2.34765625 5.66796875 C0.83169873 3.79169669 0.40380512 2.35638177 0 0 Z " fill="#151515" transform="translate(49,161)"/>
<path d="M0 0 C0.33 0 0.66 0 1 0 C1.08701039 3.60401481 1.14039388 7.20776012 1.1875 10.8125 C1.22520508 12.34874023 1.22520508 12.34874023 1.26367188 13.91601562 C1.27333984 14.89892578 1.28300781 15.88183594 1.29296875 16.89453125 C1.3086792 17.80050049 1.32438965 18.70646973 1.34057617 19.63989258 C0.93875073 22.42444206 0.16311438 23.27599535 -2 25 C-2.99 24.67 -3.98 24.34 -5 24 C-4.125 16.25 -4.125 16.25 -3 14 C-2.34 14 -1.68 14 -1 14 C-0.67 9.38 -0.34 4.76 0 0 Z " fill="#393939" transform="translate(160,85)"/>
<path d="M0 0 C0.33 0 0.66 0 1 0 C0.61493609 6.03266797 -1.19100218 11.21565233 -5 16 C-7.16796875 16.7578125 -7.16796875 16.7578125 -9 17 C-8.46368874 12.44135432 -6.64367306 9.70114228 -4 6 C-3.26819935 4.87671159 -2.53893327 3.75176694 -1.8125 2.625 C-1.214375 1.75875 -0.61625 0.8925 0 0 Z " fill="#161616" transform="translate(132,134)"/>
<path d="M0 0 C3.95007166 5.02736394 5.33115026 7.75341763 4.625 14.25 C4.51414062 15.32765625 4.40328125 16.4053125 4.2890625 17.515625 C4.19367187 18.33546875 4.09828125 19.1553125 4 20 C1 18 1 18 0.3125 15.625 C-0.13668884 10.4144095 -0.07611092 5.22628333 0 0 Z " fill="#161616" transform="translate(24,92)"/>
<path d="M0 0 C0.66 0 1.32 0 2 0 C2 0.66 2 1.32 2 2 C2.804375 2.144375 3.60875 2.28875 4.4375 2.4375 C7 3 7 3 8 4 C8.1875 6.9375 8.1875 6.9375 8 10 C7.34 10.66 6.68 11.32 6 12 C5.34 12 4.68 12 4 12 C4 11.01 4 10.02 4 9 C3.01 8.67 2.02 8.34 1 8 C0.67 5.36 0.34 2.72 0 0 Z " fill="#F4F4F4" transform="translate(114,77)"/>
<path d="M0 0 C0.5775 0.226875 1.155 0.45375 1.75 0.6875 C0.59826645 3.15550047 -0.29783565 4.73533565 -2.25 6.6875 C-3.24 6.6875 -4.23 6.6875 -5.25 6.6875 C-5.25 7.3475 -5.25 8.0075 -5.25 8.6875 C-3.6 8.3575 -1.95 8.0275 -0.25 7.6875 C-0.58 9.3375 -0.91 10.9875 -1.25 12.6875 C-1.58 11.6975 -1.91 10.7075 -2.25 9.6875 C-3.57 9.6875 -4.89 9.6875 -6.25 9.6875 C-6.58 8.6975 -6.91 7.7075 -7.25 6.6875 C-8.24 6.0275 -9.23 5.3675 -10.25 4.6875 C-8.93 4.6875 -7.61 4.6875 -6.25 4.6875 C-6.25 4.0275 -6.25 3.3675 -6.25 2.6875 C-3.02697842 -0.42041367 -3.02697842 -0.42041367 0 0 Z " fill="#242424" transform="translate(124.25,104.3125)"/>
<path d="M0 0 C5.41176471 0.35294118 5.41176471 0.35294118 7.875 3.0625 C8.431875 4.0215625 8.431875 4.0215625 9 5 C8.030625 5.268125 7.06125 5.53625 6.0625 5.8125 C5.051875 6.204375 4.04125 6.59625 3 7 C2.67 7.99 2.34 8.98 2 10 C2 9.34 2 8.68 2 8 C1.34 8 0.68 8 0 8 C-0.38063221 5.6739143 -0.71269945 3.33944736 -1 1 C-0.67 0.67 -0.34 0.34 0 0 Z " fill="#202020" transform="translate(124,29)"/>
<path d="M0 0 C0.66 0 1.32 0 2 0 C2.33 1.32 2.66 2.64 3 4 C3.66 4 4.32 4 5 4 C5 4.99 5 5.98 5 7 C6.32 7.66 7.64 8.32 9 9 C7.35 9.33 5.7 9.66 4 10 C3.67 9.01 3.34 8.02 3 7 C1.35 6.67 -0.3 6.34 -2 6 C-1.67 5.34 -1.34 4.68 -1 4 C-0.34 4.33 0.32 4.66 1 5 C0.67 3.35 0.34 1.7 0 0 Z M-4 8 C-2.02 8 -0.04 8 2 8 C2.33 8.99 2.66 9.98 3 11 C3.99 11.33 4.98 11.66 6 12 C5.01 12.495 5.01 12.495 4 13 C2.0546875 12.22265625 2.0546875 12.22265625 -0.125 11.0625 C-0.84945312 10.68222656 -1.57390625 10.30195313 -2.3203125 9.91015625 C-2.87460937 9.60980469 -3.42890625 9.30945313 -4 9 C-4 8.67 -4 8.34 -4 8 Z " fill="#353535" transform="translate(63,163)"/>
<path d="M0 0 C5.78898419 -0.20674944 10.42932723 0.40837921 16 2 C15.67 2.99 15.34 3.98 15 5 C9.158256 5.35050464 5.1468192 5.16727335 0 2 C0 1.34 0 0.68 0 0 Z " fill="#090909" transform="translate(66,172)"/>
<path d="M0 0 C-1.98 0.99 -1.98 0.99 -4 2 C-3.67 2.99 -3.34 3.98 -3 5 C-3.27769908 7.3406065 -3.60539977 9.67624308 -4 12 C-3.34 12.33 -2.68 12.66 -2 13 C-2.99 13 -3.98 13 -5 13 C-5 11.02 -5 9.04 -5 7 C-5.99 7 -6.98 7 -8 7 C-8 6.34 -8 5.68 -8 5 C-9.98 5.33 -11.96 5.66 -14 6 C-10.6606106 2.30909593 -5.08263987 -2.54131994 0 0 Z " fill="#2D2D2D" transform="translate(70,25)"/>
<path d="M0 0 C1.5625 1.1875 1.5625 1.1875 3 3 C3.1875 5.3125 3.1875 5.3125 2 8 C-1.04235387 10.75671802 -4.32405846 13.16202923 -8 15 C-6.67855079 9.52542471 -5.01764095 7.01764095 -1 3 C-0.67 2.01 -0.34 1.02 0 0 Z " fill="#E8E8E8" transform="translate(138,56)"/>
<path d="M0 0 C0.99 0 1.98 0 3 0 C3.38063221 2.3260857 3.71269945 4.66055264 4 7 C3.67 7.33 3.34 7.66 3 8 C2.855625 9.093125 2.71125 10.18625 2.5625 11.3125 C2.07319453 14.52016919 1.39905208 16.20189584 0 19 C0.33 19.99 0.66 20.98 1 22 C-0.98 22.99 -0.98 22.99 -3 24 C-3.37679067 18.47373681 -3.37679067 18.47373681 -1.52734375 16.1484375 C0.38444541 13.45922 0.45761987 11.64331736 0.625 8.375 C0.918429 3.16314199 0.918429 3.16314199 2 1 C1.34 0.67 0.68 0.34 0 0 Z " fill="#B1B1B1" transform="translate(72,130)"/>
<path d="M0 0 C0.66 0 1.32 0 2 0 C2 3.63 2 7.26 2 11 C0.35 11.66 -1.3 12.32 -3 13 C-3.33 11.35 -3.66 9.7 -4 8 C-3.01 7.34 -2.02 6.68 -1 6 C-0.26656572 2.93443402 -0.26656572 2.93443402 0 0 Z " fill="#2B2B2B" transform="translate(130,84)"/>
<path d="M0 0 C0.66 0 1.32 0 2 0 C2 1.32 2 2.64 2 4 C2.66 4 3.32 4 4 4 C4 4.66 4 5.32 4 6 C4.66 6.33 5.32 6.66 6 7 C4.35 9.31 2.7 11.62 1 14 C-1.36574234 10.4513865 -1.10865265 9.4235475 -0.625 5.3125 C-0.51414062 4.31863281 -0.40328125 3.32476562 -0.2890625 2.30078125 C-0.19367188 1.54152344 -0.09828125 0.78226562 0 0 Z " fill="#727272" transform="translate(90,67)"/>
<path d="M0 0 C0.66 0.33 1.32 0.66 2 1 C2 3.64 2 6.28 2 9 C2.99 9.33 3.98 9.66 5 10 C5 9.34 5 8.68 5 8 C5.66 8 6.32 8 7 8 C7 9.65 7 11.3 7 13 C0.47692308 13.36923077 0.47692308 13.36923077 -1.9375 11.5 C-2.288125 11.005 -2.63875 10.51 -3 10 C-2.34 9.67 -1.68 9.34 -1 9 C-0.53348793 6.87423218 -0.53348793 6.87423218 -0.375 4.4375 C-0.30023438 3.61121094 -0.22546875 2.78492187 -0.1484375 1.93359375 C-0.09945312 1.29550781 -0.05046875 0.65742187 0 0 Z " fill="#2E2E2E" transform="translate(35,99)"/>
<path d="M0 0 C4.875 4.625 4.875 4.625 6 8 C5.01 8.33 4.02 8.66 3 9 C2.34 8.67 1.68 8.34 1 8 C0.67 8.66 0.34 9.32 0 10 C-0.99 8.35 -1.98 6.7 -3 5 C-2.34 5 -1.68 5 -1 5 C-0.67 3.35 -0.34 1.7 0 0 Z " fill="#E4E4E4" transform="translate(126,39)"/>
<path d="M0 0 C4 4.75 4 4.75 4 7 C11.425 7.99 11.425 7.99 19 9 C19 9.33 19 9.66 19 10 C16.58303128 10.05411124 14.16728213 10.09372278 11.75 10.125 C11.06808594 10.14175781 10.38617188 10.15851563 9.68359375 10.17578125 C5.9391765 10.21213482 3.17647273 10.07944349 0 8 C0 5.36 0 2.72 0 0 Z " fill="#2F2F2F" transform="translate(19,112)"/>
<path d="M0 0 C0.99 0 1.98 0 3 0 C3 1.98 3 3.96 3 6 C4.32 5.67 5.64 5.34 7 5 C6.67 6.98 6.34 8.96 6 11 C4.02 10.01 2.04 9.02 0 8 C0 5.36 0 2.72 0 0 Z " fill="#EAEAEA" transform="translate(62,32)"/>
<path d="M0 0 C0.144375 0.639375 0.28875 1.27875 0.4375 1.9375 C0.81007181 3.97545146 0.81007181 3.97545146 2 5 C2.66 3.68 3.32 2.36 4 1 C4 2.98 4 4.96 4 7 C3.34 7 2.68 7 2 7 C1.67 8.65 1.34 10.3 1 12 C0.34 12 -0.32 12 -1 12 C-2.11658501 7.31034294 -1.80619523 4.46236469 0 0 Z " fill="#434343" transform="translate(62,49)"/>
<path d="M0 0 C0.33 0 0.66 0 1 0 C0.979375 0.969375 0.95875 1.93875 0.9375 2.9375 C0.64381501 5.87465895 0.64381501 5.87465895 2 7 C1.71269945 9.33944736 1.38063221 11.6739143 1 14 C0.34 13.01 -0.32 12.02 -1 11 C-2.485 13.475 -2.485 13.475 -4 16 C-5 14 -5 14 -4.2578125 11.7578125 C-3.88398438 10.88898438 -3.51015625 10.02015625 -3.125 9.125 C-1.83243369 6.09696004 -0.70393056 3.2201079 0 0 Z " fill="#454545" transform="translate(133,124)"/>
<path d="M0 0 C0.66 0 1.32 0 2 0 C1.67 0.515625 1.34 1.03125 1 1.5625 C-0.32010877 4.78026512 -0.13242105 7.5570528 0 11 C-2.60582371 11.93065133 -3.64198224 12.14917407 -6.25 11.0625 C-6.8275 10.711875 -7.405 10.36125 -8 10 C-7.21625 9.443125 -6.4325 8.88625 -5.625 8.3125 C-2.89137023 5.90430234 -2.1014593 4.39616619 -1 1 C-0.67 0.67 -0.34 0.34 0 0 Z " fill="#2B2B2B" transform="translate(58,39)"/>
<path d="M0 0 C3.76547669 3.76547669 3.91348469 5.90173585 5 11 C3.35 11.33 1.7 11.66 0 12 C0 8.04 0 4.08 0 0 Z " fill="#C8C8C8" transform="translate(28,100)"/>
<path d="M0 0 C0.99 0.66 1.98 1.32 3 2 C2.4375 5.375 2.4375 5.375 1 9 C-2.625 10.4375 -2.625 10.4375 -6 11 C-6.33 10.01 -6.66 9.02 -7 8 C-6.01 8 -5.02 8 -4 8 C-3.67 7.34 -3.34 6.68 -3 6 C-3 6.66 -3 7.32 -3 8 C-2.34 8 -1.68 8 -1 8 C-0.67 5.36 -0.34 2.72 0 0 Z " fill="#DDDDDD" transform="translate(102,61)"/>
<path d="M0 0 C0 1.98 0 3.96 0 6 C-0.99 6.495 -0.99 6.495 -2 7 C-2 6.34 -2 5.68 -2 5 C-3.65 5 -5.3 5 -7 5 C-7 4.01 -7 3.02 -7 2 C-4 0 -4 0 0 0 Z " fill="#161616" transform="translate(62,30)"/>
<path d="M0 0 C1.32 0 2.64 0 4 0 C3.67 2.31 3.34 4.62 3 7 C2.01 7 1.02 7 0 7 C-0.66 6.34 -1.32 5.68 -2 5 C-1.46428571 1.46428571 -1.46428571 1.46428571 0 0 Z " fill="#242424" transform="translate(118,69)"/>
<path d="M0 0 C0.33 0 0.66 0 1 0 C1.22786458 2.05078125 1.45572917 4.1015625 1.68359375 6.15234375 C1.81886614 8.01140229 1.81886614 8.01140229 3 9 C3.66 8.01 4.32 7.02 5 6 C5 7.65 5 9.3 5 11 C1.85375007 11.26218749 0.38162983 11.24754367 -2.3125 9.5 C-2.869375 9.005 -3.42625 8.51 -4 8 C-3.525625 7.608125 -3.05125 7.21625 -2.5625 6.8125 C-0.64820367 4.59191626 -0.38733012 2.86624291 0 0 Z " fill="#D0D0D0" transform="translate(69,54)"/>
<path d="M0 0 C0.66 0.33 1.32 0.66 2 1 C1.67 2.65 1.34 4.3 1 6 C-5.28571429 8.42857143 -5.28571429 8.42857143 -9 7 C-6.14693203 4.67527795 -3.45925163 3.2491742 0 2 C0 1.34 0 0.68 0 0 Z " fill="#D3D3D3" transform="translate(47,113)"/>
<path d="M0 0 C0.66 0.33 1.32 0.66 2 1 C1.01 2.32 0.02 3.64 -1 5 C-1.99 4.67 -2.98 4.34 -4 4 C-4.33 4.99 -4.66 5.98 -5 7 C-6.84765625 7.73046875 -6.84765625 7.73046875 -9.0625 8.1875 C-9.79597656 8.34605469 -10.52945313 8.50460938 -11.28515625 8.66796875 C-11.85105469 8.77753906 -12.41695313 8.88710937 -13 9 C-10.59497637 6.36479259 -7.9814151 4.59697057 -4.9375 2.75 C-4.05964844 2.20859375 -3.18179688 1.6671875 -2.27734375 1.109375 C-1.52582031 0.74328125 -0.77429688 0.3771875 0 0 Z " fill="#C2C2C2" transform="translate(117,98)"/>
<path d="M0 0 C0.66 0 1.32 0 2 0 C1 7.42857143 1 7.42857143 0 11 C-0.99 11 -1.98 11 -3 11 C-3.33 9.68 -3.66 8.36 -4 7 C-3.01 6.67 -2.02 6.34 -1 6 C-0.67 4.02 -0.34 2.04 0 0 Z " fill="#E0E0E0" transform="translate(60,48)"/>
<path d="M0 0 C-0.625 1.9375 -0.625 1.9375 -2 4 C-5 4.875 -5 4.875 -8 5 C-8.66 4.34 -9.32 3.68 -10 3 C-9.67 2.34 -9.34 1.68 -9 1 C-5.85554549 0.15014743 -3.29227921 0 0 0 Z " fill="#D2D2D2" transform="translate(117,47)"/>
<path d="M0 0 C1.65 1.65 3.3 3.3 5 5 C4.01 5.33 3.02 5.66 2 6 C2 8.64 2 11.28 2 14 C1.67 14 1.34 14 1 14 C0.87625 12.906875 0.7525 11.81375 0.625 10.6875 C0.24535199 6.92618198 0.24535199 6.92618198 -2 4 C-1.34 3.34 -0.68 2.68 0 2 C0 1.34 0 0.68 0 0 Z " fill="#2C2C2C" transform="translate(112,33)"/>
<path d="M0 0 C0.93423645 3.01031744 1.04449911 3.86650268 0 7 C0.66 7 1.32 7 2 7 C1 9 1 9 -1 10 C-1.68472665 11.88764903 -1.68472665 11.88764903 -2.125 14.0625 C-2.29257812 14.79597656 -2.46015625 15.52945313 -2.6328125 16.28515625 C-2.75398438 16.85105469 -2.87515625 17.41695312 -3 18 C-4.89515194 11.41003985 -2.7986245 5.96228698 0 0 Z " fill="#585858" transform="translate(29,66)"/>
<path d="M0 0 C1.98 0 3.96 0 6 0 C5.67 0.99 5.34 1.98 5 3 C5.99 3.33 6.98 3.66 8 4 C8 4.66 8 5.32 8 6 C8.66 6.33 9.32 6.66 10 7 C8.02 7.33 6.04 7.66 4 8 C3.34 7.01 2.68 6.02 2 5 C2.66 5 3.32 5 4 5 C4 3.68 4 2.36 4 1 C2.68 0.67 1.36 0.34 0 0 Z " fill="#DEDEDE" transform="translate(52,128)"/>
<path d="M0 0 C2 0.875 2 0.875 3.25 3.4375 C3.4975 4.241875 3.745 5.04625 4 5.875 C4.66 5.875 5.32 5.875 6 5.875 C5.67 6.865 5.34 7.855 5 8.875 C4.01 8.215 3.02 7.555 2 6.875 C2 6.215 2 5.555 2 4.875 C1.38125 4.58625 0.7625 4.2975 0.125 4 C-2 2.875 -2 2.875 -4 0.875 C-2 -0.125 -2 -0.125 0 0 Z " fill="#DADADA" transform="translate(146,40.125)"/>
<path d="M0 0 C1.9451 2.91765 2.45276317 4.62537285 3 8 C-0.77545388 6.90931332 -3.47043472 6.0916909 -6 3 C-4.35 3 -2.7 3 -1 3 C-0.67 2.01 -0.34 1.02 0 0 Z " fill="#CACACA" transform="translate(61,160)"/>
<path d="M0 0 C2.52588702 2.36292656 3.88820837 3.66462511 5 7 C1.79604584 7 -0.09399739 6.25664978 -3 5 C-2.67 4.01 -2.34 3.02 -2 2 C-1.34 2 -0.68 2 0 2 C0 1.34 0 0.68 0 0 Z " fill="#ECECEC" transform="translate(40,154)"/>
<path d="M0 0 C0.33 0 0.66 0 1 0 C1.28571429 8.57142857 1.28571429 8.57142857 -1 12 C-1.66 11.34 -2.32 10.68 -3 10 C-2.79296875 7.87109375 -2.79296875 7.87109375 -2.1875 5.4375 C-1.99542969 4.63183594 -1.80335938 3.82617188 -1.60546875 2.99609375 C-1 1 -1 1 0 0 Z " fill="#0D0D0D" transform="translate(136,120)"/>
<path d="M0 0 C0.33 0.99 0.66 1.98 1 3 C1.99 3.33 2.98 3.66 4 4 C3.01 4 2.02 4 1 4 C1 4.66 1 5.32 1 6 C2.65 5.67 4.3 5.34 6 5 C5.67 6.65 5.34 8.3 5 10 C4.67 9.01 4.34 8.02 4 7 C2.68 7 1.36 7 0 7 C-0.33 6.01 -0.66 5.02 -1 4 C-1.99 3.34 -2.98 2.68 -4 2 C-2.68 2 -1.36 2 0 2 C0 1.34 0 0.68 0 0 Z " fill="#555555" transform="translate(118,107)"/>
<path d="M0 0 C0.66 0 1.32 0 2 0 C2.10836453 1.43583001 2.18576167 2.8740202 2.25 4.3125 C2.29640625 5.11300781 2.3428125 5.91351563 2.390625 6.73828125 C2 9 2 9 -2 12 C-1.34 8.04 -0.68 4.08 0 0 Z " fill="#191919" transform="translate(138,90)"/>
<path d="M0 0 C0.66 0 1.32 0 2 0 C2 0.99 2 1.98 2 3 C4.97 3.495 4.97 3.495 8 4 C8 5.32 8 6.64 8 8 C8.66 8 9.32 8 10 8 C10 9.98 10 11.96 10 14 C9.34 12.68 8.68 11.36 8 10 C7.34 10 6.68 10 6 10 C6 8.68 6 7.36 6 6 C5.195625 5.7525 4.39125 5.505 3.5625 5.25 C1 4 1 4 0.1875 1.875 C0.125625 1.25625 0.06375 0.6375 0 0 Z " fill="#A3A3A3" transform="translate(53,55)"/>
<path d="M0 0 C2.33294775 -0.04241723 4.66702567 -0.04092937 7 0 C8 1 8 1 8.0625 3.5625 C8.041875 4.366875 8.02125 5.17125 8 6 C7.01 6.33 6.02 6.66 5 7 C4.67 5.35 4.34 3.7 4 2 C2.35 2 0.7 2 -1 2 C-0.67 1.34 -0.34 0.68 0 0 Z " fill="#363636" transform="translate(173,37)"/>
<path d="M0 0 C-1.98 0.99 -1.98 0.99 -4 2 C-4 2.66 -4 3.32 -4 4 C-5.32 4.33 -6.64 4.66 -8 5 C-8.33 4.01 -8.66 3.02 -9 2 C-8.34 2 -7.68 2 -7 2 C-7 1.34 -7 0.68 -7 0 C-4.3333581 -1.33332095 -2.83319697 -0.67102033 0 0 Z " fill="#E2E2E2" transform="translate(86,98)"/>
<path d="M0 0 C0.33 0 0.66 0 1 0 C1.33 3.63 1.66 7.26 2 11 C0.68 11 -0.64 11 -2 11 C-2.33 9.35 -2.66 7.7 -3 6 C-2.34 5.67 -1.68 5.34 -1 5 C-0.34444881 2.47266765 -0.34444881 2.47266765 0 0 Z " fill="#4E4E4E" transform="translate(63,69)"/>
<path d="M0 0 C-0.33 0.99 -0.66 1.98 -1 3 C-2.98 3.33 -4.96 3.66 -7 4 C-6.625 2.0625 -6.625 2.0625 -6 0 C-3.50907189 -1.24546405 -2.58919267 -0.7767578 0 0 Z " fill="#040404" transform="translate(102,73)"/>
<path d="M0 0 C0.5534764 2.07553648 1 3.84365964 1 6 C0.34 6 -0.32 6 -1 6 C-1.33 6.99 -1.66 7.98 -2 9 C-2 8.34 -2 7.68 -2 7 C-3.65 7.33 -5.3 7.66 -7 8 C-7 7.34 -7 6.68 -7 6 C-5.33720673 4.9935725 -3.67016516 3.99414593 -2 3 C-1.34 2.01 -0.68 1.02 0 0 Z " fill="#DADADA" transform="translate(126,105)"/>
<path d="M0 0 C0.66 0.33 1.32 0.66 2 1 C1.67 4.96 1.34 8.92 1 13 C0.01 12.34 -0.98 11.68 -2 11 C-2.1875 8.375 -2.1875 8.375 -2 6 C-1.34 6 -0.68 6 0 6 C0 4.02 0 2.04 0 0 Z " fill="#3D3D3D" transform="translate(27,99)"/>
<path d="M0 0 C0.66 0.33 1.32 0.66 2 1 C2 1.99 2 2.98 2 4 C1.21625 4.309375 0.4325 4.61875 -0.375 4.9375 C-2.92330128 5.92875038 -2.92330128 5.92875038 -5 7 C-5.66 6.34 -6.32 5.68 -7 5 C-4.69 3.35 -2.38 1.7 0 0 Z " fill="#3E3E3E" transform="translate(99,89)"/>
<path d="M0 0 C0.66 0 1.32 0 2 0 C2 0.66 2 1.32 2 2 C2.66 2 3.32 2 4 2 C3.67 4.31 3.34 6.62 3 9 C2.34 9 1.68 9 1 9 C0.29925156 5.846632 0 3.27275026 0 0 Z " fill="#F1F1F1" transform="translate(122,35)"/>
<path d="M0 0 C0.66 0.33 1.32 0.66 2 1 C-1.44894652 6.78930308 -1.44894652 6.78930308 -4.125 7.8125 C-4.74375 7.874375 -5.3625 7.93625 -6 8 C-6.99 8.495 -6.99 8.495 -8 9 C-8.66 8.34 -9.32 7.68 -10 7 C-9.44570312 6.66226563 -8.89140625 6.32453125 -8.3203125 5.9765625 C-7.59585938 5.53054687 -6.87140625 5.08453125 -6.125 4.625 C-5.04605469 3.96371094 -5.04605469 3.96371094 -3.9453125 3.2890625 C-1.88206418 2.0146287 -1.88206418 2.0146287 0 0 Z " fill="#343434" transform="translate(112,160)"/>
<path d="M0 0 C1.98 0.495 1.98 0.495 4 1 C4 2.65 4 4.3 4 6 C4.66 6.33 5.32 6.66 6 7 C5.01 7.99 4.02 8.98 3 10 C1.875 5.25 1.875 5.25 3 3 C1.68 2.67 0.36 2.34 -1 2 C-0.67 1.34 -0.34 0.68 0 0 Z " fill="#111111" transform="translate(174,38)"/>
<path d="M0 0 C2.33333823 2.12121657 3.9148886 4.01594365 5 7 C4.625 9.25 4.625 9.25 4 11 C3.67 9.35 3.34 7.7 3 6 C2.01 6 1.02 6 0 6 C-1.125 2.25 -1.125 2.25 0 0 Z " fill="#C8C8C8" transform="translate(54,139)"/>
<path d="M0 0 C1.98 0.495 1.98 0.495 4 1 C3.67 2.32 3.34 3.64 3 5 C3.66 5.33 4.32 5.66 5 6 C3.68 5.67 2.36 5.34 1 5 C0.34 5.99 -0.32 6.98 -1 8 C-0.67 5.36 -0.34 2.72 0 0 Z " fill="#262626" transform="translate(56,60)"/>
<path d="M0 0 C0.66 0.33 1.32 0.66 2 1 C1.67 3.31 1.34 5.62 1 8 C-0.32 6.68 -1.64 5.36 -3 4 C-2.01 2.68 -1.02 1.36 0 0 Z " fill="#EDEDED" transform="translate(119,32)"/>
<path d="M0 0 C0.33 0 0.66 0 1 0 C1 2.31 1 4.62 1 7 C1.99 6.67 2.98 6.34 4 6 C2.61410019 9.09162264 1.50816459 10.49183541 -1 13 C-0.67 8.71 -0.34 4.42 0 0 Z " fill="#E2E2E2" transform="translate(68,154)"/>
<path d="M0 0 C0.66 1.32 1.32 2.64 2 4 C0.25 5.125 0.25 5.125 -2 6 C-4.25 5.125 -4.25 5.125 -6 4 C-4.35 3.67 -2.7 3.34 -1 3 C-0.67 2.01 -0.34 1.02 0 0 Z M-4 6 C-3.34 6 -2.68 6 -2 6 C-2 6.66 -2 7.32 -2 8 C-2.99 7.67 -3.98 7.34 -5 7 C-4.67 6.67 -4.34 6.34 -4 6 Z " fill="#D8D8D8" transform="translate(110,148)"/>
<path d="M0 0 C1.485 0.99 1.485 0.99 3 2 C3 2.66 3 3.32 3 4 C5.31 4.66 7.62 5.32 10 6 C10 6.33 10 6.66 10 7 C7.36 7 4.72 7 2 7 C2 6.34 2 5.68 2 5 C1.01 4.67 0.02 4.34 -1 4 C-0.34 4 0.32 4 1 4 C0.67 2.68 0.34 1.36 0 0 Z " fill="#2B2B2B" transform="translate(26,124)"/>
<path d="M0 0 C0.99 0 1.98 0 3 0 C3 1.98 3 3.96 3 6 C1.02 5.34 -0.96 4.68 -3 4 C-1.6875 2 -1.6875 2 0 0 Z " fill="#CECECE" transform="translate(145,73)"/>
<path d="M0 0 C1.32 0.66 2.64 1.32 4 2 C4 2.66 4 3.32 4 4 C3.34 4 2.68 4 2 4 C1.34 5.32 0.68 6.64 0 8 C-0.98120464 4.94736336 -0.98120464 3.05263664 0 0 Z " fill="#070707" transform="translate(100,52)"/>
<path d="M0 0 C0.66 0.33 1.32 0.66 2 1 C0.60667426 4.36720387 -0.9789286 5.9859524 -4 8 C-3.67 6.35 -3.34 4.7 -3 3 C-2.01 2.67 -1.02 2.34 0 2 C0 1.34 0 0.68 0 0 Z " fill="#1B1B1B" transform="translate(117,158)"/>
<path d="M0 0 C0.33 0 0.66 0 1 0 C1.33 1.98 1.66 3.96 2 6 C1.34 6 0.68 6 0 6 C-0.33 6.99 -0.66 7.98 -1 9 C-1.99 8.67 -2.98 8.34 -4 8 C-2.68 5.36 -1.36 2.72 0 0 Z " fill="#CBCBCB" transform="translate(132,139)"/>
<path d="M0 0 C0.66 0.99 1.32 1.98 2 3 C1.34 3 0.68 3 0 3 C-0.66 4.32 -1.32 5.64 -2 7 C-3.32 7 -4.64 7 -6 7 C-5.566875 6.5875 -5.13375 6.175 -4.6875 5.75 C-2.94161728 3.93945495 -1.47380729 2.03525768 0 0 Z " fill="#FCFCFC" transform="translate(137,56)"/>
<path d="M0 0 C0.66 0.33 1.32 0.66 2 1 C1.071875 2.1446875 1.071875 2.1446875 0.125 3.3125 C-2.05597052 5.99625809 -2.05597052 5.99625809 -4 9 C-4.33 7.35 -4.66 5.7 -5 4 C-3.35 2.68 -1.7 1.36 0 0 Z " fill="#D6D6D6" transform="translate(38,47)"/>
<path d="M0 0 C0.66 0.33 1.32 0.66 2 1 C2 1.66 2 2.32 2 3 C1.34 3 0.68 3 0 3 C0.33 5.31 0.66 7.62 1 10 C-0.32 8.68 -1.64 7.36 -3 6 C-2.34 5.67 -1.68 5.34 -1 5 C-0.34444881 2.47266765 -0.34444881 2.47266765 0 0 Z " fill="#DBDBDB" transform="translate(126,39)"/>
<path d="M0 0 C-0.66 1.65 -1.32 3.3 -2 5 C-4.31 5 -6.62 5 -9 5 C-7.36885863 1.73771726 -3.62038485 0 0 0 Z " fill="#BFBFBF" transform="translate(108,170)"/>
<path d="M0 0 C0.66 0.66 1.32 1.32 2 2 C-0.64 3.65 -3.28 5.3 -6 7 C-5 3 -5 3 -2.4375 1.25 C-1.2309375 0.63125 -1.2309375 0.63125 0 0 Z " fill="#333333" transform="translate(94,81)"/>
<path d="M0 0 C0.66 0.33 1.32 0.66 2 1 C1.34 2.65 0.68 4.3 0 6 C-1.98 6 -3.96 6 -6 6 C-4 4 -2 2 0 0 Z " fill="#CFCFCF" transform="translate(140,77)"/>
<path d="M0 0 C1.9375 0.8125 1.9375 0.8125 4 2 C4.33 2.99 4.66 3.98 5 5 C3.0625 5.5625 3.0625 5.5625 1 6 C0 5 0 5 -0.0625 2.4375 C-0.041875 1.633125 -0.02125 0.82875 0 0 Z " fill="#101010" transform="translate(108,31)"/>
<path d="M0 0 C1.32 0 2.64 0 4 0 C4.66 1.65 5.32 3.3 6 5 C5.01 5.33 4.02 5.66 3 6 C2.01 4.02 1.02 2.04 0 0 Z " fill="#E6E6E6" transform="translate(39,144)"/>
<path d="M0 0 C0.66 0.33 1.32 0.66 2 1 C1.67 2.32 1.34 3.64 1 5 C-0.32 4.67 -1.64 4.34 -3 4 C-3 3.01 -3 2.02 -3 1 C-2.01 0.67 -1.02 0.34 0 0 Z " fill="#060606" transform="translate(103,117)"/>
<path d="M0 0 C-0.66 1.98 -1.32 3.96 -2 6 C-2.99 5.34 -3.98 4.68 -5 4 C-7.11280345 3.36707617 -7.11280345 3.36707617 -9 3 C-2.25 0 -2.25 0 0 0 Z " fill="#424242" transform="translate(57,114)"/>
<path d="M0 0 C1.65 0 3.3 0 5 0 C4.6875 1.9375 4.6875 1.9375 4 4 C3.01 4.33 2.02 4.66 1 5 C0.67 3.35 0.34 1.7 0 0 Z " fill="#F9F9F9" transform="translate(127,47)"/>
<path d="M0 0 C0.66 0.66 1.32 1.32 2 2 C0.625 4.5 0.625 4.5 -1 7 C-1.66 7 -2.32 7 -3 7 C-3.1875 4.625 -3.1875 4.625 -3 2 C-2.01 1.34 -1.02 0.68 0 0 Z " fill="#111111" transform="translate(69,30)"/>
<path d="M0 0 C0.66 0 1.32 0 2 0 C2 0.66 2 1.32 2 2 C3.65 2.33 5.3 2.66 7 3 C6.67 3.66 6.34 4.32 6 5 C3.69 4.34 1.38 3.68 -1 3 C-0.67 2.01 -0.34 1.02 0 0 Z " fill="#060606" transform="translate(59,167)"/>
<path d="M0 0 C1.98 0.99 1.98 0.99 4 2 C4 2.66 4 3.32 4 4 C3.34 4 2.68 4 2 4 C1.67 5.32 1.34 6.64 1 8 C0 7 0 7 -0.0625 3.4375 C-0.041875 2.303125 -0.02125 1.16875 0 0 Z " fill="#2F2F2F" transform="translate(99,120)"/>
<path d="M0 0 C0.66 0 1.32 0 2 0 C2.33 1.32 2.66 2.64 3 4 C0.525 5.485 0.525 5.485 -2 7 C-2.33 6.34 -2.66 5.68 -3 5 C-1.6875 2.375 -1.6875 2.375 0 0 Z " fill="#E9E9E9" transform="translate(165,38)"/>
<path d="M0 0 C0.99 1.485 0.99 1.485 2 3 C2.66 2.67 3.32 2.34 4 2 C4 3.65 4 5.3 4 7 C3.34 6.67 2.68 6.34 2 6 C1.34 6.66 0.68 7.32 0 8 C0 5.36 0 2.72 0 0 Z " fill="#E3E3E3" transform="translate(97,134)"/>
<path d="M0 0 C0.66 0 1.32 0 2 0 C2 0.99 2 1.98 2 3 C2.66 3 3.32 3 4 3 C3.67 3.66 3.34 4.32 3 5 C0.03 4.505 0.03 4.505 -3 4 C-1.625 2 -1.625 2 0 0 Z " fill="#3C3C3C" transform="translate(111,80)"/>
<path d="M0 0 C0.66 0.99 1.32 1.98 2 3 C-0.25 4.5625 -0.25 4.5625 -3 6 C-4.32 5.67 -5.64 5.34 -7 5 C-4.69 3.35 -2.38 1.7 0 0 Z " fill="#2A2A2A" transform="translate(133,68)"/>
<path d="M0 0 C0.66 0 1.32 0 2 0 C1.34 3.63 0.68 7.26 0 11 C-0.33 11 -0.66 11 -1 11 C-1.0270043 9.54176788 -1.04639787 8.08339325 -1.0625 6.625 C-1.07410156 5.81289063 -1.08570312 5.00078125 -1.09765625 4.1640625 C-1 2 -1 2 0 0 Z " fill="#838383" transform="translate(102,56)"/>
<path d="M0 0 C0.66 0.33 1.32 0.66 2 1 C0.1875 3.5 0.1875 3.5 -2 6 C-2.99 6 -3.98 6 -5 6 C-3.86695008 2.60085025 -2.87481525 1.94745549 0 0 Z " fill="#BDBDBD" transform="translate(79,54)"/>
<path d="M0 0 C-0.33 1.32 -0.66 2.64 -1 4 C-3.31 4.33 -5.62 4.66 -8 5 C-3.22727273 0 -3.22727273 0 0 0 Z " fill="#343434" transform="translate(64,26)"/>
</svg>
