<?xml version="1.0" standalone="no"?>
<!DOCTYPE svg PUBLIC "-//W3C//DTD SVG 20010904//EN"
 "http://www.w3.org/TR/2001/REC-SVG-20010904/DTD/svg10.dtd">
<svg version="1.0" xmlns="http://www.w3.org/2000/svg"
 width="100.000000pt" height="100.000000pt" viewBox="0 0 100.000000 100.000000"
 preserveAspectRatio="xMidYMid meet">
<metadata>
Created by potrace 1.16, written by Peter Selinger 2001-2019
</metadata>
<g transform="translate(0.000000,100.000000) scale(0.100000,-0.100000)"
fill="#000000" stroke="none">
<path d="M0 500 l0 -500 379 0 378 0 -7 39 c-4 21 -17 54 -28 73 -12 20 -22
45 -22 56 0 29 -17 37 -25 11 -11 -35 -64 -87 -101 -99 -80 -27 -164 12 -206
93 -19 38 -28 99 -18 122 3 6 1 10 -5 10 -5 0 -10 -7 -11 -15 -6 -54 -27 -106
-55 -139 -19 -22 -41 -50 -50 -62 -14 -20 -19 -22 -33 -10 -18 15 -21 62 -5
78 16 16 -20 33 -94 43 -33 5 -65 15 -71 22 -6 7 -7 10 -2 6 6 -5 23 -8 39 -8
38 0 108 -18 129 -34 15 -11 16 -17 6 -44 -9 -24 -9 -34 2 -47 12 -15 15 -14
28 12 8 15 30 46 49 67 40 47 42 59 7 46 -60 -23 -104 16 -104 93 0 40 -5 53
-29 78 -16 16 -32 29 -35 29 -13 0 -5 -34 15 -58 26 -34 9 -40 -37 -13 -39 23
-54 26 -54 11 0 -9 27 -36 80 -78 l25 -20 -67 -4 c-36 -1 -64 0 -61 5 2 4 25
7 50 7 l46 0 -41 38 c-23 22 -42 46 -42 55 0 22 33 22 65 1 14 -9 25 -12 25
-6 0 6 -5 14 -10 17 -14 9 -13 55 2 55 6 0 22 -10 35 -22 l23 -21 0 54 c0 30
4 59 8 65 23 35 108 40 142 9 22 -20 90 -149 90 -171 0 -8 5 -14 11 -14 22 0
-29 109 -86 185 -29 37 -34 50 -23 56 7 5 19 9 26 9 6 0 12 5 12 11 0 13 -47
4 -68 -13 -10 -8 -10 -14 0 -27 8 -11 6 -10 -8 2 -19 18 -19 18 1 33 11 8 30
17 43 21 16 4 22 13 22 32 0 14 7 39 15 55 8 15 15 38 15 51 0 12 9 33 19 47
13 16 17 29 10 39 -24 38 1 127 40 149 22 11 61 13 86 4 9 -4 27 -30 42 -58
35 -71 71 -116 91 -116 10 0 27 -7 39 -15 17 -12 23 -12 27 -2 5 9 7 9 12 0 4
-9 11 -10 25 -3 10 6 19 7 19 2 0 -16 -40 -60 -58 -66 -23 -8 -54 -60 -46 -80
3 -8 21 -20 40 -26 40 -14 42 -24 15 -109 l-19 -62 61 2 c34 2 72 -1 84 -5 29
-9 39 -49 25 -100 -6 -23 -9 -42 -7 -44 2 -2 14 4 27 12 38 25 54 -9 22 -45
-15 -16 -13 -17 25 -12 32 4 41 2 41 -9 0 -21 -21 -44 -55 -61 l-29 -15 42
-13 c29 -8 42 -18 42 -30 0 -24 -27 -31 -108 -28 l-67 2 3 -27 c2 -15 -4 -38
-12 -52 l-16 -24 105 0 105 0 0 500 0 500 -500 0 -500 0 0 -500z"/>
<path d="M434 948 l-19 -23 25 20 c14 11 27 21 29 22 2 2 0 3 -6 3 -5 0 -18
-10 -29 -22z"/>
<path d="M411 904 c0 -11 3 -14 6 -6 3 7 2 16 -1 19 -3 4 -6 -2 -5 -13z"/>
<path d="M486 858 c3 -4 9 -8 15 -8 5 0 9 4 9 8 0 5 -7 9 -15 9 -8 0 -12 -4
-9 -9z"/>
<path d="M411 844 c0 -11 3 -14 6 -6 3 7 2 16 -1 19 -3 4 -6 -2 -5 -13z"/>
<path d="M467 827 c6 -29 5 -31 -10 -18 -20 16 -22 8 -6 -22 l12 -22 -22 20
-23 20 -19 -24 c-10 -13 -19 -30 -19 -39 0 -9 -8 -36 -17 -60 -13 -34 -14 -51
-6 -72 6 -15 8 -46 6 -69 -4 -38 8 -54 22 -31 3 6 1 10 -5 10 -6 0 -8 5 -5 10
12 20 27 10 21 -14 -8 -34 0 -36 52 -13 29 12 73 21 117 23 39 2 71 4 72 6 1
2 0 13 -4 26 -4 16 -11 21 -24 17 -10 -3 -32 1 -49 10 -32 16 -54 11 -79 -19
-9 -10 -28 -14 -61 -13 -30 1 -43 5 -35 10 10 5 13 18 9 40 l-5 32 13 -34 c17
-46 43 -55 33 -13 -3 17 -1 40 4 51 16 29 41 16 41 -21 0 -25 3 -29 18 -22 9
4 26 7 37 7 19 -1 20 5 19 71 -2 52 -1 60 4 31 4 -22 11 -38 17 -35 13 7 36
-41 32 -67 -4 -20 -2 -20 18 -7 12 8 25 11 28 7 4 -3 7 14 8 38 0 24 2 52 4
63 2 11 -3 20 -13 23 -9 2 -25 22 -34 44 -18 43 -39 50 -61 19 -13 -18 -14
-17 -26 17 -10 26 -15 32 -22 22 -5 -8 -9 -9 -9 -4 0 6 -9 16 -20 23 -18 11
-19 10 -13 -21z m173 -137 c-1 -21 -3 -19 -14 13 -8 20 -18 43 -22 50 -5 7 1
1 13 -13 13 -14 23 -36 23 -50z m-234 24 c-6 -19 -12 -28 -14 -20 -3 13 14 56
22 56 2 0 -2 -16 -8 -36z m71 -46 c-3 -8 -6 -5 -6 6 -1 11 2 17 5 13 3 -3 4
-12 1 -19z m-90 -20 c-3 -8 -6 -5 -6 6 -1 11 2 17 5 13 3 -3 4 -12 1 -19z
m260 -20 c-3 -7 -5 -2 -5 12 0 14 2 19 5 13 2 -7 2 -19 0 -25z m-87 -77 c-50
-15 -94 -21 -85 -12 13 12 42 19 80 19 29 0 29 0 5 -7z"/>
<path d="M586 835 c4 -8 11 -15 16 -15 6 0 5 6 -2 15 -7 8 -14 15 -16 15 -2 0
-1 -7 2 -15z"/>
<path d="M660 786 c0 -2 7 -7 16 -10 8 -3 12 -2 9 4 -6 10 -25 14 -25 6z"/>
<path d="M640 761 c0 -6 4 -13 10 -16 6 -3 7 1 4 9 -7 18 -14 21 -14 7z"/>
<path d="M670 608 c0 -5 9 -12 20 -15 12 -3 20 -14 20 -28 0 -32 -36 -131 -66
-182 -14 -25 -24 -47 -21 -50 9 -9 75 121 96 191 12 38 20 71 18 73 -12 11
-67 21 -67 11z"/>
<path d="M646 574 c10 -8 12 -12 4 -8 -12 6 -13 4 -3 -6 7 -8 16 -11 19 -7 11
11 -5 37 -23 37 -15 0 -15 -2 3 -16z"/>
<path d="M676 542 c-2 -4 -1 -14 4 -22 7 -11 9 -9 7 8 -1 24 -3 26 -11 14z"/>
<path d="M202 508 c-7 -7 -12 -16 -12 -22 0 -5 6 -3 13 6 6 9 23 19 37 21 l25
4 -25 2 c-15 0 -31 -4 -38 -11z"/>
<path d="M655 511 c-3 -6 -5 -22 -4 -38 1 -15 -2 -37 -5 -48 -7 -20 -7 -20 5
0 7 11 13 37 13 57 1 41 0 43 -9 29z"/>
<path d="M520 500 c0 -5 5 -10 10 -10 6 0 10 5 10 10 0 6 -4 10 -10 10 -5 0
-10 -4 -10 -10z"/>
<path d="M613 449 c-14 -75 -34 -99 -83 -99 -44 0 -64 19 -86 83 -9 26 -20 45
-25 42 -8 -6 32 -107 52 -132 7 -7 32 -13 59 -13 59 0 84 26 94 97 4 27 9 56
12 66 3 9 2 17 -3 17 -5 0 -14 -27 -20 -61z"/>
<path d="M310 486 c0 -2 8 -10 18 -17 15 -13 16 -12 3 4 -13 16 -21 21 -21 13z"/>
<path d="M390 465 c0 -5 5 -17 10 -25 5 -8 10 -10 10 -5 0 6 -5 17 -10 25 -5
8 -10 11 -10 5z"/>
<path d="M192 400 c0 -19 2 -27 5 -17 2 9 2 25 0 35 -3 9 -5 1 -5 -18z"/>
<path d="M828 423 c7 -3 16 -2 19 1 4 3 -2 6 -13 5 -11 0 -14 -3 -6 -6z"/>
<path d="M675 384 c-9 -15 -12 -23 -6 -20 11 7 35 46 28 46 -3 0 -12 -12 -22
-26z"/>
<path d="M861 374 c0 -11 3 -14 6 -6 3 7 2 16 -1 19 -3 4 -6 -2 -5 -13z"/>
<path d="M304 356 c11 -9 24 -16 30 -16 12 0 7 5 -24 19 -24 11 -24 11 -6 -3z"/>
<path d="M851 334 c0 -11 3 -14 6 -6 3 7 2 16 -1 19 -3 4 -6 -2 -5 -13z"/>
<path d="M200 326 c0 -8 7 -17 16 -20 23 -9 24 -4 2 17 -14 13 -18 14 -18 3z"/>
<path d="M299 327 c6 -8 7 -18 3 -22 -4 -5 -1 -5 6 -1 10 6 10 11 1 22 -6 8
-14 14 -16 14 -3 0 0 -6 6 -13z"/>
<path d="M502 303 c12 -15 50 -14 55 2 1 6 -13 10 -32 11 -28 0 -32 -2 -23
-13z"/>
<path d="M895 300 c-21 -14 -33 -32 -41 -62 -7 -24 -17 -42 -23 -40 -7 1 -10
-2 -6 -7 10 -17 -36 -34 -76 -28 -22 3 -39 3 -39 1 0 -3 11 -26 25 -52 14 -26
25 -57 25 -70 0 -17 5 -23 18 -20 13 3 17 14 17 50 l0 47 79 -3 c43 -3 85 -2
92 1 25 9 14 22 -28 34 -64 17 -64 19 -12 48 26 14 50 32 52 40 5 14 -9 13
-84 -5 l-29 -7 33 30 c17 17 32 38 32 47 0 19 2 19 -35 -4z"/>
<path d="M391 294 c0 -11 3 -14 6 -6 3 7 2 16 -1 19 -3 4 -6 -2 -5 -13z"/>
<path d="M204 282 c22 -25 86 -31 104 -9 8 9 0 12 -36 12 -26 0 -56 5 -67 9
-20 9 -20 9 -1 -12z"/>
<path d="M687 273 c-4 -3 -7 -11 -7 -17 0 -6 5 -5 12 2 6 6 9 14 7 17 -3 3 -9
2 -12 -2z"/>
<path d="M826 263 c-6 -14 -5 -15 5 -6 7 7 10 15 7 18 -3 3 -9 -2 -12 -12z"/>
<path d="M415 250 c10 -11 20 -20 23 -20 3 0 -3 9 -13 20 -10 11 -20 20 -23
20 -3 0 3 -9 13 -20z"/>
<path d="M650 255 c-11 -13 -10 -14 4 -9 9 3 16 10 16 15 0 13 -6 11 -20 -6z"/>
<path d="M214 246 c11 -9 31 -16 45 -15 24 1 24 2 -5 8 -17 4 -37 11 -45 15
-8 4 -5 0 5 -8z"/>
<path d="M361 244 c0 -11 3 -14 6 -6 3 7 2 16 -1 19 -3 4 -6 -2 -5 -13z"/>
<path d="M703 223 c0 -30 28 -45 75 -40 l37 4 -41 1 c-25 1 -47 9 -55 19 -12
15 -12 16 6 9 38 -16 60 -17 88 -7 39 15 34 30 -7 21 -20 -4 -47 -3 -68 5 -34
11 -35 11 -35 -12z"/>
<path d="M758 243 c12 -2 30 -2 40 0 9 3 -1 5 -23 4 -22 0 -30 -2 -17 -4z"/>
<path d="M640 225 c0 -5 5 -17 10 -25 5 -8 10 -10 10 -5 0 6 -5 17 -10 25 -5
8 -10 11 -10 5z"/>
<path d="M499 173 l-24 -28 28 24 c15 14 27 26 27 28 0 8 -8 1 -31 -24z"/>
<path d="M567 179 c7 -7 15 -10 18 -7 3 3 -2 9 -12 12 -14 6 -15 5 -6 -5z"/>
<path d="M609 133 l-24 -28 28 24 c15 14 27 26 27 28 0 8 -8 1 -31 -24z"/>
<path d="M444 116 c11 -9 24 -16 30 -16 12 0 7 5 -24 19 -24 11 -24 11 -6 -3z"/>
<path d="M558 103 c7 -3 16 -2 19 1 4 3 -2 6 -13 5 -11 0 -14 -3 -6 -6z"/>
</g>
</svg>
