<?xml version="1.0" standalone="no"?>
<!DOCTYPE svg PUBLIC "-//W3C//DTD SVG 20010904//EN"
 "http://www.w3.org/TR/2001/REC-SVG-20010904/DTD/svg10.dtd">
<svg version="1.0" xmlns="http://www.w3.org/2000/svg"
 width="100.000000pt" height="200.000000pt" viewBox="0 0 100.000000 200.000000"
 preserveAspectRatio="xMidYMid meet">
<metadata>
Created by potrace 1.16, written by Peter Selinger 2001-2019
</metadata>
<g transform="translate(0.000000,200.000000) scale(0.100000,-0.100000)"
fill="#000000" stroke="none">
<path d="M324 1765 c-3 -20 -4 -68 -2 -106 6 -76 2 -79 -24 -16 l-18 42 7 -80
c7 -93 7 -87 3 -145 -2 -43 -3 -42 -10 20 -8 69 -33 140 -48 140 -5 0 -1 -30
9 -67 21 -75 24 -97 8 -70 -17 29 -26 11 -19 -35 4 -24 11 -63 14 -88 l7 -45
-20 49 c-11 28 -27 56 -35 65 -14 13 -16 13 -22 -3 -4 -9 -2 -28 5 -42 16 -36
14 -44 -13 -44 -29 0 -43 -17 -27 -33 9 -9 6 -16 -10 -28 -29 -22 -19 -50 31
-84 38 -26 71 -86 51 -93 -5 -2 -30 -19 -55 -38 -45 -34 -62 -42 -51 -24 3 6
2 10 -3 10 -9 0 -22 -23 -22 -36 0 -3 10 -2 21 1 15 5 19 4 15 -4 -4 -6 -14
-11 -22 -11 -8 0 -12 -5 -9 -11 4 -6 14 -8 22 -5 8 3 26 -3 40 -14 15 -11 41
-20 61 -20 25 0 45 -9 71 -32 l36 -33 -37 -35 -37 -36 29 -59 c17 -33 30 -66
30 -72 0 -24 29 -13 45 16 22 44 35 47 14 3 -23 -45 -39 -127 -39 -194 0 -56
14 -57 25 -1 4 21 12 44 18 51 8 10 7 16 -4 23 -11 7 -11 9 4 9 9 0 17 7 17
17 0 21 15 7 15 -15 2 -45 55 -175 55 -134 0 7 4 11 9 8 8 -6 25 -79 24 -104
-1 -7 -3 -50 -6 -95 -3 -49 -2 -74 3 -62 5 11 9 50 9 88 1 37 5 67 11 67 6 0
10 -12 10 -27 0 -56 16 -54 34 2 9 30 21 55 26 55 5 0 14 16 21 35 15 42 26
35 48 -32 14 -41 20 -48 42 -48 18 0 25 -4 22 -15 -2 -8 3 -33 11 -55 l15 -40
0 40 c1 22 -4 56 -9 75 -6 19 -12 51 -14 70 -2 19 -6 46 -10 60 -6 23 -6 23 5
5 17 -29 39 -44 55 -38 11 4 13 17 8 57 -8 62 7 54 36 -20 18 -47 19 -48 20
-16 0 18 -4 40 -9 50 -5 9 -20 45 -32 80 -13 34 -27 62 -31 62 -5 0 -8 5 -8
10 0 14 27 -1 62 -33 15 -14 29 -23 31 -20 3 2 8 -4 11 -15 4 -11 13 -23 21
-26 20 -7 20 30 0 79 -12 26 -13 40 -5 50 7 9 7 21 0 39 -12 31 2 66 25 66 23
0 18 19 -9 31 -17 8 -29 8 -44 0 -28 -15 -29 -14 -36 13 -3 13 -13 27 -23 30
-16 6 -16 6 0 -12 21 -23 23 -39 2 -22 -8 7 -23 9 -37 4 -23 -7 -23 -7 4 -16
24 -8 26 -11 13 -24 -13 -13 -18 -13 -40 2 -14 9 -25 12 -25 6 0 -6 5 -14 11
-18 8 -5 7 -9 -3 -15 -10 -5 -14 -18 -11 -33 3 -13 0 -27 -6 -30 -6 -4 -11
-16 -11 -27 0 -11 -7 -22 -16 -26 -10 -4 -14 -13 -10 -28 3 -13 -1 -36 -9 -51
l-15 -29 0 30 c-1 32 -20 65 -39 65 -6 0 -11 -11 -11 -24 0 -14 -4 -28 -10
-31 -6 -4 -10 7 -10 24 0 41 -20 40 -21 -1 l-2 -33 -7 35 c-7 35 -10 33 -25
-16 -10 -31 -30 -8 -27 32 l2 39 -20 -43 c-11 -24 -24 -41 -30 -37 -13 8 -9
55 7 80 19 29 16 49 -12 73 -14 12 -25 31 -25 43 0 12 -9 38 -19 58 -23 42
-34 83 -36 131 0 19 -4 42 -7 50 -9 19 -38 109 -38 115 0 3 5 5 11 5 5 0 7 -5
3 -12 -5 -7 -3 -8 5 -3 8 4 10 17 7 31 -7 25 8 34 17 12 3 -7 3 4 0 25 -4 24
-2 37 6 37 6 0 11 10 12 23 0 21 1 21 9 2 6 -15 9 -8 10 30 2 48 2 49 10 16 5
-19 6 -41 2 -49 -4 -11 -1 -14 11 -9 19 7 23 -3 7 -19 -5 -5 -18 -35 -29 -66
-19 -56 -19 -57 0 -63 10 -4 23 -3 29 0 14 9 12 -28 -2 -44 -11 -11 -9 -11 10
-1 15 7 21 17 18 27 -3 8 -6 19 -6 24 0 6 -9 7 -20 4 -24 -8 -24 -7 -5 38 8
19 12 37 8 40 -3 4 6 11 20 18 21 10 33 25 55 72 3 5 -6 4 -18 -3 -12 -6 -23
-10 -24 -8 -2 2 -5 55 -8 118 -3 63 -3 102 0 85 4 -26 5 -27 12 -10 7 19 8 18
13 -5 3 -14 9 -56 13 -95 5 -54 9 -64 15 -45 6 22 7 20 8 -12 1 -21 5 -38 9
-38 4 0 6 16 4 35 -2 19 0 41 6 48 5 6 13 36 17 65 11 80 25 62 25 -34 0 -62
3 -83 12 -78 8 5 9 -4 5 -33 -7 -44 12 -83 41 -83 14 0 17 -11 18 -60 0 -33 6
-66 12 -72 15 -15 16 -32 2 -23 -5 3 -10 2 -10 -3 0 -5 8 -13 18 -18 15 -8 16
-14 7 -42 l-11 -33 -14 26 c-7 14 -18 25 -23 25 -5 0 -4 -7 3 -15 6 -8 9 -18
6 -23 -3 -5 6 -15 19 -22 14 -7 25 -17 25 -22 0 -18 34 -6 73 24 23 18 41 33
42 33 0 0 8 -7 16 -15 22 -20 13 -38 -18 -34 -28 3 -90 -23 -96 -41 -8 -20 43
-15 73 7 17 12 33 19 36 15 4 -4 13 1 20 11 10 13 16 14 22 5 8 -13 52 -7 52
7 0 5 -10 11 -22 13 l-23 4 23 2 c26 1 26 1 7 48 -9 21 -13 49 -10 64 6 27
-14 81 -35 94 -6 4 -22 0 -35 -9 -19 -12 -25 -13 -34 -2 -7 9 -2 29 19 74 16
34 25 64 20 67 -4 3 -28 3 -53 1 -41 -4 -46 -2 -49 17 -2 16 -9 21 -25 19 -21
-3 -23 0 -23 50 0 29 9 87 20 128 10 41 17 76 14 79 -12 13 -34 -31 -48 -96
-8 -39 -22 -84 -31 -100 -15 -26 -16 -27 -10 -3 19 72 16 148 -5 135 -5 -3 -7
15 -3 44 4 39 1 58 -16 91 -11 22 -22 55 -22 73 l-2 32 -4 -30 c-2 -16 -11
-50 -20 -75 -8 -25 -17 -52 -20 -60 -8 -29 -23 13 -23 68 0 69 -17 67 -26 -4
l-7 -57 -13 39 c-8 22 -14 48 -15 59 -1 12 -6 5 -13 -18 l-12 -38 -17 72 c-20
89 -33 105 -43 54z m225 -155 c0 -9 -4 -8 -9 5 -5 11 -9 27 -9 35 0 9 4 8 9
-5 5 -11 9 -27 9 -35z m-130 -55 c0 -16 -4 -37 -9 -45 -7 -10 -9 6 -9 55 1 50
3 63 9 45 4 -14 8 -38 9 -55z m61 -10 c0 -14 -5 -25 -11 -25 -6 0 -8 -7 -4
-17 4 -12 3 -14 -3 -8 -12 12 -4 75 9 75 5 0 9 -11 9 -25z m137 -217 c-3 -7
-5 -2 -5 12 0 14 2 19 5 13 2 -7 2 -19 0 -25z m-431 -308 c0 -14 -5 -15 -28
-6 -23 9 -25 12 -11 17 28 10 39 7 39 -11z m577 5 c-3 -9 -8 -14 -10 -11 -3 3
-2 9 2 15 9 16 15 13 8 -4z m47 11 c0 -2 -8 -10 -17 -17 -16 -13 -17 -12 -4 4
13 16 21 21 21 13z m-104 -64 c-17 -16 -18 -16 -5 5 7 12 15 20 18 17 3 -2 -3
-12 -13 -22z m44 15 c0 -2 -15 -18 -34 -36 -24 -24 -36 -29 -41 -20 -5 7 -4
10 2 6 5 -4 23 7 38 23 27 28 35 34 35 27z m-537 -14 c-7 -2 -19 -2 -25 0 -7
3 -2 5 12 5 14 0 19 -2 13 -5z m603 -209 c14 -10 23 -23 20 -31 -3 -8 -2 -11
3 -8 5 3 13 0 17 -6 4 -8 3 -9 -4 -5 -7 4 -12 2 -12 -5 0 -7 -15 1 -32 18 -18
17 -42 35 -53 41 -18 11 -18 11 8 12 15 0 39 -7 53 -16z m-279 -206 c-3 -7 -5
-2 -5 12 0 14 2 19 5 13 2 -7 2 -19 0 -25z"/>
<path d="M426 1195 c4 -8 8 -15 10 -15 2 0 4 7 4 15 0 8 -4 15 -10 15 -5 0 -7
-7 -4 -15z"/>
<path d="M526 1157 c3 -10 9 -15 12 -12 3 3 0 11 -7 18 -10 9 -11 8 -5 -6z"/>
<path d="M400 1150 c0 -5 5 -10 10 -10 6 0 10 5 10 10 0 6 -4 10 -10 10 -5 0
-10 -4 -10 -10z"/>
<path d="M340 1100 c0 -5 7 -10 15 -10 8 0 15 5 15 10 0 6 -7 10 -15 10 -8 0
-15 -4 -15 -10z"/>
<path d="M435 1100 c3 -5 8 -10 11 -10 2 0 4 5 4 10 0 6 -5 10 -11 10 -5 0 -7
-4 -4 -10z"/>
<path d="M340 1040 c0 -5 5 -10 10 -10 6 0 10 5 10 10 0 6 -4 10 -10 10 -5 0
-10 -4 -10 -10z"/>
<path d="M380 1025 c-7 -9 -8 -15 -2 -15 5 0 12 7 16 15 3 8 4 15 2 15 -2 0
-9 -7 -16 -15z"/>
<path d="M480 1030 c0 -5 5 -10 11 -10 5 0 7 5 4 10 -3 6 -8 10 -11 10 -2 0
-4 -4 -4 -10z"/>
<path d="M767 949 c7 -7 15 -10 18 -7 3 3 -2 9 -12 12 -14 6 -15 5 -6 -5z"/>
<path d="M677 853 c-4 -3 -7 -11 -7 -17 0 -6 5 -5 12 2 6 6 9 14 7 17 -3 3 -9
2 -12 -2z"/>
<path d="M220 820 c0 -11 4 -20 8 -20 4 0 8 9 9 20 1 11 -2 20 -8 20 -5 0 -9
-9 -9 -20z"/>
<path d="M847 460 c3 -11 9 -22 13 -25 5 -3 6 4 3 15 -3 11 -9 22 -13 25 -5 3
-6 -4 -3 -15z"/>
<path d="M601 144 c0 -11 3 -14 6 -6 3 7 2 16 -1 19 -3 4 -6 -2 -5 -13z"/>
<path d="M462 120 c0 -14 2 -19 5 -12 2 6 2 18 0 25 -3 6 -5 1 -5 -13z"/>
<path d="M452 20 c0 -14 2 -19 5 -12 2 6 2 18 0 25 -3 6 -5 1 -5 -13z"/>
</g>
</svg>
