<?xml version="1.0" standalone="no"?>
<!DOCTYPE svg PUBLIC "-//W3C//DTD SVG 20010904//EN"
 "http://www.w3.org/TR/2001/REC-SVG-20010904/DTD/svg10.dtd">
<svg version="1.0" xmlns="http://www.w3.org/2000/svg"
 width="150.000000pt" height="150.000000pt" viewBox="0 0 150.000000 150.000000"
 preserveAspectRatio="xMidYMid meet">
<metadata>
Created by potrace 1.16, written by Peter Selinger 2001-2019
</metadata>
<g transform="translate(0.000000,150.000000) scale(0.100000,-0.100000)"
fill="#000000" stroke="none">
<path d="M745 1490 l750 -5 -750 -5 -750 -5 750 -5 c413 -3 737 -8 720 -11
l-30 -6 28 -2 c16 0 26 -5 22 -10 -3 -5 -1 -12 5 -16 6 -4 10 9 10 34 l0 41
-752 -2 -753 -3 750 -5z"/>
<path d="M58 1453 c34 -2 90 -2 125 0 34 2 6 3 -63 3 -69 0 -97 -1 -62 -3z"/>
<path d="M513 1453 c148 -2 386 -2 530 0 144 1 24 2 -268 2 -292 0 -409 -1
-262 -2z"/>
<path d="M1338 1453 c18 -2 45 -2 60 0 15 2 0 4 -33 4 -33 0 -45 -2 -27 -4z"/>
<path d="M7 1433 c7 -2 19 -2 26 0 6 3 1 5 -13 5 -14 0 -19 -2 -13 -5z"/>
<path d="M316 1423 c-6 -14 -5 -15 5 -6 7 7 10 15 7 18 -3 3 -9 -2 -12 -12z"/>
<path d="M1441 1435 c-1 -14 11 -30 34 -44 18 -11 17 -12 -10 -7 l-30 5 30
-14 30 -14 -28 -1 c-16 0 -26 -4 -23 -9 3 -5 16 -7 28 -3 11 3 19 1 16 -4 -3
-5 -2 -18 3 -29 5 -14 8 -2 8 37 1 50 -1 57 -16 51 -11 -4 -14 -3 -9 5 4 7 1
12 -8 12 -8 0 -17 6 -19 13 -3 6 -6 8 -6 2z"/>
<path d="M7 1413 c7 -2 19 -2 26 0 6 3 1 5 -13 5 -14 0 -19 -2 -13 -5z"/>
<path d="M7 1393 c7 -2 19 -2 26 0 6 3 1 5 -13 5 -14 0 -19 -2 -13 -5z"/>
<path d="M7 1373 c7 -2 19 -2 26 0 6 3 1 5 -13 5 -14 0 -19 -2 -13 -5z"/>
<path d="M7 1353 c7 -2 19 -2 26 0 6 3 1 5 -13 5 -14 0 -19 -2 -13 -5z"/>
<path d="M7 1333 c7 -2 19 -2 26 0 6 3 1 5 -13 5 -14 0 -19 -2 -13 -5z"/>
<path d="M820 1333 c0 -15 18 -35 23 -27 3 5 -1 15 -9 22 -8 7 -14 9 -14 5z"/>
<path d="M855 1330 c3 -5 8 -10 11 -10 2 0 4 5 4 10 0 6 -5 10 -11 10 -5 0 -7
-4 -4 -10z"/>
<path d="M7 1313 c7 -2 19 -2 26 0 6 3 1 5 -13 5 -14 0 -19 -2 -13 -5z"/>
<path d="M880 1310 c0 -5 -8 -10 -17 -10 -15 0 -16 -2 -3 -10 12 -8 9 -10 -12
-10 -16 0 -28 5 -28 10 0 6 -5 10 -11 10 -8 0 -9 -4 0 -13 11 -14 5 -27 -11
-27 -5 0 -6 5 -3 10 3 6 1 10 -5 10 -21 0 -4 -25 19 -28 17 -3 21 0 15 9 -5 9
-2 10 10 6 10 -4 24 1 36 13 19 19 27 40 15 40 -3 0 -5 -4 -5 -10z"/>
<path d="M7 1293 c7 -2 19 -2 26 0 6 3 1 5 -13 5 -14 0 -19 -2 -13 -5z"/>
<path d="M7 1273 c7 -2 19 -2 26 0 6 3 1 5 -13 5 -14 0 -19 -2 -13 -5z"/>
<path d="M890 1276 c0 -2 7 -6 15 -10 8 -3 15 -1 15 4 0 6 -7 10 -15 10 -8 0
-15 -2 -15 -4z"/>
<path d="M7 1253 c7 -2 19 -2 26 0 6 3 1 5 -13 5 -14 0 -19 -2 -13 -5z"/>
<path d="M755 1250 c-3 -6 1 -13 9 -16 9 -3 13 -10 10 -15 -3 -5 2 -9 11 -9
14 0 14 2 -1 25 -18 28 -20 29 -29 15z"/>
<path d="M868 1253 c6 -2 18 -2 25 0 6 3 1 5 -13 5 -14 0 -19 -2 -12 -5z"/>
<path d="M721 1237 c-6 -8 -8 -17 -4 -20 12 -13 22 -7 20 13 -2 24 -1 24 -16
7z"/>
<path d="M828 1243 c-10 -2 -18 -8 -18 -13 0 -4 9 -6 20 -3 11 3 20 9 20 14 0
5 -1 8 -2 8 -2 -1 -11 -3 -20 -6z"/>
<path d="M895 1240 c-18 -8 -17 -9 8 -9 16 -1 26 3 22 9 -3 6 -7 10 -8 9 -1 0
-11 -4 -22 -9z"/>
<path d="M7 1233 c7 -2 19 -2 26 0 6 3 1 5 -13 5 -14 0 -19 -2 -13 -5z"/>
<path d="M640 1225 c-10 -12 -10 -15 1 -15 11 0 11 -2 -1 -10 -13 -8 -12 -10
4 -10 13 0 16 5 12 17 -4 9 -1 20 6 25 8 5 9 8 2 8 -6 0 -17 -7 -24 -15z"/>
<path d="M1487 1204 c3 -24 0 -39 -9 -45 -10 -7 -10 -9 2 -10 10 0 8 -3 -5 -9
-18 -8 -18 -9 -2 -9 10 -1 16 -4 14 -8 -3 -5 -1 -17 4 -28 5 -13 8 8 8 57 1
42 -3 79 -8 82 -5 3 -7 -10 -4 -30z"/>
<path d="M681 1216 c-9 -11 -9 -16 1 -22 7 -4 10 -4 6 1 -4 4 -3 14 3 22 6 7
9 13 6 13 -2 0 -10 -6 -16 -14z"/>
<path d="M7 1213 c7 -2 19 -2 26 0 6 3 1 5 -13 5 -14 0 -19 -2 -13 -5z"/>
<path d="M843 1213 c9 -2 25 -2 35 0 9 3 1 5 -18 5 -19 0 -27 -2 -17 -5z"/>
<path d="M917 1214 c-4 -4 -24 -10 -44 -13 -37 -6 -48 -22 -21 -29 10 -3 10
-2 -1 6 -10 7 -3 11 25 14 46 5 86 -1 78 -13 -2 -5 -19 -6 -37 -4 -27 4 -28 3
-7 -3 21 -7 23 -9 9 -18 -9 -5 -23 -23 -32 -40 -9 -17 -23 -36 -31 -44 -15
-11 -14 -14 6 -31 11 -11 18 -22 14 -27 -4 -4 -20 7 -36 24 -26 30 -28 30 -26
9 0 -13 4 -21 8 -19 4 3 17 -4 29 -15 20 -18 23 -19 38 -4 12 12 13 17 3 21
-6 2 -12 8 -12 13 0 14 28 11 33 -3 3 -10 7 -10 20 0 9 8 22 12 29 10 7 -3 -2
-13 -20 -23 -18 -11 -32 -23 -32 -28 0 -5 7 -4 16 4 13 10 17 10 24 0 5 -9 10
-10 14 -2 4 6 1 11 -6 11 -7 0 -1 10 15 21 33 25 34 35 5 49 -22 11 -22 10 -4
-4 11 -9 17 -19 13 -22 -4 -4 -14 -1 -23 7 -13 11 -18 11 -21 2 -3 -7 -11 -13
-19 -13 -17 0 -19 20 -1 20 6 0 1 9 -13 20 -14 11 -19 20 -12 20 7 0 10 5 7
10 -3 6 1 10 10 10 9 0 13 5 10 10 -3 6 1 10 9 10 20 0 20 -14 1 -33 -14 -14
-11 -27 7 -27 5 0 6 5 3 10 -3 6 -1 10 5 10 6 0 8 5 5 10 -3 6 2 10 12 10 17
1 17 1 1 14 -10 7 -18 16 -18 20 0 12 21 6 42 -14 23 -21 44 -27 33 -10 -3 6
-2 10 3 10 5 0 9 7 9 16 0 15 -2 14 -14 -1 -12 -18 -14 -18 -37 5 -14 12 -24
28 -23 34 2 12 -35 20 -46 10z m36 -11 c-7 -2 -19 -2 -25 0 -7 3 -2 5 12 5 14
0 19 -2 13 -5z m-50 -120 c4 -3 -2 -13 -14 -21 -25 -17 -36 -9 -18 12 16 17
23 19 32 9z"/>
<path d="M596 1201 c-4 -6 -2 -11 4 -11 6 0 8 -4 5 -10 -3 -5 -1 -10 5 -10 6
0 8 -4 5 -10 -3 -5 -1 -10 4 -10 14 0 13 10 -3 39 -8 15 -16 20 -20 12z"/>
<path d="M745 1200 c-3 -5 0 -10 9 -10 8 0 17 -6 19 -12 4 -8 6 -9 6 -2 1 18
-26 37 -34 24z"/>
<path d="M800 1200 c-13 -8 -12 -10 3 -10 9 0 17 5 17 10 0 12 -1 12 -20 0z"/>
<path d="M7 1193 c7 -2 19 -2 26 0 6 3 1 5 -13 5 -14 0 -19 -2 -13 -5z"/>
<path d="M250 1180 c0 -5 5 -10 11 -10 5 0 7 5 4 10 -3 6 -8 10 -11 10 -2 0
-4 -4 -4 -10z"/>
<path d="M7 1173 c7 -2 19 -2 26 0 6 3 1 5 -13 5 -14 0 -19 -2 -13 -5z"/>
<path d="M104 1159 c-3 -5 6 -9 20 -9 31 0 34 6 6 13 -11 3 -23 1 -26 -4z"/>
<path d="M220 1160 c0 -5 5 -10 10 -10 6 0 10 5 10 10 0 6 -4 10 -10 10 -5 0
-10 -4 -10 -10z"/>
<path d="M576 1162 c-3 -5 1 -13 10 -16 13 -5 14 -9 4 -21 -9 -11 -9 -15 -1
-15 7 0 9 -5 5 -12 -4 -6 -3 -8 3 -5 12 8 10 36 -4 61 -6 11 -13 14 -17 8z"/>
<path d="M870 1160 c0 -5 5 -10 11 -10 5 0 7 5 4 10 -3 6 -8 10 -11 10 -2 0
-4 -4 -4 -10z"/>
<path d="M7 1153 c7 -2 19 -2 26 0 6 3 1 5 -13 5 -14 0 -19 -2 -13 -5z"/>
<path d="M165 1139 l-90 -5 95 -4 95 -4 -105 -6 -105 -6 105 -2 c72 -2 100 -5
90 -12 -13 -8 -12 -10 3 -10 21 0 22 -8 0 -32 -16 -18 -16 -18 0 -12 10 3 17
1 17 -6 0 -6 5 -8 11 -4 8 4 7 9 -2 15 -12 8 -11 11 1 20 11 8 12 12 2 16 -6
2 -10 9 -6 14 3 5 0 9 -6 9 -6 0 -9 4 -6 8 13 21 -15 27 -99 21z"/>
<path d="M7 1133 c7 -2 19 -2 26 0 6 3 1 5 -13 5 -14 0 -19 -2 -13 -5z"/>
<path d="M1045 1129 c-4 -6 -5 -12 -2 -15 2 -3 7 2 10 11 7 17 1 20 -8 4z"/>
<path d="M542 1114 c3 -21 36 -49 45 -40 3 3 -2 8 -11 12 -9 3 -14 9 -12 13 2
3 -3 12 -11 20 -12 11 -14 10 -11 -5z"/>
<path d="M983 1115 c-12 -13 -7 -25 9 -25 5 0 7 4 4 9 -4 5 -1 11 6 13 7 3 8
7 3 10 -6 3 -15 0 -22 -7z"/>
<path d="M1075 1120 c-3 -5 -1 -10 4 -10 6 0 11 5 11 10 0 6 -2 10 -4 10 -3 0
-8 -4 -11 -10z"/>
<path d="M7 1113 c7 -2 19 -2 26 0 6 3 1 5 -13 5 -14 0 -19 -2 -13 -5z"/>
<path d="M626 1107 c3 -10 9 -15 12 -12 3 3 0 11 -7 18 -10 9 -11 8 -5 -6z"/>
<path d="M668 1101 c-9 -11 -14 -22 -11 -25 4 -3 1 -6 -5 -6 -7 0 -12 -5 -12
-10 0 -6 8 -5 19 2 11 7 17 16 15 20 -3 4 -1 8 4 8 5 0 9 7 9 15 0 19 1 19
-19 -4z"/>
<path d="M7 1093 c7 -2 19 -2 26 0 6 3 1 5 -13 5 -14 0 -19 -2 -13 -5z"/>
<path d="M108 1093 c23 -2 59 -2 80 0 20 2 1 4 -43 4 -44 0 -61 -2 -37 -4z"/>
<path d="M755 1091 c-3 -5 -2 -12 3 -15 5 -3 9 1 9 9 0 17 -3 19 -12 6z"/>
<path d="M515 1080 c3 -5 11 -10 16 -10 6 0 7 5 4 10 -3 6 -11 10 -16 10 -6 0
-7 -4 -4 -10z"/>
<path d="M705 1080 c3 -5 2 -10 -3 -10 -5 0 -9 -7 -9 -15 0 -12 3 -12 17 3 18
17 17 32 -1 32 -6 0 -7 -4 -4 -10z"/>
<path d="M1140 1080 c0 -5 5 -10 11 -10 5 0 7 5 4 10 -3 6 -8 10 -11 10 -2 0
-4 -4 -4 -10z"/>
<path d="M7 1073 c7 -2 19 -2 26 0 6 3 1 5 -13 5 -14 0 -19 -2 -13 -5z"/>
<path d="M86 1067 c3 -9 2 -17 -4 -17 -6 0 -12 5 -14 12 -3 9 -6 9 -12 0 -4
-7 -2 -12 4 -12 6 0 8 -4 5 -10 -9 -14 8 -13 23 2 6 6 15 9 18 5 13 -12 -5
-20 -58 -26 l-53 -5 55 -7 c30 -4 64 -10 74 -15 14 -5 17 -4 12 4 -10 16 6 15
39 -2 18 -9 22 -16 13 -20 -7 -3 1 -3 18 0 21 3 35 0 44 -11 14 -17 46 -20 55
-5 4 6 -8 10 -27 11 l-33 1 29 9 c20 5 34 4 43 -3 9 -7 13 -7 13 1 0 6 -5 11
-11 11 -5 0 -7 5 -3 11 5 8 1 8 -14 0 -41 -22 -121 -9 -144 24 -5 6 -12 5 -20
-3 -6 -6 -21 -12 -33 -11 -19 0 -19 1 2 11 13 6 25 19 28 29 4 11 10 19 14 19
14 0 31 -26 23 -35 -4 -5 -1 -5 6 -1 20 12 -13 44 -44 44 -18 0 -22 -3 -13 -9
7 -4 10 -11 6 -15 -4 -4 -16 1 -27 11 -18 17 -20 17 -14 2z"/>
<path d="M504 1063 c3 -3 1 -14 -4 -24 -7 -12 -6 -20 2 -25 7 -4 8 -3 4 4 -4
7 -1 12 8 12 8 0 18 -4 21 -10 3 -5 0 -10 -7 -10 -9 0 -9 -3 2 -10 11 -7 11
-10 2 -10 -7 0 -10 -5 -6 -11 4 -8 9 -7 15 2 4 7 6 16 3 20 -2 4 2 9 8 12 8 2
1 10 -15 18 -25 11 -26 14 -11 19 16 6 15 7 -5 13 -13 3 -20 3 -17 0z"/>
<path d="M740 1066 c0 -4 7 -14 15 -22 8 -9 15 -11 15 -6 0 5 -7 15 -15 22 -8
7 -15 9 -15 6z"/>
<path d="M780 1065 c0 -5 5 -17 10 -25 5 -8 10 -10 10 -5 0 6 -5 17 -10 25 -5
8 -10 11 -10 5z"/>
<path d="M7 1053 c7 -2 19 -2 26 0 6 3 1 5 -13 5 -14 0 -19 -2 -13 -5z"/>
<path d="M586 1035 c-9 -26 -7 -32 5 -12 6 10 9 21 6 23 -2 3 -7 -2 -11 -11z"/>
<path d="M7 1033 c7 -2 19 -2 26 0 6 3 1 5 -13 5 -14 0 -19 -2 -13 -5z"/>
<path d="M203 1033 c-15 -5 -17 -23 -4 -23 5 0 11 7 15 15 3 8 4 15 3 14 -1 0
-8 -3 -14 -6z"/>
<path d="M989 1023 c-13 -16 -12 -17 4 -4 9 7 17 15 17 17 0 8 -8 3 -21 -13z"/>
<path d="M240 1021 c0 -4 14 -8 30 -9 17 -1 30 2 30 6 0 5 -13 9 -30 10 -16 0
-30 -3 -30 -7z"/>
<path d="M485 1000 c3 -6 0 -10 -7 -10 -8 -1 -6 -6 6 -15 19 -14 18 -15 -12
-21 -18 -4 -35 -10 -38 -15 -5 -9 8 -6 59 14 25 9 27 11 12 20 -13 7 -14 11
-5 17 8 5 7 9 -5 13 -9 4 -13 3 -10 -3z"/>
<path d="M1485 1000 c-3 -5 -1 -10 4 -10 6 0 11 5 11 10 0 6 -2 10 -4 10 -3 0
-8 -4 -11 -10z"/>
<path d="M993 972 c-1 -22 0 -24 9 -8 6 10 6 22 2 26 -5 5 -10 -3 -11 -18z"/>
<path d="M28 983 c18 -2 45 -2 60 0 15 2 0 4 -33 4 -33 0 -45 -2 -27 -4z"/>
<path d="M894 982 c4 -7 2 -12 -5 -12 -7 0 -9 -3 -6 -7 4 -3 -1 -12 -11 -20
-15 -13 -14 -13 7 -3 19 10 25 9 32 -1 6 -10 9 -10 9 -2 0 6 -5 15 -10 18 -6
4 -8 10 -5 15 3 5 0 12 -6 16 -8 4 -9 3 -5 -4z"/>
<path d="M934 982 c3 -5 1 -12 -6 -14 -8 -3 -9 -6 -1 -11 6 -4 13 0 17 8 3 8
0 17 -6 21 -6 4 -8 3 -4 -4z"/>
<path d="M966 975 c-9 -26 -7 -32 5 -12 6 10 9 21 6 23 -2 3 -7 -2 -11 -11z"/>
<path d="M1026 973 c-6 -14 -5 -15 5 -6 7 7 10 15 7 18 -3 3 -9 -2 -12 -12z"/>
<path d="M1064 977 c3 -10 6 -21 6 -24 0 -3 7 0 15 7 8 7 15 18 15 24 0 6 -5
4 -10 -4 -9 -13 -11 -13 -21 0 -9 13 -10 12 -5 -3z"/>
<path d="M1489 968 c-1 -7 -1 -23 -1 -36 1 -15 -3 -20 -11 -15 -8 4 -8 2 1 -9
11 -14 10 -17 -10 -21 l-23 -4 23 -2 c36 -2 27 -31 -10 -32 l-33 -2 35 -7 35
-7 -40 -3 -40 -3 40 -7 40 -7 -35 -3 -35 -3 35 -7 35 -7 -35 -3 -35 -3 35 -7
35 -7 -39 -2 c-46 -1 -44 -9 2 -13 18 -1 32 -7 32 -13 0 -6 -14 -12 -32 -13
-41 -3 -50 -12 -13 -12 26 0 27 -1 12 -17 -13 -15 -13 -20 -1 -30 17 -16 32
-17 16 -1 -16 16 -15 28 2 28 11 0 16 -14 19 -47 2 -27 4 36 5 140 1 103 0
187 -3 187 -3 0 -6 -6 -6 -12z"/>
<path d="M27 963 c18 -2 50 -2 70 0 21 2 7 4 -32 4 -38 0 -55 -2 -38 -4z"/>
<path d="M547 963 c-4 -3 -2 -12 4 -20 9 -10 7 -13 -10 -13 -12 0 -19 5 -16
10 7 11 -8 14 -18 3 -4 -3 3 -13 14 -21 19 -13 23 -13 37 3 13 13 14 19 4 22
-6 3 -10 9 -6 14 6 10 0 12 -9 2z"/>
<path d="M1144 963 c4 -7 3 -13 -2 -13 -6 0 -12 -6 -15 -13 -3 -7 3 -13 12
-13 18 0 22 29 6 43 -4 5 -5 2 -1 -4z"/>
<path d="M70 950 l-75 -6 75 -4 75 -4 -70 -6 -70 -7 76 1 c75 1 76 1 74 -24
-1 -24 -4 -25 -80 -31 l-80 -5 80 -4 80 -4 -80 -6 -80 -6 80 -4 80 -4 -75 -6
-75 -7 81 1 c67 1 81 -2 79 -14 -1 -11 -22 -16 -86 -21 l-84 -5 85 -4 85 -4
-85 -6 c-85 -6 -85 -6 30 -6 63 0 102 2 85 4 -30 5 -30 5 -5 12 l25 8 -25 2
c-23 1 -23 2 -5 10 l20 9 -20 1 -20 1 20 9 20 9 -20 0 c-17 1 -17 3 -5 11 13
9 13 10 0 10 -13 0 -13 1 0 11 12 8 9 9 -10 4 -24 -6 -24 -5 -6 9 14 12 16 16
5 16 -12 0 -12 2 1 10 9 6 10 10 3 10 -6 0 -10 9 -8 19 3 15 -1 18 -12 14 -11
-4 -14 -2 -9 5 4 7 6 11 4 10 -2 -1 -37 -4 -78 -8z"/>
<path d="M215 940 c4 -6 11 -8 16 -5 14 9 11 15 -7 15 -8 0 -12 -5 -9 -10z"/>
<path d="M290 934 l-25 -15 25 7 c17 4 22 3 15 -4 -5 -6 -21 -12 -34 -14 -13
-1 -25 -11 -27 -20 -1 -11 3 -15 13 -11 12 5 12 7 1 14 -9 6 -6 9 12 9 32 0
47 11 47 33 0 9 -1 17 -1 17 -1 -1 -12 -7 -26 -16z"/>
<path d="M199 928 c-8 -27 -5 -36 9 -30 10 4 12 7 4 10 -7 2 -10 8 -6 13 3 5
3 9 0 9 -3 0 -6 -1 -7 -2z"/>
<path d="M235 920 c-3 -6 1 -7 9 -4 18 7 21 14 7 14 -6 0 -13 -4 -16 -10z"/>
<path d="M450 920 c0 -5 -10 -10 -21 -10 -19 0 -20 -2 -8 -16 10 -13 25 -15
66 -11 37 4 51 2 47 -5 -5 -8 -1 -9 10 -5 10 4 23 7 29 7 14 1 -63 30 -78 30
-5 0 -3 -5 5 -10 11 -7 3 -10 -30 -9 l-45 1 33 14 c37 16 41 24 12 24 -11 0
-20 -4 -20 -10z"/>
<path d="M585 921 c3 -5 -3 -11 -12 -13 -16 -3 -15 -5 2 -9 16 -5 21 -1 22 12
1 11 -3 19 -8 19 -6 0 -8 -4 -4 -9z"/>
<path d="M823 905 c-25 -26 -31 -44 -10 -27 7 5 30 6 57 2 l45 -7 -50 -2 c-31
-1 -45 -4 -37 -10 7 -4 32 -5 55 0 33 6 46 4 60 -9 16 -15 17 -15 11 1 -3 9
-10 17 -16 17 -5 0 -6 4 -3 10 4 6 -1 7 -12 3 -16 -6 -17 -5 -3 13 11 15 11
16 0 7 -8 -7 -29 -13 -48 -13 -29 0 -32 3 -27 20 8 25 5 25 -22 -5z"/>
<path d="M880 926 c0 -2 7 -7 16 -10 8 -3 12 -2 9 4 -6 10 -25 14 -25 6z"/>
<path d="M33 903 c20 -2 54 -2 75 0 20 2 3 4 -38 4 -41 0 -58 -2 -37 -4z"/>
<path d="M868 903 c7 -3 16 -2 19 1 4 3 -2 6 -13 5 -11 0 -14 -3 -6 -6z"/>
<path d="M33 883 c20 -2 54 -2 75 0 20 2 3 4 -38 4 -41 0 -58 -2 -37 -4z"/>
<path d="M209 888 c-6 -20 -6 -38 0 -38 4 0 8 -7 9 -15 1 -8 3 -21 4 -29 1 -8
9 -11 22 -8 20 6 20 6 2 10 -15 3 -16 6 -5 13 11 7 9 9 -6 9 -17 0 -17 2 -5
10 11 7 11 10 2 10 -7 0 -10 5 -7 10 3 6 1 10 -5 10 -6 0 -8 5 -5 10 3 6 4 10
1 10 -3 0 -6 -1 -7 -2z"/>
<path d="M285 880 c3 -5 11 -10 16 -10 6 0 7 5 4 10 -3 6 -11 10 -16 10 -6 0
-7 -4 -4 -10z"/>
<path d="M605 880 c-3 -5 -17 -10 -30 -10 -39 0 -39 -18 0 -26 20 -3 39 -4 42
0 4 3 -7 6 -23 7 -28 0 -29 0 -5 10 16 6 28 6 37 -2 10 -8 14 -8 14 0 0 6 -5
11 -11 11 -5 0 -7 5 -4 10 3 6 2 10 -4 10 -5 0 -13 -4 -16 -10z"/>
<path d="M257 864 c-14 -14 14 -44 41 -43 l27 2 -29 4 c-22 4 -26 7 -15 14 11
7 10 9 -6 9 -17 0 -17 2 -5 10 8 5 10 10 4 10 -6 0 -14 -3 -17 -6z"/>
<path d="M434 863 c7 -7 77 -5 85 2 2 3 -17 5 -44 5 -27 0 -45 -3 -41 -7z"/>
<path d="M755 860 c-7 -11 36 -24 62 -17 10 3 2 5 -17 6 -27 1 -31 4 -20 11
13 8 13 10 -2 10 -9 0 -20 -4 -23 -10z"/>
<path d="M1433 863 c9 -2 23 -2 30 0 6 3 -1 5 -18 5 -16 0 -22 -2 -12 -5z"/>
<path d="M418 843 c7 -3 16 -2 19 1 4 3 -2 6 -13 5 -11 0 -14 -3 -6 -6z"/>
<path d="M483 843 c9 -2 25 -2 35 0 9 3 1 5 -18 5 -19 0 -27 -2 -17 -5z"/>
<path d="M700 842 c0 -6 -8 -13 -17 -15 -16 -4 -16 -5 -1 -6 18 -1 34 16 24
26 -3 4 -6 1 -6 -5z"/>
<path d="M880 842 c20 -5 17 -7 -20 -13 l-45 -6 41 -1 c22 -1 49 5 60 13 18
13 16 14 -21 13 -30 0 -34 -2 -15 -6z"/>
<path d="M437 820 c18 -4 39 -12 45 -17 8 -6 22 -7 33 -2 17 7 17 8 -7 8 -16
1 -28 6 -28 11 0 6 -17 10 -37 9 l-38 -1 32 -8z"/>
<path d="M533 823 c9 -2 25 -2 35 0 9 3 1 5 -18 5 -19 0 -27 -2 -17 -5z"/>
<path d="M618 823 c6 -2 18 -2 25 0 6 3 1 5 -13 5 -14 0 -19 -2 -12 -5z"/>
<path d="M720 826 c0 -8 61 -12 66 -4 3 4 -11 8 -30 8 -20 0 -36 -2 -36 -4z"/>
<path d="M935 820 c3 -5 8 -10 11 -10 2 0 4 5 4 10 0 6 -5 10 -11 10 -5 0 -7
-4 -4 -10z"/>
<path d="M38 803 c23 -2 59 -2 80 0 20 2 1 4 -43 4 -44 0 -61 -2 -37 -4z"/>
<path d="M278 803 c6 -2 18 -2 25 0 6 3 1 5 -13 5 -14 0 -19 -2 -12 -5z"/>
<path d="M320 806 c0 -2 9 -6 20 -9 11 -3 18 -1 14 4 -5 9 -34 13 -34 5z"/>
<path d="M413 803 c9 -2 23 -2 30 0 6 3 -1 5 -18 5 -16 0 -22 -2 -12 -5z"/>
<path d="M560 802 c0 -4 19 -6 43 -4 70 5 76 10 15 11 -32 0 -58 -2 -58 -7z"/>
<path d="M703 803 c9 -2 25 -2 35 0 9 3 1 5 -18 5 -19 0 -27 -2 -17 -5z"/>
<path d="M798 803 c6 -2 18 -2 25 0 6 3 1 5 -13 5 -14 0 -19 -2 -12 -5z"/>
<path d="M878 803 c12 -2 30 -2 40 0 9 3 -1 5 -23 4 -22 0 -30 -2 -17 -4z"/>
<path d="M952 798 c-6 -6 -37 -10 -76 -9 -35 1 -66 -2 -69 -6 -3 -4 19 -6 49
-5 48 3 58 1 78 -21 16 -17 27 -22 37 -16 11 7 11 9 -3 9 -21 0 -19 37 3 51 8
5 9 9 4 9 -6 0 -16 -5 -23 -12z"/>
<path d="M235 780 c-7 -11 22 -26 32 -16 4 3 -2 7 -13 8 -10 1 6 4 36 8 l55 7
-52 1 c-28 1 -55 -3 -58 -8z"/>
<path d="M428 783 c12 -2 30 -2 40 0 9 3 -1 5 -23 4 -22 0 -30 -2 -17 -4z"/>
<path d="M518 783 c6 -2 18 -2 25 0 6 3 1 5 -13 5 -14 0 -19 -2 -12 -5z"/>
<path d="M633 783 c32 -2 81 -2 110 0 29 2 3 3 -58 3 -60 0 -84 -1 -52 -3z"/>
<path d="M445 770 l-50 -5 37 -6 c21 -3 44 -1 52 3 8 5 17 4 21 -2 3 -5 -2
-10 -12 -11 -13 0 -12 -3 7 -11 16 -6 20 -12 12 -15 -10 -4 -9 -9 5 -20 14
-11 14 -14 2 -10 -8 3 -20 -3 -26 -12 -9 -14 -7 -20 11 -30 17 -11 19 -11 9 0
-17 17 -16 29 1 29 21 0 31 21 15 31 -11 7 -9 9 6 9 18 1 17 2 -5 15 l-25 13
25 6 c14 3 63 7 110 9 77 3 75 3 -22 4 -58 0 -110 2 -115 5 -4 2 -30 1 -58 -2z"/>
<path d="M296 755 c25 -19 40 -19 20 0 -8 8 -20 15 -27 15 -7 0 -4 -6 7 -15z"/>
<path d="M768 763 c7 -3 16 -2 19 1 4 3 -2 6 -13 5 -11 0 -14 -3 -6 -6z"/>
<path d="M838 763 c12 -2 30 -2 40 0 9 3 -1 5 -23 4 -22 0 -30 -2 -17 -4z"/>
<path d="M978 763 c7 -3 16 -2 19 1 4 3 -2 6 -13 5 -11 0 -14 -3 -6 -6z"/>
<path d="M53 743 c32 -2 81 -2 110 0 29 2 3 3 -58 3 -61 0 -84 -1 -52 -3z"/>
<path d="M248 743 c7 -3 16 -2 19 1 4 3 -2 6 -13 5 -11 0 -14 -3 -6 -6z"/>
<path d="M403 743 c9 -2 25 -2 35 0 9 3 1 5 -18 5 -19 0 -27 -2 -17 -5z"/>
<path d="M553 743 c15 -2 27 -9 27 -14 0 -5 12 -8 28 -8 20 1 22 2 7 6 -11 3
-24 9 -29 14 -6 5 -21 8 -35 8 -26 -2 -26 -2 2 -6z"/>
<path d="M628 743 c12 -2 30 -2 40 0 9 3 -1 5 -23 4 -22 0 -30 -2 -17 -4z"/>
<path d="M718 743 c6 -2 18 -2 25 0 6 3 1 5 -13 5 -14 0 -19 -2 -12 -5z"/>
<path d="M780 741 c0 -4 11 -6 25 -3 14 2 25 6 25 8 0 2 -11 4 -25 4 -14 0
-25 -4 -25 -9z"/>
<path d="M892 743 c30 -3 38 -7 28 -14 -12 -7 -12 -9 3 -9 11 0 17 6 15 13 -3
7 -23 12 -46 13 l-42 1 42 -4z"/>
<path d="M1423 743 c9 -2 23 -2 30 0 6 3 -1 5 -18 5 -16 0 -22 -2 -12 -5z"/>
<path d="M460 731 c0 -4 -15 -6 -32 -5 l-33 3 30 -8 30 -8 -35 -5 -35 -5 33
-1 c17 -1 32 -6 32 -11 0 -4 -12 -7 -27 -5 -28 4 -28 4 -3 -5 l25 -8 -30 -5
-30 -5 32 -2 c17 0 35 -5 38 -11 4 -6 -7 -8 -27 -5 -29 4 -30 4 -8 -4 18 -7 3
-9 -60 -10 -47 -1 -96 -4 -110 -8 -15 -3 -22 -2 -17 3 5 5 41 12 80 15 l72 7
-76 -2 c-63 -1 -76 1 -74 14 1 11 17 15 66 16 l64 1 -60 -7 -60 -7 58 1 c78 1
73 21 -5 21 -40 0 -66 5 -71 13 -6 8 -39 11 -120 10 l-112 -2 115 -6 115 -6
-115 -4 -115 -4 115 -6 115 -6 -115 -4 -115 -4 120 -6 120 -6 -120 -4 -120 -4
120 -6 120 -6 -120 -4 -120 -4 120 -6 120 -6 -120 -4 -120 -4 120 -6 120 -6
-120 -4 -120 -4 120 -6 120 -6 -120 -4 -120 -4 125 -6 c69 -3 134 -10 144 -15
13 -6 17 -5 12 3 -4 7 7 12 31 15 21 2 11 3 -22 1 -40 -2 -53 0 -40 6 29 12
188 12 180 0 -3 -5 -1 -10 5 -10 13 0 46 30 33 30 -4 0 -2 4 6 9 11 7 8 10 -9
16 l-23 7 24 13 c21 12 22 14 7 20 -24 9 -23 21 2 28 21 5 28 27 9 27 -5 0 -7
-4 -4 -10 3 -5 2 -10 -4 -10 -21 0 -21 21 0 28 19 7 20 10 6 15 -10 4 -17 3
-17 -2z m-10 -121 c11 -7 11 -10 2 -10 -7 0 -11 -3 -9 -7 3 -5 -44 -8 -104 -8
-59 0 -101 3 -91 7 15 6 14 7 -3 8 l-20 1 20 9 c28 12 187 12 205 0z"/>
<path d="M303 603 c26 -2 68 -2 95 0 26 2 4 3 -48 3 -52 0 -74 -1 -47 -3z"/>
<path d="M1193 722 c0 -12 5 -22 9 -22 11 0 10 12 -2 30 -7 12 -9 10 -7 -8z"/>
<path d="M58 723 c34 -2 90 -2 125 0 34 2 6 3 -63 3 -69 0 -97 -1 -62 -3z"/>
<path d="M268 723 c12 -2 32 -2 45 0 12 2 2 4 -23 4 -25 0 -35 -2 -22 -4z"/>
<path d="M358 723 c6 -2 18 -2 25 0 6 3 1 5 -13 5 -14 0 -19 -2 -12 -5z"/>
<path d="M693 723 c31 -5 35 -17 10 -32 -17 -10 -17 -10 0 -11 21 0 22 -13 3
-30 -11 -8 -20 -9 -33 -1 -16 9 -15 10 7 11 19 0 22 3 11 9 -10 7 -23 3 -42
-12 -32 -25 -36 -37 -12 -37 13 0 14 -3 5 -12 -8 -8 -15 -8 -25 1 -12 9 -16 8
-21 -5 -9 -23 -7 -31 3 -15 7 11 13 11 32 -3 13 -9 19 -16 14 -17 -6 0 1 -5
14 -10 l25 -10 -29 -15 c-23 -12 -30 -12 -37 -2 -4 7 -8 9 -8 5 0 -17 38 -58
45 -47 3 5 1 10 -4 10 -23 0 -9 16 27 32 34 16 35 18 15 24 -27 7 -21 24 8 24
11 0 17 -4 14 -10 -3 -5 -1 -10 4 -10 22 0 10 20 -21 37 -31 16 -31 18 -10 21
12 2 20 8 17 13 -4 5 2 9 11 9 10 0 14 3 11 6 -4 4 3 16 16 27 l22 19 -22 -6
c-14 -5 -23 -3 -23 3 0 6 8 11 17 11 15 0 14 2 -3 15 -10 8 -30 14 -44 13 -24
-1 -24 -1 3 -5z m-21 -95 c-9 -9 -15 -9 -24 0 -9 9 -7 12 12 12 19 0 21 -3 12
-12z m8 -38 c0 -5 -6 -10 -14 -10 -8 0 -18 5 -21 10 -3 6 3 10 14 10 12 0 21
-4 21 -10z"/>
<path d="M748 723 c7 -3 16 -2 19 1 4 3 -2 6 -13 5 -11 0 -14 -3 -6 -6z"/>
<path d="M845 722 c36 -4 37 -6 15 -12 -19 -5 -12 -7 25 -8 l50 0 -34 14 c-18
8 -47 13 -65 12 -27 -1 -26 -2 9 -6z"/>
<path d="M980 723 c8 -2 25 -9 37 -15 13 -6 26 -8 30 -5 3 4 0 7 -8 7 -10 0
-11 2 -2 8 7 4 -6 8 -30 9 -23 0 -35 -1 -27 -4z"/>
<path d="M1390 721 c12 -9 10 -11 -12 -11 -20 0 -32 -8 -43 -30 -19 -37 -19
-40 3 -40 14 0 15 2 2 10 -11 7 -3 10 30 11 l45 2 -40 7 -40 7 40 3 40 3 -35
5 -35 5 29 6 c30 6 38 23 14 29 -9 2 -8 0 2 -7z"/>
<path d="M568 708 c6 -6 18 -8 28 -6 14 3 12 5 -9 10 -19 3 -25 2 -19 -4z"/>
<path d="M955 711 c3 -6 -3 -14 -12 -20 -17 -10 -17 -10 0 -11 9 0 17 5 17 11
0 5 5 7 10 4 6 -3 10 -2 10 3 0 6 -7 13 -16 16 -8 3 -12 2 -9 -3z"/>
<path d="M1066 712 c-4 -7 -2 -12 4 -12 21 0 -1 -20 -33 -29 -24 -7 -27 -9
-10 -10 12 -1 25 -5 28 -11 3 -5 16 -10 28 -10 19 1 18 3 -8 14 -30 14 -29 14
15 8 25 -2 46 -6 48 -7 2 -2 -16 -15 -40 -29 -26 -16 -36 -26 -25 -26 10 0 15
-4 12 -10 -3 -5 -2 -10 4 -10 5 0 13 5 16 10 3 6 1 10 -5 10 -6 0 -8 5 -5 10
3 6 16 10 28 10 18 0 19 -2 7 -10 -11 -7 -11 -10 -2 -10 7 0 10 -5 6 -12 -4
-7 -3 -8 5 -4 6 4 8 12 5 18 -4 6 2 8 17 3 20 -5 21 -4 9 5 -12 10 -11 11 7 7
15 -3 20 -1 16 9 -4 10 -10 11 -25 3 -14 -8 -23 -8 -31 0 -8 8 -4 11 13 11 23
0 23 0 4 15 -18 14 -17 15 11 10 24 -4 26 -3 10 4 -17 8 -18 10 -2 10 16 1 16
2 0 19 -10 11 -22 17 -27 14 -4 -2 -2 -8 5 -13 21 -14 -8 -29 -51 -28 l-35 1
30 8 c17 4 23 8 15 10 -11 1 -10 4 5 11 17 8 16 9 -7 4 -16 -3 -28 0 -30 7 -3
9 -6 9 -12 0z"/>
<path d="M278 703 c18 -2 45 -2 60 0 15 2 0 4 -33 4 -33 0 -45 -2 -27 -4z"/>
<path d="M653 703 c9 -2 23 -2 30 0 6 3 -1 5 -18 5 -16 0 -22 -2 -12 -5z"/>
<path d="M788 703 c7 -3 16 -2 19 1 4 3 -2 6 -13 5 -11 0 -14 -3 -6 -6z"/>
<path d="M539 680 c-15 -16 -14 -18 5 -30 19 -12 20 -12 7 3 -12 15 -10 18 9
25 16 6 19 10 9 14 -8 2 -21 -3 -30 -12z"/>
<path d="M871 686 c-9 -11 -9 -16 0 -22 7 -4 9 -3 5 4 -3 6 2 12 11 14 12 2
14 6 7 11 -7 4 -17 0 -23 -7z"/>
<path d="M585 675 c-19 -9 -24 -14 -12 -15 9 0 17 -4 17 -10 0 -5 5 -10 11
-10 8 0 7 6 -2 16 -12 15 -11 16 11 10 18 -5 21 -4 11 3 -11 7 -8 10 15 14 25
3 25 4 4 5 -14 0 -38 -6 -55 -13z"/>
<path d="M971 676 l-23 -13 22 -6 c22 -6 22 -7 6 -31 -9 -15 -12 -26 -6 -26 5
0 10 -5 10 -11 0 -6 -7 -9 -14 -6 -10 4 -13 1 -9 -9 3 -7 10 -14 17 -14 6 0 4
-5 -4 -10 -13 -8 -13 -10 -1 -10 11 0 8 -6 -7 -20 -26 -24 -27 -33 -7 -53 8
-8 11 -18 7 -22 -4 -5 -2 -5 5 -1 7 4 10 13 6 21 -6 18 13 20 21 3 3 -7 3 -3
0 10 -7 28 12 29 21 1 4 -11 9 -18 12 -16 2 3 -1 15 -7 27 -14 26 4 54 29 45
13 -5 13 -4 4 6 -10 10 -9 15 5 25 9 8 13 14 9 14 -4 0 -21 -14 -37 -32 -31
-34 -38 -34 -45 2 -7 34 37 69 48 38 2 -8 8 -9 13 -4 5 5 4 11 -3 13 -21 8
-15 23 10 23 20 1 20 2 5 11 -14 7 -23 5 -40 -11 -24 -22 -38 -26 -38 -10 0 6
5 10 11 10 5 0 7 5 4 10 -3 6 2 10 12 10 14 1 13 4 -7 15 -26 14 -23 18 25 28
16 4 15 5 -5 5 -14 1 -36 -5 -49 -12z m19 -162 c0 -3 -7 -12 -15 -21 -20 -19
-32 -10 -14 11 14 15 29 21 29 10z"/>
<path d="M910 671 c0 -5 7 -12 16 -15 14 -5 15 -4 4 9 -14 17 -20 19 -20 6z"/>
<path d="M890 650 c0 -5 5 -10 11 -10 5 0 7 5 4 10 -3 6 -8 10 -11 10 -2 0 -4
-4 -4 -10z"/>
<path d="M1378 643 c6 -2 18 -2 25 0 6 3 1 5 -13 5 -14 0 -19 -2 -12 -5z"/>
<path d="M480 630 c-9 -6 -10 -10 -3 -10 6 0 15 5 18 10 8 12 4 12 -15 0z"/>
<path d="M720 615 c-7 -9 -8 -15 -2 -15 5 0 12 7 16 15 3 8 4 15 2 15 -2 0 -9
-7 -16 -15z"/>
<path d="M1376 613 c7 -7 21 -13 31 -13 15 0 16 -2 3 -10 -8 -5 -10 -10 -5
-10 6 0 16 4 23 9 11 6 10 10 -4 15 -13 5 -15 9 -6 15 6 4 -3 7 -22 7 -27 0
-31 -2 -20 -13z"/>
<path d="M1005 570 c-3 -5 -1 -10 4 -10 6 0 11 5 11 10 0 6 -2 10 -4 10 -3 0
-8 -4 -11 -10z"/>
<path d="M1115 570 c6 -10 4 -12 -8 -7 -11 4 -14 2 -10 -9 3 -7 9 -14 13 -14
13 0 20 29 8 36 -7 5 -8 2 -3 -6z"/>
<path d="M1146 564 c-9 -24 -7 -31 4 -14 9 13 11 13 20 0 5 -8 10 -10 10 -4 0
6 -6 17 -14 23 -11 9 -15 8 -20 -5z"/>
<path d="M1407 571 c-10 -4 -18 -11 -17 -15 1 -5 -4 -13 -12 -18 -9 -7 -8 -8
5 -4 10 3 31 7 45 7 23 1 22 3 -8 9 -31 7 -32 7 -7 9 15 0 27 6 27 11 0 11 -7
12 -33 1z"/>
<path d="M385 560 c-8 -12 17 -23 41 -18 14 2 12 6 -9 15 -16 8 -29 9 -32 3z"/>
<path d="M462 555 c16 -17 -28 -35 -61 -25 -19 5 -31 5 -31 -1 0 -5 11 -9 25
-9 31 0 33 -17 3 -23 -22 -3 -22 -4 -4 -12 13 -6 21 -5 24 3 4 14 32 16 32 3
0 -5 7 -11 14 -14 10 -4 13 -1 9 9 -3 7 -1 14 5 14 6 0 12 -6 15 -12 2 -7 4 3
4 22 0 19 -2 29 -4 23 -3 -7 -9 -13 -15 -13 -6 0 -8 7 -5 15 4 8 1 17 -6 21
-7 4 -9 4 -5 -1z m8 -45 c0 -5 -4 -10 -9 -10 -6 0 -13 5 -16 10 -3 6 1 10 9
10 9 0 16 -4 16 -10z"/>
<path d="M767 553 c-3 -3 1 -12 9 -20 8 -9 18 -13 21 -10 3 3 -1 13 -10 21 -8
8 -17 12 -20 9z"/>
<path d="M110 540 l115 -6 -115 -5 -115 -5 118 -2 c91 -2 118 1 115 11 -3 8
-37 12 -119 13 l-114 0 115 -6z"/>
<path d="M298 543 c7 -3 16 -2 19 1 4 3 -2 6 -13 5 -11 0 -14 -3 -6 -6z"/>
<path d="M516 524 c-3 -9 -2 -22 2 -31 6 -10 9 -5 9 16 0 35 -2 38 -11 15z"/>
<path d="M546 524 c-3 -9 -2 -22 2 -31 6 -10 9 -5 9 16 0 35 -2 38 -11 15z"/>
<path d="M583 510 c0 -23 3 -28 9 -16 5 9 5 23 0 32 -6 12 -9 7 -9 -16z"/>
<path d="M715 530 c-3 -5 1 -10 9 -10 8 0 18 5 21 10 3 6 -1 10 -9 10 -8 0
-18 -4 -21 -10z"/>
<path d="M1385 520 c-4 -6 10 -9 34 -7 21 1 37 5 34 10 -6 10 -61 9 -68 -3z"/>
<path d="M670 510 c0 -5 4 -10 9 -10 6 0 13 5 16 10 3 6 -1 10 -9 10 -9 0 -16
-4 -16 -10z"/>
<path d="M714 502 l-32 -15 35 -34 c33 -31 36 -32 48 -16 9 12 10 20 3 24 -6
4 -1 10 11 14 13 4 20 9 17 12 -3 4 2 12 12 20 15 13 15 13 -5 4 -27 -14 -46
-14 -38 -1 8 14 -14 10 -51 -8z m54 -10 c9 -6 5 -12 -13 -20 -21 -10 -29 -9
-41 2 -12 13 -12 15 4 19 28 7 36 7 50 -1z m-8 -42 c0 -5 -4 -10 -10 -10 -5 0
-10 5 -10 10 0 6 5 10 10 10 6 0 10 -4 10 -10z"/>
<path d="M894 507 c3 -10 6 -21 6 -24 0 -3 7 0 15 7 8 7 15 18 15 24 0 6 -5 4
-10 -4 -9 -13 -11 -13 -21 0 -9 13 -10 12 -5 -3z"/>
<path d="M1031 515 c0 -5 6 -21 14 -35 8 -14 14 -20 14 -15 0 6 -6 21 -14 35
-8 14 -14 21 -14 15z"/>
<path d="M1060 511 c0 -6 4 -13 10 -16 6 -3 7 1 4 9 -7 18 -14 21 -14 7z"/>
<path d="M1151 515 c0 -5 6 -21 14 -35 8 -14 14 -20 14 -15 0 6 -6 21 -14 35
-8 14 -14 21 -14 15z"/>
<path d="M0 501 c0 -11 99 -25 126 -18 11 3 1 6 -21 7 -38 3 -37 4 15 10 51 6
49 7 -32 8 -49 1 -88 -2 -88 -7z"/>
<path d="M1400 500 c-20 -6 -16 -8 22 -11 25 -2 44 -1 42 2 -7 11 -38 16 -64
9z"/>
<path d="M13 473 c9 -2 23 -2 30 0 6 3 -1 5 -18 5 -17 0 -22 -2 -12 -5z"/>
<path d="M375 460 c4 -11 2 -20 -4 -20 -6 0 -11 -5 -11 -12 0 -6 11 -1 25 12
25 23 25 23 40 4 9 -11 14 -13 13 -5 -2 7 3 16 11 19 8 3 11 0 7 -7 -4 -6 -3
-11 3 -11 22 0 19 18 -5 29 -14 6 -23 7 -20 3 3 -5 -8 -9 -24 -9 -16 0 -27 4
-24 9 3 4 0 8 -6 8 -7 0 -9 -8 -5 -20z"/>
<path d="M800 470 c-11 -7 -11 -10 -2 -10 7 0 10 -4 7 -10 -4 -6 1 -7 11 -3
11 4 13 8 6 11 -7 2 -10 8 -6 13 7 11 3 11 -16 -1z"/>
<path d="M916 471 c-4 -6 -2 -11 4 -11 6 0 8 -4 5 -10 -3 -5 -1 -10 4 -10 13
0 14 10 2 29 -6 9 -11 10 -15 2z"/>
<path d="M1420 470 l35 -7 -37 -2 c-21 0 -38 -6 -38 -12 0 -6 8 -8 18 -6 9 3
30 8 46 12 23 5 27 8 15 16 -7 5 -27 8 -44 8 -30 -2 -30 -2 5 -9z"/>
<path d="M68 463 c7 -3 16 -2 19 1 4 3 -2 6 -13 5 -11 0 -14 -3 -6 -6z"/>
<path d="M851 450 c14 -31 19 -36 19 -24 0 6 -7 19 -16 30 -14 18 -14 18 -3
-6z"/>
<path d="M13 453 c9 -2 23 -2 30 0 6 3 -1 5 -18 5 -17 0 -22 -2 -12 -5z"/>
<path d="M885 450 c-3 -5 -1 -10 6 -10 8 0 7 -5 -2 -17 -13 -16 -12 -17 3 -5
9 8 14 20 11 28 -6 17 -10 17 -18 4z"/>
<path d="M1485 450 c3 -5 8 -10 11 -10 2 0 4 5 4 10 0 6 -5 10 -11 10 -5 0 -7
-4 -4 -10z"/>
<path d="M7 433 c7 -2 19 -2 26 0 6 3 1 5 -13 5 -14 0 -19 -2 -13 -5z"/>
<path d="M706 423 c-6 -14 -5 -15 5 -6 7 7 10 15 7 18 -3 3 -9 -2 -12 -12z"/>
<path d="M780 433 c0 -6 4 -15 10 -18 11 -7 55 14 46 22 -3 3 -13 0 -22 -7
-13 -12 -17 -11 -25 1 -5 9 -9 10 -9 2z"/>
<path d="M1433 428 c21 -7 32 -7 40 1 8 8 0 11 -28 10 -40 -1 -40 -1 -12 -11z"/>
<path d="M937 419 c7 -7 15 -10 18 -7 3 3 -2 9 -12 12 -14 6 -15 5 -6 -5z"/>
<path d="M1491 425 c-2 -5 -3 -13 -2 -17 0 -5 -10 -8 -24 -8 -14 0 -25 5 -25
10 0 15 -27 12 -33 -4 -4 -9 -1 -13 6 -11 7 2 28 0 47 -4 19 -5 28 -9 20 -10
-13 -1 -13 -2 0 -11 11 -7 7 -10 -17 -10 -18 0 -33 -4 -33 -10 0 -5 15 -7 33
-5 23 4 26 3 13 -3 -11 -5 -15 -11 -10 -15 22 -13 35 10 31 59 -2 27 -5 45 -6
39z"/>
<path d="M7 413 c7 -2 19 -2 26 0 6 3 1 5 -13 5 -14 0 -19 -2 -13 -5z"/>
<path d="M1124 407 c3 -10 6 -21 6 -24 0 -3 7 1 17 8 13 11 17 11 21 1 3 -10
7 -10 18 -1 8 6 14 17 14 23 0 6 -5 4 -10 -4 -9 -13 -11 -13 -20 0 -9 13 -11
13 -20 0 -9 -13 -11 -13 -21 0 -9 13 -10 12 -5 -3z"/>
<path d="M1224 412 c3 -5 0 -12 -6 -15 -7 -2 -10 -7 -7 -11 3 -4 12 0 18 8 9
11 9 16 0 22 -7 4 -9 3 -5 -4z"/>
<path d="M7 393 c7 -2 19 -2 26 0 6 3 1 5 -13 5 -14 0 -19 -2 -13 -5z"/>
<path d="M1310 391 c0 -5 6 -12 13 -15 6 -3 -1 -3 -18 0 -21 4 -26 3 -16 -4
11 -8 11 -10 0 -14 -10 -3 -10 -6 -1 -12 7 -4 12 -2 12 3 0 15 27 14 33 -1 4
-10 7 -10 18 0 11 10 10 12 -6 13 -11 0 -14 3 -8 6 10 3 10 8 -1 19 -17 16
-26 18 -26 5z"/>
<path d="M7 373 c7 -2 19 -2 26 0 6 3 1 5 -13 5 -14 0 -19 -2 -13 -5z"/>
<path d="M1074 368 c2 -8 18 -13 39 -14 33 -1 35 0 19 12 -20 16 -36 18 -27 4
3 -5 0 -10 -9 -10 -8 0 -17 5 -19 10 -3 6 -4 5 -3 -2z"/>
<path d="M1239 372 c11 -8 11 -10 0 -14 -10 -3 -9 -6 3 -10 11 -5 15 -2 14 10
-2 9 -9 18 -17 20 -12 3 -12 2 0 -6z"/>
<path d="M7 353 c7 -2 19 -2 26 0 6 3 1 5 -13 5 -14 0 -19 -2 -13 -5z"/>
<path d="M7 333 c7 -2 19 -2 26 0 6 3 1 5 -13 5 -14 0 -19 -2 -13 -5z"/>
<path d="M1099 333 c18 -4 21 -7 10 -13 -7 -5 -11 -11 -9 -14 3 -2 15 4 27 13
21 18 21 18 -15 18 -23 0 -28 -2 -13 -4z"/>
<path d="M1220 336 c0 -2 7 -7 16 -10 8 -3 12 -2 9 4 -6 10 -25 14 -25 6z"/>
<path d="M1207 319 c7 -7 15 -10 18 -7 3 3 -2 9 -12 12 -14 6 -15 5 -6 -5z"/>
<path d="M7 313 c7 -2 19 -2 26 0 6 3 1 5 -13 5 -14 0 -19 -2 -13 -5z"/>
<path d="M1144 311 c4 -5 1 -12 -4 -14 -6 -3 -5 -4 2 -3 15 3 23 26 8 26 -6 0
-9 -4 -6 -9z"/>
<path d="M7 293 c7 -2 19 -2 26 0 6 3 1 5 -13 5 -14 0 -19 -2 -13 -5z"/>
<path d="M7 273 c7 -2 19 -2 26 0 6 3 1 5 -13 5 -14 0 -19 -2 -13 -5z"/>
<path d="M7 253 c7 -2 19 -2 26 0 6 3 1 5 -13 5 -14 0 -19 -2 -13 -5z"/>
<path d="M7 233 c7 -2 19 -2 26 0 6 3 1 5 -13 5 -14 0 -19 -2 -13 -5z"/>
<path d="M7 213 c7 -2 19 -2 26 0 6 3 1 5 -13 5 -14 0 -19 -2 -13 -5z"/>
<path d="M7 193 c7 -2 19 -2 26 0 6 3 1 5 -13 5 -14 0 -19 -2 -13 -5z"/>
<path d="M7 173 c7 -2 19 -2 26 0 6 3 1 5 -13 5 -14 0 -19 -2 -13 -5z"/>
<path d="M7 153 c7 -2 19 -2 26 0 6 3 1 5 -13 5 -14 0 -19 -2 -13 -5z"/>
<path d="M7 133 c7 -2 19 -2 26 0 6 3 1 5 -13 5 -14 0 -19 -2 -13 -5z"/>
<path d="M7 113 c7 -2 19 -2 26 0 6 3 1 5 -13 5 -14 0 -19 -2 -13 -5z"/>
<path d="M7 93 c7 -2 19 -2 26 0 6 3 1 5 -13 5 -14 0 -19 -2 -13 -5z"/>
<path d="M7 73 c7 -2 19 -2 26 0 6 3 1 5 -13 5 -14 0 -19 -2 -13 -5z"/>
<path d="M7 53 c7 -2 19 -2 26 0 6 3 1 5 -13 5 -14 0 -19 -2 -13 -5z"/>
<path d="M7 33 c7 -2 19 -2 26 0 6 3 1 5 -13 5 -14 0 -19 -2 -13 -5z"/>
<path d="M7 13 c7 -2 19 -2 26 0 6 3 1 5 -13 5 -14 0 -19 -2 -13 -5z"/>
</g>
</svg>
