<?xml version="1.0" standalone="no"?>
<!DOCTYPE svg PUBLIC "-//W3C//DTD SVG 20010904//EN"
 "http://www.w3.org/TR/2001/REC-SVG-20010904/DTD/svg10.dtd">
<svg version="1.0" xmlns="http://www.w3.org/2000/svg"
 width="210.000000pt" height="200.000000pt" viewBox="0 0 210.000000 200.000000"
 preserveAspectRatio="xMidYMid meet">
<metadata>
Created by potrace 1.16, written by Peter Selinger 2001-2019
</metadata>
<g transform="translate(0.000000,200.000000) scale(0.100000,-0.100000)"
fill="#000000" stroke="none">
<path d="M0 1000 l0 -1000 1050 0 1050 0 0 1000 0 1000 -1050 0 -1050 0 0
-1000z m1118 772 c3 -97 2 -102 -18 -102 -19 0 -20 6 -20 106 0 95 2 105 18
102 15 -3 17 -17 20 -106z m-374 -95 c42 -72 49 -97 26 -97 -16 0 -112 170
-106 187 9 22 20 9 80 -90z m796 86 c0 -12 -104 -183 -112 -183 -18 0 -17 24
3 58 60 101 82 132 95 132 8 0 14 -3 14 -7z m-1028 -367 c21 -12 38 -24 38
-28 0 -22 -31 -14 -116 32 -78 43 -93 54 -83 66 10 12 20 9 68 -18 31 -17 73
-41 93 -52z m1323 48 c-31 -23 -163 -94 -175 -94 -5 0 -10 6 -10 13 0 20 183
118 195 106 7 -7 3 -15 -10 -25z m-610 -9 c203 -53 322 -233 286 -430 -12 -64
-59 -167 -140 -305 -33 -54 -56 -109 -66 -154 -26 -114 -11 -106 -204 -106
-135 0 -171 3 -181 14 -6 8 -18 44 -25 79 -15 71 -38 121 -114 246 -81 134
-96 179 -96 296 0 89 3 106 28 156 46 94 146 174 257 205 63 17 185 17 255 -1z
m-770 -385 c0 -12 -20 -16 -104 -18 -101 -3 -131 4 -116 27 4 8 42 11 113 9
87 -2 107 -6 107 -18z m1505 0 c0 -19 -7 -20 -110 -20 -103 0 -110 1 -110 20
0 19 7 20 110 20 103 0 110 -1 110 -20z m-1413 -316 c2 -5 -11 -17 -29 -26
-18 -9 -61 -33 -95 -52 -50 -28 -64 -32 -72 -22 -9 11 7 24 76 64 87 49 113
57 120 36z m1209 -30 c87 -47 102 -60 88 -74 -11 -11 -194 91 -194 108 0 20
18 14 106 -34z m-498 -401 l-3 -108 -149 -3 c-101 -2 -153 1 -162 9 -10 8 -14
38 -14 110 l0 99 165 0 166 0 -3 -107z m-78 -142 c0 -36 -98 -54 -138 -25 -38
26 -25 34 58 34 44 0 80 -4 80 -9z"/>
<path d="M963 1381 c-109 -40 -190 -119 -218 -215 -33 -111 -12 -198 90 -379
76 -133 95 -176 115 -254 l11 -43 139 0 139 0 11 58 c14 65 26 90 122 258 83
147 106 232 87 323 -6 31 -18 69 -26 84 -20 40 -82 106 -124 133 -87 55 -246
71 -346 35z m15 -363 c9 -9 15 -9 23 -1 9 9 16 9 31 0 15 -10 20 -9 28 2 7 12
11 13 25 1 11 -9 19 -10 27 -2 8 8 16 7 30 -1 15 -10 20 -9 28 2 7 12 11 13
25 1 12 -10 19 -10 27 -2 16 16 28 15 28 -2 0 -25 -20 -29 -149 -31 -124 -2
-151 4 -151 31 0 17 12 18 28 2z m205 -266 c-32 -154 -40 -182 -55 -182 -21 0
-22 6 -9 46 5 16 26 92 46 169 21 77 40 144 42 148 15 25 9 -17 -24 -181z
m-142 -5 c38 -140 44 -173 32 -175 -8 -2 -17 -2 -19 1 -5 4 -74 333 -74 351 0
33 21 -28 61 -177z"/>
</g>
</svg>
